<svg width="320" height="320" viewBox="0 0 320 320" fill="none" xmlns="http://www.w3.org/2000/svg">
<rect width="320" height="320" rx="12" fill="#FCF0E1"/>
<path d="M281.198 91.415H166.18V163.034H281.198V91.415Z" fill="white"/>
<path d="M280.506 161.648H170.149C168.637 161.648 167.125 161.585 165.677 161.648H165.488L167.125 163.978V93.4304C167.188 93.1154 167.188 92.8005 167.125 92.4855C167.125 92.4226 167.125 92.4226 167.125 92.3596L166.873 92.7375H277.23C278.742 92.7375 280.254 92.8005 281.703 92.7375H281.892L280.254 90.4069V153.207C280.254 156.105 280.128 159.065 280.254 161.963V162.089C280.38 162.844 280.695 163.474 281.262 163.978C281.514 164.23 282.207 164.734 282.207 164.041V101.304C282.207 98.4065 282.333 95.509 282.207 92.6115C282.207 92.5485 282.207 92.5485 282.207 92.4855C282.207 91.8557 281.325 90.1549 280.569 90.1549H170.149C168.637 90.1549 167.188 90.092 165.677 90.1549H165.488C165.299 90.1549 165.236 90.3439 165.236 90.5329V153.333C165.236 156.231 165.11 159.191 165.236 162.089C165.236 162.152 165.236 162.152 165.236 162.215C165.236 162.844 166.118 164.545 166.873 164.545H277.23C278.742 164.545 280.191 164.608 281.703 164.545H281.892C282.585 164.356 281.325 161.648 280.506 161.648Z" fill="#F2713A"/>
<path d="M274.966 96.2655C274.903 96.2025 274.84 96.1395 274.777 96.0765C274.274 95.6986 273.644 95.5726 273.014 95.6986C271.943 95.9506 271.313 96.9584 271.502 98.0292C271.565 98.4071 271.817 98.7851 272.132 99.1C272.951 99.9189 274.211 99.9189 275.029 99.1C275.218 98.9111 275.344 98.6591 275.407 98.3442C275.659 97.5883 275.47 96.8324 274.966 96.2655Z" fill="#F2713A"/>
<path d="M273.579 100.36C272.886 100.36 272.194 100.108 271.69 99.6037C270.934 98.9108 270.619 97.903 270.934 96.8951C271.186 96.0133 271.942 95.3204 272.886 95.1315C273.705 94.9425 274.524 95.1314 275.154 95.6354C275.28 95.6983 275.343 95.8243 275.406 95.8873C276.036 96.5802 276.288 97.588 276.036 98.4699C275.91 98.8478 275.721 99.2257 275.469 99.5407C275.028 100.045 274.335 100.36 273.579 100.36ZM273.579 96.3282C273.453 96.3282 273.264 96.3282 273.138 96.3912C272.697 96.5172 272.32 96.8322 272.194 97.2731C272.068 97.777 272.194 98.3439 272.634 98.6588C273.201 99.2257 274.083 99.2257 274.65 98.7218L274.713 98.6588C274.839 98.5329 274.902 98.4069 274.965 98.2179C275.154 97.714 275.028 97.1471 274.65 96.7062L274.587 96.6432C274.587 96.5802 274.524 96.5802 274.524 96.5802C274.146 96.3912 273.831 96.3282 273.579 96.3282Z" fill="#F2713A"/>
<path d="M219.471 96.5172C222.746 96.5802 257.957 97.966 260.792 96.3912C265.012 93.9976 269.043 89.3994 263.689 81.2108C254.556 67.2272 220.164 54.2515 204.038 55.8892C187.913 57.5269 184.008 89.0215 184.008 89.0215L219.471 96.5172Z" fill="#000005"/>
<path d="M219.092 97.7774C222.872 97.8404 226.714 98.0293 230.493 98.0923C236.666 98.2813 242.776 98.4073 248.886 98.3443C251.469 98.3443 254.051 98.2813 256.634 98.1553C258.146 98.1553 259.657 97.9663 261.043 97.5254C262.366 96.9585 263.626 96.0767 264.634 95.0688C265.893 93.935 266.775 92.5493 267.342 90.9116C268.665 86.9432 266.775 82.723 264.508 79.5105C260.665 74.2824 254.744 70.3141 249.075 67.1646C242.146 63.2593 234.777 60.1728 227.155 57.9052C220.541 55.8896 213.549 54.3778 206.621 54.4408C203.786 54.3778 201.015 55.0077 198.495 56.3305C196.101 57.7163 193.96 59.6059 192.322 61.8735C188.858 66.4088 186.653 71.8888 185.078 77.3059C184.007 81.0223 183.189 84.7386 182.622 88.581C182.622 88.7699 182.559 88.9589 182.559 89.1479C182.496 89.7778 183.189 90.1557 183.693 90.2187L195.66 92.7382L214.746 96.7696L219.092 97.7774C219.911 97.8404 220.73 97.3994 220.982 96.6436C221.234 95.8247 220.604 95.3838 219.911 95.1948L207.943 92.6753L188.858 88.644L184.448 87.6991L185.582 88.7699L185.645 88.203C185.708 87.9511 185.708 87.7621 185.771 87.5101C185.771 87.4472 185.771 87.3842 185.771 87.3212C185.771 87.2582 185.708 87.6361 185.771 87.3842C185.771 87.1952 185.834 87.0692 185.834 86.8803C186.149 85.0536 186.527 83.2269 186.968 81.4002C188.228 76.2981 189.865 71.133 192.385 66.6607C193.078 65.4639 193.771 64.3301 194.59 63.1963C195.031 62.6294 195.283 62.2515 195.723 61.8106C196.164 61.3696 196.605 60.9287 197.046 60.4878C197.298 60.2988 197.487 60.0469 197.739 59.8579L198.117 59.5429L198.306 59.417C198.117 59.5429 198.495 59.291 198.306 59.417C198.81 59.039 199.314 58.7241 199.881 58.4091C200.133 58.2832 200.385 58.1572 200.7 57.9682L200.637 58.0312L200.889 57.9052L201.329 57.7163C201.581 57.5903 201.896 57.5273 202.148 57.4013L202.526 57.2753L202.778 57.2123C202.652 57.2123 202.652 57.2123 202.778 57.2123C205.424 56.7714 208.132 56.7714 210.778 57.0864C214.053 57.4013 217.266 57.9682 220.478 58.7871C227.911 60.6138 235.092 63.1963 241.958 66.4718C248.004 69.3693 254.114 72.8967 258.902 77.6208C261.295 80.0144 263.5 82.786 264.445 86.1244C265.326 89.0219 264.319 92.1084 261.925 93.935C261.736 94.124 261.547 94.25 261.295 94.439C260.98 94.6279 260.665 94.8169 260.35 95.0688C260.287 95.1318 260.035 95.1948 260.035 95.2578C260.035 95.3208 260.476 95.1318 260.287 95.1318C260.161 95.1318 260.098 95.1948 259.972 95.1948C259.657 95.3208 260.413 95.1318 259.972 95.1948L259.532 95.2578C259.217 95.3208 258.839 95.3208 258.524 95.3838C256.445 95.5728 254.303 95.6357 252.225 95.6357C250.839 95.6357 249.957 95.6987 248.445 95.6987C246.934 95.6987 245.485 95.6987 244.036 95.6987C241.013 95.6358 237.926 95.6358 234.903 95.5728C230.368 95.4468 225.769 95.3208 221.234 95.1948C220.793 95.1948 220.352 95.1318 219.911 95.1318C219.092 95.0689 218.337 95.5098 218.022 96.2656C217.896 96.8955 218.274 97.4624 218.84 97.6514C218.903 97.7774 219.029 97.7774 219.092 97.7774Z" fill="#000005"/>
<path d="M208.512 96.8326C208.953 96.8326 207.945 95.8247 207.882 95.8247C207.441 95.4468 206.748 94.8799 206.182 94.8799C205.741 94.8799 206.748 95.8247 206.811 95.8877C207.252 96.2656 207.945 96.8326 208.512 96.8326Z" fill="#000005"/>
<path d="M196.415 94.1867C196.415 94.1867 199.628 101.179 208.572 95.3835C208.572 95.3835 220.288 95.5095 220.477 96.3283L214.871 81.8408C214.871 81.8408 198.179 81.9038 190.305 83.9195C182.432 85.9351 179.471 89.7775 180.479 90.9113C181.487 92.0451 189.739 88.5807 189.739 88.5807C189.739 88.5807 187.975 91.7301 189.424 94.2497C190.872 96.7693 192.825 96.1394 192.825 96.1394C192.825 96.1394 197.108 100.045 198.494 97.0212" fill="white"/>
<path d="M195.73 94.1238C197.115 97.0843 200.076 99.3519 203.414 99.037C204.863 98.911 206.249 98.47 207.509 97.8402C207.949 97.5882 208.39 97.3992 208.768 97.1473C208.894 97.0843 209.146 96.8323 209.272 96.7693C209.461 96.7693 209.65 96.7693 209.776 96.7693C211.666 96.7693 213.492 96.8323 215.382 96.9583C216.579 97.0213 217.713 97.0843 218.91 97.2103C219.35 97.2733 219.791 97.2733 220.232 97.3992C220.421 97.4622 220.547 97.4622 220.736 97.5252C220.547 97.5252 220.925 97.5882 220.736 97.5252L220.799 97.5882C220.232 97.2103 219.791 96.6434 219.665 95.9505L221.366 96.8323L216.453 84.1085L215.76 82.2818C215.571 81.7779 215.004 80.4551 214.311 80.4551C207.634 80.3922 200.958 80.8331 194.344 81.7149C189.935 82.3448 185.21 83.4156 181.683 86.2501C180.738 87.006 179.604 88.0138 179.478 89.2736C179.352 90.6594 180.486 92.5491 181.998 92.6121C183.699 92.675 185.588 91.9192 187.163 91.3523C188.36 90.9113 189.494 90.4704 190.627 90.0295L188.927 87.4469C187.793 89.5256 187.73 92.0452 188.738 94.1868C189.557 95.8875 191.446 98.3441 193.651 97.5882L193.084 97.3992C194.596 98.785 198.06 101.116 199.446 98.3441C199.824 97.5252 197.997 95.1946 197.619 95.8875C196.548 98.0291 193.84 96.1394 192.643 95.0686C192.517 94.8797 192.265 94.8167 192.076 94.8797C191.383 95.1316 190.186 94.7537 189.998 93.8718C189.809 92.4861 190.06 91.1003 190.753 89.9035C191.068 89.2736 189.872 86.943 189.053 87.321C186.785 88.3288 184.454 89.1476 181.998 89.7146C181.431 89.8405 180.927 89.7775 180.36 89.8405C180.234 89.8405 180.234 89.7775 180.423 89.9665C180.801 90.4074 181.116 90.8484 181.305 91.4153C181.368 91.6042 181.242 91.5412 181.305 91.3523C181.242 91.4783 181.305 91.2893 181.368 91.2263C181.809 90.0295 182.943 89.1476 183.951 88.4548C187.478 86.0612 191.761 85.0533 195.918 84.4864C199.95 83.9195 204.044 83.6676 208.138 83.4786C210.595 83.3526 213.052 83.2897 215.508 83.2897L214.059 81.463L218.973 94.1868L219.665 96.0135C219.917 96.5804 220.295 97.5252 220.925 97.7772C221.555 98.0291 221.492 97.2733 221.303 96.8953C221.051 95.8875 220.232 95.0686 219.162 94.7537C218.343 94.5647 217.587 94.5017 216.768 94.4387C214.626 94.2498 212.422 94.1868 210.217 94.1238L208.201 94.0608C208.075 94.0608 208.012 94.0608 207.886 94.0608C207.509 94.1868 207.068 94.4387 206.753 94.6907C206.312 94.9426 205.871 95.1946 205.367 95.3836C203.225 96.3284 200.706 96.8323 198.564 95.6985C198.249 95.5096 197.934 95.2576 197.619 95.0056C197.367 94.8167 197.808 95.1946 197.556 94.9427L197.367 94.7537C197.304 94.6907 197.241 94.6277 197.178 94.5647C196.989 94.3757 197.367 94.8167 197.241 94.6277C197.178 94.5017 197.052 94.3757 196.989 94.2498C196.926 94.1238 197.241 94.6277 196.989 94.2498C196.926 94.1868 196.8 93.8718 196.989 94.1868C197.178 94.5017 197.052 94.3758 197.052 94.3128C196.863 93.8718 196.296 92.801 195.73 92.864C195.163 92.927 195.541 93.9348 195.667 94.1868L195.73 94.1238Z" fill="#000005"/>
<path d="M193.711 89.7148C193.711 89.7148 190.561 92.6123 192.829 96.2027L193.711 89.7148Z" fill="white"/>
<path d="M192.515 88.8323C191.822 89.5252 191.255 90.344 190.877 91.2259C190.184 92.9266 190.373 94.8793 191.318 96.391C191.696 97.0839 192.515 97.4618 193.334 97.3359C193.649 97.2729 193.964 97.1469 194.216 96.8319C194.405 96.58 194.405 96.202 194.279 95.9501C193.964 95.5721 193.775 95.1312 193.649 94.6273C193.649 94.8163 193.649 94.6903 193.649 94.5643C193.649 94.4383 193.586 94.3754 193.586 94.3124C193.523 94.1234 193.523 93.8714 193.523 93.6825V93.4305C193.523 93.1786 193.46 93.6825 193.523 93.3675C193.523 93.1786 193.586 93.0526 193.586 92.8636C193.649 92.5487 193.775 92.2337 193.901 91.9188C193.964 91.8558 193.901 91.8558 193.838 92.0448L193.901 91.9188L193.964 91.7298C194.027 91.6038 194.09 91.4779 194.153 91.3519C194.216 91.2259 194.405 90.9739 194.531 90.785C194.657 90.596 194.72 90.533 194.846 90.407C194.972 90.2811 194.531 90.659 194.783 90.47C195.035 90.2811 195.16 89.9661 195.16 89.6512C195.097 89.3362 194.909 89.0213 194.594 88.8323C194.153 88.5174 193.082 88.2654 192.515 88.8323Z" fill="#000005"/>
<path d="M231.314 79.5732C229.235 79.6992 227.157 79.9512 225.078 80.1401C222.181 80.4551 219.283 80.77 216.386 81.022L214.748 81.148L214.118 81.211C213.992 81.211 213.866 81.211 214.055 81.211H213.866C213.299 81.211 213.236 81.4629 213.74 81.7779C214.433 82.1558 215.126 82.3448 215.882 82.3448C217.96 82.2188 220.039 81.9668 222.118 81.7779C225.015 81.4629 227.913 81.148 230.81 80.896L232.448 80.707L233.078 80.6441C233.204 80.6441 233.393 80.6441 233.141 80.6441H233.33C233.897 80.6441 233.96 80.3921 233.456 80.0772C232.826 79.7622 232.07 79.5732 231.314 79.5732Z" fill="#000005"/>
<path d="M179.034 65.8418C179.034 65.8418 164.798 57.4012 171.16 44.4255C177.522 31.4497 197.301 28.3632 209.143 41.087C220.985 53.8108 206.119 68.9912 206.119 68.9912L179.034 65.8418Z" fill="white"/>
<path d="M179.223 65.5896C178.908 65.4006 179.349 65.6526 179.286 65.6526L178.593 65.1486L178.467 65.0857L178.341 64.9597L177.774 64.5187C177.27 64.0778 177.207 64.0148 176.703 63.5739C174.561 61.6842 172.924 59.3536 171.853 56.7081C169.081 49.5273 173.113 41.8426 179.097 37.7483C185.459 33.5281 193.521 32.6462 200.639 35.4807C204.355 36.9925 207.568 39.575 209.772 42.9135C211.914 46.1889 212.796 50.1572 212.166 54.0625C211.599 57.338 210.339 60.4244 208.576 63.196C207.442 64.8337 206.245 66.4714 204.985 67.9832C204.922 68.0461 204.859 68.1091 204.796 68.2351L205.048 68.1721L195.915 67.1013L181.427 65.4006L178.026 65.0227C177.396 64.9597 178.089 65.5896 178.278 65.7155C178.782 66.2195 179.475 66.5344 180.168 66.7234L200.45 69.054L205.363 69.6209L206.812 69.8098C207.064 69.8728 207.316 69.8728 207.568 69.8098C207.757 69.7468 207.883 69.4319 208.009 69.3059C208.387 68.865 208.765 68.4241 209.143 67.9202C210.402 66.3454 211.536 64.6447 212.481 62.818C214.938 58.1568 216.134 52.6138 214.245 47.5117C212.985 44.4252 211.032 41.7796 208.513 39.638C205.993 37.3704 203.096 35.5437 200.009 34.2209C194.655 31.8903 188.671 31.5124 183.065 33.0241C177.837 34.4729 173.302 37.8743 170.53 42.5985C169.018 45.1181 168.263 48.0156 168.389 50.9131C168.515 53.3697 169.27 55.7003 170.53 57.7789C172.483 60.9284 175.128 63.5739 178.215 65.5896C178.467 65.7785 178.782 65.9675 179.034 66.0935C179.286 66.2195 180.357 66.9123 180.545 66.5974C180.734 66.2824 179.349 65.6525 179.223 65.5896Z" fill="#000005"/>
<path d="M188.419 76.4869C180.798 74.9751 170.467 55.5744 170.467 55.5744C169.649 49.0866 185.9 40.0791 185.9 40.0791C187.475 45.9371 193.899 52.425 193.899 52.425C192.388 47.2599 198.183 45.1812 201.08 49.1495C203.978 53.1179 200.45 57.8421 200.45 57.8421C200.45 57.8421 208.261 64.7709 209.143 66.5346C210.025 68.2983 204.86 76.2349 197.679 75.0381C197.742 74.9121 195.033 77.8096 188.419 76.4869Z" fill="white"/>
<path d="M187.409 75.542C187.094 75.479 186.842 75.416 186.527 75.2901C186.338 75.2271 186.212 75.1641 186.024 75.0381C186.149 75.1011 185.52 74.7862 185.772 74.9121C185.709 74.8491 185.268 74.5972 185.52 74.7862L185.142 74.4712C184.953 74.3452 184.575 74.0303 184.323 73.7783C182.811 72.3926 181.488 70.9438 180.229 69.3061C177.772 66.1566 175.567 62.8182 173.552 59.3538C172.985 58.409 172.481 57.5271 171.977 56.5823C171.536 55.7634 171.851 54.7556 172.166 53.9367C172.922 52.299 173.993 50.8503 175.252 49.5905C176.701 48.1417 178.276 46.756 179.977 45.5592C182.307 43.7955 184.701 42.2207 187.22 40.835L184.638 39.1343C185.52 42.2837 187.346 45.1182 189.299 47.6378C190.37 49.0866 191.567 50.4723 192.889 51.7951C193.33 52.236 193.834 52.614 194.401 52.9289C194.464 52.9919 195.283 53.3698 195.22 53.0549C194.779 51.4172 194.968 49.5905 196.354 48.5197C196.921 48.0787 197.614 47.8268 198.369 47.8268C198.684 47.8268 199.062 47.8268 199.377 47.9528C199.566 48.0157 199.692 48.0787 199.881 48.1417C199.881 48.1417 199.566 47.9528 199.566 47.8898C199.692 47.8268 200.259 48.8346 200.322 48.9606C200.574 49.4015 200.763 49.9054 200.826 50.4723C201.015 51.4801 200.952 52.551 200.637 53.5588C200.322 54.6926 199.881 55.7634 199.188 56.7083C199.062 56.8972 199.566 57.3381 199.692 57.4011C201.141 58.6609 202.527 59.9207 203.912 61.2435C204.92 62.1883 205.865 63.1332 206.81 64.141C207.314 64.6449 208.007 65.2748 208.07 65.9047C208.133 66.7865 207.503 67.7944 207.062 68.5502C206.306 69.747 205.298 70.8178 204.227 71.6997C202.968 72.7705 201.456 73.4634 199.818 73.8413C198.999 74.0303 198.18 74.0933 197.362 73.9673C196.921 73.9043 196.732 73.8413 196.417 74.0303C195.661 74.5972 194.779 75.0381 193.897 75.3531C191.693 75.9829 189.488 76.0459 187.409 75.542C186.779 75.416 187.472 76.1089 187.598 76.2349C188.102 76.7388 188.732 77.1797 189.425 77.3687C192.385 77.9356 195.913 78.0616 198.495 76.2349C198.621 76.1719 198.81 75.857 198.999 75.857C199.251 75.857 199.503 75.92 199.755 75.9829C200.196 76.0459 200.7 76.0459 201.141 75.9829C202.842 75.794 204.416 75.2271 205.802 74.2822C207.062 73.4634 208.196 72.3926 209.141 71.1328C209.833 70.2509 210.337 69.2431 210.526 68.1723C210.652 67.2904 210.085 66.6605 209.519 66.0307C208.637 65.0228 207.692 64.078 206.747 63.1332C204.983 61.4324 203.157 59.7317 201.267 58.031L201.771 58.7239C203.472 56.3303 204.164 52.9289 202.653 50.3463C201.141 47.7638 196.795 44.7403 193.834 46.9449C192.385 48.0787 192.196 50.0314 192.7 51.6691L195.031 52.9289C193.897 51.7321 192.763 50.4723 191.756 49.1495C189.866 46.693 188.102 43.9844 187.22 40.898C187.094 40.394 186.338 39.9531 185.961 39.7012C185.709 39.5122 185.016 38.9453 184.638 39.1973C182.37 40.457 180.166 41.9058 178.087 43.4175C176.323 44.6773 174.622 46.0631 173.048 47.5748C171.662 48.8346 170.465 50.4093 169.646 52.11C169.268 52.9289 168.89 54.1887 169.331 55.0705C169.898 56.0784 170.465 57.0862 171.032 58.031C173.111 61.6844 175.504 65.1488 178.087 68.4872C179.662 70.5029 181.488 72.3926 183.441 74.0933C185.142 75.542 187.22 76.9908 189.425 77.4317C190.055 77.5577 189.362 76.8648 189.236 76.7388C188.732 76.1719 188.102 75.794 187.409 75.542Z" fill="#000005"/>
<path d="M186.59 65.5261C186.59 65.5261 178.402 73.7777 173.237 70.2503C168.071 66.7229 172.859 59.4792 181.047 59.6051" fill="white"/>
<path d="M185.397 65.2116C184.579 65.9674 183.76 66.7233 182.878 67.4162C181.996 68.0461 181.114 68.613 180.232 69.1169C179.854 69.3689 179.414 69.5578 178.973 69.6838C178.721 69.7468 178.532 69.8728 178.28 69.9358C178.595 69.8098 178.154 69.9358 178.154 69.9987C177.965 70.0617 177.776 70.1247 177.587 70.1247L177.335 70.1877C177.713 70.1247 177.272 70.1877 177.209 70.1877H176.768C176.327 70.1877 177.083 70.1877 176.642 70.1877C176.138 70.1877 175.697 70.1247 175.256 69.9358C174.374 69.5578 173.618 68.8649 173.115 68.0461C172.233 66.4714 172.863 64.5817 173.87 63.3849C175.634 61.2433 178.154 60.5504 180.862 60.5504C181.429 60.5504 182.5 60.1724 182.626 59.4796C182.752 58.7867 181.807 58.6607 181.303 58.6607C177.965 58.5977 174.752 59.7315 172.17 61.8731C170.469 63.3849 169.083 65.7785 169.776 68.1091C170.595 70.6916 173.304 72.0774 175.886 72.0774C178.721 72.0774 181.429 70.8176 183.76 69.2429C185.271 68.2351 186.657 67.1642 187.917 65.9045C188.232 65.7155 188.358 65.2746 188.106 64.9596C187.98 64.7706 187.791 64.6447 187.602 64.6447C186.846 64.4557 186.027 64.6447 185.46 65.1486L185.397 65.2116Z" fill="#000005"/>
<path d="M193.205 60.613C194.149 61.9988 194.275 63.8254 193.583 65.3372C193.52 65.4632 193.897 65.5891 193.897 65.5891C194.149 65.7151 194.464 65.7781 194.716 65.7781C194.968 65.8411 195.283 65.8411 195.535 65.7781C195.661 65.7781 195.85 65.7151 195.913 65.5891C196.417 64.5183 196.48 63.3215 196.165 62.2507C196.039 61.6838 195.787 61.1799 195.472 60.739C195.346 60.613 195.157 60.55 194.968 60.487C194.653 60.424 194.401 60.361 194.086 60.361C193.96 60.2981 193.016 60.2981 193.205 60.613Z" fill="#000005"/>
<path d="M177.618 55.2747C178.435 54.9685 179.353 55.2746 179.659 56.091C179.659 56.1931 179.761 56.1931 179.761 56.2951C180.271 57.9279 178.23 58.5402 177.312 57.2136C176.802 56.7033 176.904 55.8869 177.414 55.3767C177.516 55.3767 177.618 55.2747 177.618 55.2747Z" fill="#000005"/>
<path d="M185.369 50.1614C186.185 49.8552 187.103 50.1614 187.409 50.9777C187.409 51.0798 187.512 51.1818 187.512 51.1818C188.022 52.8146 185.981 53.4269 185.062 52.2023C184.552 51.6921 184.552 50.8757 185.062 50.3655C185.266 50.2634 185.266 50.2634 185.369 50.1614Z" fill="#000005"/>
<path d="M50.7893 301.232C50.7893 301.232 46.1281 285.674 47.1989 273.958C48.2697 262.242 70.4419 244.353 70.4419 244.353L103.511 243.03L108.424 301.799" fill="white"/>
<path d="M52.3607 301.484C51.5419 298.775 50.912 296.004 50.3451 293.232C49.1483 287.752 48.5184 282.083 48.5814 276.477C48.5814 274.461 48.8963 272.509 49.5262 270.619C50.2191 268.792 51.101 267.092 52.1718 265.454C54.6284 261.738 57.3999 258.273 60.4864 255.124C63.1319 252.352 65.8404 249.77 68.7379 247.25C69.5568 246.557 70.3757 245.801 71.1945 245.108C71.3835 244.982 71.5725 244.793 71.7614 244.605C71.9504 244.353 71.2575 244.605 71.5095 244.605C72.0764 244.668 72.7063 244.542 73.2732 244.542L76.8635 244.416L87.2568 243.975C92.9258 243.723 98.5318 243.597 104.201 243.282H104.516L101.87 242.652L102.374 248.447L103.571 262.493L105.02 279.438L106.217 294.114L106.594 298.964C106.594 299.72 106.657 300.539 106.783 301.295C106.783 301.358 106.783 301.358 106.783 301.421C106.846 302.051 109.933 302.114 109.87 301.925L109.366 296.13L108.169 282.083L106.783 265.076L105.524 250.4L105.146 245.549C105.146 244.793 105.083 243.975 104.957 243.219C104.957 243.156 104.957 243.156 104.957 243.093C104.894 242.526 102.752 242.463 102.374 242.463L87.6977 243.03L69.8717 243.723C69.4938 243.66 69.1159 243.723 68.7379 243.912C68.171 244.29 67.6041 244.793 67.1002 245.234C64.5177 247.439 62.0611 249.707 59.6675 252.1C56.518 255.187 53.5575 258.525 50.912 262.053C48.6444 265.139 46.3768 268.603 45.6839 272.446C45.306 275.028 45.243 277.611 45.4949 280.193C45.6839 283.028 45.9988 285.862 46.4398 288.697C47.0697 292.602 47.8885 296.445 48.9593 300.287L49.1483 300.917C49.2743 301.295 50.3451 301.421 50.66 301.484C50.849 301.547 52.3607 301.736 52.3607 301.484Z" fill="#000005"/>
<path d="M152.829 240.951C152.829 240.951 166.561 212.354 169.08 208.638C171.6 204.921 178.402 194.528 175.379 188.481C172.356 182.434 166.561 178.34 164.041 179.726C164.041 179.726 161.269 175.568 157.931 176.639C155.663 174.75 152.514 174.309 149.805 175.442C145.144 177.332 137.208 184.828 139.475 187.662C141.743 190.497 149.553 184.261 149.553 184.261C149.553 184.261 149.05 187.032 150.939 188.292C150.939 188.292 147.097 189.3 146.971 193.079C146.845 196.859 149.49 197.426 149.49 197.426L134.625 227.22L152.829 240.951Z" fill="white"/>
<path d="M154.278 241.518C155.474 239.061 156.671 236.542 157.868 234.085C160.262 229.235 162.655 224.385 165.049 219.535C166.12 217.393 167.19 215.251 168.324 213.173C169.017 211.913 169.647 210.59 170.466 209.33C172.041 207.063 173.426 204.732 174.686 202.338C176.198 199.378 177.521 196.103 177.584 192.764C177.647 189.174 175.379 186.024 172.985 183.505C170.844 181.237 167.631 178.718 164.293 178.655C163.726 178.655 163.159 178.781 162.655 178.97L165.364 179.914C163.6 177.332 159.947 174.875 156.734 175.82L159.065 176.639C156.734 174.623 153.585 173.678 150.498 174.056C147.097 174.623 144.01 177.143 141.617 179.41C140.42 180.544 139.412 181.741 138.53 183.127C137.963 184.072 137.334 185.331 137.649 186.465C138.026 187.914 139.727 188.733 141.05 188.985C142.373 189.174 143.695 188.985 144.892 188.481C147.034 187.599 149.05 186.402 150.876 184.89L148.105 183.568C147.727 185.394 148.483 187.284 150.057 188.355L149.868 187.41C147.664 187.977 145.774 189.804 145.585 192.134C145.396 193.709 145.9 195.347 147.034 196.481C147.916 197.236 148.924 197.803 150.057 198.055L148.042 196.669L143.003 206.748L135.003 222.81L133.176 226.526C133.05 226.841 133.554 227.156 133.68 227.282L149.679 239.313L151.947 241.014C152.451 241.392 153.396 241.833 154.026 241.644C154.656 241.455 154.152 240.951 153.774 240.699L137.775 228.668L135.507 226.967L136.011 227.723L141.05 217.645L149.05 201.583L150.876 197.866C151.191 197.173 149.239 196.606 148.861 196.481C149.49 196.606 149.302 196.606 149.176 196.543C149.05 196.481 148.987 196.543 149.239 196.543C149.491 196.543 149.365 196.606 149.302 196.543C149.05 196.418 149.679 196.732 149.365 196.606C149.553 196.669 149.553 196.795 149.428 196.606C149.302 196.418 149.553 196.732 149.365 196.606C149.239 196.481 149.113 196.355 148.987 196.166C148.294 194.969 148.105 193.457 148.609 192.134C148.987 191.063 149.679 190.182 150.624 189.615C151.002 189.426 151.317 189.237 151.695 189.048C151.758 189.048 152.073 188.922 151.884 188.985L152.01 188.922C152.64 188.733 152.136 188.229 151.821 187.977C150.939 187.347 150.75 185.709 150.939 184.702C151.065 183.883 148.735 182.938 148.168 183.379C146.53 184.702 144.766 185.772 142.877 186.654C142.31 186.906 141.68 187.158 141.05 187.284C140.798 187.347 140.546 187.347 140.294 187.41C140.231 187.41 140.168 187.41 140.105 187.41C139.916 187.41 140.168 187.41 140.168 187.41C140.168 187.41 139.979 187.347 140.231 187.41C140.357 187.473 140.483 187.536 140.609 187.536C140.987 187.725 140.735 187.725 140.609 187.41C140.546 187.221 140.483 187.032 140.483 186.78C140.483 186.213 140.609 185.646 140.861 185.142C142.184 182.119 145.144 179.599 147.79 177.773C149.239 176.702 150.876 175.946 152.64 175.568C153.459 175.442 154.341 175.442 155.16 175.631C155.286 175.631 155.411 175.694 155.537 175.757L155.789 175.883C156.041 176.009 155.6 175.757 155.852 175.883L156.23 176.072C156.545 176.261 156.167 176.009 156.419 176.198C156.545 176.261 156.608 176.324 156.734 176.387C156.986 176.513 156.608 176.261 156.671 176.387C156.986 176.639 157.364 176.828 157.742 177.017C158.183 177.206 158.624 177.332 159.128 177.269C159.38 177.206 159.632 177.143 159.884 177.08C160.01 177.08 160.136 177.08 160.325 177.08C160.388 177.08 160.451 177.08 160.514 177.143C161.395 177.647 162.214 178.403 162.718 179.284C163.159 179.914 164.671 180.607 165.427 180.229C165.742 180.103 166.057 180.04 166.372 180.103L166.561 180.166C166.561 180.166 167.064 180.355 166.75 180.229C167.001 180.292 167.19 180.418 167.442 180.544C168.765 181.363 169.962 182.371 170.97 183.505C172.293 184.89 173.363 186.528 174.182 188.229C174.749 189.552 174.938 191 174.749 192.386C174.245 198.181 170.718 203.346 167.631 208.071C165.616 211.094 164.104 214.495 162.466 217.771C160.136 222.432 157.868 227.093 155.537 231.691C154.152 234.526 152.766 237.36 151.443 240.195C151.002 241.077 153.9 242.337 154.278 241.518Z" fill="#000005"/>
<path d="M158.748 181.679C155.095 184.639 154.528 189.804 156.669 193.836C157.929 196.355 160.071 198.245 162.779 199.19C164.921 199.82 168.008 199.505 169.078 197.111C169.96 195.159 168.952 192.702 167.819 191.064V192.828L169.078 191.694C169.708 191.127 169.393 190.119 168.826 189.678C168.196 189.175 167.252 189.175 166.622 189.741L165.362 190.875C164.921 191.379 164.921 192.135 165.362 192.639C165.488 192.891 165.488 192.828 165.425 192.702C165.551 192.954 165.74 193.269 165.866 193.521C165.929 193.71 165.992 193.836 166.055 194.025L166.118 194.277C166.244 194.718 166.118 194.151 166.181 194.403C166.244 194.592 166.244 194.781 166.307 194.97C166.307 195.096 166.307 195.159 166.307 195.284C166.307 195.41 166.307 195.221 166.307 195.41C166.307 195.473 166.181 195.977 166.244 195.725C166.181 195.977 166.181 195.914 166.055 196.103C165.929 196.229 165.803 196.292 165.677 196.355C165.677 196.355 165.362 196.481 165.551 196.418C165.74 196.355 165.362 196.481 165.362 196.481C165.047 196.607 164.732 196.607 164.48 196.607C164.165 196.607 164.48 196.607 164.165 196.607C163.913 196.544 163.724 196.544 163.535 196.481H163.472L163.094 196.355L162.527 196.04C162.15 195.851 161.835 195.599 161.52 195.347C160.764 194.718 160.197 193.962 159.693 193.143C158.622 191.253 158.244 188.86 159 186.844C159.189 186.403 159.378 185.962 159.63 185.521C159.819 185.269 160.008 185.017 160.197 184.765C160.386 184.513 160.575 184.324 160.764 184.135C160.89 184.009 161.331 183.631 160.764 184.135C161.394 183.694 161.52 182.876 161.142 182.246C161.142 182.183 161.079 182.183 161.079 182.183C160.512 181.553 159.378 181.175 158.748 181.679Z" fill="#000005"/>
<path d="M149.747 180.104C148.109 183.127 147.353 187.536 149.873 190.245C151.196 191.568 152.833 192.512 154.66 192.89C155.353 193.016 156.046 192.764 156.55 192.26C156.739 192.071 157.621 191.064 156.928 190.875C154.345 190.182 151.763 188.733 151.133 186.025C150.818 184.198 151.007 182.371 151.763 180.67C151.826 180.481 151.889 180.356 151.952 180.167C151.826 180.481 151.952 180.167 152.015 180.041C152.078 179.915 152.141 179.852 152.204 179.726C152.519 179.159 152.204 178.781 151.574 178.844C150.755 179.033 150.125 179.474 149.747 180.104Z" fill="#000005"/>
<path d="M149.432 199.189C151.07 200.323 152.833 201.331 154.723 202.024C156.046 202.59 157.495 202.842 158.943 202.716C160.518 202.528 162.219 201.331 162.597 199.819C162.912 198.685 162.534 197.425 161.715 196.607C160.896 195.725 158.943 196.733 159.951 197.803C160.014 197.929 159.762 197.551 159.888 197.74C160.014 197.929 160.077 197.992 160.14 198.181C160.14 198.244 160.203 198.244 160.203 198.307C160.14 198.181 160.266 198.433 160.203 198.307C160.266 198.37 160.266 198.496 160.266 198.622C160.266 198.685 160.329 199 160.329 198.811C160.329 198.937 160.329 199.063 160.329 199.189C160.14 199.819 159.699 200.323 159.132 200.638L159.006 200.701C158.88 200.764 159.132 200.638 159.006 200.701L158.691 200.827L158.502 200.89H158.377H158.251C158.377 200.89 158.062 200.89 157.999 200.89C157.936 200.89 157.747 200.89 157.558 200.89L157.306 200.827C157.432 200.827 157.243 200.827 157.18 200.827L156.928 200.764C156.361 200.638 155.794 200.449 155.227 200.197L155.038 200.134L154.597 199.945C154.345 199.819 154.03 199.693 153.778 199.567C153.274 199.315 152.833 199.063 152.393 198.811C151.952 198.559 151.322 198.181 150.818 197.803C150.314 197.488 149.621 197.614 149.18 198.055C148.676 198.37 148.991 198.874 149.432 199.189Z" fill="#000005"/>
<path d="M111.571 237.928C111.571 237.928 130.468 200.827 116.988 193.646C97.2095 183.19 37.7477 217.897 47.8889 258.399C47.8889 258.399 99.3511 283.847 111.571 237.928Z" fill="white"/>
<path d="M112.962 238.684C115.482 233.645 117.623 228.48 119.45 223.189C121.025 218.905 122.159 214.496 122.852 209.961C123.355 206.245 123.607 202.15 122.159 198.623C120.71 195.096 117.497 193.143 114.033 192.072C110.695 191.064 107.167 190.812 103.703 191.19C94.9473 192.072 86.4438 195.662 78.948 200.072C70.1296 205.174 62.3819 211.851 56.083 219.85C50.036 227.661 45.7527 237.046 45.3748 246.999C45.2488 249.455 45.4378 251.975 45.8157 254.431C45.9417 255.061 46.0047 255.691 46.1307 256.258C46.2567 256.825 46.2567 257.77 46.7606 258.211C47.0755 258.463 47.4534 258.715 47.8314 258.841C49.0282 259.471 50.351 259.974 51.6107 260.478C57.2168 262.746 63.0748 264.447 69.0587 265.455C76.5545 266.651 84.4911 266.714 91.7349 264.195C95.5772 262.872 99.0416 260.793 102.065 258.085C105.529 254.872 108.301 250.967 110.191 246.621C111.325 244.038 112.269 241.393 112.962 238.684C113.151 237.991 110.254 236.857 110.128 237.235C108.175 244.416 104.9 251.471 99.2936 256.573C94.8843 260.541 89.4043 263.124 83.5463 264.069C78.1292 264.951 72.5861 264.888 67.1691 263.88C64.6495 263.439 62.1929 262.935 59.7363 262.242C58.6655 261.927 57.9097 261.738 56.7129 261.36C55.768 261.045 54.8232 260.73 53.8783 260.415L52.6186 259.974L52.3036 259.848C51.9887 259.722 52.4926 259.911 52.3036 259.848L51.7367 259.659C51.1068 259.408 50.4769 259.156 49.847 258.904L48.5243 258.337L48.2723 258.211C47.9574 258.085 48.3983 258.274 48.3983 258.274L48.1463 258.148L48.0204 258.085L49.2171 259.03C47.7684 253.109 47.7054 246.936 49.0912 241.015C50.4769 235.157 52.9335 229.677 56.3349 224.7C59.7993 219.598 63.9566 214.937 68.6178 210.906C73.216 206.875 78.2552 203.347 83.6722 200.387C88.5224 197.678 93.6245 195.599 98.9786 194.088C103.325 192.954 107.86 192.198 112.332 192.765C112.773 192.828 113.088 192.891 113.592 192.954L114.285 193.08L114.6 193.143L114.726 193.206C114.915 193.269 114.474 193.143 114.789 193.206L115.356 193.395L115.671 193.521C115.86 193.584 115.419 193.458 115.797 193.584L116.364 193.836C115.923 193.647 116.553 193.899 116.679 194.025C116.427 193.899 116.553 193.962 116.679 194.025C116.805 194.088 116.49 193.899 116.742 194.088L116.994 194.277L117.182 194.466C117.497 194.718 117.812 195.033 118.064 195.411C118.631 196.166 119.072 196.985 119.387 197.867C121.025 202.402 120.206 207.693 119.198 212.229C118.001 217.52 116.364 222.685 114.285 227.661C113.025 230.747 111.702 233.834 110.254 236.794C110.191 236.92 110.128 237.109 110.002 237.235C109.939 237.739 112.71 239.188 112.962 238.684Z" fill="#000005"/>
<path d="M131.04 190.056C123.04 196.607 117.875 194.465 118.505 200.953C118.505 200.953 106.159 210.905 102.506 199.126C101.939 197.299 102.947 175.253 108.616 168.072C108.616 168.072 115.986 162.781 113.088 155.475C113.088 155.475 119.828 160.703 125.812 159.317C131.796 157.931 142.882 153.522 145.338 159.191C147.795 164.86 140.236 168.576 134.945 168.639L135.827 177.521C130.473 179.977 127.072 174.371 127.072 174.371C127.072 174.371 124.363 180.544 126.001 182.749C127.639 184.954 133.434 184.639 133.434 184.639C133.559 186.717 132.678 188.733 131.04 190.056Z" fill="white"/>
<path d="M130.153 189.237C128.453 190.623 126.626 191.82 124.673 192.764C123.35 193.394 121.965 193.961 120.642 194.654C119.445 195.221 118.374 196.103 117.681 197.237C117.051 198.496 116.863 199.945 117.051 201.331L117.681 200.071C117.429 200.26 117.24 200.386 116.989 200.575C116.737 200.764 116.485 200.953 116.233 201.079C115.981 201.205 116.611 200.827 116.296 201.016L116.044 201.142C115.855 201.268 115.666 201.394 115.477 201.457C114.658 201.961 113.776 202.339 112.894 202.717C112.453 202.906 113.209 202.591 112.768 202.78L112.39 202.906C112.138 202.969 111.886 203.032 111.697 203.095C111.508 203.158 111.194 203.221 111.005 203.284L110.627 203.347C110.942 203.284 110.564 203.347 110.501 203.347C110.249 203.347 109.997 203.41 109.682 203.41H109.304C108.863 203.41 109.493 203.41 109.241 203.41C108.8 203.347 108.422 203.284 107.981 203.158C107.036 202.843 106.217 202.213 105.65 201.394C104.643 200.071 104.076 198.496 104.139 196.796C104.139 194.78 104.202 193.079 104.391 191.001C104.643 188.292 104.958 185.521 105.398 182.812C105.839 179.978 106.469 177.206 107.288 174.498C107.603 173.364 108.044 172.23 108.548 171.096C108.8 170.592 109.052 170.088 109.304 169.584C109.43 169.458 109.493 169.27 109.556 169.144C109.745 168.955 109.871 168.766 109.997 168.514C109.934 168.64 109.682 168.766 109.871 168.577C109.934 168.514 109.997 168.451 110.123 168.388C110.438 168.136 110.69 167.884 111.005 167.632C112.012 166.687 112.894 165.616 113.65 164.482C115.603 161.522 116.044 157.868 114.784 154.53L112.138 156.231C114.217 157.805 116.548 159.065 119.067 159.821C121.083 160.514 123.224 160.703 125.366 160.451C127.067 160.136 128.705 159.695 130.342 159.191C133.555 158.309 137.145 157.176 140.42 157.428C141.743 157.554 142.877 157.805 143.696 158.813C144.515 159.884 144.767 161.333 144.326 162.593C143.759 164.104 142.31 165.112 140.861 165.805C139.161 166.624 137.334 167.065 135.444 167.065C134.625 167.065 133.618 167.821 133.681 168.766L134.562 177.647L135.507 176.198C133.87 176.891 131.98 176.576 130.594 175.442C130.027 175.002 129.523 174.498 129.082 173.994L128.83 173.679C128.893 173.742 128.956 173.868 128.83 173.679L128.705 173.427C128.075 172.419 126.374 172.923 125.933 173.868C124.925 176.072 124.295 178.403 124.232 180.797C124.106 182.182 124.799 183.568 125.996 184.324C127.256 185.08 128.705 185.521 130.153 185.584C131.224 185.71 132.295 185.773 133.429 185.71L132.169 184.828C132.169 184.954 132.169 185.143 132.169 185.269C132.169 185.332 132.169 185.395 132.169 185.269C132.169 185.395 132.169 185.458 132.169 185.584C132.169 185.836 132.106 186.025 132.106 186.214C131.854 187.284 131.287 188.292 130.405 189.048C129.901 189.489 129.523 190.308 130.09 190.875C130.72 191.316 131.602 191.253 132.169 190.749C134.059 189.174 135.444 186.655 135.129 184.135C135.003 183.568 134.437 183.19 133.87 183.253C132.925 183.316 131.917 183.253 130.972 183.127C130.216 183.064 129.523 182.875 128.83 182.623C128.264 182.434 127.76 182.056 127.445 181.552C127.256 180.922 127.193 180.293 127.256 179.663C127.319 178.844 127.508 178.025 127.76 177.269C128.012 176.324 128.327 175.379 128.705 174.498L125.618 175.065C126.374 176.261 127.382 177.269 128.579 178.088C130.909 179.6 133.87 179.789 136.326 178.592C136.893 178.34 137.271 177.773 137.271 177.143L136.389 168.199L134.625 169.899C138.468 169.836 142.751 168.325 145.397 165.427C146.656 164.104 147.349 162.278 147.16 160.451C147.034 158.75 146.09 157.176 144.641 156.231C141.617 154.341 137.334 155.223 134.059 155.916C132.169 156.357 130.279 156.861 128.39 157.428C126.689 157.868 125.051 158.435 123.287 158.309C121.02 158.057 118.878 157.365 116.926 156.294C116.233 155.916 115.54 155.538 114.847 155.097C114.784 155.097 114.721 155.034 114.721 154.971L114.469 154.782L114.28 154.656C113.209 153.837 111.131 154.908 111.634 156.357C112.894 159.695 111.823 163.034 109.682 165.553C109.493 165.805 109.241 166.057 109.052 166.246C108.989 166.309 108.674 166.624 108.863 166.435C109.052 166.246 108.674 166.561 108.674 166.624C108.422 166.876 108.17 167.065 107.918 167.317C107.099 168.136 106.406 169.081 105.965 170.088C104.517 173.112 103.446 176.261 102.879 179.537C102.186 182.938 101.619 186.403 101.304 189.93C101.052 192.576 100.863 195.221 100.926 197.867C100.926 200.26 101.934 202.591 103.635 204.291C107.792 208.386 114.343 205.488 118.374 202.717C118.752 202.465 119.13 202.213 119.445 201.961C120.327 201.205 119.886 200.26 120.012 199.252C120.075 199 120.138 198.685 120.201 198.434C120.138 198.496 120.327 198.182 120.327 198.119L120.39 197.993C120.201 198.245 120.516 197.804 120.39 197.993L120.642 197.741C120.768 197.552 120.453 197.867 120.768 197.678L121.083 197.426C121.146 197.363 121.335 197.237 121.02 197.426C121.083 197.363 121.146 197.363 121.272 197.3C121.902 196.985 122.532 196.67 123.161 196.355C125.051 195.536 126.878 194.591 128.579 193.583C129.712 192.827 130.846 192.072 131.917 191.19C132.421 190.749 132.799 189.93 132.232 189.363C131.665 188.796 130.657 188.796 130.153 189.237Z" fill="#000005"/>
<path d="M97.7139 190.938C97.7139 190.938 90.974 196.355 87.8875 192.765C84.8011 189.175 90.1551 187.978 90.1551 187.978C90.1551 187.978 80.7698 182.057 87.8875 177.081C87.8875 177.081 78.5651 173.553 81.0217 165.302C83.4783 157.05 95.3203 156.42 95.3203 156.42C95.3203 156.42 90.974 147.35 99.4146 145.019C107.855 142.689 108.359 149.05 108.359 149.05C108.359 149.05 113.713 147.476 115.288 150.562C116.863 153.649 113.587 156.609 113.587 156.609C113.587 156.609 116.17 166.309 108.674 168.01L107.036 182.309C107.036 182.309 111.194 185.395 110.564 190.812C109.934 196.229 99.9815 196.985 97.7139 190.938Z" fill="#000005"/>
<path d="M96.5789 189.93C95.0671 191.19 93.3034 192.135 91.4137 192.639C90.9098 192.765 90.3429 192.828 89.839 192.828C89.713 192.828 89.3981 192.702 89.4611 192.765C89.5871 192.828 89.0832 192.639 89.2721 192.702L89.2091 192.639C89.0831 192.576 89.0202 192.45 88.9572 192.324C88.2643 191.442 88.3273 190.686 89.1461 190.056C89.713 189.615 90.4059 189.3 91.0988 189.174C92.2956 188.922 91.2248 187.536 90.7209 187.222L90.3429 186.97C90.217 186.907 89.776 186.529 90.217 186.907C90.028 186.781 89.902 186.655 89.713 186.529C89.3351 186.214 88.9572 185.899 88.5792 185.521C88.5162 185.458 88.2643 185.206 88.4533 185.395C88.3273 185.269 88.2643 185.206 88.2013 185.08C88.0123 184.828 87.8234 184.576 87.6344 184.387C87.0045 183.631 86.6896 182.623 86.6896 181.615C86.8155 180.104 87.8864 179.033 89.0831 178.151C89.965 177.521 88.7052 176.324 88.0753 176.135C87.7604 176.009 87.3824 175.82 87.0675 175.695C87.3824 175.82 87.1305 175.757 86.9415 175.632C86.7526 175.506 86.5636 175.443 86.3746 175.317C86.1856 175.191 85.9967 175.065 85.8077 174.939L85.4928 174.75C85.2408 174.561 85.6817 174.939 85.3668 174.687C84.9259 174.372 84.5479 173.994 84.17 173.616C83.855 173.301 84.359 173.868 84.044 173.49L83.7921 173.175C83.5401 172.923 83.3511 172.608 83.1622 172.356C82.5323 171.348 82.2173 170.214 82.0913 169.081C81.7764 163.349 87.0045 159.821 91.9807 158.498C92.9885 158.247 93.9963 157.995 95.0041 157.869L95.4451 157.806C95.76 157.743 95.1931 157.806 95.571 157.806H95.949C96.6418 157.743 96.9568 157.302 96.6419 156.672C96.5159 156.42 96.4529 156.168 96.3269 155.979C96.2009 155.79 96.3899 156.168 96.2639 155.853C96.2009 155.727 96.2009 155.538 96.1379 155.412C96.012 155.097 95.949 154.719 95.886 154.404C95.4451 152.766 95.571 151.066 96.2009 149.491C97.3347 147.223 99.7283 146.405 102.059 146.027C102.626 145.964 103.193 145.901 103.823 145.964C104.012 145.964 104.264 146.027 104.453 146.027L104.767 146.09L105.019 146.153H104.956C105.145 146.216 105.334 146.279 105.523 146.405C105.145 146.216 105.649 146.531 105.775 146.594C105.397 146.342 105.901 146.719 105.964 146.782C106.027 146.845 106.216 147.034 106.027 146.845C105.838 146.656 106.153 146.971 106.153 147.034C106.153 147.097 106.468 147.538 106.279 147.223C106.405 147.349 106.468 147.538 106.531 147.727C106.594 147.853 106.657 147.979 106.72 148.168C106.657 147.979 106.72 148.105 106.783 148.294C106.846 148.546 106.909 148.861 106.972 149.113C107.035 149.995 108.484 150.814 109.24 150.562C109.807 150.436 110.373 150.31 110.94 150.247C111.507 150.184 112.011 150.184 112.578 150.247C112.83 150.31 113.082 150.31 113.334 150.373C113.145 150.31 113.523 150.436 113.523 150.436C113.271 150.31 113.649 150.499 113.712 150.562C113.46 150.436 113.838 150.688 113.712 150.562L113.901 150.814C114.09 151.129 114.153 151.381 114.216 151.759C114.342 152.514 114.216 153.27 113.838 153.963C113.586 154.53 113.271 155.034 112.893 155.475C112.767 155.664 112.578 155.853 112.452 155.979C112.578 155.853 112.452 155.979 112.389 156.042C112.2 156.231 112.074 156.483 112.137 156.735C112.515 158.247 112.641 159.821 112.515 161.396C112.2 164.293 110.688 166.624 107.728 167.38C107.476 167.443 107.224 167.632 107.224 167.947L105.712 181.49C105.712 181.741 105.649 181.993 105.649 182.182C105.649 182.497 105.775 182.812 105.964 183.064C106.153 183.253 106.342 183.442 106.594 183.631C106.468 183.568 106.405 183.442 106.279 183.379C106.279 183.379 106.342 183.442 106.405 183.442L106.783 183.757C106.846 183.82 106.909 183.883 107.035 184.009C107.287 184.261 106.909 183.883 107.161 184.135C107.602 184.639 108.043 185.206 108.358 185.773C109.303 187.411 109.618 189.363 109.177 191.253C108.736 192.513 107.791 193.52 106.594 193.961C105.208 194.528 103.634 194.591 102.185 194.213C101.555 194.024 100.988 193.772 100.547 193.331C99.9803 192.828 99.5394 192.135 99.2874 191.379C98.8465 190.245 96.012 189.615 96.7048 191.316C98.3426 195.536 103.571 197.615 107.791 196.418C109.492 195.914 111.192 194.843 111.885 193.143C112.83 190.875 112.263 187.977 111.129 185.836C110.311 184.324 109.177 183.001 107.791 181.93L108.673 183.316L110.059 170.718L110.248 168.955L109.744 169.522C113.082 168.703 115.098 166.12 115.539 162.719C115.791 160.892 115.665 159.002 115.161 157.239L114.909 157.932C117.365 155.664 118.373 151.759 115.539 149.302C113.46 147.475 110.248 147.475 107.728 148.231L109.996 149.68C109.681 146.09 106.027 143.759 102.689 143.633C99.7913 143.57 96.4529 144.452 94.5002 146.719C93.1145 148.357 92.8625 150.625 93.1145 152.766C93.3034 154.152 93.6814 155.475 94.2483 156.735L94.9411 155.601C90.9728 155.79 86.6266 157.113 83.5401 159.569C81.0205 161.522 79.4458 164.545 79.3828 167.758C79.3828 170.781 80.8946 173.427 83.0992 175.38C84.4849 176.639 86.1227 177.647 87.8864 178.403L86.8785 176.387C85.4928 177.395 84.17 178.781 83.981 180.545C83.918 182.056 84.359 183.568 85.3038 184.828C86.5006 186.529 88.0753 188.04 89.839 189.111L89.4611 187.159C88.5792 187.348 87.7604 187.725 87.0045 188.229C85.7447 189.111 85.3668 190.812 86.1227 192.135C87.1305 194.087 89.0831 195.347 91.2878 195.41C92.9885 195.41 94.6892 194.906 96.2009 194.024C97.2088 193.52 98.1536 192.891 99.0354 192.198C99.9803 191.127 97.5237 189.174 96.5789 189.93Z" fill="#000005"/>
<path d="M110.563 169.27C110.563 169.27 106.72 163.538 102.878 166.75C99.0357 169.963 103.508 184.639 111.256 180.671" fill="white"/>
<path d="M111.192 168.514C110.058 166.75 108.357 165.364 106.405 164.609C104.011 163.853 101.492 165.175 100.736 167.506V167.569C100.043 169.774 100.358 172.293 100.988 174.498C101.618 176.954 102.94 179.222 104.767 180.986C106.657 182.875 109.554 183.316 111.948 182.12C113.082 181.553 111.633 178.781 110.499 179.348C109.68 179.789 108.735 179.978 107.791 179.915C107.728 179.915 107.539 179.852 107.35 179.852C107.161 179.789 106.909 179.726 106.72 179.663C106.531 179.6 106.657 179.663 106.72 179.663C106.594 179.6 106.531 179.537 106.405 179.537C106.216 179.411 105.964 179.285 105.775 179.159C105.586 179.033 106.027 179.348 105.712 179.159L105.46 178.907C105.271 178.718 105.082 178.592 104.956 178.403C105.208 178.655 104.83 178.214 104.767 178.151C104.578 177.899 104.389 177.647 104.263 177.458C104.452 177.773 104.137 177.269 104.074 177.143C103.948 176.891 103.822 176.703 103.696 176.451C103.633 176.388 103.381 175.758 103.57 176.136C103.444 175.821 103.318 175.569 103.255 175.254C103.192 174.939 103.129 174.813 103.066 174.624C103.003 174.435 103.003 174.372 102.94 174.246C102.814 173.805 103.003 174.561 102.877 174.12C102.751 173.616 102.688 173.112 102.625 172.608C102.625 172.545 102.562 171.978 102.562 172.23C102.562 171.978 102.562 171.726 102.562 171.537C102.562 171.348 102.562 171.159 102.562 170.971L102.625 170.656C102.625 170.593 102.688 170.152 102.625 170.404C102.688 169.711 103.003 169.081 103.381 168.577C104.074 167.758 105.145 167.38 106.153 167.506C107.224 167.695 108.106 168.262 108.861 169.018C108.924 169.081 109.428 169.648 109.176 169.333C109.302 169.522 109.428 169.648 109.617 169.837C109.806 170.026 109.869 170.152 109.932 170.278C110.247 170.719 111.003 171.222 111.444 170.719C111.885 170.215 111.444 169.018 111.192 168.514Z" fill="#000005"/>
<path d="M119.844 163.655C119.844 163.655 122.449 163.525 122.449 166C122.449 168.475 119.323 168.475 118.542 166.261C118.151 165.349 118.542 164.177 119.453 163.655C119.584 163.786 119.714 163.655 119.844 163.655Z" fill="#000005"/>
<path d="M144.583 250.652C144.583 250.652 158.944 204.292 156.676 203.158C154.409 202.024 123.04 207.504 121.843 208.953C120.647 210.402 108.805 261.108 108.805 261.108L144.583 250.652Z" fill="#000005"/>
<path d="M145.961 251.471C146.78 248.699 147.662 245.928 148.481 243.156C150.244 237.235 151.945 231.314 153.583 225.393C155.094 219.976 156.606 214.496 157.677 209.016C158.055 207.567 158.244 206.119 158.244 204.607C158.181 203.788 157.677 203.473 156.984 203.032C156.165 202.465 155.283 202.213 154.276 202.15C152.071 202.15 149.866 202.339 147.662 202.717C144.449 203.095 141.237 203.599 138.024 204.166C134.812 204.733 131.6 205.3 128.387 205.993C126.182 206.371 123.978 206.938 121.773 207.567C121.269 207.63 120.828 207.882 120.45 208.134C120.261 208.386 120.198 208.638 120.072 208.953C119.569 210.465 119.191 211.977 118.75 213.425C117.301 218.906 115.915 224.449 114.592 229.929C113.081 236.102 111.632 242.275 110.12 248.447C109.238 252.164 108.356 255.943 107.475 259.723C107.412 259.911 107.412 260.1 107.349 260.289C107.223 260.793 109.553 262.053 109.994 261.927L122.088 258.4L141.363 252.731L145.961 251.471C146.276 251.408 145.205 250.715 145.142 250.652C144.827 250.4 143.819 249.707 143.378 249.833L131.285 253.361L112.01 259.03L107.601 260.289L110.246 261.927C110.876 259.345 111.443 256.762 112.073 254.179C113.459 248.447 114.781 242.715 116.167 236.983C117.616 231.062 119.065 225.078 120.576 219.157C121.143 217.079 121.647 215 122.214 212.922C122.403 212.229 122.592 211.599 122.781 210.906C122.844 210.528 122.97 210.213 123.159 209.898C123.348 209.646 123.663 209.457 123.978 209.394C124.797 209.142 125.553 208.89 126.371 208.701C129.017 208.008 131.662 207.504 134.371 207.001C140.544 205.804 146.78 204.733 153.016 204.103C154.024 203.977 155.031 203.914 156.102 203.851C156.48 203.851 156.795 203.851 157.173 203.851L157.551 203.914C157.677 203.914 157.614 203.977 157.488 203.914C157.425 203.851 155.346 202.654 155.409 202.591C155.409 202.591 155.409 202.654 155.472 202.654C155.472 202.717 155.535 202.78 155.535 202.843C155.535 203.032 155.598 203.221 155.598 203.41C155.598 204.04 155.535 204.733 155.409 205.363C154.654 210.339 153.268 215.252 151.945 220.102C150.307 226.149 148.607 232.133 146.843 238.117C145.772 241.834 144.638 245.613 143.441 249.329C143.378 249.518 143.315 249.707 143.253 249.896C143.064 250.4 145.898 251.597 145.961 251.471Z" fill="#000005"/>
<path d="M111.131 239.25C111.131 239.25 118.122 234.778 123.162 236.605C128.201 238.431 123.666 243.848 123.666 243.848C123.666 243.848 127.949 245.927 125.618 249.265C125.618 249.265 128.642 259.407 106.344 264.068C103.383 264.698 52.3618 266.588 47.0707 261.485C35.2287 250.021 52.9917 226.904 52.9917 226.904L79.8251 231.377L74.219 244.919L92.8008 248.069C92.8008 248.069 95.0684 237.361 100.045 233.959C105.021 230.558 112.705 230.999 112.705 230.999" fill="white"/>
<path d="M112.203 240.447L112.329 240.384C112.518 240.258 112.077 240.51 112.266 240.384L112.518 240.258C113.021 239.943 113.525 239.691 114.092 239.439C115.604 238.684 117.179 238.18 118.816 237.802C120.391 237.55 122.344 237.424 123.73 238.243C123.856 238.306 123.919 238.369 123.982 238.432C124.045 238.495 124.108 238.558 124.108 238.621C124.108 238.621 123.982 238.432 124.045 238.558C124.108 238.684 124.171 238.872 124.171 238.998C124.171 239.502 124.108 240.006 123.919 240.447C123.667 241.077 123.352 241.644 123.037 242.148C122.911 242.337 122.785 242.463 122.659 242.652C122.281 243.156 122.533 242.841 122.659 242.652C121.966 243.534 122.47 244.667 123.415 245.171L123.541 245.234C123.73 245.36 123.541 245.234 123.415 245.171L123.667 245.36C123.856 245.486 124.045 245.612 124.234 245.801C124.423 245.99 124.234 245.801 124.297 245.864C124.36 245.927 124.549 246.116 124.612 246.242C124.674 246.368 124.737 246.494 124.612 246.242C124.674 246.305 124.674 246.368 124.737 246.431C124.8 246.494 124.8 246.557 124.863 246.62C124.926 246.809 124.989 247.061 124.926 247.25C124.8 248.069 124.171 248.51 124.297 249.392C124.297 249.455 124.297 249.455 124.36 249.518C124.423 249.896 124.297 249.14 124.36 249.455C124.423 249.77 124.423 250.148 124.423 250.463C124.423 250.588 124.423 250.651 124.423 250.777C124.423 250.4 124.423 250.651 124.423 250.84C124.423 251.029 124.36 251.344 124.297 251.596C124.234 251.911 124.108 252.163 124.045 252.478C124.171 252.1 123.982 252.541 123.982 252.667C123.982 252.793 123.856 252.982 123.73 253.171C123.541 253.486 123.352 253.864 123.163 254.179C123.037 254.368 122.911 254.494 122.785 254.683L122.596 254.935C122.722 254.746 122.533 254.998 122.47 255.061C121.777 255.88 120.958 256.572 120.139 257.202C117.62 258.966 114.848 260.289 111.951 261.108C109.746 261.927 107.478 262.43 105.148 262.745C101.998 263.06 98.7859 263.123 95.6365 263.249C90.4084 263.438 85.2433 263.501 80.0152 263.501C74.4721 263.501 68.8661 263.438 63.323 263.123C60.9924 262.997 58.7878 262.808 56.3312 262.556C54.4415 262.367 52.6149 262.053 50.7882 261.612C50.4102 261.549 50.0953 261.423 49.7174 261.297L49.4654 261.234C49.2134 261.171 49.7803 261.36 49.5284 261.234L49.0875 261.045C48.8355 260.919 48.5835 260.793 48.3316 260.667C47.9537 260.478 48.4576 260.793 48.3316 260.667C48.2686 260.604 48.1426 260.541 48.0796 260.478L47.9537 260.415C47.9537 260.415 48.3316 260.793 48.1426 260.604L47.9537 260.415C47.7017 260.163 47.4497 259.848 47.1978 259.596C46.8198 259.155 46.4419 258.651 46.19 258.084C45.5601 256.95 45.1191 255.754 44.8672 254.494C44.4263 251.911 44.5522 249.203 45.1821 246.62C45.812 243.912 46.7569 241.266 47.9537 238.747C49.6544 235.093 51.733 231.629 54.0636 228.353C54.1896 228.164 54.3156 228.038 54.4415 227.849L53.2447 228.353L62.3152 229.865L76.7397 232.259L80.0781 232.826L78.7554 230.432L73.8422 242.274L73.1493 243.975C72.8344 244.919 73.2753 245.927 74.2201 246.242C74.2831 246.242 74.4091 246.305 74.4721 246.305L90.6603 249.077L92.9909 249.455C93.5578 249.581 94.1247 249.266 94.3137 248.699C94.9436 245.738 95.9514 242.841 97.3372 240.132C98.282 238.243 99.4788 236.416 101.18 235.219C103.258 233.77 105.967 233.077 108.486 232.7C110.061 232.448 111.699 232.385 113.336 232.448C114.092 232.511 114.407 231.566 114.218 230.936C113.966 230.18 113.273 229.613 112.455 229.613C108.423 229.424 103.762 230.18 100.235 232.196C96.0774 234.589 94.0618 239.439 92.613 243.786C92.2351 245.045 91.8571 246.242 91.6052 247.502L92.865 246.746L76.6767 243.975L74.3461 243.597L75.6689 245.927L80.5821 234.085L81.2749 232.385C81.5899 231.44 81.149 230.432 80.2041 230.117C80.1411 230.117 80.0152 230.054 79.9522 230.054L70.8817 228.542L56.3942 226.086L53.0558 225.519C52.6149 225.393 52.1109 225.582 51.859 226.023C50.0953 228.353 48.5206 230.81 47.1978 233.392C44.5522 238.18 42.2846 243.471 41.8437 248.951C41.5288 251.722 41.8437 254.494 42.8515 257.139C43.7334 259.281 45.1191 261.801 47.1348 263.06C48.3946 263.753 49.7803 264.257 51.1661 264.572C53.0558 264.95 54.9455 265.265 56.8351 265.454C67.3543 266.588 77.9995 266.525 88.5817 266.336C92.9909 266.273 97.4002 266.147 101.746 265.895C103.069 265.832 104.392 265.769 105.652 265.643C107.604 265.391 109.494 265.013 111.384 264.446C116.549 262.997 122.344 260.73 125.493 256.195C126.816 254.368 127.383 252.1 127.131 249.896C127.131 249.707 127.068 249.455 127.005 249.266L126.942 250.274C128.895 247.313 126.879 244.038 123.982 242.652L124.737 245.171C126.501 243.03 127.887 239.943 126.123 237.424C124.737 235.471 122.218 234.841 119.95 234.841C117.746 234.904 115.604 235.408 113.588 236.29C112.329 236.794 111.195 237.424 110.061 238.117C109.368 238.558 109.746 239.628 110.124 240.132C110.628 240.636 111.51 240.762 112.203 240.447Z" fill="#000005"/>
<path d="M101.746 243.093C102.942 243.03 104.202 242.904 105.399 242.715C107.792 242.4 110.06 241.644 112.139 240.447C112.832 240.006 112.769 238.936 112.265 238.432C111.761 237.802 110.816 237.613 110.123 238.054L109.808 238.243L109.619 238.306C109.367 238.432 109.115 238.558 108.863 238.621C108.359 238.81 107.855 238.999 107.352 239.125L106.596 239.314L106.218 239.377L105.966 239.44H106.029C105.525 239.566 105.021 239.629 104.517 239.754C103.383 239.943 102.249 240.069 101.116 240.132C100.423 240.195 99.8559 240.825 99.9189 241.581C99.9189 241.644 99.9189 241.707 99.9189 241.77C100.171 242.589 100.927 243.156 101.746 243.093Z" fill="#000005"/>
<path d="M122.532 243.408C122.217 243.66 121.902 243.912 121.587 244.164L121.084 244.542C121.399 244.29 121.084 244.542 121.021 244.542L120.643 244.794C120.202 245.109 119.761 245.361 119.32 245.676C118.816 245.991 118.312 246.306 117.808 246.558C117.556 246.684 117.241 246.872 116.989 246.998L116.548 247.187L116.359 247.25C116.485 247.187 116.485 247.187 116.359 247.25C115.792 247.502 115.226 247.691 114.659 247.88C114.596 247.88 114.155 248.006 114.596 247.88L114.155 248.006L113.84 248.069H113.588C113.84 248.069 113.84 248.069 113.651 248.069C113.021 248.132 112.013 248.321 111.887 249.077C111.761 249.833 112.643 250.022 113.21 250.022C115.981 249.77 118.627 248.51 120.958 246.998C122.343 246.18 123.666 245.235 124.926 244.227C125.241 243.975 125.367 243.534 125.115 243.219C124.989 243.093 124.863 242.967 124.674 242.904C123.981 242.715 123.099 242.841 122.532 243.408Z" fill="#000005"/>
<path d="M124.424 249.014L124.235 249.203L123.983 249.455L123.857 249.581L123.794 249.644C123.731 249.77 123.731 249.707 123.92 249.518C123.605 249.77 123.353 250.022 123.101 250.337C122.723 250.652 122.408 251.03 122.03 251.345C121.652 251.66 121.212 252.038 120.771 252.416L120.393 252.731C120.33 252.794 120.015 252.983 120.267 252.794C120.015 252.983 119.763 253.109 119.511 253.298C119.007 253.612 118.44 253.927 117.873 254.242L117.621 254.368L117.243 254.557C116.928 254.683 116.55 254.809 116.235 254.935C115.668 255.124 114.85 255.754 115.102 256.447C115.354 257.14 116.361 257.077 116.928 256.888C119.574 255.943 121.967 254.494 124.046 252.605C125.117 251.723 126.062 250.715 127.007 249.644C127.321 249.329 127.258 248.762 126.944 248.51C126.818 248.384 126.692 248.321 126.503 248.321C125.747 248.069 124.928 248.384 124.424 249.014Z" fill="#000005"/>
<path d="M134.378 220.102C134.63 219.787 134.189 220.228 133.559 220.228C133.244 220.165 133.181 220.165 133.307 220.228C133.37 220.228 133.37 220.228 133.37 220.228C133.433 220.291 133.559 220.417 133.622 220.48C133.685 220.606 133.811 220.669 133.874 220.795C134.189 221.361 134.378 222.054 134.441 222.684C134.756 224.133 134.693 225.582 134.315 227.03C134 228.101 133.244 229.046 132.299 229.613C132.236 229.676 132.173 229.676 132.11 229.676L131.921 229.739C132.047 229.676 132.047 229.676 131.921 229.739C131.795 229.802 132.11 229.676 131.795 229.739C131.984 229.676 131.984 229.739 131.795 229.739C131.354 229.55 131.102 229.109 131.165 228.668C131.291 228.038 130.409 227.975 129.968 227.975C129.528 227.975 128.268 228.101 128.142 228.731C127.701 230.684 129.968 231.314 131.48 231.251C134.882 231.188 137.716 228.479 137.842 225.078C138.031 223.44 137.716 221.739 137.023 220.228C136.582 219.409 135.763 218.905 134.882 218.842C133.811 218.716 132.425 218.905 131.669 219.787C131.228 220.291 131.921 220.606 132.362 220.669C132.929 220.732 134 220.669 134.378 220.102Z" fill="white"/>
<path d="M214.056 206.685C214.056 206.685 212.229 186.151 214.56 183.505C217.709 179.915 225.457 178.151 235.22 181.93C244.984 185.71 253.55 199.001 250.527 222.244C243.535 275.784 230.748 251.911 230.748 251.911L229.047 241.14C228.669 240.069 227.913 239.125 226.906 238.558C225.142 237.487 226.528 227.283 226.528 227.283L214.056 206.685Z" fill="#000005"/>
<path d="M219.429 206.032C222.326 199.898 220.211 192.819 214.707 190.219C209.202 187.62 202.391 190.485 199.495 196.618C196.598 202.752 198.712 209.832 204.217 212.431C209.722 215.031 216.532 212.166 219.429 206.032Z" fill="white"/>
<path d="M198.05 196.543C195.846 201.33 196.287 207.503 200.192 211.346C204.097 215.188 210.018 215.377 214.679 212.857C219.656 210.086 222.553 204.732 222.238 199.063C221.797 193.898 218.27 189.299 212.979 188.292C206.743 187.158 200.759 191 198.05 196.543C197.735 197.236 198.554 197.803 199.121 197.803C199.94 197.866 200.696 197.425 201.011 196.669C202.775 193.016 206.491 190.181 210.648 190.433C215.057 190.685 218.27 194.276 219.089 198.433C219.908 202.968 218.081 207.503 214.427 210.275C211.152 212.794 206.617 212.731 203.404 210.212C199.373 206.936 198.932 201.141 201.011 196.669C201.326 195.976 200.57 195.409 199.94 195.409C199.184 195.409 198.428 195.85 198.05 196.543Z" fill="#000005"/>
<path d="M277.297 298.209C277.297 298.209 236.732 224.385 218.151 225.708C199.569 227.031 172.609 300.602 172.609 300.602" fill="white"/>
<path d="M278.806 297.956C277.546 295.626 276.16 293.295 274.837 290.964C271.562 285.295 268.16 279.689 264.696 274.146C260.287 267.217 255.751 260.289 250.901 253.675C246.303 247.313 241.453 241.077 236.036 235.408C233.831 233.077 231.438 230.936 228.855 228.983C226.839 227.408 224.572 226.148 222.178 225.33C219.911 224.574 217.454 224.574 215.186 225.33C212.793 226.274 210.588 227.66 208.762 229.424C203.659 234.085 199.754 240.069 196.227 245.99C191.943 253.171 188.101 260.541 184.574 268.162C181.424 274.902 178.464 281.705 175.629 288.571C174.117 292.287 172.606 296.066 171.22 299.846C171.157 300.035 171.094 300.161 171.031 300.35C170.527 301.61 173.677 301.924 174.054 300.854C174.999 298.271 176.007 295.689 177.078 293.106C179.535 286.87 182.18 280.697 184.889 274.587C188.227 267.091 191.817 259.722 195.786 252.541C199.313 246.116 203.155 239.628 208.006 234.022C208.951 232.888 210.021 231.817 211.092 230.81C211.596 230.369 212.1 229.865 212.604 229.487C212.856 229.298 213.108 229.109 213.297 228.92C213.108 229.046 213.423 228.794 213.486 228.794L213.927 228.479C214.368 228.164 214.871 227.849 215.375 227.597L215.753 227.408C215.816 227.408 216.194 227.219 216.005 227.282C215.816 227.345 216.194 227.219 216.257 227.219L216.635 227.093C216.887 227.03 217.076 226.967 217.328 226.841L217.517 226.778C217.706 226.715 217.139 226.841 217.391 226.778C217.517 226.778 217.643 226.715 217.769 226.715C217.895 226.715 218.714 226.652 218.084 226.652H218.777H219.092C218.525 226.652 218.966 226.652 219.092 226.652C219.344 226.652 219.596 226.715 219.848 226.778L220.163 226.841C219.659 226.715 220.163 226.841 220.226 226.841C220.478 226.904 220.729 226.967 220.981 227.093C221.233 227.219 221.485 227.282 221.674 227.345C221.737 227.345 222.178 227.534 221.8 227.408L222.178 227.597C222.745 227.849 223.249 228.164 223.753 228.479C226.084 229.928 228.288 231.629 230.304 233.518C235.721 238.557 240.445 244.352 244.917 250.273C249.83 256.824 254.492 263.627 258.901 270.493C262.68 276.351 266.334 282.335 269.924 288.382C271.814 291.594 273.703 294.807 275.467 298.082C275.53 298.208 275.656 298.397 275.719 298.523C276.286 299.468 279.435 299.09 278.806 297.956Z" fill="#000005"/>
<path d="M201.644 213.11C197.802 204.166 213.99 187.348 213.99 187.348C217.77 187.978 224.888 186.844 224.888 186.844C219.03 196.922 230.62 204.733 230.62 204.733C235.407 199.883 241.391 204.481 238.871 210.024C236.352 215.567 230.683 214.181 230.683 214.181C230.683 214.181 228.289 229.298 226.903 231.377C226.903 231.377 215.25 234.401 212.479 224.007C212.416 224.007 204.227 219.22 201.644 213.11Z" fill="white"/>
<path d="M203.16 212.858C201.459 208.764 203.664 203.977 205.617 200.386C207.821 196.481 210.467 192.89 213.427 189.552C213.868 188.985 214.372 188.481 214.876 187.914L215.002 187.725C215.065 187.662 215.128 187.599 215.191 187.536L215.317 187.41L212.86 187.851C216.766 188.481 220.986 187.977 224.891 187.347L223.317 186.906C221.427 190.119 221.175 194.024 222.624 197.426C223.821 199.945 225.521 202.15 227.663 203.914C228.104 204.291 228.608 204.669 229.112 205.047C230.056 205.425 231.127 205.362 231.946 204.732C232.576 204.04 233.332 203.536 234.214 203.221C234.277 203.221 234.403 203.221 234.466 203.221C234.781 203.284 235.096 203.347 235.411 203.473C236.796 204.166 237.678 205.488 237.867 207C237.993 208.89 237.3 210.716 235.977 212.102C235.474 212.606 234.907 213.047 234.277 213.362C234.088 213.425 233.899 213.488 233.71 213.551C233.584 213.551 233.269 213.614 233.584 213.614C233.458 213.614 233.017 213.677 233.332 213.677H232.891C232.513 213.677 233.017 213.677 232.702 213.677C232.576 213.677 232.45 213.677 232.387 213.677H232.198L231.883 213.614L231.694 213.551C231.064 213.425 229.238 213.488 229.112 214.307C228.356 219.031 227.6 223.755 226.34 228.416C226.151 229.424 225.836 230.432 225.332 231.377L226.34 230.873C226.277 230.873 226.214 230.873 226.151 230.936C226.088 230.936 226.025 230.999 225.962 230.999C226.088 231.062 226.403 230.936 226.151 230.936L225.899 230.999C225.584 231.062 225.332 231.062 225.017 231.125C224.702 231.188 225.395 231.125 225.08 231.125H224.765C224.576 231.125 224.324 231.125 224.136 231.188H223.821H223.758H223.128C222.687 231.188 222.183 231.125 221.742 231.062C220.734 230.873 219.726 230.558 218.781 230.117C216.451 228.857 214.75 226.653 214.12 224.133C213.931 223.566 213.49 223.377 212.986 223.062C212.042 222.432 211.16 221.802 210.278 221.11C207.443 218.905 204.735 216.259 203.286 212.921C202.908 212.102 199.948 212.858 200.2 213.362C202.152 217.771 206.184 221.236 210.152 223.818C210.404 224.007 210.908 224.196 211.034 224.448C211.349 225.015 211.412 225.708 211.664 226.212C211.916 226.779 212.231 227.346 212.608 227.849C213.742 229.487 215.38 230.747 217.333 231.44C220.419 232.574 223.884 232.511 227.096 231.881C227.6 231.818 228.041 231.692 228.419 231.377C228.797 230.936 229.049 230.369 229.112 229.802C229.679 227.975 230.119 226.212 230.434 224.322C231.127 220.858 231.757 217.33 232.324 213.866L229.805 214.622C232.702 215.315 236.418 214.559 238.623 212.543C240.261 211.031 241.458 208.638 241.143 206.307C240.828 204.354 239.442 202.78 237.615 202.213C234.781 201.331 231.505 202.402 229.427 204.48L232.261 204.166C228.545 201.646 225.269 197.363 225.017 192.827C224.891 190.623 225.458 188.481 226.592 186.592C226.907 185.962 225.143 186.151 225.017 186.151C222.246 186.655 219.348 186.906 216.514 186.78C215.191 186.718 213.616 186.277 212.608 187.284C212.105 187.788 211.664 188.355 211.16 188.859C207.191 193.331 203.412 198.308 201.081 203.851C199.885 206.685 199.003 210.149 200.263 213.173C200.452 214.181 203.412 213.425 203.16 212.858Z" fill="#000005"/>
<path d="M223.692 211.031C223.692 211.031 223.062 217.519 219.094 214.496L223.692 211.031Z" fill="white"/>
<path d="M222.558 211.157C222.558 211.346 222.495 211.535 222.495 211.724V211.85V211.913C222.495 212.039 222.432 212.165 222.432 212.228C222.369 212.48 222.306 212.732 222.243 212.921C222.117 213.425 221.865 213.866 221.613 214.307L221.487 214.433L221.424 214.496C221.361 214.622 221.235 214.685 221.109 214.747L221.046 214.81C220.92 214.873 221.235 214.685 221.109 214.747L220.983 214.81C220.857 214.873 221.235 214.685 221.046 214.81C220.983 214.873 220.857 214.873 221.172 214.747H221.046C221.487 214.622 221.361 214.684 221.235 214.684C221.109 214.684 220.983 214.684 221.361 214.684H221.298C221.109 214.684 221.613 214.684 221.424 214.684H221.361C221.235 214.684 221.676 214.747 221.424 214.684L221.172 214.622H221.235L221.046 214.559C220.983 214.496 220.857 214.496 220.794 214.433L220.479 214.244C220.416 214.181 220.416 214.181 220.353 214.181C220.29 214.118 220.29 214.118 220.353 214.181L220.29 214.118C219.849 213.866 219.282 213.803 218.779 213.992C218.527 214.055 218.275 214.118 218.086 214.307C218.023 214.37 217.897 214.559 218.023 214.684C218.779 215.314 219.786 215.692 220.794 215.692C221.739 215.692 222.684 215.377 223.377 214.747C224.133 213.929 224.637 212.858 224.762 211.724C224.825 211.409 224.888 211.094 224.888 210.779C224.888 210.653 224.574 210.527 224.511 210.464C224.259 210.401 223.944 210.401 223.692 210.464C223.314 210.653 222.621 210.779 222.558 211.157Z" fill="#000005"/>
<path d="M213.546 199.693C210.963 200.512 208.255 200.953 205.546 200.953C196.35 201.205 194.901 204.166 197.42 206.307C199.94 208.449 212.349 208.827 212.349 208.827" fill="white"/>
<path d="M212.606 198.811C209.646 199.882 206.496 199.882 203.41 200.071C201.52 200.134 199.631 200.512 197.804 201.079C196.796 201.457 195.662 202.024 195.095 202.968C193.962 204.921 195.914 206.811 197.552 207.567C200.134 208.763 203.221 209.078 206.055 209.33C208.197 209.582 210.339 209.708 212.48 209.771C213.047 209.771 213.929 209.708 213.866 208.952C213.803 208.196 212.732 207.819 212.165 207.819C210.591 207.756 209.016 207.693 207.504 207.567C204.922 207.441 202.339 207.063 199.82 206.37L199.442 206.244C199.001 206.118 199.757 206.37 199.379 206.244C199.19 206.181 199.001 206.118 198.875 205.992C198.497 205.74 198.749 205.866 198.875 205.992C198.812 205.929 198.749 205.929 198.623 205.866C198.371 205.677 198.875 206.118 198.623 205.866L198.308 205.551C198.245 205.488 198.119 205.236 198.245 205.488C198.182 205.425 198.119 205.362 198.119 205.236C198.056 205.173 198.056 205.11 197.993 204.984C197.867 204.732 198.056 205.173 197.993 204.921C197.867 204.669 197.867 204.417 197.993 204.165C198.056 203.976 197.993 204.102 198.119 203.85C198.245 203.724 198.371 203.535 198.497 203.409C198.875 203.157 199.253 202.968 199.631 202.779C201.142 202.213 202.78 201.961 204.355 201.898C207.693 201.646 211.221 201.646 214.433 200.512C214.811 200.449 215.063 200.071 215 199.693C215 199.504 214.874 199.378 214.748 199.252C214.181 198.685 213.362 198.496 212.606 198.685V198.811Z" fill="#000005"/>
<path d="M218.658 199.192C217.644 198.915 216.63 199.56 216.446 200.482C216.446 200.574 216.446 200.666 216.353 200.759C216.169 202.786 218.658 203.063 219.395 201.404C219.856 200.666 219.58 199.745 218.934 199.284C218.842 199.284 218.75 199.192 218.658 199.192Z" fill="#000005"/>
<path d="M212.408 193.819C211.394 193.542 210.38 194.187 210.196 195.109C210.196 195.201 210.196 195.293 210.104 195.386C209.919 197.413 212.408 197.69 213.145 196.031C213.606 195.293 213.33 194.372 212.684 193.911C212.592 193.911 212.5 193.819 212.408 193.819Z" fill="#000005"/>
<path d="M222.303 278.871C222.303 278.871 213.232 267.659 205.548 264.194C197.863 260.73 186.147 270.556 187.155 271.627C188.163 272.698 197.863 269.989 197.863 269.989C197.863 269.989 187.281 278.43 188.792 279.816C190.304 281.201 198.052 275.847 198.052 275.847C198.052 275.847 192.32 282.398 193.076 283.532C194.335 285.359 200.634 278.556 200.634 278.556C200.634 278.556 193.958 285.674 198.682 285.296C201.264 285.107 205.737 280.446 205.737 280.446C205.737 280.446 209.39 286.178 213.61 288.382C214.87 289.075 216.382 289.201 217.767 288.634C219.972 287.815 221.484 285.8 221.736 283.469L222.303 278.871Z" fill="white"/>
<path d="M223.628 278.115C221.486 275.469 219.155 273.013 216.699 270.682C214.746 268.793 212.668 267.029 210.526 265.454C208.447 264.005 206.117 262.494 203.597 262.179C198.81 261.549 193.834 263.753 190.054 266.462C188.543 267.407 187.22 268.667 186.086 270.052C185.708 270.556 185.519 271.186 185.582 271.816C185.834 272.635 186.59 273.265 187.472 273.265C189.614 273.58 191.944 272.95 194.023 272.446C195.472 272.131 196.92 271.753 198.369 271.375L196.731 269.108C193.96 271.249 191.377 273.58 188.984 276.162C187.976 277.296 186.086 279.501 187.724 280.887C189.488 282.398 192.385 280.824 194.086 279.942C195.786 279.06 197.424 278.115 198.999 277.044L196.983 274.903C196.164 275.847 195.409 276.792 194.653 277.737C193.456 279.06 192.448 280.635 191.755 282.272C191.062 284.225 192.7 285.611 194.59 285.17C196.29 284.792 197.739 283.469 198.999 282.335C200.007 281.453 200.952 280.509 201.896 279.501C203.282 277.989 200.826 276.288 199.629 277.611C198.999 278.304 198.369 279.06 197.802 279.753C196.857 280.824 196.101 282.083 195.661 283.469C195.22 285.233 196.353 286.556 198.117 286.619C200.196 286.745 202.022 285.548 203.597 284.351C204.794 283.406 205.991 282.398 207.062 281.327L204.542 281.138C206.495 284.351 209.077 287.059 212.227 289.138C214.746 290.776 218.022 290.65 220.415 288.823C222.116 287.5 223.187 285.548 223.439 283.406L224.006 279.06C224.132 278.304 223.628 277.548 222.872 277.359C222.179 277.233 221.045 277.611 220.982 278.43L220.541 281.831C220.352 283.217 220.226 284.666 219.344 285.863C218.778 286.619 217.959 287.185 217.077 287.437C216.006 287.689 214.872 287.437 213.99 286.808C212.29 285.674 210.841 284.288 209.581 282.713C208.762 281.768 208.006 280.698 207.314 279.627C206.747 278.871 205.676 278.745 204.92 279.375C204.857 279.375 204.857 279.438 204.794 279.438C204.101 280.131 203.345 280.824 202.589 281.453C201.959 281.957 201.33 282.461 200.7 282.902C200.385 283.091 200.07 283.28 199.692 283.469C199.629 283.469 199.188 283.721 199.377 283.595C199.188 283.658 199.062 283.721 198.873 283.784C198.495 283.91 198.936 283.784 198.684 283.847C198.621 283.847 198.117 283.847 198.369 283.847C198.621 283.847 198.243 283.847 198.18 283.784C198.243 283.784 198.369 283.847 198.432 283.91C198.558 283.973 198.558 283.973 198.621 284.225C198.558 284.036 198.621 284.54 198.621 284.288C198.621 284.036 198.558 284.414 198.621 284.351C198.684 284.288 198.684 284.099 198.684 283.973C198.747 283.847 198.747 283.721 198.81 283.595C198.684 283.847 198.81 283.595 198.873 283.532C198.999 283.217 199.188 282.965 199.377 282.713C199.692 282.209 200.07 281.705 200.448 281.201L200.574 281.075L200.889 280.698C201.078 280.509 201.204 280.32 201.393 280.068C201.581 279.816 201.707 279.69 201.896 279.501L199.629 277.611C198.999 278.241 198.369 278.871 197.739 279.501C197.109 280.131 196.605 280.572 195.975 281.075C195.472 281.516 194.968 281.957 194.338 282.272L193.96 282.461C193.771 282.524 194.212 282.398 194.023 282.461L193.897 282.524C193.582 282.587 193.645 282.587 193.897 282.524C193.519 282.524 194.212 282.587 194.212 282.587C194.212 282.587 194.59 282.965 194.527 282.839C194.59 282.902 194.779 283.532 194.716 283.217C194.653 283.469 194.779 283.469 194.716 283.217C194.779 283.091 194.842 282.839 194.716 283.091C195.409 281.768 196.227 280.446 197.235 279.312C197.613 278.808 198.054 278.241 198.558 277.674C198.81 277.422 198.999 277.17 199.251 276.918C200.385 275.595 198.621 273.832 197.235 274.777C196.101 275.532 194.968 276.288 193.771 276.918C193.33 277.17 192.826 277.422 192.385 277.674C192.133 277.8 191.881 277.926 191.692 277.989C191.566 278.052 190.999 278.304 191.251 278.178C190.873 278.367 190.432 278.493 189.991 278.619L189.677 278.682C189.425 278.745 190.054 278.556 189.74 278.682C189.677 278.682 189.614 278.682 189.551 278.682C189.299 278.619 189.928 278.745 189.551 278.682C189.928 278.808 190.18 279.06 190.243 279.438C190.18 279.816 190.243 279.375 190.243 279.438C190.306 279.06 190.054 279.69 190.306 279.312C190.495 278.997 190.684 278.745 190.873 278.493C190.936 278.43 191.062 278.304 190.873 278.493C190.936 278.367 190.999 278.304 191.125 278.178L191.566 277.674C192.952 276.162 194.464 274.777 196.038 273.454C197.046 272.572 197.991 271.753 199.062 270.934C199.566 270.493 199.629 269.737 199.251 269.234C198.81 268.667 198.117 268.478 197.424 268.667C196.416 268.982 195.409 269.234 194.401 269.422C193.519 269.674 192.574 269.863 191.692 270.052C191.44 270.115 191.188 270.115 190.999 270.178C190.936 270.178 190.306 270.304 190.558 270.241C190.117 270.304 189.74 270.367 189.299 270.43C188.858 270.493 188.606 270.493 188.291 270.493C187.85 270.493 188.354 270.493 188.228 270.493C188.165 270.493 188.102 270.493 188.102 270.493C187.85 270.43 188.48 270.619 188.228 270.556C188.606 270.808 188.858 271.249 188.795 271.69C188.858 271.438 188.543 271.942 188.732 271.753C188.795 271.69 188.858 271.564 188.858 271.501C188.858 271.438 189.173 271.123 188.984 271.312C188.795 271.501 189.11 271.123 189.173 271.123C189.425 270.871 189.677 270.619 189.866 270.367C190.432 269.863 191.062 269.36 191.692 268.856C193.33 267.659 195.031 266.714 196.92 265.958C197.928 265.58 198.999 265.265 200.07 265.013C200.952 264.887 201.77 264.824 202.652 264.887C204.668 265.076 206.495 266.21 208.258 267.407C210.274 268.856 212.227 270.43 213.99 272.131C216.51 274.462 218.841 276.918 220.982 279.564C221.486 280.194 222.431 280.383 223.187 280.005C223.817 279.627 224.069 278.871 223.754 278.178C223.691 278.178 223.628 278.178 223.628 278.115Z" fill="#000005"/>
<path d="M221.615 293.988C219.978 293.988 185.019 293.484 185.019 293.484L167.319 245.36L102.125 246.305L118.628 301.988H222.308L221.615 293.988Z" fill="#F2713A"/>
<path d="M224.132 292.287C218.148 292.287 212.164 292.161 206.18 292.035L194.149 291.846L189.866 291.783C189.11 291.72 188.417 291.657 187.661 291.783C187.346 291.846 187.661 291.783 187.661 291.846C187.598 291.72 187.598 291.531 187.535 291.405L186.779 289.326L183.819 281.264L175.378 258.588L171.851 249.013L170.654 245.801C170.465 245.234 170.276 244.604 170.024 244.037C169.961 243.974 169.961 243.911 169.961 243.785L169.772 243.659L163.347 243.722L147.726 243.974L128.955 244.226L112.641 244.478C109.995 244.541 107.35 244.541 104.767 244.604H104.641C103.507 244.604 102.374 245.297 101.429 245.927C100.925 246.242 99.2241 247.187 99.413 247.942L101.051 253.485L104.956 266.776L109.743 282.901L113.838 296.822L115.223 301.42L115.664 302.869C115.727 303.121 115.79 303.373 115.916 303.625C115.916 303.625 115.916 303.688 115.979 303.751L116.168 303.877H207.125C211.282 303.877 215.439 303.877 219.659 303.877H219.848C220.982 303.877 222.179 303.184 223.061 302.554C223.628 302.176 225.139 301.42 225.076 300.538L224.447 292.539C224.384 291.909 221.612 293.358 221.36 293.484C220.73 293.862 220.1 294.302 219.533 294.806C219.281 295.058 218.967 295.31 218.967 295.688L219.596 303.688L224.825 300.412H123.286C122.593 300.349 121.837 300.349 121.144 300.412C121.081 300.412 121.27 300.601 121.27 300.475C121.27 300.349 121.207 300.16 121.144 300.097L120.64 298.334L115.664 281.642L109.113 259.595L104.956 245.549L104.767 244.856L99.539 248.131L104.83 248.068L117.806 247.879L134.435 247.628L150.434 247.376L161.835 247.187L164.418 247.124C164.859 247.124 164.544 247.187 164.544 246.998C164.607 247.187 164.67 247.313 164.733 247.502L168.008 256.32L173.488 271.248L178.968 286.177L182.118 294.68L182.244 295.058L182.433 295.184L194.401 295.373L213.864 295.625C215.565 295.625 217.329 295.688 219.029 295.688C220.289 295.688 221.612 294.869 222.62 294.177C223.187 293.862 223.691 293.421 224.069 292.917C224.195 292.791 224.51 292.287 224.132 292.287Z" fill="#F2713A"/>
<path d="M188.419 299.468L182.939 282.461L182.183 280.067C182.12 279.815 179.159 280.886 179.285 281.327L184.765 298.334L185.521 300.728C185.584 300.98 188.545 299.909 188.419 299.468Z" fill="#000005"/>
<path d="M139.723 268.225C141.172 267.091 142.369 269.17 142.684 270.367C142.873 271.374 142.936 272.445 142.873 273.516C142.873 274.65 142.684 275.784 142.243 276.854C141.487 278.618 139.975 279.941 138.211 280.634C136.259 281.264 134.873 279.122 133.424 278.114C132.857 277.61 132.038 277.61 131.534 278.177C131.031 278.744 131.031 279.563 131.597 280.067C131.723 280.193 131.849 280.256 131.975 280.319C133.802 281.579 135.188 283.405 137.581 283.531C139.975 283.657 142.18 282.209 143.691 280.508C145.14 278.744 145.959 276.54 145.959 274.209C146.085 271.815 145.833 269.17 144.258 267.217C142.684 265.264 139.723 264.446 137.644 266.02C136.133 267.028 138.4 269.233 139.723 268.225Z" fill="white"/>
<path d="M248.773 218.423C251.669 212.289 249.555 205.209 244.05 202.61C238.546 200.01 231.735 202.875 228.839 209.009C225.942 215.143 228.056 222.223 233.561 224.822C239.066 227.422 245.876 224.557 248.773 218.423Z" fill="white"/>
<path d="M227.282 209.204C225.077 213.928 225.644 219.975 229.549 223.629C233.455 227.282 239.565 227.219 244.163 224.699C249.013 222.054 251.91 216.763 251.532 211.22C251.155 206.055 247.375 201.834 242.273 200.952C236.1 200.008 229.927 203.724 227.282 209.204C226.967 209.834 228.289 209.771 228.541 209.708C229.234 209.645 229.864 209.33 230.305 208.763C232.069 205.173 235.596 202.086 239.753 202.464C244.226 202.842 247.564 206.621 248.32 210.905C249.139 215.566 247.249 220.29 243.533 223.188C240.257 225.644 235.785 225.455 232.699 222.747C228.667 219.282 228.226 213.361 230.305 208.763C230.557 208.133 229.297 208.196 229.045 208.259C228.415 208.322 227.597 208.574 227.282 209.204Z" fill="#000005"/>
<path d="M243.468 208.26C243.468 208.26 251.153 194.087 242.397 183.82C233.642 173.553 222.43 179.6 222.43 179.6C222.43 179.6 231.185 178.34 236.791 184.135C242.397 189.93 238.555 205.929 238.555 205.929" fill="white"/>
<path d="M244.919 208.89C245.801 207.189 246.494 205.425 246.935 203.598C248.131 199.756 248.32 195.662 247.627 191.693C246.557 186.78 243.596 182.434 239.439 179.663C235.974 177.332 231.817 176.324 227.66 176.828C225.518 177.017 223.377 177.647 221.424 178.592C220.983 178.844 220.857 179.348 221.046 179.789C221.109 179.852 221.172 179.978 221.235 180.04C221.676 180.607 222.432 180.922 223.188 180.796C223.314 180.796 223.44 180.796 223.566 180.733C223.692 180.733 223.818 180.733 224.006 180.67C223.566 180.733 224.321 180.67 224.384 180.67C224.888 180.67 225.392 180.67 225.959 180.67C226.589 180.67 227.345 180.796 227.849 180.859C230.935 181.3 234.085 182.56 236.1 185.08C237.612 186.906 238.179 189.993 238.368 192.512C238.557 195.347 238.431 198.118 237.99 200.953C237.864 202.087 237.675 203.221 237.423 204.354C237.36 204.669 237.297 204.984 237.234 205.362C237.297 204.984 237.234 205.362 237.234 205.488C237.108 206.181 237.549 206.874 238.242 207.063C238.683 207.252 239.943 207.441 240.132 206.748C241.203 202.402 241.643 197.929 241.391 193.457C241.203 190.434 240.636 187.221 238.809 184.765C236.478 181.678 232.699 179.726 228.983 178.97C226.652 178.466 224.195 178.34 221.802 178.655L223.566 180.796C223.943 180.607 224.384 180.418 224.762 180.229C224.951 180.166 225.14 180.103 225.392 179.977L225.707 179.852L225.959 179.789C226.589 179.6 227.156 179.474 227.786 179.348C230.872 178.718 234.085 179.159 236.919 180.607C240.762 182.812 243.596 186.591 244.604 190.938C245.423 194.528 245.297 198.307 244.289 201.898C243.785 203.913 243.029 205.929 242.084 207.756C241.391 208.827 244.226 210.149 244.919 208.89Z" fill="#000005"/>
<path d="M239.686 244.352C236.915 245.864 233.765 247.375 230.553 246.871C227.718 246.431 225.199 244.541 222.301 244.73C219.53 244.919 217.01 246.997 214.113 246.557C211.53 246.179 209.577 244.163 207.121 243.47C205.483 242.966 203.971 243.344 202.334 243.659C201.578 243.848 200.759 243.974 200.003 243.974C199.625 243.974 199.247 243.911 198.932 243.785C198.806 243.722 198.68 243.722 198.554 243.659C196.854 242.966 198.617 242.021 201.326 246.745C200.633 245.675 199.751 244.667 198.806 243.785C198.365 243.344 197.862 242.903 197.358 242.525C197.295 242.525 196.791 242.147 196.98 242.462C197.673 243.533 198.491 244.541 199.373 245.423C200.255 246.431 201.326 247.312 202.46 248.005C203.72 248.509 205.168 248.572 206.491 248.194C208.192 247.816 209.766 247.438 211.467 247.942C212.79 248.446 214.113 249.139 215.31 249.895C216.506 250.651 217.892 251.029 219.341 251.092C220.853 251.092 222.301 250.462 223.687 249.958C225.199 249.328 226.837 249.076 228.474 249.328C230.112 249.643 231.624 250.462 233.198 250.903C237.041 252.1 240.694 250.588 244.096 248.761C244.348 248.635 242.269 246.431 242.143 246.242C241.639 245.675 241.072 245.171 240.505 244.73C240.379 244.73 239.875 244.226 239.686 244.352Z" fill="#000005"/>
<path d="M252.098 259.659C251.216 260.037 250.398 260.352 249.516 260.667C249.138 260.793 248.697 260.919 248.256 261.045L247.563 261.234L246.933 261.423L246.429 261.549L245.862 261.675C245.358 261.801 244.918 261.864 244.414 261.99C243.469 262.179 242.524 262.367 241.516 262.493C240.697 262.619 240.256 262.619 239.311 262.682C238.304 262.745 237.359 262.745 236.351 262.682C234.65 262.493 232.95 262.116 231.312 261.549C229.485 260.919 227.596 260.478 225.643 260.352C223.564 260.415 221.549 260.604 219.533 260.982C215.943 261.423 212.289 261.297 208.762 260.73C204.352 259.974 199.943 258.966 195.66 257.769C194.274 257.391 192.511 258.273 191.566 259.218C190.873 259.911 190.18 261.297 191.566 261.675C199.439 263.816 207.628 265.895 215.817 265.139C216.824 265.076 217.832 264.887 218.903 264.761C219.974 264.635 220.793 264.446 221.612 264.446C223.375 264.383 225.139 264.698 226.777 265.328C228.666 266.021 230.619 266.462 232.635 266.714C234.713 266.84 236.855 266.777 238.934 266.525C243.469 266.021 247.878 264.887 252.098 263.186C253.169 262.745 255.059 261.801 254.996 260.415C254.933 259.029 252.854 259.344 252.098 259.659Z" fill="#000005"/>
<path d="M260.854 276.981C260.602 277.17 260.35 277.296 260.098 277.485C259.405 277.926 260.35 277.359 259.846 277.611C259.342 277.863 258.712 278.241 258.145 278.493C257.578 278.745 257.074 278.934 256.507 279.186L256.129 279.312C255.563 279.501 256.129 279.312 256.192 279.312C255.877 279.438 255.563 279.5 255.248 279.563C254.051 279.878 252.854 280.067 251.594 280.193C251.468 280.193 250.964 280.193 251.342 280.193C251.72 280.193 251.279 280.193 251.216 280.193H250.334C249.705 280.193 249.075 280.13 248.445 280.067C248.13 280.067 247.878 280.004 247.563 279.941C247.248 279.878 246.618 279.815 247.185 279.878C246.555 279.752 245.925 279.626 245.358 279.438C244.036 279.06 242.839 278.556 241.579 278.052C240.13 277.485 238.681 277.107 237.17 276.918C236.351 276.855 235.532 276.855 234.713 276.918C234.398 276.918 234.083 276.981 233.768 277.044C233.264 276.981 233.579 277.044 233.768 277.044C234.02 277.107 234.083 277.107 233.768 277.044C233.264 276.792 233.642 277.044 233.768 277.044L233.327 276.792C232.886 276.54 232.445 276.351 231.942 276.162C231.123 275.847 230.304 275.721 229.485 275.595C227.658 275.469 225.832 275.784 224.194 276.603C222.871 277.296 221.674 278.934 222.43 280.445C223.186 281.894 224.95 282.461 226.462 281.705C226.713 281.579 227.028 281.453 227.28 281.327C227.658 281.138 226.776 281.39 227.217 281.327C227.343 281.327 227.469 281.264 227.595 281.264C227.721 281.264 227.91 281.201 228.099 281.201C228.036 281.201 227.595 281.201 227.91 281.201C228.225 281.201 228.666 281.201 229.044 281.264C228.477 281.201 229.17 281.327 229.359 281.39C229.548 281.453 229.611 281.453 229.737 281.516C229.233 281.264 229.611 281.453 229.737 281.516C231.249 282.461 233.075 282.713 234.776 282.335C234.902 282.335 235.028 282.272 235.217 282.272C234.65 282.335 235.154 282.272 235.217 282.272C235.595 282.335 235.91 282.335 236.288 282.335C236.855 282.398 236.477 282.398 236.351 282.335L236.729 282.398C237.044 282.461 237.359 282.587 237.674 282.65C238.366 282.902 239.122 283.154 239.815 283.406C242.335 284.414 244.98 285.107 247.689 285.358C250.334 285.61 253.043 285.358 255.626 284.729C258.775 283.973 261.735 282.65 264.381 280.76C265.641 279.878 266.082 277.863 265.011 276.729C263.814 275.595 261.987 275.469 260.665 276.477L260.854 276.981Z" fill="#000005"/>
<path d="M234.209 293.862C233.768 293.862 233.327 293.925 232.886 293.925H232.131C231.564 293.925 232.823 293.988 232.194 293.925C231.312 293.862 230.43 293.736 229.611 293.61L229.044 293.484C228.792 293.421 227.973 293.169 228.918 293.484C228.477 293.358 228.099 293.232 227.658 293.106C226.839 292.791 226.021 292.476 225.265 292.098C224.068 291.468 221.863 291.909 221.422 293.358C220.918 294.995 222.115 296.192 223.438 296.822C227.217 298.649 231.438 299.468 235.595 299.09C236.981 298.964 238.367 297.767 237.863 296.255C237.359 294.743 235.847 293.799 234.209 293.862Z" fill="#000005"/>
<path d="M101.426 121.776C101.426 121.776 81.0172 122.973 80.0093 118.501C79.0015 114.028 77.7417 91.5413 81.5211 90.7225C85.3004 89.9036 118.559 89.0847 120.322 91.3524C122.086 93.62 123.346 119.32 120.574 120.579C117.803 121.839 111 121.587 111 121.587C111 121.587 113.772 128.075 111.756 128.075C109.74 128.075 101.426 121.776 101.426 121.776Z" fill="#F2713A"/>
<path d="M89.4297 114.549C89.4868 114.052 89.5439 113.554 89.8105 112.438C90.0772 111.322 90.5517 109.602 91.1846 107.877C91.8174 106.153 92.5943 104.474 93.0327 103.546C93.5343 102.484 93.9147 101.594 94.6669 99.883C95.091 98.9181 95.7613 97.8315 96.2417 97.0758C96.7221 96.3202 97.0332 95.9472 97.2858 95.8763C97.7378 95.7493 98.1168 96.654 98.4969 97.3658C98.8585 98.0427 99.0171 98.7157 99.5232 100.518C99.9476 102.029 100.824 104.719 101.323 106.682C101.822 108.645 101.946 109.792 102.044 110.487C102.239 111.877 102.364 112.717 102.431 113.349C102.471 113.563 102.539 113.866 102.574 114.091C102.609 114.316 102.609 114.453 102.609 114.595" stroke="white" stroke-width="3" stroke-linecap="round"/>
<path d="M91.7891 107.983C91.798 107.983 91.8069 107.983 93.1932 107.974C94.5794 107.965 97.3427 107.947 98.8082 107.931C100.358 107.902 100.534 107.879 100.711 107.85C100.799 107.83 100.883 107.799 100.996 107.767" stroke="white" stroke-width="3" stroke-linecap="round"/>
<path d="M109.219 96.5879V114.401" stroke="white" stroke-width="3" stroke-linecap="round"/>
<path d="M100.295 120.957C96.8309 121.146 93.3665 121.209 89.9021 121.02C88.6424 120.957 87.3826 120.894 86.1228 120.705C85.052 120.579 83.9811 120.39 82.9103 120.138C82.6584 120.075 82.4694 120.012 82.2175 119.949C82.5954 120.075 81.9655 119.823 81.8395 119.823C81.5246 119.697 82.1545 120.012 81.8395 119.823C81.4616 119.571 81.7765 119.76 81.8395 119.823C81.7765 119.76 81.6505 119.76 81.5876 119.697C81.9655 120.075 81.3356 119.571 81.7135 119.823C81.5246 119.697 81.4616 119.571 81.3986 119.382C81.3356 119.067 81.2096 118.752 81.2096 118.437C80.4538 113.587 80.2018 108.674 80.3278 103.698C80.3278 101.052 80.4538 98.4696 80.8317 95.887C81.0207 94.6903 81.3356 92.3596 82.4694 91.7298C82.8473 91.5408 83.2253 91.4778 83.6032 91.4778C84.2961 91.4148 85.052 91.3518 85.7448 91.2888C87.8865 91.1629 90.0281 91.0369 92.1697 90.9739C97.6498 90.7849 103.13 90.7219 108.673 90.8479C111.067 90.9109 113.46 90.9739 115.854 91.1629C116.61 91.2258 117.554 91.2888 118.373 91.4148L119.381 91.6038C119.822 91.6668 119.255 91.5408 119.57 91.6668C119.696 91.7298 119.822 91.7298 120.011 91.7927C119.633 91.7298 119.696 91.6668 119.885 91.7298C120.074 91.7927 120.2 91.8557 119.696 91.6038C120.011 91.7298 119.129 91.2258 119.255 91.3518C118.814 91.0369 119.318 91.2888 118.94 91.0369L119.003 91.0999C119.003 91.1629 119.066 91.2258 119.066 91.2888C119.318 91.9187 119.444 92.5486 119.57 93.1785C119.948 95.3201 120.2 97.5248 120.326 99.7294C120.83 104.957 120.83 110.186 120.452 115.414C120.326 116.736 120.263 118.563 119.444 119.697C119.318 119.886 119.192 119.886 118.814 120.012C118.121 120.264 117.365 120.39 116.673 120.516C115.161 120.705 113.586 120.831 112.011 120.831C111.318 120.831 110.563 120.831 109.807 120.831C109.681 120.831 109.429 120.894 109.492 121.083C109.87 122.028 110.248 122.972 110.5 123.917C110.689 124.61 110.878 125.303 110.941 126.059C111.004 126.5 110.878 126.941 110.626 127.319C110.563 127.445 110.5 127.319 110.626 127.382C110.374 127.256 110.815 127.445 110.563 127.382L110.374 127.319C110.122 127.193 110.563 127.445 110.374 127.319C110.059 127.193 109.807 127.004 109.492 126.878C109.744 127.004 109.366 126.815 109.303 126.752L108.673 126.374C107.224 125.492 106.027 124.673 104.642 123.665C103.823 123.098 103.004 122.468 102.185 121.902C101.681 121.524 100.799 121.02 100.169 121.083C99.5395 121.146 100.106 121.713 100.358 121.965C102.689 123.728 105.083 125.429 107.602 126.941C108.988 127.823 110.626 128.83 112.326 129.019C114.027 129.208 113.775 127.382 113.523 126.248C113.271 124.925 112.83 123.602 112.326 122.28L112.011 122.531C114.531 122.657 116.987 122.468 119.507 122.091C120.389 121.965 121.649 121.839 122.279 121.083C122.594 120.579 122.845 119.949 122.908 119.382C123.349 117.177 123.538 114.973 123.538 112.768C123.601 109.934 123.538 107.036 123.412 104.202C123.286 101.619 123.097 99.0365 122.72 96.4539C122.531 95.0682 122.468 93.1785 121.649 91.9817C120.767 90.6589 118.688 90.218 117.239 89.9661C115.161 89.6511 113.082 89.4621 111.004 89.3992C105.334 89.1472 99.6655 89.1472 93.9964 89.2732C89.7132 89.2732 85.4299 89.4621 81.1466 89.9031C80.6427 89.9031 80.1388 90.029 79.7609 90.281C79.257 90.7219 78.879 91.3518 78.6901 92.0447C77.9342 94.2493 77.8082 96.7059 77.6822 99.0365C77.4303 104.58 77.5563 110.186 78.2491 115.666C78.3121 116.485 78.4381 117.24 78.6271 118.059C78.942 118.878 79.5089 119.634 80.3278 120.075C82.4064 121.461 84.989 122.028 87.4456 122.343C92.1697 122.909 96.8939 123.035 101.681 122.72L102.626 122.657C103.319 122.594 102.626 121.965 102.437 121.776C101.744 121.272 101.051 120.957 100.295 120.957Z" fill="#F2713A"/>
<path d="M152.009 70.8805C147.348 66.3453 142.624 61.0542 135.947 59.6684C133.175 59.1015 130.152 59.4165 127.821 61.2432C125.869 62.8179 124.609 65.4005 125.113 67.92C125.428 69.1798 126.184 70.3136 127.191 71.1325C128.262 72.0773 129.774 72.9592 131.286 72.8962C132.357 72.8332 133.301 72.1403 133.679 71.1325C134.057 70.1246 133.805 68.9908 132.923 68.298C130.719 66.2193 127.254 65.7784 124.294 65.9044C114.72 66.1563 107.098 74.093 107.35 83.6673C107.35 83.7303 107.35 83.7933 107.35 83.9193C107.35 84.4232 108.484 84.9901 108.862 85.1791C109.051 85.305 110.058 85.809 110.058 85.305C109.932 80.5809 111.759 76.0456 115.035 72.7072C118.373 69.3688 122.971 67.5421 127.695 67.7311C128.829 67.7311 130.026 67.92 131.097 68.235C131.223 68.298 131.349 68.298 131.412 68.3609C131.979 68.4239 130.782 68.109 130.845 67.92L131.034 68.3609C131.097 68.8019 131.034 69.2428 130.845 69.6837C130.467 70.5026 129.711 71.0695 128.829 71.1955C128.703 71.1955 128.577 71.1955 128.514 71.1955C128.451 71.1955 128.325 71.0695 128.451 71.1955C128.703 71.4474 128.577 71.3214 128.514 71.0695C128.199 70.5656 127.947 70.0617 127.821 69.4948C127.443 67.4161 128.073 65.3375 129.585 63.8257C131.223 62.125 133.49 61.1802 135.884 61.3062C141.742 61.4321 145.836 66.5343 149.742 70.3136C150.245 70.8805 150.938 71.2585 151.631 71.5104C152.198 71.5734 152.513 71.3844 152.009 70.8805Z" fill="#F2713A"/>
<path d="M62.0594 114.343C54.5007 117.177 48.4537 122.846 45.1153 130.216C40.1391 141.995 43.0367 155.664 52.422 164.419C54.1227 165.994 56.0754 167.506 58.406 167.82C60.4847 168.198 62.5003 167.191 63.5711 165.364C64.6419 163.411 64.075 160.955 62.1854 159.695C60.4217 158.561 58.1541 158.498 56.2644 159.506C52.1071 161.711 51.6032 166.939 51.4142 171.096C51.1623 175.946 51.4772 180.985 53.4929 185.457C55.1306 189.237 58.0911 192.323 61.8074 194.087C62.7523 194.528 63.7601 194.78 64.7679 194.969C65.5238 195.095 66.0277 194.276 65.9647 193.646C65.9017 192.827 65.2718 192.134 64.453 192.008C61.2405 191.378 58.595 189.174 56.8313 186.465C54.7526 183.19 54.1227 179.285 53.9968 175.505C53.9338 173.49 54.0598 171.474 54.2487 169.458C54.4377 167.632 54.7526 165.742 55.6975 164.23C56.5163 162.907 57.9021 162.025 59.4768 161.837C60.0437 161.774 60.9886 161.963 61.3035 162.466C61.4925 162.718 61.3035 163.222 61.1145 163.6C58.9729 167.065 54.5007 163.033 52.737 161.207C45.4932 153.648 43.2886 142.562 47.1309 132.799C50.0285 125.681 55.6975 120.138 62.8782 117.366C63.5711 117.114 63.9491 116.421 63.6971 115.728V115.665C63.5711 114.973 62.7523 114.028 62.0594 114.343Z" fill="#F2713A"/>
<path d="M179.525 108.113C181.699 108.113 204.099 108.707 225.973 109.301C236.906 109.598 247.702 109.894 255.766 110.117C259.797 110.229 263.146 110.322 265.486 110.387C266.657 110.419 267.575 110.445 268.201 110.462C268.384 110.467 268.542 110.471 268.674 110.475V116.021H179.935C179.932 116.017 179.93 116.013 179.928 116.008C179.898 115.946 179.854 115.855 179.8 115.738C179.691 115.505 179.54 115.171 179.373 114.771C179.037 113.965 178.638 112.902 178.374 111.847C178.105 110.773 177.997 109.786 178.17 109.096C178.253 108.763 178.393 108.53 178.584 108.378C178.773 108.227 179.064 108.113 179.525 108.113Z" stroke="#F2713A"/>
<path d="M178.511 122.012C179.535 122.012 189.75 122.549 199.742 123.088C204.732 123.357 209.657 123.626 213.334 123.828C215.172 123.929 216.7 124.013 217.767 124.072C218.279 124.101 218.685 124.123 218.969 124.139V129.088H178.945C178.935 129.048 178.924 129.002 178.911 128.95C178.859 128.737 178.786 128.433 178.706 128.067C178.545 127.335 178.354 126.362 178.227 125.395C178.098 124.417 178.04 123.483 178.129 122.811C178.174 122.471 178.25 122.25 178.331 122.126C178.395 122.028 178.444 122.012 178.511 122.012Z" stroke="#F2713A"/>
<path d="M178.511 135.078C179.535 135.078 189.75 135.615 199.742 136.154C204.732 136.423 209.657 136.693 213.334 136.895C215.172 136.995 216.7 137.08 217.767 137.139C218.279 137.167 218.685 137.189 218.969 137.205V142.154H178.945C178.935 142.114 178.924 142.068 178.911 142.017C178.859 141.804 178.786 141.499 178.706 141.134C178.545 140.401 178.354 139.429 178.227 138.461C178.098 137.483 178.04 136.55 178.129 135.877C178.174 135.537 178.25 135.316 178.331 135.192C178.395 135.095 178.444 135.078 178.511 135.078Z" stroke="#F2713A"/>
<path d="M178.185 154.193C178.185 154.193 176.837 146.296 178.185 146.296C179.534 146.296 204.741 146.645 204.741 146.645V154.372H178.185V154.193Z" fill="#F2713A"/>
<path d="M228.214 122.012C229.238 122.012 239.453 122.549 249.445 123.088C254.435 123.357 259.36 123.626 263.037 123.828C264.876 123.929 266.403 124.013 267.47 124.072C267.982 124.101 268.388 124.123 268.672 124.139V129.088H228.648C228.638 129.048 228.627 129.002 228.614 128.95C228.562 128.737 228.489 128.433 228.409 128.067C228.248 127.335 228.057 126.362 227.93 125.395C227.801 124.417 227.743 123.483 227.832 122.811C227.877 122.471 227.953 122.25 228.034 122.126C228.099 122.028 228.147 122.012 228.214 122.012Z" stroke="#F2713A"/>
<path d="M228.214 135.078C229.238 135.078 239.453 135.615 249.445 136.154C254.435 136.423 259.36 136.693 263.037 136.895C264.876 136.995 266.403 137.08 267.47 137.139C267.982 137.167 268.388 137.189 268.672 137.205V142.154H228.648C228.638 142.114 228.627 142.068 228.614 142.017C228.562 141.804 228.489 141.499 228.409 141.134C228.248 140.401 228.057 139.429 227.93 138.461C227.801 137.483 227.743 136.55 227.832 135.877C227.877 135.537 227.953 135.316 228.034 135.192C228.099 135.095 228.147 135.078 228.214 135.078Z" stroke="#F2713A"/>
</svg>
