<svg width="406" height="306" viewBox="0 0 406 306" fill="none" xmlns="http://www.w3.org/2000/svg">
<path d="M353.337 257.051H54.9775C54.8989 257.073 54.8162 257.077 54.7359 257.062C54.6556 257.047 54.5799 257.014 54.5146 256.965C54.4494 256.916 54.3965 256.852 54.3601 256.779C54.3237 256.706 54.3047 256.625 54.3047 256.543C54.3047 256.462 54.3237 256.381 54.3601 256.308C54.3965 256.235 54.4494 256.171 54.5146 256.122C54.5799 256.073 54.6556 256.039 54.7359 256.025C54.8162 256.01 54.8989 256.013 54.9775 256.036H353.387C353.498 256.067 353.595 256.134 353.664 256.226C353.733 256.317 353.77 256.429 353.77 256.543C353.77 256.658 353.733 256.77 353.664 256.861C353.595 256.953 353.498 257.019 353.387 257.051H353.337Z" fill="#DCE0E6"/>
<path d="M72.5075 217.492V18.5075H335.492V217.492H72.5075Z" fill="white" stroke="#475569" stroke-width="1.015"/>
<rect width="64" height="4" transform="translate(171 40)" fill="#94A3B8"/>
<rect width="26" height="4" transform="translate(190 49)" fill="#94A3B8"/>
<rect width="40" height="2" transform="translate(183 198)" fill="#94A3B8"/>
<rect width="100" height="14" transform="translate(153 173)" fill="#1E293B"/>
<circle cx="158.5" cy="106.5" r="2" fill="#1E293B" stroke="#1E293B"/>
<rect x="153.5" y="101.5" width="29.6667" height="19" stroke="#475569"/>
<circle cx="193.5" cy="106.5" r="2" stroke="#475569"/>
<rect x="188.164" y="101.5" width="29.6667" height="19" stroke="#475569"/>
<circle cx="227.5" cy="106.5" r="2" stroke="#475569"/>
<rect x="222.836" y="101.5" width="29.6667" height="19" stroke="#475569"/>
<rect x="153.5" y="83.5" width="99" height="11" stroke="#475569"/>
<path d="M246 162L250 158" stroke="#475569"/>
<path d="M249 162L250 161" stroke="#475569"/>
<rect x="153.5" y="127.5" width="99" height="37" stroke="#475569"/>
<rect x="153.5" y="65.5" width="47" height="11" stroke="#475569"/>
<rect x="205.5" y="65.5" width="47" height="11" stroke="#475569"/>
<rect width="26" height="8" transform="translate(300 26)" fill="#CBD5E1"/>
<path d="M284.483 96.0578C283.855 95.5965 283.359 94.9791 283.044 94.2669C282.729 93.5547 282.606 92.7725 282.686 91.9978C281.894 92.171 281.066 92.0779 280.332 91.7328C279.598 91.3878 278.998 90.8102 278.626 90.0896C277.919 88.6081 277.723 86.9342 278.068 85.3293C276.832 84.7308 275.8 83.7824 275.099 82.6019C274.398 81.4214 274.059 80.0609 274.125 78.6896C274.191 77.3183 274.659 75.9966 275.47 74.8888C276.281 73.7811 277.4 72.9362 278.687 72.4591C278.468 72.3601 278.276 72.2097 278.128 72.0206C277.979 71.8315 277.879 71.6093 277.834 71.373C276.921 68.328 278.728 64.9176 281.509 63.4053C282.934 62.7089 284.491 62.3243 286.077 62.2771C287.663 62.2298 289.24 62.521 290.705 63.1312C290.622 62.7275 290.656 62.3085 290.804 61.9237C290.951 61.5389 291.206 61.2042 291.537 60.9591C292.207 60.4804 292.978 60.161 293.79 60.0253C297.871 59.1415 302.12 59.448 306.031 60.9084C307.889 61.6087 309.929 63.0196 309.777 64.9684C310.99 64.7614 312.238 64.9271 313.355 65.4436C314.473 65.9601 315.408 66.8032 316.036 67.8616C316.665 68.9201 316.958 70.1443 316.877 71.3727C316.796 72.6011 316.345 73.7762 315.582 74.7428C316.498 75.6201 317.16 76.7279 317.499 77.9497C317.839 79.1715 317.842 80.4622 317.51 81.6859C317.177 82.9096 316.521 84.0211 315.61 84.9034C314.7 85.7857 313.568 86.4062 312.334 86.6995C312.466 86.2428 313.167 86.6488 313.349 87.0852C314.557 90.1302 312.334 93.6929 309.502 95.3981C306.671 97.1033 302.55 97.4281 300.185 95.053C300.197 95.84 299.943 96.6081 299.464 97.2327C298.985 97.8573 298.309 98.3017 297.546 98.4938C296.006 98.8404 294.404 98.795 292.887 98.3619C291.364 98.0472 290.004 97.2251 288.533 96.8901C287.061 96.5552 285.812 97.0119 284.483 96.0578Z" fill="white"/>
<path d="M295.735 99.2028C294.726 99.1764 293.723 99.0471 292.741 98.8171C291.935 98.6241 291.147 98.3626 290.386 98.0356C289.728 97.7535 289.049 97.5227 288.356 97.3454C287.904 97.2574 287.446 97.2098 286.986 97.2033C286 97.2568 285.023 96.9974 284.194 96.4623C283.583 96.0131 283.083 95.4303 282.731 94.7584C282.379 94.0865 282.186 93.3432 282.164 92.585C281.351 92.6228 280.544 92.428 279.838 92.0235C279.131 91.6191 278.555 91.0216 278.176 90.3013C277.441 88.8439 277.203 87.1869 277.495 85.5815C276.296 84.9245 275.299 83.9525 274.612 82.7705C273.924 81.5885 273.573 80.2412 273.595 78.8741C273.617 77.5069 274.011 76.1716 274.736 75.0122C275.461 73.8529 276.489 72.9134 277.709 72.2952C277.542 72.0458 277.415 71.7718 277.333 71.4832C276.399 68.4382 278.115 64.6421 281.251 62.9267C282.618 62.2412 284.109 61.8384 285.635 61.7425C287.161 61.6465 288.69 61.8595 290.132 62.3685C290.255 61.648 290.634 60.9959 291.198 60.5313C291.928 60.0015 292.773 59.6535 293.664 59.5163C297.839 58.6099 302.186 58.9199 306.19 60.4095C308.595 61.3129 310.067 62.7846 310.25 64.4188C311.485 64.3311 312.72 64.5919 313.815 65.1716C314.91 65.7513 315.82 66.6265 316.441 67.6977C317.063 68.769 317.372 69.9933 317.332 71.2313C317.293 72.4693 316.907 73.6713 316.218 74.7007C317.038 75.5842 317.635 76.6514 317.959 77.8129C318.283 78.9745 318.324 80.1967 318.078 81.3773C317.833 82.5578 317.308 83.6625 316.548 84.5988C315.788 85.535 314.815 86.2757 313.711 86.7589C313.739 86.8076 313.762 86.8585 313.782 86.9112C315.122 90.3317 312.696 94.0669 309.722 95.833C307.042 97.4367 303.216 97.9442 300.587 96.0868C300.379 96.7772 300.002 97.4046 299.49 97.9118C298.977 98.4189 298.346 98.7895 297.653 98.9897C297.028 99.1563 296.382 99.2281 295.735 99.2028ZM282.682 91.4178C282.797 91.4139 282.91 91.4538 282.997 91.5294C283.062 91.5828 283.113 91.6516 283.145 91.7296C283.176 91.8076 283.188 91.8923 283.179 91.976C283.108 92.6664 283.217 93.3635 283.496 93.9988C283.776 94.6341 284.216 95.1858 284.773 95.5996C285.448 96.0338 286.245 96.2401 287.047 96.1883C287.572 96.1938 288.096 96.2516 288.61 96.3608C289.345 96.5462 290.065 96.7906 290.762 97.0916C291.466 97.3986 292.196 97.6432 292.944 97.8224C294.378 98.2327 295.891 98.2816 297.349 97.9645C297.987 97.8107 298.556 97.4509 298.969 96.9409C299.382 96.4308 299.615 95.7988 299.633 95.1428C299.622 95.0378 299.643 94.932 299.694 94.8395C299.744 94.747 299.822 94.6722 299.917 94.6252C300.012 94.58 300.119 94.5655 300.222 94.5837C300.326 94.6019 300.421 94.6518 300.495 94.7267C302.739 96.9698 306.585 96.5537 309.204 94.9906C311.823 93.4275 313.924 90.0983 312.828 87.2969C312.801 87.2393 312.763 87.1876 312.716 87.1446L312.422 87.2258C312.335 87.247 312.245 87.245 312.159 87.22C312.073 87.1951 311.996 87.1481 311.934 87.0837C311.874 87.018 311.83 86.9378 311.809 86.8508C311.788 86.7638 311.789 86.6728 311.813 86.5864C311.856 86.4285 311.947 86.2884 312.075 86.1863C312.203 86.0841 312.36 86.0252 312.523 86.018C312.614 86.0032 312.706 86.0032 312.797 86.018C313.798 85.6537 314.7 85.0586 315.428 84.2809C316.156 83.5032 316.691 82.5648 316.989 81.5418C317.28 80.4042 317.267 79.2103 316.952 78.0793C316.636 76.9482 316.03 75.9197 315.193 75.0966C315.105 75.0075 315.052 74.8903 315.043 74.7658C315.033 74.6413 315.068 74.5176 315.142 74.4165C315.826 73.5278 316.228 72.454 316.296 71.3342C316.363 70.2145 316.093 69.1002 315.52 68.1358C314.947 67.1713 314.098 66.4011 313.082 65.9248C312.066 65.4485 310.931 65.288 309.823 65.4642C309.748 65.4748 309.671 65.4685 309.598 65.446C309.525 65.4234 309.459 65.3851 309.402 65.3337C309.346 65.2823 309.302 65.2192 309.273 65.1487C309.244 65.0783 309.231 65.0023 309.235 64.9263C309.356 63.282 307.55 61.9929 305.814 61.3433C301.996 59.9198 297.85 59.6204 293.867 60.4806C293.136 60.6007 292.442 60.8853 291.837 61.3129C291.588 61.4986 291.395 61.7493 291.278 62.0375C291.162 62.3257 291.127 62.6403 291.178 62.947C291.204 63.0364 291.205 63.1314 291.179 63.2211C291.154 63.3109 291.104 63.3917 291.036 63.4545C290.967 63.518 290.883 63.5619 290.792 63.5815C290.701 63.6012 290.606 63.5959 290.518 63.5662C289.122 62.979 287.617 62.6962 286.103 62.7364C284.589 62.7767 283.101 63.1391 281.738 63.7996C279.008 65.2917 277.506 68.5397 278.307 71.1787C278.379 71.4223 278.551 71.8486 278.815 71.9298C278.917 71.9595 279.007 72.0205 279.073 72.1043C279.139 72.1881 279.176 72.2904 279.18 72.3967C279.182 72.5038 279.15 72.6087 279.09 72.6975C279.031 72.7864 278.945 72.8549 278.845 72.894C277.652 73.3373 276.615 74.1216 275.864 75.1493C275.112 76.177 274.679 77.4028 274.619 78.6745C274.558 79.9462 274.873 81.2076 275.523 82.302C276.173 83.3965 277.131 84.2757 278.277 84.8304C278.377 84.8762 278.458 84.9542 278.507 85.0518C278.557 85.1494 278.573 85.2609 278.551 85.3684C278.218 86.862 278.397 88.4242 279.059 89.8039C279.376 90.425 279.888 90.9245 280.518 91.2254C281.147 91.5262 281.857 91.6116 282.54 91.4685C282.586 91.457 282.635 91.4536 282.682 91.4584V91.4178Z" fill="#1E293B"/>
<path d="M278.319 107.992C278.319 107.992 260.982 139.092 258.658 144.532C256.334 149.973 266.626 162.609 270.605 159.544C274.583 156.479 278.319 107.992 278.319 107.992Z" fill="#2563EB"/>
<path d="M311.545 270.189C311.545 270.189 312.225 274.757 311.2 276.513C309.806 279.007 308.988 281.781 308.805 284.633C309.613 285.567 310.61 286.322 311.729 286.846C312.848 287.371 314.065 287.654 315.301 287.678C319.411 287.678 323.512 284.511 323.969 282.988C324.426 281.466 320.66 265.297 320.66 265.297L311.545 270.189Z" fill="white"/>
<path d="M315.301 288.115C313.994 288.095 312.706 287.797 311.522 287.24C310.339 286.684 309.288 285.882 308.44 284.887C308.402 284.841 308.375 284.787 308.359 284.729C308.343 284.672 308.34 284.612 308.348 284.552C308.532 281.645 309.371 278.817 310.804 276.28C311.576 274.961 311.271 271.479 311.089 270.261C311.071 270.167 311.085 270.07 311.127 269.984C311.169 269.898 311.237 269.828 311.322 269.784L320.457 264.861C320.522 264.829 320.593 264.812 320.665 264.812C320.737 264.812 320.809 264.829 320.873 264.861C320.937 264.893 320.993 264.937 321.038 264.991C321.084 265.045 321.118 265.108 321.137 265.176C321.766 267.906 324.903 281.548 324.436 283.111C323.969 284.674 319.625 288.115 315.301 288.115ZM309.292 284.451C310.056 285.29 310.982 285.965 312.015 286.435C313.049 286.904 314.166 287.158 315.301 287.181C319.229 287.181 323.147 284.136 323.522 282.827C323.786 281.934 322.112 273.59 320.345 265.958L312.043 270.444C312.185 271.55 312.54 275.133 311.596 276.747C310.27 279.114 309.483 281.745 309.292 284.451Z" fill="#1E293B"/>
<path d="M283.281 159.344L303.043 164.967L307.621 106.239C307.621 106.239 291.259 102.25 287.321 104.128C283.383 106.005 283.281 159.344 283.281 159.344Z" fill="#1E293B"/>
<path d="M303.044 165.473H302.902L283.18 159.83C283.073 159.801 282.978 159.738 282.91 159.65C282.842 159.562 282.805 159.454 282.805 159.343C282.805 150.38 283.089 105.548 287.118 103.67C291.148 101.792 307.094 105.578 307.774 105.7C307.891 105.731 307.993 105.801 308.064 105.899C308.134 105.998 308.168 106.117 308.159 106.238L303.582 164.966C303.575 165.04 303.553 165.112 303.516 165.177C303.479 165.242 303.429 165.298 303.369 165.342C303.279 165.421 303.164 165.468 303.044 165.473ZM283.759 158.957L302.557 164.306L307.053 106.624C302.242 105.487 290.509 103.152 287.494 104.594C285.21 105.71 283.84 133.359 283.789 158.957H283.759Z" fill="#1E293B"/>
<path d="M289.873 259.625V273.368L283.488 275.246L283.64 272.434L280.758 275.408C280.758 275.408 263.604 278.575 263.696 276.22C263.787 273.865 265.523 272.586 267.685 271.419C270.009 270.16 276.119 266.618 276.119 266.618L277.033 256.539" fill="white"/>
<path d="M266.871 277.539C265.737 277.664 264.592 277.459 263.572 276.95C263.461 276.862 263.372 276.749 263.312 276.62C263.252 276.492 263.223 276.351 263.227 276.209C263.328 273.601 265.328 272.149 267.459 271.012C269.591 269.876 274.564 266.952 275.681 266.333L276.564 256.488C276.579 256.367 276.64 256.256 276.735 256.178C276.829 256.101 276.95 256.063 277.072 256.072C277.133 256.077 277.192 256.094 277.246 256.122C277.3 256.151 277.348 256.19 277.387 256.237C277.426 256.284 277.455 256.339 277.472 256.398C277.489 256.457 277.495 256.518 277.488 256.579L276.584 266.678C276.576 266.752 276.55 266.822 276.509 266.883C276.469 266.945 276.415 266.996 276.351 267.034C276.29 267.034 270.261 270.596 267.906 271.845C265.551 273.093 264.232 274.24 264.161 276.26C264.648 277.112 272.128 276.534 280.523 274.991L283.304 272.129C283.372 272.062 283.458 272.017 283.552 271.999C283.646 271.981 283.743 271.991 283.831 272.027C283.917 272.066 283.988 272.129 284.037 272.209C284.086 272.288 284.11 272.381 284.105 272.474L283.984 274.636L289.414 273.042V259.644C289.413 259.584 289.423 259.523 289.446 259.466C289.468 259.41 289.502 259.358 289.544 259.315C289.587 259.271 289.637 259.237 289.693 259.213C289.75 259.19 289.81 259.177 289.871 259.177C289.994 259.177 290.113 259.227 290.201 259.314C290.288 259.402 290.338 259.521 290.338 259.644V273.387C290.339 273.488 290.307 273.587 290.246 273.668C290.186 273.749 290.1 273.807 290.003 273.834L283.618 275.712C283.547 275.731 283.473 275.734 283.401 275.72C283.329 275.706 283.261 275.675 283.202 275.631C283.144 275.586 283.097 275.527 283.067 275.459C283.037 275.392 283.024 275.318 283.03 275.245L283.111 273.661L281.081 275.742C281.013 275.813 280.924 275.859 280.827 275.874C276.222 276.767 271.557 277.324 266.871 277.539Z" fill="#1E293B"/>
<path d="M320.522 164.881L325.81 269.243C325.81 269.243 325.303 273.059 317.243 273.536C309.184 274.013 309.996 272.065 309.996 272.065L297.39 195.513L292.224 263.518L274.867 264.645L278.318 157.461L320.522 164.881Z" fill="#1E293B"/>
<path d="M314.879 274.12C311.976 274.12 310.26 273.704 309.672 272.871C309.496 272.636 309.42 272.341 309.459 272.049L297.603 199.781L292.762 263.554C292.752 263.676 292.699 263.791 292.611 263.877C292.523 263.962 292.407 264.014 292.285 264.021L274.898 265.127C274.827 265.132 274.756 265.122 274.69 265.098C274.623 265.073 274.563 265.035 274.512 264.985C274.461 264.937 274.421 264.878 274.395 264.814C274.369 264.749 274.357 264.679 274.36 264.609L277.811 157.425C277.813 157.352 277.83 157.28 277.863 157.214C277.895 157.148 277.941 157.09 277.998 157.044C278.055 156.997 278.121 156.964 278.192 156.946C278.263 156.927 278.337 156.925 278.41 156.938L320.613 164.388C320.727 164.407 320.831 164.465 320.907 164.552C320.983 164.639 321.026 164.75 321.03 164.865L326.287 269.227C326.287 269.491 325.628 273.551 317.254 274.039C316.391 274.089 315.599 274.12 314.879 274.12ZM310.463 272.252L310.555 272.343C310.869 272.648 312.148 273.359 317.193 273.034C324.653 272.597 325.313 269.217 325.313 269.177L320.065 165.312L278.806 158.075L275.385 264.112L291.777 263.097L296.913 195.538C296.925 195.415 296.981 195.3 297.07 195.215C297.16 195.129 297.277 195.078 297.4 195.072C297.523 195.065 297.643 195.104 297.739 195.181C297.834 195.257 297.898 195.367 297.918 195.488L310.484 272.039C310.509 272.132 310.509 272.23 310.484 272.323L310.463 272.252Z" fill="#1E293B"/>
<path d="M304.065 100.625C304.065 100.625 297.295 171.502 300.33 175.562C303.364 179.622 322.091 182.84 323.492 174.964C325.796 162.012 324.507 115.485 321.807 111.11C310.906 101.417 304.065 100.625 304.065 100.625Z" fill="#2563EB"/>
<path d="M278.32 107.995C278.32 107.995 268.637 172.366 270.464 174.234C272.291 176.101 282.218 178.629 284.958 176.751C287.699 174.873 291.444 100.961 291.444 100.961C286.504 102.049 281.962 104.484 278.32 107.995Z" fill="#2563EB"/>
<path d="M291.975 99.6814L291.142 106.553C291.593 107.912 292.542 109.051 293.798 109.74C295.053 110.429 296.523 110.618 297.912 110.268C303.15 109.162 303.211 106.127 303.211 106.127C303.211 106.127 303.921 90.6378 303.921 90.5972C303.795 90.2388 303.625 89.8978 303.414 89.5822C302.632 87.8161 301.516 85.3902 301.85 83.4313C302.132 81.8164 302.938 80.3394 304.144 79.2292C303.524 79.5056 302.847 79.635 302.168 79.6073C301.489 79.5796 300.826 79.3955 300.23 79.0694C299.633 78.7433 299.121 78.284 298.731 77.7272C298.341 77.1704 298.085 76.5312 297.983 75.8594C297.983 76.5597 297.364 77.0774 296.775 77.4631C295.906 78.1393 294.832 78.4975 293.73 78.4781C292.289 78.3157 291.213 77.0875 289.863 76.5597C290.072 77.0227 290.107 77.5454 289.961 78.0319C289.816 78.5185 289.5 78.9364 289.072 79.2089C288.191 79.7301 287.141 79.8833 286.148 79.6352C286.808 79.7671 286.25 87.1056 286.24 87.7552C286.147 90.0299 286.201 92.3083 286.402 94.576C286.889 98.6258 291.975 99.6814 291.975 99.6814Z" fill="white"/>
<path d="M296.38 110.939C292.025 110.939 290.645 106.757 290.635 106.706C290.62 106.636 290.62 106.563 290.635 106.493L291.406 100.068C290.076 99.6824 286.331 98.2817 285.885 94.5262C285.69 92.4107 285.633 90.285 285.712 88.1621V87.6343C285.712 87.5328 285.712 87.2486 285.712 86.8426C286.006 81.9199 285.915 80.3771 285.773 79.9711C285.698 79.9147 285.64 79.8377 285.608 79.7494C285.576 79.6612 285.569 79.5654 285.59 79.4737C285.601 79.4082 285.625 79.3455 285.661 79.2896C285.697 79.2337 285.744 79.1858 285.799 79.1487C285.854 79.1116 285.916 79.0862 285.982 79.074C286.047 79.0618 286.114 79.0632 286.179 79.0779C287.041 79.288 287.951 79.1647 288.727 78.7328C289.056 78.525 289.301 78.2063 289.416 77.8341C289.532 77.4618 289.51 77.0606 289.356 76.7028C289.304 76.6114 289.283 76.5063 289.293 76.4019C289.304 76.2976 289.347 76.1991 289.416 76.1201C289.485 76.0411 289.577 75.9854 289.679 75.9607C289.781 75.936 289.888 75.9435 289.985 75.9821C290.556 76.2299 291.101 76.536 291.609 76.8956C292.229 77.3919 292.955 77.7392 293.73 77.9106C294.709 77.9181 295.662 77.6004 296.441 77.0073C297.1 76.581 297.456 76.1953 297.456 75.8299C297.458 75.7011 297.508 75.5777 297.596 75.4839C297.684 75.3901 297.804 75.3325 297.933 75.3224C298.06 75.3107 298.187 75.3485 298.287 75.4279C298.387 75.5072 298.453 75.6221 298.471 75.7487C298.553 76.3485 298.773 76.921 299.114 77.4212C299.455 77.9213 299.908 78.3353 300.436 78.6306C300.965 78.9258 301.555 79.0943 302.16 79.1226C302.764 79.1509 303.367 79.0383 303.921 78.7937C304.03 78.7427 304.154 78.7331 304.27 78.7667C304.386 78.8004 304.485 78.8749 304.55 78.9764C304.616 79.0768 304.643 79.1971 304.629 79.316C304.614 79.4349 304.557 79.5447 304.469 79.626C303.339 80.6571 302.585 82.0359 302.328 83.5439C302.033 85.2795 303.038 87.6039 303.769 89.2076L303.86 89.4004C303.902 89.4913 303.949 89.5794 304.002 89.6643C304.222 89.9625 304.362 90.3119 304.408 90.6793C304.408 90.6793 304.408 90.6793 303.698 106.239C303.698 106.371 303.566 109.69 297.993 110.847C297.46 110.934 296.919 110.964 296.38 110.939ZM291.629 106.493C292.042 107.708 292.899 108.722 294.029 109.33C295.159 109.939 296.478 110.096 297.719 109.771C302.449 108.756 302.612 106.219 302.622 106.107C302.632 105.996 303.322 90.8011 303.332 90.5778C303.332 90.5778 303.16 90.2733 303.079 90.1312C302.997 90.0123 302.926 89.8867 302.865 89.7557L302.784 89.573C302.003 87.7866 300.927 85.3607 301.272 83.3206C301.466 82.1485 301.928 81.037 302.622 80.0726C301.678 80.1294 300.737 79.9258 299.902 79.4839C298.98 78.9607 298.245 78.1621 297.801 77.2001C297.549 77.4506 297.27 77.6719 296.968 77.8599C295.992 78.5701 294.804 78.928 293.599 78.8749C292.669 78.7019 291.792 78.3124 291.041 77.7381L290.493 77.3828C290.463 77.8069 290.339 78.2189 290.128 78.588C289.917 78.9571 289.625 79.2737 289.275 79.5143C288.545 79.9813 287.682 80.1953 286.818 80.1233C286.952 82.3661 286.915 84.6157 286.707 86.8528C286.707 87.2385 286.707 87.5024 286.707 87.6039V88.1215C286.632 90.2038 286.69 92.2888 286.879 94.3638C287.316 98.1091 291.954 99.1241 292.046 99.1343C292.168 99.1632 292.276 99.2359 292.349 99.3387C292.422 99.4414 292.455 99.5673 292.441 99.6925L291.629 106.493Z" fill="#1E293B"/>
<path d="M291.017 87.0703C291.017 87.0703 287.972 91.039 288.612 91.8104C289.251 92.5818 291.048 92.2367 291.048 92.2367" fill="white"/>
<path d="M290.156 92.8196C289.806 92.8451 289.455 92.7938 289.127 92.6693C288.799 92.5448 288.502 92.3501 288.257 92.0989C287.567 91.2057 289.191 88.6987 290.663 86.7499C290.744 86.6422 290.864 86.571 290.997 86.552C291.13 86.5329 291.266 86.5676 291.374 86.6484C291.428 86.6875 291.474 86.7372 291.509 86.7945C291.543 86.8519 291.566 86.9156 291.576 86.982C291.585 87.0484 291.581 87.1159 291.564 87.1807C291.547 87.2455 291.516 87.3061 291.475 87.3589C290.125 89.1554 289.009 91.1042 289.09 91.5407C289.333 91.835 290.379 91.835 290.998 91.7234C291.063 91.71 291.131 91.7097 291.196 91.7224C291.261 91.735 291.324 91.7605 291.379 91.7972C291.435 91.834 291.483 91.8814 291.52 91.9366C291.557 91.9919 291.584 92.0539 291.597 92.1192C291.61 92.1852 291.61 92.2533 291.597 92.3193C291.583 92.3853 291.557 92.448 291.519 92.5037C291.481 92.5594 291.433 92.6071 291.377 92.6439C291.32 92.6807 291.257 92.7059 291.191 92.7181C290.85 92.7838 290.503 92.8177 290.156 92.8196Z" fill="#1E293B"/>
<path d="M291.973 99.6821C291.973 99.6821 296.033 99.6821 297.89 98.5859C297.89 98.5859 296.307 103.326 291.922 104.493L291.973 99.6821Z" fill="#1E293B"/>
<path d="M291.922 104.994C291.809 104.996 291.698 104.961 291.607 104.893C291.545 104.845 291.495 104.784 291.461 104.713C291.428 104.643 291.412 104.565 291.414 104.487L291.465 99.6755C291.465 99.5409 291.519 99.4118 291.614 99.3167C291.709 99.2215 291.838 99.168 291.973 99.168C292.186 99.168 295.921 99.168 297.626 98.153C297.711 98.0941 297.812 98.0625 297.915 98.0625C298.019 98.0625 298.12 98.0941 298.205 98.153C298.283 98.2199 298.341 98.3085 298.37 98.4078C298.399 98.507 298.398 98.6125 298.367 98.7113C298.296 98.9143 296.642 103.715 292.044 104.954L291.922 104.994ZM292.47 100.183V103.796C294.419 102.959 296.006 101.455 296.946 99.5537C295.487 99.9568 293.983 100.178 292.47 100.213V100.183Z" fill="#1E293B"/>
<path d="M325.912 157.906H325.861C325.201 157.825 309.773 156.039 304.871 153.288C304.812 153.256 304.76 153.213 304.718 153.161C304.677 153.109 304.646 153.049 304.628 152.984C304.61 152.92 304.605 152.852 304.614 152.786C304.622 152.72 304.644 152.656 304.678 152.598C304.746 152.483 304.856 152.399 304.984 152.363C305.113 152.327 305.251 152.342 305.368 152.405C310.088 155.054 325.821 156.871 325.973 156.891C326.107 156.9 326.233 156.961 326.323 157.062C326.412 157.163 326.458 157.295 326.45 157.429C326.442 157.564 326.381 157.69 326.28 157.779C326.179 157.869 326.047 157.915 325.912 157.906Z" fill="#1E293B"/>
<path d="M321.806 111.109C321.806 111.109 352.418 154.754 339.304 166.041C327.287 176.364 300.734 159.22 300.734 159.22L302.338 144.726C302.338 144.726 323.359 156.429 323.704 150.979C324.201 142.96 313.899 132.008 313.899 132.008C312.973 130.232 312.413 128.289 312.252 126.292C312.092 124.296 312.334 122.287 312.965 120.386C313.565 118.234 314.685 116.261 316.226 114.643C317.768 113.025 319.684 111.812 321.806 111.109Z" fill="#2563EB"/>
<path d="M274.049 146.287C273.983 146.277 273.92 146.254 273.863 146.22C273.806 146.185 273.756 146.14 273.716 146.086C273.677 146.032 273.648 145.971 273.632 145.907C273.616 145.842 273.613 145.774 273.623 145.708C274.567 139.375 279.104 115.187 279.155 114.944C279.182 114.813 279.258 114.698 279.368 114.623C279.477 114.547 279.612 114.517 279.743 114.538C279.876 114.565 279.993 114.643 280.068 114.754C280.144 114.866 280.173 115.004 280.149 115.137C280.099 115.38 275.562 139.497 274.628 145.861C274.605 145.993 274.533 146.111 274.425 146.191C274.317 146.27 274.182 146.305 274.049 146.287Z" fill="#1E293B"/>
<path d="M269.771 165.421H300.292C300.86 165.411 301.419 165.274 301.929 165.021C302.438 164.768 302.884 164.405 303.236 163.958C303.588 163.511 303.836 162.992 303.962 162.437C304.088 161.883 304.09 161.307 303.966 160.752L297.48 129.378C297.294 128.478 296.809 127.668 296.103 127.08C295.396 126.492 294.512 126.161 293.593 126.141H263.518C262.916 126.15 262.323 126.294 261.783 126.561C261.242 126.829 260.768 127.213 260.395 127.686C260.022 128.16 259.759 128.71 259.625 129.298C259.491 129.885 259.49 130.495 259.621 131.084L266.096 162.356C266.261 163.213 266.716 163.986 267.386 164.545C268.056 165.104 268.899 165.413 269.771 165.421Z" fill="white"/>
<path d="M300.296 165.876H269.775C268.798 165.863 267.855 165.515 267.104 164.891C266.352 164.266 265.837 163.403 265.644 162.445L259.179 131.173C259.036 130.5 259.045 129.803 259.207 129.134C259.368 128.464 259.678 127.84 260.113 127.306C260.524 126.797 261.043 126.386 261.633 126.103C262.223 125.821 262.869 125.673 263.523 125.672H293.597C294.626 125.687 295.618 126.053 296.408 126.711C297.199 127.368 297.74 128.277 297.942 129.285L304.427 160.649C304.564 161.288 304.555 161.95 304.402 162.586C304.249 163.222 303.956 163.815 303.544 164.323C303.152 164.806 302.657 165.196 302.095 165.465C301.533 165.734 300.919 165.874 300.296 165.876ZM263.523 126.606C263.007 126.606 262.497 126.722 262.032 126.945C261.566 127.168 261.157 127.492 260.833 127.895C260.493 128.316 260.249 128.808 260.12 129.334C259.99 129.86 259.977 130.408 260.082 130.94L266.558 162.222C266.704 162.971 267.104 163.648 267.69 164.137C268.276 164.627 269.012 164.9 269.775 164.912H300.296C300.782 164.909 301.26 164.798 301.697 164.588C302.135 164.377 302.519 164.072 302.824 163.694C303.15 163.295 303.382 162.828 303.503 162.327C303.624 161.826 303.631 161.305 303.524 160.801L297.028 129.427C296.87 128.63 296.443 127.91 295.819 127.389C295.195 126.868 294.411 126.577 293.597 126.565L263.523 126.606Z" fill="#1E293B"/>
<path d="M306.578 149.664C306.754 148.567 306.671 147.445 306.334 146.386C306.002 145.674 305.544 145.028 304.984 144.478C304.031 143.463 303.014 142.51 301.939 141.625C300.924 140.834 299.777 140.062 298.559 140.326C298.935 142.145 299.964 143.762 301.452 144.873C300.965 144.292 300.32 143.865 299.595 143.645C299.107 143.493 298.448 143.513 298.245 144.001C298.198 144.157 298.184 144.322 298.203 144.484C298.222 144.646 298.274 144.803 298.356 144.944C298.924 146.201 299.796 147.296 300.894 148.132L299.716 147.38C299.416 147.159 299.069 147.01 298.701 146.944C298.521 146.914 298.335 146.944 298.172 147.028C298.01 147.112 297.878 147.246 297.798 147.411C297.724 147.686 297.753 147.978 297.879 148.233C298.186 148.964 298.692 149.594 299.341 150.05C298.917 149.687 298.406 149.439 297.859 149.329C297.582 149.288 297.3 149.347 297.064 149.496C296.827 149.645 296.652 149.874 296.57 150.141C296.54 150.447 296.603 150.755 296.753 151.024C297.625 152.76 299.706 152.953 300.721 154.414C301.482 155.5 301.127 156.668 302.67 157.327C306.527 158.921 306.365 151.978 306.578 149.664Z" fill="white"/>
<path d="M303.786 158.073C303.352 158.066 302.923 157.969 302.528 157.789C302.099 157.615 301.718 157.34 301.419 156.986C301.12 156.632 300.912 156.211 300.812 155.759C300.709 155.401 300.555 155.059 300.356 154.744C299.897 154.191 299.326 153.741 298.681 153.424C297.712 152.964 296.903 152.226 296.357 151.303C296.141 150.936 296.058 150.506 296.123 150.085C296.212 149.745 296.409 149.444 296.683 149.224C296.957 149.005 297.295 148.88 297.646 148.867C297.576 148.739 297.515 148.607 297.463 148.471C297.28 148.099 297.247 147.67 297.372 147.274C297.476 147.031 297.651 146.825 297.874 146.682C298.096 146.54 298.356 146.466 298.62 146.472C298.349 146.067 298.115 145.639 297.92 145.193C297.803 144.99 297.732 144.764 297.711 144.531C297.69 144.298 297.72 144.063 297.798 143.843C297.915 143.601 298.103 143.4 298.337 143.268C298.571 143.135 298.839 143.077 299.107 143.102C298.623 142.3 298.28 141.421 298.092 140.504C298.063 140.437 298.048 140.366 298.049 140.293C298.049 140.221 298.064 140.15 298.094 140.084C298.124 140.018 298.167 139.959 298.221 139.91C298.275 139.862 298.338 139.825 298.407 139.803C299.858 139.499 301.198 140.392 302.203 141.204C303.303 142.1 304.341 143.069 305.309 144.107C305.911 144.69 306.403 145.378 306.76 146.137C307.134 147.265 307.228 148.466 307.034 149.639C307.034 149.933 307.034 150.298 306.963 150.714C306.842 153.049 306.639 156.571 304.933 157.657C304.599 157.904 304.201 158.048 303.786 158.073ZM297.778 149.821C297.639 149.812 297.501 149.846 297.383 149.919C297.265 149.992 297.172 150.1 297.118 150.227C297.108 150.427 297.158 150.624 297.26 150.796C297.724 151.539 298.394 152.132 299.188 152.501C299.979 152.877 300.674 153.429 301.218 154.115C301.48 154.515 301.679 154.953 301.807 155.414C301.856 155.733 301.987 156.035 302.188 156.288C302.389 156.541 302.654 156.736 302.954 156.855C303.179 156.981 303.432 157.046 303.69 157.046C303.948 157.046 304.201 156.981 304.426 156.855C305.725 156.043 305.918 152.582 306.03 150.765C306.03 150.329 306.03 149.943 306.101 149.649C306.269 148.631 306.196 147.588 305.887 146.604C305.583 145.946 305.16 145.351 304.639 144.848C303.687 143.848 302.67 142.912 301.594 142.046C300.927 141.412 300.092 140.983 299.188 140.808C299.513 141.879 300.083 142.859 300.853 143.67C301.234 143.903 301.577 144.194 301.868 144.533C301.952 144.626 301.999 144.747 301.999 144.873C301.999 144.999 301.952 145.12 301.868 145.213C301.784 145.305 301.669 145.363 301.545 145.374C301.421 145.385 301.297 145.35 301.198 145.274C300.86 145.028 300.541 144.757 300.244 144.462C300.005 144.316 299.75 144.201 299.483 144.117C299.158 144.026 298.803 144.056 298.752 144.188C298.723 144.375 298.763 144.566 298.864 144.726C299.389 145.909 300.206 146.94 301.239 147.72C301.292 147.758 301.338 147.805 301.372 147.86C301.407 147.916 301.43 147.977 301.441 148.042C301.451 148.106 301.448 148.172 301.433 148.235C301.417 148.299 301.389 148.358 301.35 148.41C301.276 148.519 301.163 148.594 301.034 148.621C300.905 148.647 300.771 148.623 300.66 148.552L299.483 147.812C299.255 147.635 298.992 147.51 298.711 147.446C298.642 147.431 298.569 147.436 298.502 147.461C298.436 147.486 298.378 147.53 298.336 147.588C298.315 147.742 298.343 147.898 298.417 148.035C298.662 148.632 299.066 149.152 299.584 149.537L299.706 149.628C299.761 149.666 299.807 149.714 299.843 149.77C299.879 149.825 299.903 149.888 299.914 149.953C299.926 150.018 299.924 150.085 299.909 150.15C299.894 150.214 299.867 150.275 299.828 150.329C299.752 150.438 299.636 150.514 299.505 150.538C299.374 150.563 299.238 150.535 299.128 150.461L298.996 150.369C298.672 150.102 298.289 149.918 297.879 149.831L297.778 149.821Z" fill="#1E293B"/>
<path d="M260.101 147.482C260.253 145.381 260.883 143.056 262.659 142.001C263.208 141.685 263.828 141.513 264.462 141.501C265.095 141.488 265.721 141.636 266.283 141.93C266.386 141.97 266.478 142.033 266.554 142.114C266.629 142.195 266.686 142.291 266.719 142.397C266.79 142.732 266.486 143.006 266.211 143.178C265.624 143.547 264.984 143.824 264.313 144C264.86 143.956 265.406 144.082 265.877 144.362C266.348 144.642 266.721 145.062 266.942 145.563C266.281 146.341 265.356 146.847 264.344 146.985C264.68 146.895 265.035 146.909 265.363 147.025C265.691 147.141 265.976 147.353 266.181 147.634C266.841 148.588 266.313 148.852 265.592 149.42C265.909 149.353 266.239 149.385 266.536 149.512C266.687 149.58 266.814 149.692 266.901 149.833C266.987 149.974 267.03 150.138 267.023 150.304C266.973 150.913 266.232 151.105 265.714 151.41C265.297 151.664 264.981 152.055 264.821 152.516C264.762 152.781 264.677 153.04 264.567 153.288C263.552 155.104 261.299 153.592 260.741 152.273C260.169 150.744 259.95 149.107 260.101 147.482Z" fill="white"/>
<path d="M263.246 154.643H263.124C262.511 154.557 261.93 154.319 261.434 153.95C260.937 153.581 260.541 153.093 260.282 152.532C259.675 150.913 259.44 149.179 259.592 147.457C259.734 145.427 260.333 142.798 262.403 141.57C263.026 141.211 263.73 141.015 264.448 141.001C265.167 140.987 265.878 141.154 266.514 141.489C266.685 141.562 266.836 141.673 266.958 141.814C267.079 141.955 267.167 142.121 267.214 142.301C267.275 142.585 267.214 143.123 266.484 143.61L266.037 143.874C266.648 144.204 267.13 144.729 267.407 145.366C267.443 145.453 267.454 145.548 267.44 145.641C267.426 145.734 267.386 145.821 267.326 145.894C266.998 146.296 266.603 146.639 266.159 146.909C266.329 147.039 266.477 147.197 266.595 147.376C267.143 148.157 267.052 148.685 266.758 149.081C267 149.194 267.204 149.377 267.341 149.607C267.479 149.837 267.544 150.102 267.529 150.37C267.468 151.121 266.798 151.456 266.321 151.689L265.976 151.872C265.659 152.059 265.421 152.355 265.306 152.704C265.277 152.78 265.253 152.858 265.235 152.938C265.189 153.153 265.114 153.362 265.012 153.557C264.842 153.88 264.589 154.151 264.278 154.342C263.967 154.534 263.611 154.637 263.246 154.643ZM260.607 147.538C260.463 149.096 260.667 150.667 261.206 152.136C261.394 152.524 261.671 152.861 262.015 153.12C262.36 153.38 262.76 153.554 263.185 153.628C263.381 153.633 263.575 153.581 263.743 153.479C263.91 153.376 264.044 153.227 264.129 153.049C264.185 152.925 264.229 152.796 264.261 152.664C264.261 152.562 264.312 152.471 264.342 152.369C264.537 151.79 264.933 151.3 265.459 150.989L265.865 150.766C266.25 150.583 266.504 150.441 266.524 150.268C266.545 150.096 266.433 150.045 266.311 149.984C266.107 149.906 265.885 149.889 265.672 149.933C265.562 149.949 265.451 149.929 265.354 149.875C265.257 149.821 265.18 149.738 265.136 149.637C265.091 149.536 265.08 149.423 265.105 149.315C265.131 149.207 265.191 149.111 265.276 149.04L265.469 148.888C266.088 148.411 266.088 148.411 265.763 147.944C265.438 147.477 265.103 147.416 264.413 147.508C264.346 147.517 264.278 147.514 264.212 147.496C264.147 147.479 264.086 147.448 264.033 147.407C263.979 147.365 263.935 147.313 263.903 147.253C263.871 147.194 263.851 147.128 263.845 147.061C263.827 146.928 263.864 146.793 263.945 146.687C264.027 146.58 264.148 146.51 264.281 146.493C265.05 146.385 265.763 146.028 266.311 145.478C266.118 145.139 265.831 144.864 265.486 144.684C265.14 144.504 264.75 144.427 264.362 144.463C264.235 144.478 264.107 144.444 264.004 144.369C263.9 144.294 263.829 144.182 263.804 144.057C263.779 143.93 263.803 143.799 263.871 143.69C263.938 143.581 264.045 143.501 264.169 143.468C264.789 143.303 265.381 143.046 265.925 142.707C266.128 142.585 266.199 142.483 266.21 142.443L266.027 142.331C265.545 142.075 265.006 141.947 264.461 141.958C263.916 141.968 263.382 142.118 262.911 142.392C261.216 143.407 260.718 145.711 260.597 147.467L260.607 147.538Z" fill="#1E293B"/>
<path d="M286.545 88.9407C285.802 88.9407 285.076 88.7204 284.458 88.3078C283.841 87.8951 283.359 87.3086 283.075 86.6224C282.791 85.9361 282.716 85.181 282.861 84.4525C283.006 83.724 283.364 83.0549 283.889 82.5297C284.414 82.0044 285.083 81.6468 285.812 81.5019C286.54 81.3569 287.296 81.4313 287.982 81.7156C288.668 81.9998 289.255 82.4812 289.667 83.0987C290.08 83.7163 290.3 84.4424 290.3 85.1852C290.297 86.1804 289.901 87.1341 289.197 87.8378C288.493 88.5415 287.54 88.938 286.545 88.9407ZM286.545 82.4447C286.003 82.4447 285.473 82.6054 285.022 82.9065C284.571 83.2077 284.22 83.6357 284.013 84.1364C283.805 84.6372 283.751 85.1882 283.857 85.7198C283.962 86.2514 284.223 86.7397 284.607 87.123C284.99 87.5063 285.478 87.7673 286.01 87.873C286.542 87.9788 287.093 87.9245 287.593 87.7171C288.094 87.5097 288.522 87.1584 288.823 86.7077C289.124 86.2571 289.285 85.7272 289.285 85.1852C289.282 84.4592 288.993 83.7637 288.479 83.2503C287.966 82.737 287.271 82.4474 286.545 82.4447Z" fill="#1E293B"/>
<path d="M294.904 88.9407C294.161 88.9407 293.435 88.7204 292.817 88.3078C292.2 87.8951 291.719 87.3086 291.434 86.6224C291.15 85.9361 291.076 85.181 291.221 84.4525C291.366 83.724 291.723 83.0549 292.248 82.5297C292.774 82.0044 293.443 81.6468 294.171 81.5019C294.9 81.3569 295.655 81.4313 296.341 81.7156C297.027 81.9998 297.614 82.4812 298.027 83.0987C298.439 83.7163 298.659 84.4424 298.659 85.1852C298.659 86.1812 298.264 87.1364 297.559 87.8407C296.855 88.545 295.9 88.9407 294.904 88.9407ZM294.904 82.4447C294.362 82.4447 293.832 82.6054 293.381 82.9065C292.931 83.2077 292.579 83.6357 292.372 84.1364C292.165 84.6372 292.11 85.1882 292.216 85.7198C292.322 86.2514 292.583 86.7397 292.966 87.123C293.349 87.5063 293.838 87.7673 294.369 87.873C294.901 87.9788 295.452 87.9245 295.953 87.7171C296.453 87.5097 296.881 87.1584 297.183 86.7077C297.484 86.2571 297.644 85.7272 297.644 85.1852C297.644 84.4584 297.356 83.7613 296.842 83.2474C296.328 82.7334 295.631 82.4447 294.904 82.4447Z" fill="#1E293B"/>
<path d="M291.544 95.1432C290.245 95.1172 288.968 94.798 287.809 94.2094C287.694 94.1414 287.61 94.0317 287.574 93.903C287.538 93.7744 287.553 93.6369 287.616 93.5192C287.682 93.4022 287.792 93.3163 287.921 93.2801C288.051 93.244 288.189 93.2606 288.306 93.3263C288.499 93.4278 293.016 95.9044 295.777 91.7226C295.851 91.6096 295.967 91.5305 296.099 91.5029C296.231 91.4753 296.369 91.5014 296.482 91.5754C296.595 91.6495 296.674 91.7654 296.702 91.8977C296.729 92.03 296.703 92.1678 296.629 92.2809C296.105 93.1602 295.36 93.887 294.468 94.3891C293.576 94.8912 292.568 95.1512 291.544 95.1432Z" fill="#1E293B"/>
<path d="M291.656 85.6947H289.789C289.654 85.6947 289.525 85.6412 289.43 85.546C289.335 85.4509 289.281 85.3218 289.281 85.1872C289.281 85.0526 289.335 84.9235 289.43 84.8283C289.525 84.7332 289.654 84.6797 289.789 84.6797H291.656C291.791 84.6797 291.92 84.7332 292.015 84.8283C292.11 84.9235 292.164 85.0526 292.164 85.1872C292.161 85.321 292.107 85.4485 292.012 85.5432C291.918 85.6378 291.79 85.6921 291.656 85.6947Z" fill="#1E293B"/>
<path d="M305.648 87.7259C305.604 87.7356 305.559 87.7356 305.516 87.7259L298.025 85.6959C297.891 85.6609 297.775 85.5739 297.705 85.454C297.635 85.3341 297.615 85.1911 297.65 85.0565C297.685 84.9219 297.772 84.8067 297.892 84.7363C298.012 84.6658 298.155 84.6459 298.289 84.6809L305.78 86.7109C305.909 86.7466 306.018 86.8316 306.085 86.9475C306.151 87.0634 306.169 87.2009 306.135 87.3301C306.112 87.442 306.051 87.5425 305.962 87.6146C305.873 87.6867 305.762 87.726 305.648 87.7259Z" fill="#1E293B"/>
<path d="M301.453 88.4319C301.654 87.7087 302.081 87.0686 302.671 86.6049C303.121 86.2248 303.648 85.9457 304.215 85.7863C304.783 85.627 305.377 85.5912 305.96 85.6813C306.54 85.9265 307.021 86.3608 307.323 86.9137C307.625 87.4665 307.731 88.1054 307.624 88.7263C307.541 89.5704 307.231 90.3763 306.727 91.0588C306.223 91.7413 305.544 92.275 304.762 92.6036C304.249 92.7872 303.704 92.8657 303.16 92.8343C302.616 92.8029 302.084 92.6623 301.595 92.4209" fill="white"/>
<path d="M303.41 93.3458C302.705 93.3447 302.011 93.1815 301.38 92.8687C301.319 92.8397 301.266 92.7988 301.222 92.7485C301.178 92.6982 301.144 92.6396 301.124 92.5761C301.103 92.5127 301.095 92.4456 301.101 92.3791C301.106 92.3125 301.125 92.2477 301.156 92.1887C301.186 92.1286 301.226 92.0749 301.276 92.0307C301.326 91.9864 301.385 91.9524 301.448 91.9307C301.511 91.9091 301.578 91.9001 301.645 91.9043C301.711 91.9085 301.776 91.9258 301.836 91.9552C302.264 92.1658 302.729 92.2895 303.205 92.3191C303.68 92.3487 304.157 92.2837 304.607 92.1278C305.299 91.8268 305.898 91.3478 306.343 90.7398C306.789 90.1318 307.066 89.4164 307.145 88.6666C307.234 88.1642 307.154 87.6464 306.917 87.1945C306.68 86.7426 306.299 86.3822 305.835 86.1697C305.329 86.1069 304.816 86.1494 304.327 86.2943C303.838 86.4393 303.384 86.6837 302.993 87.0122C302.499 87.4088 302.143 87.9528 301.978 88.5651C301.96 88.6318 301.93 88.6942 301.887 88.7489C301.845 88.8036 301.793 88.8495 301.733 88.8839C301.673 88.9183 301.607 88.9405 301.539 88.9494C301.47 88.9583 301.401 88.9536 301.334 88.9356C301.267 88.9176 301.205 88.8867 301.15 88.8445C301.096 88.8024 301.05 88.7499 301.015 88.6901C300.981 88.6302 300.959 88.5642 300.95 88.4957C300.941 88.4273 300.945 88.3577 300.963 88.2911C301.2 87.4842 301.687 86.7733 302.354 86.2611C302.867 85.8297 303.468 85.5154 304.115 85.3401C304.762 85.1648 305.439 85.1327 306.099 85.2461C306.793 85.5226 307.372 86.027 307.741 86.6764C308.11 87.3257 308.247 88.0813 308.129 88.8189C308.038 89.755 307.694 90.6488 307.135 91.405C306.575 92.1611 305.821 92.7512 304.952 93.1123C304.456 93.2803 303.934 93.3593 303.41 93.3458Z" fill="#1E293B"/>
<path d="M320.567 152.602C315.888 152.602 309.037 148.816 308.052 148.258C307.994 148.224 307.944 148.18 307.903 148.127C307.862 148.074 307.832 148.013 307.814 147.949C307.797 147.884 307.793 147.817 307.801 147.751C307.81 147.684 307.831 147.62 307.865 147.562C307.898 147.504 307.942 147.454 307.995 147.413C308.048 147.372 308.109 147.342 308.173 147.325C308.238 147.307 308.305 147.303 308.372 147.311C308.438 147.32 308.502 147.341 308.56 147.375C311.838 149.242 320.892 153.465 323.277 150.653C325.663 147.842 318.517 133.926 315.553 128.81C315.501 128.696 315.494 128.566 315.532 128.447C315.571 128.327 315.652 128.226 315.761 128.163C315.869 128.099 315.997 128.079 316.12 128.105C316.243 128.131 316.352 128.201 316.426 128.303C317.553 130.252 327.378 147.395 324.059 151.303C323.608 151.762 323.061 152.116 322.458 152.341C321.854 152.565 321.209 152.654 320.567 152.602Z" fill="#1E293B"/>
<path d="M324.141 169.858H324.069C316.569 168.732 306.814 162.753 306.388 162.53C306.331 162.495 306.282 162.449 306.243 162.394C306.204 162.34 306.177 162.279 306.162 162.214C306.146 162.148 306.144 162.081 306.155 162.015C306.166 161.949 306.19 161.886 306.226 161.83C306.26 161.772 306.306 161.722 306.36 161.682C306.414 161.642 306.476 161.614 306.541 161.599C306.607 161.584 306.675 161.582 306.741 161.594C306.807 161.605 306.87 161.63 306.926 161.667C307.017 161.718 316.924 167.757 324.181 168.864C324.247 168.871 324.311 168.892 324.369 168.925C324.427 168.958 324.477 169.002 324.517 169.056C324.557 169.109 324.586 169.17 324.601 169.234C324.617 169.299 324.619 169.366 324.607 169.432C324.589 169.545 324.533 169.649 324.448 169.727C324.364 169.804 324.255 169.851 324.141 169.858Z" fill="#1E293B"/>
<path d="M59.4791 183.236L52.6562 212.234L87.9187 220.531L94.7416 191.533L59.4791 183.236Z" fill="white"/>
<path d="M87.9271 221.006H87.8155L52.5544 212.703C52.4946 212.69 52.438 212.665 52.388 212.629C52.3381 212.594 52.2957 212.549 52.2636 212.497C52.2314 212.445 52.21 212.387 52.2006 212.326C52.1913 212.266 52.1943 212.204 52.2093 212.145L59.0301 183.146C59.059 183.027 59.1338 182.923 59.2383 182.859C59.3428 182.794 59.4686 182.773 59.5883 182.801L94.8494 191.104C94.9094 191.116 94.9663 191.141 95.0168 191.176C95.0673 191.211 95.1105 191.255 95.1438 191.307C95.2063 191.414 95.2245 191.541 95.1945 191.662L88.3737 220.66C88.3444 220.777 88.2719 220.879 88.1707 220.945C88.097 220.988 88.0125 221.009 87.9271 221.006ZM53.2141 211.871L87.582 219.991L94.1897 191.895L59.8319 183.775L53.2141 211.871Z" fill="#1E293B"/>
<path d="M80.914 177.641C80.914 177.641 80.3253 192.613 78.7724 191.72C76.7424 190.532 77.5848 187.081 77.5848 187.081L70.7031 185.63C70.7031 185.63 73.6263 175.693 73.8192 175.358C74.012 175.023 80.914 177.641 80.914 177.641Z" fill="white"/>
<path d="M78.9045 192.214C78.7758 192.214 78.6495 192.178 78.5391 192.112C76.6715 191.036 76.8644 188.499 77.0369 187.443L70.612 186.083C70.5489 186.068 70.4895 186.04 70.4372 186.002C70.3849 185.964 70.3408 185.915 70.3075 185.86C70.2621 185.742 70.2621 185.612 70.3075 185.494C71.4037 181.759 73.2814 175.456 73.4743 175.121C73.6671 174.786 73.86 174.441 81.1274 177.212C81.22 177.243 81.2999 177.303 81.3549 177.384C81.4098 177.465 81.4369 177.561 81.4319 177.659C81.2695 181.719 80.7417 191.331 79.3004 192.122C79.1808 192.192 79.0427 192.224 78.9045 192.214ZM71.292 185.271L77.6764 186.621C77.8012 186.651 77.91 186.727 77.9809 186.834C78.0256 186.948 78.0256 187.075 77.9809 187.189C77.9809 187.189 77.2602 190.153 78.8233 191.249C79.4932 190.234 80.1428 183.779 80.3864 177.973C77.7779 176.958 74.9663 176.014 74.0934 175.832C73.7585 176.958 72.3273 181.769 71.292 185.271Z" fill="#1E293B"/>
<path d="M91.5391 261.775C91.5391 261.775 90.9707 271.154 91.0012 274.707C91.0316 278.259 91.0012 281.598 95.1728 280.797C97.4464 280.38 109.931 277.224 108.784 274.899C107.637 272.575 99.5272 271.976 99.5272 271.976L100.258 261.258" fill="white"/>
<path d="M94.0689 281.402C93.3109 281.438 92.5653 281.2 91.9679 280.732C90.5875 279.596 90.5672 277.292 90.5469 274.856V274.713C90.5469 271.181 91.0747 261.843 91.0747 261.742C91.0785 261.682 91.0942 261.623 91.1208 261.569C91.1474 261.515 91.1844 261.467 91.2297 261.427C91.275 261.388 91.3276 261.358 91.3846 261.338C91.4416 261.319 91.5019 261.311 91.5619 261.315C91.6232 261.317 91.6837 261.33 91.7395 261.356C91.7953 261.382 91.8453 261.418 91.8862 261.464C91.9272 261.51 91.9583 261.563 91.9776 261.622C91.9968 261.68 92.0039 261.742 91.9983 261.803C91.9983 261.894 91.4401 271.202 91.4705 274.703V274.845C91.4705 277.058 91.4705 279.159 92.5566 280.022C92.9283 280.262 93.3479 280.418 93.7861 280.479C94.2244 280.541 94.6707 280.506 95.0941 280.377C98.0376 279.829 107.447 277.21 108.35 275.414C108.375 275.373 108.388 275.325 108.388 275.277C108.388 275.228 108.375 275.181 108.35 275.14C107.599 273.627 102.514 272.704 99.4789 272.48C99.3568 272.47 99.2436 272.412 99.1639 272.319C99.0841 272.226 99.0441 272.105 99.0526 271.983L99.7834 261.265C99.7937 261.144 99.8498 261.031 99.9404 260.95C100.031 260.869 100.149 260.825 100.271 260.828C100.394 260.839 100.508 260.896 100.589 260.989C100.67 261.082 100.713 261.202 100.707 261.326L100.007 271.587C101.884 271.76 108.127 272.501 109.142 274.734C109.229 274.903 109.274 275.091 109.274 275.282C109.274 275.473 109.229 275.66 109.142 275.83C107.751 278.591 95.3377 281.26 95.2159 281.281C94.838 281.356 94.4541 281.396 94.0689 281.402Z" fill="#1E293B"/>
<path d="M120.711 262.893C120.711 262.893 120.143 272.271 120.173 275.824C120.204 279.376 120.173 282.716 124.345 281.914C126.618 281.498 140.087 279.346 138.94 277.021C137.793 274.697 128.699 273.093 128.699 273.093L129.43 262.375" fill="white"/>
<path d="M123.241 282.524C122.483 282.56 121.737 282.322 121.14 281.854C119.759 280.717 119.739 278.413 119.719 275.977V275.815C119.719 272.283 120.247 262.945 120.247 262.853C120.254 262.731 120.31 262.617 120.401 262.536C120.492 262.454 120.612 262.411 120.734 262.417C120.795 262.418 120.856 262.432 120.911 262.458C120.967 262.483 121.017 262.52 121.058 262.566C121.099 262.611 121.13 262.665 121.149 262.723C121.169 262.781 121.176 262.843 121.17 262.904C121.17 262.996 120.612 272.313 120.642 275.805V275.947C120.642 278.16 120.642 280.261 121.728 281.123C122.1 281.364 122.52 281.52 122.958 281.581C123.396 281.642 123.843 281.607 124.266 281.479L124.976 281.347C135.461 279.51 138.171 278.2 138.517 277.419C138.517 277.338 138.517 277.297 138.517 277.246C137.755 275.714 132.041 274.201 128.61 273.572C128.497 273.554 128.395 273.494 128.325 273.403C128.255 273.313 128.223 273.199 128.235 273.085L128.965 262.366C128.976 262.245 129.032 262.133 129.122 262.051C129.213 261.97 129.331 261.927 129.453 261.93C129.576 261.94 129.69 261.998 129.771 262.091C129.852 262.183 129.895 262.304 129.889 262.427L129.199 272.77C131.148 273.135 138.253 274.617 139.349 276.83C139.432 276.986 139.476 277.16 139.476 277.338C139.476 277.515 139.432 277.689 139.349 277.845C138.608 279.317 134.274 280.677 125.139 282.27L124.439 282.402C124.043 282.476 123.643 282.517 123.241 282.524Z" fill="#1E293B"/>
<path d="M90.3352 155.907C90.3352 155.907 87.4526 255.824 88.9751 264.37C88.9751 264.37 94.8317 270.978 102.424 267.679L112.036 186.641L117.111 267.608C117.111 267.608 121.973 272.439 132.163 264.411V152.375L90.3352 155.907Z" fill="#1E293B"/>
<path d="M121.525 269.58C119.784 269.67 118.075 269.093 116.744 267.966C116.654 267.881 116.6 267.765 116.592 267.641L111.893 192.277L102.95 267.743C102.938 267.831 102.903 267.914 102.85 267.985C102.797 268.056 102.727 268.112 102.646 268.149C94.8 271.549 88.6694 264.779 88.6085 264.708C88.5461 264.636 88.5041 264.548 88.4867 264.454C86.9845 255.959 89.7352 159.97 89.8468 155.849C89.8535 155.726 89.9043 155.608 89.99 155.519C90.0756 155.43 90.1905 155.374 90.3137 155.362L132.111 151.83C132.181 151.824 132.252 151.833 132.318 151.856C132.384 151.879 132.445 151.916 132.497 151.963C132.548 152.011 132.589 152.069 132.617 152.133C132.645 152.198 132.66 152.267 132.66 152.337V264.414C132.66 264.491 132.643 264.568 132.609 264.639C132.576 264.709 132.527 264.771 132.467 264.82C127.727 268.545 124.093 269.58 121.525 269.58ZM117.597 267.367C118.419 268.037 122.905 270.96 131.645 264.17V152.926L90.8517 156.377C90.6487 163.665 88.0807 255.157 89.4713 264.139C90.2528 264.972 95.3684 270.006 101.976 267.327L111.548 186.583C111.55 186.519 111.566 186.456 111.593 186.399C111.621 186.341 111.661 186.289 111.709 186.247C111.758 186.205 111.814 186.174 111.876 186.155C111.937 186.136 112.001 186.13 112.065 186.137C112.191 186.139 112.312 186.188 112.404 186.274C112.496 186.36 112.552 186.478 112.563 186.604L117.597 267.367Z" fill="#1E293B"/>
<path d="M175.484 112.79C175.484 112.79 181.047 109.643 181.453 109.298C181.859 108.953 183.797 103.807 184.112 103.472C184.427 103.137 185.208 102.528 185.472 103.239C185.736 103.949 185.167 107.898 185.167 107.898C185.167 107.898 192.009 102.549 192.486 102.823C192.963 103.097 193.318 103.716 192.242 105.218C191.27 106.38 190.123 107.384 188.842 108.192C188.842 108.192 191.247 110.892 190.872 111.816C190.496 112.739 181.371 118.86 181.371 118.86" fill="white"/>
<path d="M181.406 119.346C181.33 119.348 181.255 119.33 181.187 119.295C181.119 119.259 181.062 119.207 181.021 119.143C180.986 119.092 180.961 119.035 180.949 118.975C180.936 118.915 180.935 118.853 180.947 118.793C180.958 118.733 180.981 118.675 181.015 118.624C181.048 118.572 181.092 118.528 181.142 118.493C185.466 115.601 190.135 112.251 190.48 111.652C190.592 111.317 189.648 109.815 188.45 108.516C188.405 108.466 188.372 108.406 188.352 108.341C188.333 108.276 188.328 108.207 188.339 108.14C188.347 108.074 188.371 108.01 188.408 107.954C188.445 107.897 188.494 107.85 188.552 107.816C189.782 107.043 190.884 106.084 191.82 104.974C192.429 104.111 192.47 103.695 192.429 103.522C192.414 103.448 192.374 103.38 192.318 103.329C189.907 104.819 187.598 106.467 185.405 108.262C185.329 108.315 185.239 108.343 185.147 108.343C185.054 108.343 184.964 108.315 184.888 108.262C184.808 108.216 184.743 108.146 184.701 108.064C184.66 107.981 184.644 107.887 184.654 107.795C184.927 106.337 185.04 104.853 184.989 103.37C184.928 103.37 184.654 103.492 184.411 103.756C184.167 104.02 183.792 105.116 183.396 106.08C182.381 108.577 181.985 109.389 181.711 109.622C181.437 109.856 176.636 112.667 175.621 113.165C175.514 113.216 175.392 113.224 175.279 113.188C175.166 113.152 175.071 113.075 175.013 112.972C174.955 112.869 174.938 112.748 174.966 112.633C174.994 112.518 175.065 112.418 175.164 112.353C177.296 111.155 180.777 109.155 181.071 108.902C181.602 107.869 182.077 106.809 182.492 105.725C182.805 104.821 183.206 103.951 183.69 103.126C183.873 102.934 184.522 102.314 185.152 102.426C185.307 102.462 185.451 102.539 185.568 102.647C185.686 102.756 185.773 102.893 185.822 103.045C185.957 104.297 185.912 105.562 185.69 106.801C191.932 101.99 192.348 102.243 192.642 102.416C192.808 102.507 192.952 102.634 193.064 102.786C193.176 102.939 193.254 103.114 193.292 103.299C193.321 103.695 193.27 104.092 193.141 104.467C193.012 104.842 192.808 105.187 192.541 105.481C191.675 106.562 190.648 107.504 189.496 108.272C190.348 109.287 191.637 111.033 191.303 111.957C190.968 112.881 184.411 117.367 181.619 119.234C181.559 119.289 181.485 119.327 181.406 119.346Z" fill="#1E293B"/>
<path d="M127.348 107.161C127.348 107.161 117.493 103.933 91.5392 108.917C87.0326 109.779 84.962 151.8 88.3623 177.074L133.824 176.698C133.824 176.698 141.325 110.662 127.348 107.161Z" fill="#2563EB"/>
<path d="M89.825 102.836C89.825 102.836 79.9897 134.301 79.3604 137.092C78.7311 139.883 72.0625 176.931 72.0625 176.931L82.3952 180.402C82.3952 180.402 97.3766 145.77 96.4225 136.047C95.4684 126.323 89.825 102.836 89.825 102.836Z" fill="#2563EB"/>
<path d="M126.494 107.181C134.401 107.932 150.854 127.024 152.194 126.466C153.534 125.907 177.914 109.211 177.914 109.211L185.628 117.655C185.628 117.655 162.009 145.06 157.208 147.963C149.819 152.378 118.445 132.281 118.445 132.281C118.445 132.281 118.587 106.419 126.494 107.181Z" fill="#2563EB"/>
<path d="M77.6146 187.234C77.6146 187.234 74.4174 185.498 75.8282 182.555L77.6146 187.234Z" fill="white"/>
<path d="M77.6155 187.7C77.5371 187.698 77.4603 187.677 77.3922 187.639C76.1539 186.969 74.1442 185 75.3622 182.351C75.416 182.239 75.512 182.153 75.6291 182.112C75.7462 182.071 75.8747 182.078 75.9864 182.132C76.0981 182.186 76.1839 182.282 76.2248 182.399C76.2657 182.516 76.2585 182.645 76.2047 182.757C74.9968 185.274 77.6764 186.817 77.788 186.817C77.8772 186.867 77.9472 186.946 77.9873 187.04C78.0273 187.134 78.0353 187.239 78.0099 187.338C77.9845 187.438 77.9272 187.526 77.8467 187.589C77.7663 187.653 77.6672 187.688 77.5647 187.689L77.6155 187.7Z" fill="#1E293B"/>
<path d="M150.5 148.563H150.408C145.445 147.548 135.731 141.803 123.003 132.323L122.425 131.886C122.324 131.818 122.253 131.713 122.228 131.594C122.204 131.474 122.227 131.35 122.293 131.247C122.357 131.148 122.458 131.077 122.574 131.051C122.689 131.024 122.81 131.044 122.912 131.105C123.136 131.253 123.353 131.412 123.562 131.582C136.148 140.991 145.729 146.716 150.561 147.67C150.682 147.694 150.788 147.766 150.856 147.868C150.925 147.971 150.95 148.097 150.926 148.218C150.899 148.312 150.844 148.396 150.767 148.458C150.691 148.519 150.598 148.556 150.5 148.563Z" fill="#1E293B"/>
<path d="M124.011 87.7412C123.351 87.7412 122.705 87.5454 122.156 87.1784C121.607 86.8115 121.179 86.29 120.926 85.6798C120.673 85.0696 120.607 84.3981 120.736 83.7504C120.865 83.1026 121.183 82.5076 121.65 82.0406C122.117 81.5736 122.712 81.2555 123.36 81.1267C124.008 80.9978 124.679 81.064 125.289 81.3167C125.899 81.5694 126.421 81.9975 126.788 82.5466C127.155 83.0958 127.351 83.7414 127.351 84.4019C127.351 85.2875 126.999 86.1369 126.373 86.7631C125.746 87.3894 124.897 87.7412 124.011 87.7412ZM124.011 82.0775C123.552 82.0775 123.102 82.2138 122.72 82.4692C122.338 82.7246 122.04 83.0876 121.864 83.5124C121.688 83.9371 121.642 84.4044 121.732 84.8553C121.821 85.3062 122.043 85.7204 122.368 86.0454C122.693 86.3705 123.107 86.5919 123.558 86.6815C124.009 86.7712 124.476 86.7252 124.901 86.5493C125.325 86.3733 125.688 86.0754 125.944 85.6932C126.199 85.311 126.336 84.8616 126.336 84.4019C126.336 84.0966 126.275 83.7944 126.159 83.5124C126.042 83.2304 125.871 82.9741 125.655 82.7583C125.439 82.5425 125.183 82.3712 124.901 82.2544C124.619 82.1376 124.316 82.0775 124.011 82.0775Z" fill="#1E293B"/>
<path d="M122.648 86.6094C122.648 86.6094 125.947 92.0498 125.186 93.1155C124.424 94.1813 122.039 93.3693 122.039 93.3693" fill="white"/>
<path d="M123.755 94.1239C123.113 94.1079 122.477 93.9985 121.867 93.7991C121.732 93.7547 121.621 93.6586 121.557 93.5321C121.493 93.4055 121.483 93.2587 121.527 93.1242C121.571 92.9896 121.667 92.8781 121.794 92.8143C121.921 92.7506 122.067 92.7397 122.202 92.7841C122.862 93.0176 124.354 93.2916 124.77 92.7232C125.034 92.236 123.846 89.4549 122.222 86.7753C122.187 86.7195 122.163 86.6572 122.152 86.5921C122.142 86.5271 122.144 86.4604 122.159 86.3962C122.174 86.332 122.202 86.2714 122.24 86.218C122.279 86.1646 122.328 86.1194 122.385 86.0851C122.441 86.0497 122.504 86.0258 122.57 86.0148C122.636 86.0037 122.703 86.0058 122.768 86.0209C122.834 86.036 122.895 86.0638 122.949 86.1027C123.004 86.1416 123.05 86.1908 123.085 86.2475C124.1 87.973 126.465 92.1041 125.592 93.3525C125.371 93.6204 125.089 93.8305 124.769 93.9649C124.449 94.0993 124.101 94.1538 123.755 94.1239Z" fill="#1E293B"/>
<path d="M122.174 79.5857C124.336 81.4838 123.544 85.3103 123.423 87.8072C123.26 91.3259 123.017 94.8412 122.692 98.3531C122.489 100.576 116.713 100.383 115.719 99.6929L116.937 105.265L104.32 103.418L105.102 96.1505C105.102 96.1505 104.29 86.0005 106.726 81.5751C107.433 80.2927 108.484 79.2333 109.761 78.516C111.038 77.7987 112.49 77.4521 113.953 77.5151C113.953 77.5151 120.063 77.7181 122.174 79.5857Z" fill="white"/>
<path d="M116.937 105.767H116.866L104.25 103.919C104.12 103.899 104.004 103.83 103.924 103.726C103.845 103.622 103.809 103.491 103.824 103.361L104.595 96.0936C104.595 95.7688 103.803 85.8624 106.28 81.3253C107.027 79.9513 108.148 78.8169 109.513 78.0535C110.878 77.2901 112.432 76.9289 113.994 77.0116C114.227 77.0116 120.297 77.2349 122.51 79.1938C124.54 80.9498 124.235 84.0151 124.032 86.4815C124.032 86.9586 123.951 87.4153 123.931 87.8315C123.768 91.3434 123.525 94.9365 123.2 98.3875C123.154 98.7747 122.997 99.1405 122.749 99.4411C122.5 99.7417 122.171 99.9644 121.799 100.083C120.073 100.708 118.207 100.841 116.41 100.468L117.425 105.158C117.441 105.236 117.439 105.318 117.417 105.396C117.396 105.473 117.357 105.545 117.303 105.604C117.256 105.655 117.2 105.696 117.137 105.724C117.074 105.752 117.006 105.766 116.937 105.767ZM104.879 102.985L116.288 104.65L115.273 99.7983C115.25 99.6991 115.258 99.5953 115.296 99.5009C115.334 99.4066 115.401 99.3261 115.486 99.2705C115.571 99.2116 115.672 99.18 115.775 99.18C115.879 99.18 115.979 99.2116 116.064 99.2705C117.816 99.8105 119.696 99.7713 121.424 99.1589C121.931 98.9254 122.205 98.6311 122.236 98.286C122.56 94.8045 122.804 91.2723 122.966 87.7706C122.966 87.3443 123.027 86.8774 123.068 86.3902C123.261 84.147 123.494 81.3152 121.89 79.9449C119.942 78.2296 114.045 78.0164 113.994 78.0164C112.623 77.9461 111.261 78.2641 110.063 78.9339C108.866 79.6037 107.881 80.598 107.224 81.8024C104.889 86.0755 105.65 96.0124 105.661 96.0936L104.879 102.985Z" fill="#1E293B"/>
<path d="M101.844 105.128L103.031 101.281L118.52 102.773L119.403 106.305C116.571 107.417 113.527 107.887 110.492 107.684C107.456 107.48 104.503 106.607 101.844 105.128Z" fill="white"/>
<path d="M112.035 108.246C108.393 108.229 104.812 107.312 101.611 105.576C101.507 105.52 101.426 105.43 101.381 105.321C101.337 105.212 101.332 105.09 101.367 104.978L102.514 101.131C102.55 101.019 102.623 100.924 102.721 100.859C102.819 100.795 102.935 100.765 103.052 100.775L118.571 102.247C118.674 102.257 118.771 102.298 118.849 102.365C118.928 102.433 118.983 102.523 119.008 102.623L119.901 106.155C119.929 106.268 119.917 106.388 119.867 106.493C119.817 106.598 119.732 106.683 119.627 106.734C117.229 107.759 114.643 108.274 112.035 108.246ZM102.514 104.876C105.013 106.179 107.754 106.953 110.566 107.148C113.378 107.344 116.2 106.957 118.855 106.013L118.165 103.252L103.448 101.821L102.514 104.876Z" fill="#1E293B"/>
<path d="M109.421 97.0638C109.421 103.042 115.43 115.131 110.274 119.881C105.433 124.347 97.0791 125.514 90.8267 124.824C81.6917 123.809 76.8907 117.486 80.6767 108.584C82.5138 104.24 85.7517 100.657 88.4414 96.7796C90.8087 93.3656 92.7963 89.7034 94.369 85.8582C95.7088 82.6 96.7035 78.7532 98.5102 75.7082C102.509 68.9686 109.574 66.3296 117.004 68.5017C120.191 69.4355 126.321 73.2722 124.819 77.4235C124.454 78.4385 123.205 79.9712 122.21 79.5449C121.926 81.514 120.658 82.4579 119.115 83.7165C117.495 84.911 115.811 86.0156 114.07 87.0254C112.885 87.7305 111.851 88.6616 111.025 89.7659C110.122 91.2721 109.599 92.9757 109.503 94.7293C109.43 95.5052 109.403 96.2847 109.421 97.0638Z" fill="white"/>
<path d="M94.1887 125.513C93.0495 125.511 91.9111 125.45 90.7783 125.33C85.8454 124.802 82.1 122.731 80.202 119.524C78.3039 116.317 78.3953 112.612 80.202 108.359C81.6808 105.218 83.5385 102.269 85.7337 99.5793C86.5051 98.5643 87.2765 97.5493 88.0175 96.4633C90.3608 93.0755 92.3312 89.4444 93.8943 85.6332C94.3308 84.5573 94.7266 83.451 95.1428 82.2736C95.9 79.9162 96.8788 77.6358 98.066 75.4629C99.8885 72.2034 102.788 69.6795 106.268 68.3239C109.748 66.9683 113.591 66.8655 117.138 68.0331C119.513 68.7233 123.522 71.0071 124.984 73.8897C125.295 74.4538 125.483 75.0775 125.535 75.7196C125.588 76.3617 125.504 77.0076 125.288 77.6147C124.92 78.625 124.199 79.4684 123.258 79.9898C123.052 80.0776 122.832 80.1291 122.609 80.1421C122.182 81.8879 120.995 82.8521 119.635 83.9585L119.422 84.131C118.365 84.9596 117.249 85.7093 116.082 86.3742C115.514 86.7193 114.945 87.0644 114.387 87.3892C113.251 88.0847 112.262 88.9948 111.474 90.0688C110.625 91.5078 110.134 93.1301 110.043 94.7987C109.959 95.5569 109.921 96.3196 109.931 97.0824C110.11 99.5169 110.546 101.926 111.231 104.269C112.682 110.166 114.276 116.855 110.622 120.265C106.369 124.173 99.7103 125.513 94.1887 125.513ZM111.992 68.3072C109.324 68.3093 106.704 69.0235 104.405 70.376C102.105 71.7285 100.207 73.6702 98.9084 76.0009C97.7579 78.121 96.8065 80.3432 96.0664 82.639C95.6706 83.7758 95.2443 84.9938 94.7977 86.0088C93.2149 89.8911 91.21 93.5876 88.8193 97.0317C88.0784 98.0467 87.2968 99.1429 86.5051 100.178C84.3673 102.806 82.5542 105.683 81.1053 108.745C79.461 112.663 79.4509 116.205 81.1053 118.976C82.8308 121.909 86.3123 123.797 90.9102 124.295C96.6247 124.914 105.039 124.021 109.962 119.473C113.22 116.428 111.657 110.085 110.276 104.461C109.566 102.04 109.12 99.5491 108.947 97.0317C108.935 96.2348 108.976 95.438 109.069 94.6464C109.159 92.8224 109.696 91.0485 110.632 89.4801C111.482 88.3216 112.555 87.3449 113.788 86.6076C114.357 86.2321 114.935 85.8768 115.514 85.5317C116.643 84.8849 117.725 84.1591 118.752 83.3596L118.965 83.1972C120.396 82.03 121.421 81.1672 121.675 79.5026C121.687 79.4266 121.717 79.3543 121.761 79.2913C121.805 79.2283 121.864 79.1763 121.931 79.1391C121.999 79.1019 122.074 79.0806 122.151 79.0768C122.228 79.0729 122.304 79.0867 122.375 79.1169C122.518 79.1756 122.679 79.1756 122.822 79.1169C123.507 78.7098 124.03 78.0788 124.304 77.3305C124.472 76.8533 124.537 76.3457 124.493 75.8415C124.449 75.3374 124.298 74.8484 124.05 74.4073C122.741 71.8191 118.975 69.6876 116.823 69.0684C115.257 68.5866 113.63 68.3302 111.992 68.3072Z" fill="#1E293B"/>
<path d="M122.712 95.7234C122.712 95.7234 119.92 97.2967 118.57 94.4141L122.712 95.7234Z" fill="white"/>
<path d="M121.025 96.6551C120.704 96.6577 120.386 96.6097 120.081 96.513C119.638 96.3581 119.233 96.1104 118.893 95.7866C118.554 95.4628 118.287 95.0703 118.111 94.6353C118.083 94.5746 118.066 94.5089 118.063 94.4419C118.06 94.3749 118.07 94.3079 118.092 94.2448C118.115 94.1816 118.15 94.1236 118.195 94.0739C118.24 94.0242 118.294 93.9839 118.355 93.9552C118.416 93.9266 118.481 93.9101 118.548 93.9069C118.615 93.9036 118.682 93.9136 118.746 93.9362C118.809 93.9588 118.867 93.9936 118.916 94.0387C118.966 94.0838 119.006 94.1382 119.035 94.1988C119.151 94.5053 119.33 94.7838 119.561 95.0164C119.792 95.249 120.069 95.4304 120.375 95.5488C121.079 95.7124 121.818 95.615 122.456 95.2747C122.514 95.2426 122.579 95.2223 122.645 95.2151C122.712 95.2079 122.779 95.2139 122.843 95.2328C122.907 95.2516 122.967 95.283 123.019 95.325C123.071 95.3671 123.114 95.419 123.146 95.4777C123.18 95.5346 123.201 95.5978 123.21 95.6633C123.218 95.7289 123.214 95.7955 123.196 95.8592C123.177 95.9228 123.147 95.9821 123.105 96.0334C123.063 96.0848 123.012 96.1271 122.953 96.1578C122.359 96.4753 121.698 96.6459 121.025 96.6551Z" fill="#1E293B"/>
<path d="M108.145 88.6865C108.101 88.6961 108.056 88.6961 108.013 88.6865C107.884 88.6508 107.774 88.5658 107.708 88.4499C107.641 88.334 107.623 88.1965 107.658 88.0673C108.206 86.1693 108.612 86.1388 108.855 86.1185C109.099 86.0982 120.731 84.667 126.78 83.9261C126.913 83.9088 127.048 83.945 127.155 84.0269C127.261 84.1087 127.331 84.2294 127.349 84.3625C127.363 84.4968 127.324 84.6314 127.241 84.7376C127.157 84.8438 127.036 84.9132 126.902 84.931C125.197 85.1441 110.865 86.9609 109.099 87.1132C108.904 87.5055 108.751 87.9171 108.642 88.3414C108.606 88.4438 108.538 88.5322 108.449 88.5942C108.36 88.6561 108.253 88.6884 108.145 88.6865Z" fill="#1E293B"/>
<path d="M115.818 88.6071C115.751 87.7218 115.442 86.872 114.924 86.1508C114.601 85.5459 114.191 84.9918 113.706 84.5065C113.462 84.267 113.168 84.0845 112.845 83.9722C112.523 83.8599 112.179 83.8205 111.839 83.8569C111.543 83.9167 111.262 84.0379 111.016 84.2127C110.769 84.3875 110.562 84.6121 110.408 84.8719C110.117 85.4043 109.944 85.9926 109.9 86.5974C109.792 87.9205 110.033 89.2487 110.6 90.4492C111.166 91.6498 112.038 92.6806 113.128 93.4385L112.945 93.2152" fill="white"/>
<path d="M113.133 93.9647C113.032 93.9628 112.933 93.9311 112.849 93.8734C111.689 93.0623 110.762 91.9622 110.158 90.682C109.555 89.4019 109.296 87.9863 109.408 86.5755C109.45 85.8903 109.648 85.2236 109.987 84.6267C110.172 84.3002 110.426 84.0177 110.731 83.7987C111.036 83.5797 111.384 83.4293 111.753 83.358C112.17 83.3053 112.594 83.3473 112.993 83.4809C113.392 83.6144 113.756 83.8361 114.057 84.1294C114.58 84.6487 115.022 85.2441 115.366 85.8955C115.952 86.6895 116.304 87.6319 116.381 88.6157C116.372 88.7478 116.313 88.8715 116.218 88.9633C116.122 89.0551 115.996 89.1084 115.864 89.113C115.797 89.1117 115.731 89.0973 115.67 89.0705C115.609 89.0438 115.554 89.0053 115.508 88.9572C115.462 88.9092 115.425 88.8525 115.401 88.7904C115.377 88.7283 115.365 88.662 115.366 88.5954C115.297 87.8065 115.013 87.0518 114.544 86.4131C114.249 85.8507 113.872 85.3344 113.428 84.8805C113.238 84.693 113.01 84.5487 112.76 84.4576C112.509 84.3665 112.242 84.3307 111.976 84.3527C111.751 84.4038 111.539 84.5015 111.353 84.6396C111.168 84.7777 111.014 84.9531 110.9 85.1545C110.644 85.6197 110.495 86.1365 110.464 86.6669C110.37 87.8167 110.558 88.972 111.01 90.033C111.463 91.0941 112.167 92.029 113.062 92.7569C113.125 92.7621 113.187 92.7802 113.242 92.8098C113.298 92.8395 113.348 92.8802 113.387 92.9294L113.57 93.1426C113.651 93.2352 113.696 93.3542 113.696 93.4775C113.696 93.6008 113.651 93.7199 113.57 93.8125C113.513 93.8693 113.445 93.9125 113.369 93.9389C113.294 93.9653 113.213 93.9741 113.133 93.9647Z" fill="#1E293B"/>
<path d="M121.748 85.0872C122.022 85.0829 122.236 84.516 122.225 83.8209C122.214 83.1259 121.983 82.566 121.708 82.5703C121.434 82.5746 121.22 83.1415 121.231 83.8366C121.242 84.5316 121.473 85.0915 121.748 85.0872Z" fill="#1E293B"/>
<path d="M87.6413 171.011C87.5246 171.014 87.4114 170.971 87.326 170.891C87.2406 170.811 87.1899 170.701 87.1846 170.585C86.3015 158.719 88.0676 126.94 88.0879 126.625C88.0905 126.564 88.1052 126.504 88.1313 126.449C88.1573 126.394 88.1941 126.345 88.2395 126.304C88.2849 126.263 88.338 126.232 88.3957 126.212C88.4533 126.193 88.5143 126.184 88.5751 126.189C88.6981 126.199 88.8122 126.257 88.8936 126.349C88.975 126.442 89.0173 126.563 89.0116 126.686C89.0116 127.001 87.2252 158.709 88.1082 170.514C88.1167 170.636 88.0767 170.757 87.9969 170.85C87.9172 170.943 87.804 171.001 87.6819 171.011H87.6413Z" fill="#1E293B"/>
<path d="M91.9139 172.017C91.8032 172.001 91.702 171.945 91.6289 171.86C91.5558 171.775 91.5156 171.667 91.5156 171.555C91.5156 171.443 91.5558 171.335 91.6289 171.25C91.702 171.166 91.8032 171.11 91.9139 171.094L132.514 169.064C132.576 169.059 132.637 169.068 132.696 169.088C132.754 169.109 132.808 169.141 132.853 169.183C132.899 169.224 132.935 169.275 132.961 169.331C132.986 169.387 133 169.448 133.001 169.51C133.004 169.633 132.959 169.753 132.876 169.844C132.793 169.934 132.677 169.989 132.554 169.997L91.9545 172.027L91.9139 172.017Z" fill="#1E293B"/>
<path d="M86.6165 25.6664C86.9923 24.9577 88.0077 24.9577 88.3835 25.6664L89.6083 27.9766C89.702 28.1534 89.8466 28.298 90.0234 28.3917L92.3336 29.6165C93.0423 29.9923 93.0423 31.0077 92.3336 31.3835L90.0234 32.6083C89.8466 32.702 89.702 32.8466 89.6083 33.0234L88.3835 35.3336C88.0077 36.0423 86.9923 36.0423 86.6165 35.3336L85.3917 33.0234C85.298 32.8466 85.1534 32.702 84.9766 32.6083L82.6664 31.3835C81.9577 31.0077 81.9577 29.9923 82.6664 29.6165L84.9766 28.3917C85.1534 28.298 85.298 28.1534 85.3917 27.9766L86.6165 25.6664Z" fill="#CBD5E1"/>
<path fill-rule="evenodd" clip-rule="evenodd" d="M280.979 151.902C286.502 151.902 290.536 147.447 289.99 141.951C289.443 136.455 284.523 132 279 132C273.477 132 269.443 136.455 269.99 141.951C270.536 147.447 275.457 151.902 280.979 151.902ZM279.538 136.975C278.735 136.975 277.669 137.432 277.157 137.996L275.768 139.527H283.454L285.77 136.975H279.538ZM282.809 145.906C282.297 146.469 281.232 146.926 280.429 146.926H274.196L276.513 144.375H284.199L282.809 145.906ZM284.8 140.803H274.612L274.179 141.281C273.141 142.302 273.558 143.099 275.154 143.099H285.369L285.802 142.621C286.83 141.606 286.395 140.803 284.8 140.803Z" fill="#1E293B"/>
</svg>
