<svg width="480" height="344" viewBox="0 0 480 344" fill="none" xmlns="http://www.w3.org/2000/svg">
<g clip-path="url(#clip0_7821_10821)">
<mask id="mask0_7821_10821" style="mask-type:alpha" maskUnits="userSpaceOnUse" x="0" y="0" width="480" height="345">
<rect width="480" height="344.571" fill="url(#paint0_radial_7821_10821)"/>
</mask>
<g mask="url(#mask0_7821_10821)">
<line x1="11.1462" y1="1.71094" x2="11.1462" y2="344.568" stroke="#E4EAF1" stroke-width="1.71429"/>
<line x1="28.2868" y1="1.71094" x2="28.2868" y2="344.568" stroke="#E4EAF1" stroke-width="1.71429"/>
<line x1="45.4275" y1="1.71094" x2="45.4274" y2="344.568" stroke="#E4EAF1" stroke-width="1.71429"/>
<line x1="62.5759" y1="1.71094" x2="62.5759" y2="344.568" stroke="#E4EAF1" stroke-width="1.71429"/>
<line x1="79.7165" y1="1.71094" x2="79.7165" y2="344.568" stroke="#E4EAF1" stroke-width="1.71429"/>
<line x1="96.8571" y1="1.71094" x2="96.8571" y2="344.568" stroke="#E4EAF1" stroke-width="1.71429"/>
<line x1="114.006" y1="1.71094" x2="114.006" y2="344.568" stroke="#E4EAF1" stroke-width="1.71429"/>
<line x1="131.146" y1="1.71094" x2="131.146" y2="344.568" stroke="#E4EAF1" stroke-width="1.71429"/>
<line x1="148.287" y1="1.71094" x2="148.287" y2="344.568" stroke="#E4EAF1" stroke-width="1.71429"/>
<line x1="165.427" y1="1.71094" x2="165.427" y2="344.568" stroke="#E4EAF1" stroke-width="1.71429"/>
<line x1="182.576" y1="1.71094" x2="182.576" y2="344.568" stroke="#E4EAF1" stroke-width="1.71429"/>
<line x1="199.717" y1="1.71094" x2="199.717" y2="344.568" stroke="#E4EAF1" stroke-width="1.71429"/>
<line x1="216.857" y1="1.71094" x2="216.857" y2="344.568" stroke="#E4EAF1" stroke-width="1.71429"/>
<line x1="234.006" y1="1.71094" x2="234.006" y2="344.568" stroke="#E4EAF1" stroke-width="1.71429"/>
<line x1="251.146" y1="1.71094" x2="251.146" y2="344.568" stroke="#E4EAF1" stroke-width="1.71429"/>
<line x1="268.287" y1="1.71094" x2="268.287" y2="344.568" stroke="#E4EAF1" stroke-width="1.71429"/>
<line x1="285.427" y1="1.71094" x2="285.427" y2="344.568" stroke="#E4EAF1" stroke-width="1.71429"/>
<line x1="302.576" y1="1.71094" x2="302.576" y2="344.568" stroke="#E4EAF1" stroke-width="1.71429"/>
<line x1="319.717" y1="1.71094" x2="319.716" y2="344.568" stroke="#E4EAF1" stroke-width="1.71429"/>
<line x1="336.857" y1="1.71094" x2="336.857" y2="344.568" stroke="#E4EAF1" stroke-width="1.71429"/>
<line x1="354.006" y1="1.71094" x2="354.006" y2="344.568" stroke="#E4EAF1" stroke-width="1.71429"/>
<line x1="371.146" y1="1.71094" x2="371.146" y2="344.568" stroke="#E4EAF1" stroke-width="1.71429"/>
<line x1="388.287" y1="1.71094" x2="388.287" y2="344.568" stroke="#E4EAF1" stroke-width="1.71429"/>
<line x1="405.427" y1="1.71094" x2="405.427" y2="344.568" stroke="#E4EAF1" stroke-width="1.71429"/>
<line x1="422.576" y1="1.71094" x2="422.576" y2="344.568" stroke="#E4EAF1" stroke-width="1.71429"/>
<line x1="439.717" y1="1.71094" x2="439.716" y2="344.568" stroke="#E4EAF1" stroke-width="1.71429"/>
<line x1="456.857" y1="1.71094" x2="456.857" y2="344.568" stroke="#E4EAF1" stroke-width="1.71429"/>
<line x1="474.006" y1="1.71094" x2="474.006" y2="344.568" stroke="#E4EAF1" stroke-width="1.71429"/>
<line x1="8.57813" y1="335.135" x2="476.578" y2="335.135" stroke="#E4EAF1" stroke-width="1.71429"/>
<line x1="8.57813" y1="317.994" x2="476.578" y2="317.994" stroke="#E4EAF1" stroke-width="1.71429"/>
<line x1="8.57813" y1="300.854" x2="476.578" y2="300.854" stroke="#E4EAF1" stroke-width="1.71429"/>
<line x1="8.57813" y1="283.705" x2="476.578" y2="283.705" stroke="#E4EAF1" stroke-width="1.71429"/>
<line x1="8.57813" y1="266.565" x2="476.578" y2="266.565" stroke="#E4EAF1" stroke-width="1.71429"/>
<line x1="8.57813" y1="249.424" x2="476.578" y2="249.424" stroke="#E4EAF1" stroke-width="1.71429"/>
<line x1="8.57813" y1="232.276" x2="476.578" y2="232.276" stroke="#E4EAF1" stroke-width="1.71429"/>
<line x1="8.57813" y1="215.135" x2="476.578" y2="215.135" stroke="#E4EAF1" stroke-width="1.71429"/>
<line x1="8.57813" y1="197.994" x2="476.578" y2="197.994" stroke="#E4EAF1" stroke-width="1.71429"/>
<line x1="8.57813" y1="180.854" x2="476.578" y2="180.854" stroke="#E4EAF1" stroke-width="1.71429"/>
<line x1="8.57813" y1="163.705" x2="476.578" y2="163.705" stroke="#E4EAF1" stroke-width="1.71429"/>
<line x1="8.57813" y1="146.565" x2="476.578" y2="146.565" stroke="#E4EAF1" stroke-width="1.71429"/>
<line x1="8.57813" y1="129.424" x2="476.578" y2="129.424" stroke="#E4EAF1" stroke-width="1.71429"/>
<line x1="8.57813" y1="112.276" x2="476.578" y2="112.276" stroke="#E4EAF1" stroke-width="1.71429"/>
<line x1="8.57813" y1="95.135" x2="476.578" y2="95.135" stroke="#E4EAF1" stroke-width="1.71429"/>
<line x1="8.57813" y1="77.9944" x2="476.578" y2="77.9944" stroke="#E4EAF1" stroke-width="1.71429"/>
<line x1="8.57813" y1="60.8538" x2="476.578" y2="60.8538" stroke="#E4EAF1" stroke-width="1.71429"/>
<line x1="8.57813" y1="43.7054" x2="476.578" y2="43.7054" stroke="#E4EAF1" stroke-width="1.71429"/>
<line x1="8.57813" y1="26.5647" x2="476.578" y2="26.5647" stroke="#E4EAF1" stroke-width="1.71429"/>
<line x1="8.57813" y1="9.42411" x2="476.578" y2="9.4241" stroke="#E4EAF1" stroke-width="1.71429"/>
</g>
<g opacity="0.5" filter="url(#filter0_f_7821_10821)">
<rect x="77.1406" y="56.5703" width="325.714" height="233.143" rx="34.2857" fill="url(#paint1_linear_7821_10821)"/>
</g>
<g filter="url(#filter1_d_7821_10821)">
<rect x="48" y="34.2812" width="384" height="274.286" rx="10.2857" fill="white"/>
<rect x="48.4286" y="34.7098" width="383.143" height="273.429" rx="9.85714" stroke="url(#paint2_linear_7821_10821)" stroke-width="0.857143"/>
<path d="M74.1551 48.3546C74.6198 47.2181 76.2293 47.2181 76.694 48.3546L78.9831 53.9531C79.03 54.0679 79.0923 54.1758 79.1683 54.2738L82.8721 59.0555C83.624 60.0262 82.8193 61.42 81.6027 61.2542L75.6098 60.4374C75.4869 60.4206 75.3623 60.4206 75.2393 60.4374L69.2464 61.2542C68.0298 61.42 67.2251 60.0262 67.977 59.0555L71.6808 54.2738C71.7568 54.1758 71.8191 54.0679 71.866 53.9531L74.1551 48.3546Z" fill="url(#paint3_linear_7821_10821)"/>
<rect x="178.281" y="54.1641" width="21.9429" height="4.11429" rx="1.37143" fill="url(#paint4_linear_7821_10821)"/>
<rect x="208.453" y="54.1641" width="21.9429" height="4.11429" rx="1.37143" fill="url(#paint5_linear_7821_10821)"/>
<rect x="238.625" y="54.1641" width="21.9429" height="4.11429" rx="1.37143" fill="url(#paint6_linear_7821_10821)"/>
<rect x="268.797" y="54.1641" width="21.9429" height="4.11429" rx="1.37143" fill="url(#paint7_linear_7821_10821)"/>
<rect x="382.625" y="50.7344" width="32.9143" height="10.9714" rx="3.42857" fill="url(#paint8_linear_7821_10821)"/>
<rect x="86.4062" y="259.172" width="77.4919" height="2.76757" rx="1.38378" fill="url(#paint9_linear_7821_10821)"/>
<rect x="86.4062" y="266.086" width="66.4216" height="2.76757" rx="1.38378" fill="url(#paint10_linear_7821_10821)"/>
<rect x="86.4062" y="273.008" width="49.8162" height="2.76757" rx="1.38378" fill="url(#paint11_linear_7821_10821)"/>
<path d="M91.462 243.393C91.6751 243.024 92.2077 243.024 92.4207 243.393L94.3382 246.714L96.2556 250.035C96.4686 250.404 96.2023 250.865 95.7762 250.865H91.9414H88.1065C87.6804 250.865 87.4141 250.404 87.6272 250.035L89.5446 246.714L91.462 243.393Z" fill="url(#paint12_linear_7821_10821)"/>
<rect x="201.258" y="259.164" width="77.4919" height="2.76757" rx="1.38378" fill="url(#paint13_linear_7821_10821)"/>
<rect x="201.258" y="266.086" width="66.4216" height="2.76757" rx="1.38378" fill="url(#paint14_linear_7821_10821)"/>
<rect x="201.258" y="273.008" width="49.8162" height="2.76757" rx="1.38378" fill="url(#paint15_linear_7821_10821)"/>
<path d="M206.307 243.45C206.517 243.067 207.069 243.067 207.279 243.45L208.672 245.998C208.723 246.091 208.799 246.168 208.892 246.218L211.44 247.612C211.824 247.822 211.824 248.373 211.44 248.583L208.892 249.977C208.799 250.028 208.723 250.104 208.672 250.197L207.279 252.745C207.069 253.129 206.517 253.129 206.307 252.745L204.914 250.197C204.863 250.104 204.787 250.028 204.694 249.977L202.146 248.583C201.762 248.373 201.762 247.822 202.146 247.612L204.694 246.218C204.787 246.168 204.863 246.091 204.914 245.998L206.307 243.45Z" fill="url(#paint16_linear_7821_10821)"/>
<rect x="316.117" y="259.172" width="77.4919" height="2.76757" rx="1.38378" fill="url(#paint17_linear_7821_10821)"/>
<rect x="316.117" y="266.086" width="66.4216" height="2.76757" rx="1.38378" fill="url(#paint18_linear_7821_10821)"/>
<rect x="316.117" y="273.008" width="49.8162" height="2.76757" rx="1.38378" fill="url(#paint19_linear_7821_10821)"/>
<path d="M321.156 243.568C321.359 243.157 321.946 243.157 322.149 243.568L323.15 245.598C323.231 245.761 323.387 245.874 323.567 245.9L325.807 246.226C326.261 246.292 326.442 246.85 326.113 247.17L324.493 248.75C324.362 248.877 324.303 249.06 324.334 249.24L324.716 251.47C324.794 251.922 324.319 252.267 323.913 252.054L321.91 251.001C321.749 250.916 321.556 250.916 321.395 251.001L319.392 252.054C318.985 252.267 318.511 251.922 318.588 251.47L318.971 249.24C319.002 249.06 318.942 248.877 318.812 248.75L317.191 247.17C316.863 246.85 317.044 246.292 317.498 246.226L319.738 245.9C319.918 245.874 320.074 245.761 320.154 245.598L321.156 243.568Z" fill="url(#paint20_linear_7821_10821)"/>
<rect x="64.2812" y="78" width="351.429" height="141.429" rx="10.9714" fill="url(#paint21_linear_7821_10821)"/>
<path d="M91.7031 141.95C91.7031 141.192 92.3171 140.578 93.0746 140.578H274.103C274.861 140.578 275.475 141.192 275.475 141.95C275.475 142.707 274.861 143.321 274.103 143.321H93.0746C92.3171 143.321 91.7031 142.707 91.7031 141.95Z" fill="url(#paint22_linear_7821_10821)"/>
<rect x="91.7031" y="148.805" width="112.457" height="2.74286" rx="1.37143" fill="url(#paint23_linear_7821_10821)"/>
<rect x="91.7031" y="126.859" width="87.7714" height="5.48571" rx="1.37143" fill="url(#paint24_linear_7821_10821)"/>
<rect x="91.7031" y="159.773" width="32.9143" height="10.9714" rx="2.74286" fill="url(#paint25_linear_7821_10821)"/>
<rect x="130.787" y="160.459" width="31.5429" height="9.6" rx="2.05714" stroke="url(#paint26_linear_7821_10821)" stroke-width="1.37143"/>
<path d="M173.098 101.206C173.311 100.173 174.786 100.173 174.999 101.206L175.413 103.211C175.595 104.093 176.284 104.783 177.166 104.965L179.172 105.379C180.204 105.592 180.204 107.067 179.172 107.28L177.166 107.694C176.284 107.876 175.595 108.565 175.413 109.448L174.999 111.453C174.786 112.486 173.311 112.486 173.098 111.453L172.684 109.448C172.501 108.565 171.812 107.876 170.93 107.694L168.924 107.28C167.892 107.067 167.892 105.592 168.924 105.379L170.93 104.965C171.812 104.783 172.501 104.093 172.684 103.211L173.098 101.206Z" stroke="url(#paint27_linear_7821_10821)" stroke-width="1.28571"/>
<path d="M299.957 120.065C300.17 119.033 301.645 119.033 301.858 120.065L302.272 122.071C302.454 122.953 303.144 123.642 304.026 123.824L306.031 124.238C307.064 124.451 307.064 125.926 306.031 126.139L304.026 126.553C303.144 126.736 302.454 127.425 302.272 128.307L301.858 130.313C301.645 131.345 300.17 131.345 299.957 130.313L299.543 128.307C299.361 127.425 298.672 126.736 297.789 126.553L295.784 126.139C294.751 125.926 294.751 124.451 295.784 124.238L297.789 123.824C298.672 123.642 299.361 122.953 299.543 122.071L299.957 120.065Z" stroke="url(#paint28_linear_7821_10821)" stroke-width="1.28571"/>
<rect opacity="0.5" x="278.57" y="100.281" width="75.1684" height="75.1684" fill="url(#paint29_linear_7821_10821)"/>
<rect opacity="0.5" x="313.969" y="128.055" width="75.1684" height="75.1684" rx="37.5842" fill="url(#paint30_linear_7821_10821)"/>
<path d="M182.527 220.346C182.74 219.314 184.215 219.314 184.428 220.346L184.842 222.352C185.025 223.234 185.714 223.923 186.596 224.105L188.602 224.52C189.634 224.733 189.634 226.207 188.602 226.421L186.596 226.835C185.714 227.017 185.025 227.706 184.842 228.588L184.428 230.594C184.215 231.626 182.74 231.626 182.527 230.594L182.113 228.588C181.931 227.706 181.242 227.017 180.36 226.835L178.354 226.421C177.322 226.207 177.322 224.733 178.354 224.52L180.36 224.105C181.242 223.923 181.931 223.234 182.113 222.352L182.527 220.346Z" stroke="url(#paint31_linear_7821_10821)" stroke-width="1.28571"/>
</g>
<g filter="url(#filter2_bd_7821_10821)">
<rect x="178.281" y="109.719" width="123.429" height="123.429" rx="61.7143" fill="white" fill-opacity="0.25" style="mix-blend-mode:overlay" shape-rendering="crispEdges"/>
<path d="M204.729 171.432C204.729 173.055 203.413 174.371 201.79 174.371C200.167 174.371 198.852 173.055 198.852 171.432C198.852 169.809 200.167 168.493 201.79 168.493C203.413 168.493 204.729 169.809 204.729 171.432Z" fill="url(#paint32_angular_7821_10821)"/>
<path d="M281.137 171.432C281.137 173.055 279.822 174.371 278.199 174.371C276.575 174.371 275.26 173.055 275.26 171.432C275.26 169.809 276.575 168.493 278.199 168.493C279.822 168.493 281.137 169.809 281.137 171.432Z" fill="url(#paint33_angular_7821_10821)"/>
<path d="M239.994 136.167C238.371 136.167 237.056 134.851 237.056 133.228C237.056 131.605 238.371 130.289 239.994 130.289C241.617 130.289 242.933 131.605 242.933 133.228C242.933 134.851 241.617 136.167 239.994 136.167Z" fill="url(#paint34_angular_7821_10821)"/>
<path d="M239.994 212.575C238.371 212.575 237.056 211.259 237.056 209.636C237.056 208.013 238.371 206.697 239.994 206.697C241.617 206.697 242.933 208.013 242.933 209.636C242.933 211.259 241.617 212.575 239.994 212.575Z" fill="url(#paint35_angular_7821_10821)"/>
<path d="M222.364 140.891C220.958 141.703 219.161 141.221 218.349 139.816C217.538 138.41 218.019 136.613 219.425 135.801C220.83 134.99 222.628 135.471 223.439 136.877C224.251 138.282 223.769 140.08 222.364 140.891Z" fill="url(#paint36_angular_7821_10821)"/>
<path d="M260.568 207.063C259.162 207.874 257.365 207.393 256.553 205.987C255.742 204.581 256.223 202.784 257.629 201.972C259.035 201.161 260.832 201.643 261.643 203.048C262.455 204.454 261.973 206.251 260.568 207.063Z" fill="url(#paint37_angular_7821_10821)"/>
<path d="M270.537 153.799C269.725 152.394 270.207 150.596 271.613 149.785C273.018 148.973 274.816 149.455 275.627 150.86C276.439 152.266 275.957 154.063 274.551 154.875C273.146 155.686 271.348 155.205 270.537 153.799Z" fill="url(#paint38_angular_7821_10821)"/>
<path d="M204.366 192.003C203.554 190.598 204.036 188.8 205.441 187.989C206.847 187.177 208.644 187.659 209.456 189.064C210.267 190.47 209.786 192.267 208.38 193.079C206.974 193.89 205.177 193.409 204.366 192.003Z" fill="url(#paint39_angular_7821_10821)"/>
<path d="M209.455 153.799C208.643 155.205 206.846 155.686 205.44 154.875C204.035 154.063 203.553 152.266 204.365 150.86C205.176 149.455 206.973 148.973 208.379 149.785C209.785 150.596 210.266 152.394 209.455 153.799Z" fill="url(#paint40_angular_7821_10821)"/>
<path d="M275.626 192.003C274.815 193.409 273.017 193.89 271.612 193.079C270.206 192.267 269.725 190.47 270.536 189.064C271.348 187.659 273.145 187.177 274.55 187.989C275.956 188.8 276.438 190.598 275.626 192.003Z" fill="url(#paint41_angular_7821_10821)"/>
<path d="M257.628 140.891C256.222 140.08 255.741 138.282 256.552 136.877C257.364 135.471 259.161 134.99 260.567 135.801C261.972 136.613 262.454 138.41 261.642 139.816C260.831 141.221 259.034 141.703 257.628 140.891Z" fill="url(#paint42_angular_7821_10821)"/>
<path d="M219.424 207.063C218.018 206.251 217.537 204.454 218.348 203.048C219.16 201.643 220.957 201.161 222.363 201.972C223.768 202.784 224.25 204.581 223.438 205.987C222.627 207.393 220.83 207.874 219.424 207.063Z" fill="url(#paint43_angular_7821_10821)"/>
<path d="M245.134 161.143L250.277 166.286M229.705 186.857L255.42 161.143L250.277 156L224.562 181.714L229.705 186.857ZM234.848 156C234.848 156.909 235.209 157.781 235.852 158.424C236.495 159.067 237.367 159.429 238.277 159.429C237.367 159.429 236.495 159.79 235.852 160.433C235.209 161.076 234.848 161.948 234.848 162.857C234.848 161.948 234.487 161.076 233.844 160.433C233.201 159.79 232.329 159.429 231.42 159.429C232.329 159.429 233.201 159.067 233.844 158.424C234.487 157.781 234.848 156.909 234.848 156ZM251.991 173.143C251.991 174.052 252.352 174.924 252.995 175.567C253.638 176.21 254.51 176.571 255.42 176.571C254.51 176.571 253.638 176.933 252.995 177.576C252.352 178.219 251.991 179.091 251.991 180C251.991 179.091 251.63 178.219 250.987 177.576C250.344 176.933 249.472 176.571 248.563 176.571C249.472 176.571 250.344 176.21 250.987 175.567C251.63 174.924 251.991 174.052 251.991 173.143Z" stroke="url(#paint44_linear_7821_10821)" stroke-width="3.42857" stroke-linecap="round" stroke-linejoin="round"/>
</g>
</g>
<defs>
<filter id="filter0_f_7821_10821" x="8.5692" y="-12.0011" width="462.854" height="370.283" filterUnits="userSpaceOnUse" color-interpolation-filters="sRGB">
<feFlood flood-opacity="0" result="BackgroundImageFix"/>
<feBlend mode="normal" in="SourceGraphic" in2="BackgroundImageFix" result="shape"/>
<feGaussianBlur stdDeviation="34.2857" result="effect1_foregroundBlur_7821_10821"/>
</filter>
<filter id="filter1_d_7821_10821" x="45.2571" y="34.2812" width="389.486" height="279.775" filterUnits="userSpaceOnUse" color-interpolation-filters="sRGB">
<feFlood flood-opacity="0" result="BackgroundImageFix"/>
<feColorMatrix in="SourceAlpha" type="matrix" values="0 0 0 0 0 0 0 0 0 0 0 0 0 0 0 0 0 0 127 0" result="hardAlpha"/>
<feMorphology radius="2.74286" operator="erode" in="SourceAlpha" result="effect1_dropShadow_7821_10821"/>
<feOffset dy="2.74286"/>
<feGaussianBlur stdDeviation="2.74286"/>
<feComposite in2="hardAlpha" operator="out"/>
<feColorMatrix type="matrix" values="0 0 0 0 0 0 0 0 0 0 0 0 0 0 0 0 0 0 0.08 0"/>
<feBlend mode="normal" in2="BackgroundImageFix" result="effect1_dropShadow_7821_10821"/>
<feBlend mode="normal" in="SourceGraphic" in2="effect1_dropShadow_7821_10821" result="shape"/>
</filter>
<filter id="filter2_bd_7821_10821" x="123.424" y="75.433" width="233.144" height="233.144" filterUnits="userSpaceOnUse" color-interpolation-filters="sRGB">
<feFlood flood-opacity="0" result="BackgroundImageFix"/>
<feGaussianBlur in="BackgroundImageFix" stdDeviation="3.42857"/>
<feComposite in2="SourceAlpha" operator="in" result="effect1_backgroundBlur_7821_10821"/>
<feColorMatrix in="SourceAlpha" type="matrix" values="0 0 0 0 0 0 0 0 0 0 0 0 0 0 0 0 0 0 127 0" result="hardAlpha"/>
<feMorphology radius="13.7143" operator="erode" in="SourceAlpha" result="effect2_dropShadow_7821_10821"/>
<feOffset dy="20.5714"/>
<feGaussianBlur stdDeviation="34.2857"/>
<feComposite in2="hardAlpha" operator="out"/>
<feColorMatrix type="matrix" values="0 0 0 0 0 0 0 0 0 0 0 0 0 0 0 0 0 0 0.08 0"/>
<feBlend mode="normal" in2="effect1_backgroundBlur_7821_10821" result="effect2_dropShadow_7821_10821"/>
<feBlend mode="normal" in="SourceGraphic" in2="effect2_dropShadow_7821_10821" result="shape"/>
</filter>
<radialGradient id="paint0_radial_7821_10821" cx="0" cy="0" r="1" gradientUnits="userSpaceOnUse" gradientTransform="translate(240 172.286) rotate(90) scale(172.286 240)">
<stop offset="0.912036" stop-color="#D9D9D9"/>
<stop offset="1" stop-color="#D9D9D9" stop-opacity="0.5"/>
</radialGradient>
<linearGradient id="paint1_linear_7821_10821" x1="77.1406" y1="196.45" x2="402.855" y2="196.45" gradientUnits="userSpaceOnUse">
<stop stop-color="#0A21F8"/>
<stop offset="0.427083" stop-color="#9933FF"/>
<stop offset="1" stop-color="#FC65D2"/>
</linearGradient>
<linearGradient id="paint2_linear_7821_10821" x1="48" y1="34.2813" x2="432" y2="308.567" gradientUnits="userSpaceOnUse">
<stop stop-color="#B809A7"/>
<stop offset="0.46875" stop-color="#E90B76"/>
<stop offset="1" stop-color="#FC8536"/>
</linearGradient>
<linearGradient id="paint3_linear_7821_10821" x1="64.4531" y1="56.2212" x2="86.396" y2="56.2212" gradientUnits="userSpaceOnUse">
<stop stop-color="#D1DAE5"/>
<stop offset="1" stop-color="#D1DAE5" stop-opacity="0.25"/>
<stop offset="1" stop-color="#D1DAE5" stop-opacity="0"/>
</linearGradient>
<linearGradient id="paint4_linear_7821_10821" x1="178.281" y1="56.2212" x2="200.224" y2="56.2212" gradientUnits="userSpaceOnUse">
<stop stop-color="#D1DAE5"/>
<stop offset="1" stop-color="#D1DAE5" stop-opacity="0.25"/>
<stop offset="1" stop-color="#D1DAE5" stop-opacity="0"/>
</linearGradient>
<linearGradient id="paint5_linear_7821_10821" x1="208.453" y1="56.2212" x2="230.396" y2="56.2212" gradientUnits="userSpaceOnUse">
<stop stop-color="#D1DAE5"/>
<stop offset="1" stop-color="#D1DAE5" stop-opacity="0.25"/>
<stop offset="1" stop-color="#D1DAE5" stop-opacity="0"/>
</linearGradient>
<linearGradient id="paint6_linear_7821_10821" x1="238.625" y1="56.2212" x2="260.568" y2="56.2212" gradientUnits="userSpaceOnUse">
<stop stop-color="#D1DAE5"/>
<stop offset="1" stop-color="#D1DAE5" stop-opacity="0.25"/>
<stop offset="1" stop-color="#D1DAE5" stop-opacity="0"/>
</linearGradient>
<linearGradient id="paint7_linear_7821_10821" x1="268.797" y1="56.2212" x2="290.74" y2="56.2212" gradientUnits="userSpaceOnUse">
<stop stop-color="#D1DAE5"/>
<stop offset="1" stop-color="#D1DAE5" stop-opacity="0.25"/>
<stop offset="1" stop-color="#D1DAE5" stop-opacity="0"/>
</linearGradient>
<linearGradient id="paint8_linear_7821_10821" x1="382.625" y1="56.22" x2="415.539" y2="56.22" gradientUnits="userSpaceOnUse">
<stop stop-color="#D1DAE5"/>
<stop offset="1" stop-color="#D1DAE5" stop-opacity="0.25"/>
<stop offset="1" stop-color="#D1DAE5" stop-opacity="0"/>
</linearGradient>
<linearGradient id="paint9_linear_7821_10821" x1="86.4063" y1="260.556" x2="163.898" y2="260.556" gradientUnits="userSpaceOnUse">
<stop stop-color="#D1DAE5"/>
<stop offset="1" stop-color="#D1DAE5" stop-opacity="0.25"/>
<stop offset="1" stop-color="#D1DAE5" stop-opacity="0"/>
</linearGradient>
<linearGradient id="paint10_linear_7821_10821" x1="86.4063" y1="267.47" x2="152.828" y2="267.47" gradientUnits="userSpaceOnUse">
<stop stop-color="#D1DAE5"/>
<stop offset="1" stop-color="#D1DAE5" stop-opacity="0.25"/>
<stop offset="1" stop-color="#D1DAE5" stop-opacity="0"/>
</linearGradient>
<linearGradient id="paint11_linear_7821_10821" x1="86.4063" y1="274.392" x2="136.222" y2="274.392" gradientUnits="userSpaceOnUse">
<stop stop-color="#D1DAE5"/>
<stop offset="1" stop-color="#D1DAE5" stop-opacity="0.25"/>
<stop offset="1" stop-color="#D1DAE5" stop-opacity="0"/>
</linearGradient>
<linearGradient id="paint12_linear_7821_10821" x1="86.4063" y1="248.098" x2="97.4765" y2="248.098" gradientUnits="userSpaceOnUse">
<stop stop-color="#D1DAE5"/>
<stop offset="1" stop-color="#D1DAE5" stop-opacity="0.25"/>
<stop offset="1" stop-color="#D1DAE5" stop-opacity="0"/>
</linearGradient>
<linearGradient id="paint13_linear_7821_10821" x1="201.258" y1="260.548" x2="278.75" y2="260.548" gradientUnits="userSpaceOnUse">
<stop stop-color="#D1DAE5"/>
<stop offset="1" stop-color="#D1DAE5" stop-opacity="0.25"/>
<stop offset="1" stop-color="#D1DAE5" stop-opacity="0"/>
</linearGradient>
<linearGradient id="paint14_linear_7821_10821" x1="201.258" y1="267.47" x2="267.679" y2="267.47" gradientUnits="userSpaceOnUse">
<stop stop-color="#D1DAE5"/>
<stop offset="1" stop-color="#D1DAE5" stop-opacity="0.25"/>
<stop offset="1" stop-color="#D1DAE5" stop-opacity="0"/>
</linearGradient>
<linearGradient id="paint15_linear_7821_10821" x1="201.258" y1="274.392" x2="251.074" y2="274.392" gradientUnits="userSpaceOnUse">
<stop stop-color="#D1DAE5"/>
<stop offset="1" stop-color="#D1DAE5" stop-opacity="0.25"/>
<stop offset="1" stop-color="#D1DAE5" stop-opacity="0"/>
</linearGradient>
<linearGradient id="paint16_linear_7821_10821" x1="201.258" y1="248.098" x2="212.328" y2="248.098" gradientUnits="userSpaceOnUse">
<stop stop-color="#D1DAE5"/>
<stop offset="1" stop-color="#D1DAE5" stop-opacity="0.25"/>
<stop offset="1" stop-color="#D1DAE5" stop-opacity="0"/>
</linearGradient>
<linearGradient id="paint17_linear_7821_10821" x1="316.117" y1="260.556" x2="393.609" y2="260.556" gradientUnits="userSpaceOnUse">
<stop stop-color="#D1DAE5"/>
<stop offset="1" stop-color="#D1DAE5" stop-opacity="0.25"/>
<stop offset="1" stop-color="#D1DAE5" stop-opacity="0"/>
</linearGradient>
<linearGradient id="paint18_linear_7821_10821" x1="316.117" y1="267.47" x2="382.539" y2="267.47" gradientUnits="userSpaceOnUse">
<stop stop-color="#D1DAE5"/>
<stop offset="1" stop-color="#D1DAE5" stop-opacity="0.25"/>
<stop offset="1" stop-color="#D1DAE5" stop-opacity="0"/>
</linearGradient>
<linearGradient id="paint19_linear_7821_10821" x1="316.117" y1="274.392" x2="365.933" y2="274.392" gradientUnits="userSpaceOnUse">
<stop stop-color="#D1DAE5"/>
<stop offset="1" stop-color="#D1DAE5" stop-opacity="0.25"/>
<stop offset="1" stop-color="#D1DAE5" stop-opacity="0"/>
</linearGradient>
<linearGradient id="paint20_linear_7821_10821" x1="316.117" y1="248.098" x2="327.187" y2="248.098" gradientUnits="userSpaceOnUse">
<stop stop-color="#D1DAE5"/>
<stop offset="1" stop-color="#D1DAE5" stop-opacity="0.25"/>
<stop offset="1" stop-color="#D1DAE5" stop-opacity="0"/>
</linearGradient>
<linearGradient id="paint21_linear_7821_10821" x1="64.2813" y1="148.713" x2="415.71" y2="148.713" gradientUnits="userSpaceOnUse">
<stop stop-color="#D1DAE5" stop-opacity="0.25"/>
<stop offset="1" stop-color="#D1DAE5" stop-opacity="0"/>
</linearGradient>
<linearGradient id="paint22_linear_7821_10821" x1="91.7031" y1="141.95" x2="275.475" y2="141.95" gradientUnits="userSpaceOnUse">
<stop stop-color="#D1DAE5"/>
<stop offset="1" stop-color="#D1DAE5" stop-opacity="0.25"/>
<stop offset="1" stop-color="#D1DAE5" stop-opacity="0"/>
</linearGradient>
<linearGradient id="paint23_linear_7821_10821" x1="91.7031" y1="150.176" x2="204.16" y2="150.176" gradientUnits="userSpaceOnUse">
<stop stop-color="#D1DAE5"/>
<stop offset="1" stop-color="#D1DAE5" stop-opacity="0.25"/>
<stop offset="1" stop-color="#D1DAE5" stop-opacity="0"/>
</linearGradient>
<linearGradient id="paint24_linear_7821_10821" x1="91.7031" y1="129.602" x2="179.475" y2="129.602" gradientUnits="userSpaceOnUse">
<stop stop-color="#D1DAE5"/>
<stop offset="1" stop-color="#D1DAE5" stop-opacity="0.25"/>
<stop offset="1" stop-color="#D1DAE5" stop-opacity="0"/>
</linearGradient>
<linearGradient id="paint25_linear_7821_10821" x1="91.7031" y1="165.259" x2="124.617" y2="165.259" gradientUnits="userSpaceOnUse">
<stop stop-color="#D1DAE5"/>
<stop offset="1" stop-color="#D1DAE5" stop-opacity="0.25"/>
<stop offset="1" stop-color="#D1DAE5" stop-opacity="0"/>
</linearGradient>
<linearGradient id="paint26_linear_7821_10821" x1="130.102" y1="165.259" x2="163.016" y2="165.259" gradientUnits="userSpaceOnUse">
<stop stop-color="#D1DAE5"/>
<stop offset="1" stop-color="#D1DAE5" stop-opacity="0.25"/>
<stop offset="1" stop-color="#D1DAE5" stop-opacity="0"/>
</linearGradient>
<linearGradient id="paint27_linear_7821_10821" x1="161.141" y1="106.329" x2="186.956" y2="106.329" gradientUnits="userSpaceOnUse">
<stop stop-color="#B809A7"/>
<stop offset="0.46875" stop-color="#E90B76"/>
<stop offset="1" stop-color="#FC8536"/>
</linearGradient>
<linearGradient id="paint28_linear_7821_10821" x1="288" y1="125.189" x2="313.815" y2="125.189" gradientUnits="userSpaceOnUse">
<stop stop-color="#B809A7"/>
<stop offset="0.46875" stop-color="#E90B76"/>
<stop offset="1" stop-color="#FC8536"/>
</linearGradient>
<linearGradient id="paint29_linear_7821_10821" x1="278.57" y1="137.865" x2="353.739" y2="137.865" gradientUnits="userSpaceOnUse">
<stop stop-color="#D1DAE5"/>
<stop offset="1" stop-color="#D1DAE5" stop-opacity="0.25"/>
<stop offset="1" stop-color="#D1DAE5" stop-opacity="0"/>
</linearGradient>
<linearGradient id="paint30_linear_7821_10821" x1="313.969" y1="165.638" x2="389.137" y2="165.638" gradientUnits="userSpaceOnUse">
<stop stop-color="#D1DAE5"/>
<stop offset="1" stop-color="#D1DAE5" stop-opacity="0.25"/>
<stop offset="1" stop-color="#D1DAE5" stop-opacity="0"/>
</linearGradient>
<linearGradient id="paint31_linear_7821_10821" x1="170.57" y1="225.47" x2="196.385" y2="225.47" gradientUnits="userSpaceOnUse">
<stop stop-color="#B809A7"/>
<stop offset="0.46875" stop-color="#E90B76"/>
<stop offset="1" stop-color="#FC8536"/>
</linearGradient>
<radialGradient id="paint32_angular_7821_10821" cx="0" cy="0" r="1" gradientUnits="userSpaceOnUse" gradientTransform="translate(239.994 171.432) rotate(98.2971) scale(41.5781)">
<stop stop-color="#B809A7" stop-opacity="0"/>
<stop offset="0.46875" stop-color="#E90B76"/>
<stop offset="1" stop-color="#FC8536"/>
</radialGradient>
<radialGradient id="paint33_angular_7821_10821" cx="0" cy="0" r="1" gradientUnits="userSpaceOnUse" gradientTransform="translate(239.994 171.432) rotate(98.2971) scale(41.5781)">
<stop stop-color="#B809A7" stop-opacity="0"/>
<stop offset="0.46875" stop-color="#E90B76"/>
<stop offset="1" stop-color="#FC8536"/>
</radialGradient>
<radialGradient id="paint34_angular_7821_10821" cx="0" cy="0" r="1" gradientUnits="userSpaceOnUse" gradientTransform="translate(239.994 171.432) rotate(98.2971) scale(41.5781)">
<stop stop-color="#B809A7" stop-opacity="0"/>
<stop offset="0.46875" stop-color="#E90B76"/>
<stop offset="1" stop-color="#FC8536"/>
</radialGradient>
<radialGradient id="paint35_angular_7821_10821" cx="0" cy="0" r="1" gradientUnits="userSpaceOnUse" gradientTransform="translate(239.994 171.432) rotate(98.2971) scale(41.5781)">
<stop stop-color="#B809A7" stop-opacity="0"/>
<stop offset="0.46875" stop-color="#E90B76"/>
<stop offset="1" stop-color="#FC8536"/>
</radialGradient>
<radialGradient id="paint36_angular_7821_10821" cx="0" cy="0" r="1" gradientUnits="userSpaceOnUse" gradientTransform="translate(239.994 171.432) rotate(98.2971) scale(41.5781)">
<stop stop-color="#B809A7" stop-opacity="0"/>
<stop offset="0.46875" stop-color="#E90B76"/>
<stop offset="1" stop-color="#FC8536"/>
</radialGradient>
<radialGradient id="paint37_angular_7821_10821" cx="0" cy="0" r="1" gradientUnits="userSpaceOnUse" gradientTransform="translate(239.994 171.432) rotate(98.2971) scale(41.5781)">
<stop stop-color="#B809A7" stop-opacity="0"/>
<stop offset="0.46875" stop-color="#E90B76"/>
<stop offset="1" stop-color="#FC8536"/>
</radialGradient>
<radialGradient id="paint38_angular_7821_10821" cx="0" cy="0" r="1" gradientUnits="userSpaceOnUse" gradientTransform="translate(239.994 171.432) rotate(98.2971) scale(41.5781)">
<stop stop-color="#B809A7" stop-opacity="0"/>
<stop offset="0.46875" stop-color="#E90B76"/>
<stop offset="1" stop-color="#FC8536"/>
</radialGradient>
<radialGradient id="paint39_angular_7821_10821" cx="0" cy="0" r="1" gradientUnits="userSpaceOnUse" gradientTransform="translate(239.994 171.432) rotate(98.2971) scale(41.5781)">
<stop stop-color="#B809A7" stop-opacity="0"/>
<stop offset="0.46875" stop-color="#E90B76"/>
<stop offset="1" stop-color="#FC8536"/>
</radialGradient>
<radialGradient id="paint40_angular_7821_10821" cx="0" cy="0" r="1" gradientUnits="userSpaceOnUse" gradientTransform="translate(239.994 171.432) rotate(98.2971) scale(41.5781)">
<stop stop-color="#B809A7" stop-opacity="0"/>
<stop offset="0.46875" stop-color="#E90B76"/>
<stop offset="1" stop-color="#FC8536"/>
</radialGradient>
<radialGradient id="paint41_angular_7821_10821" cx="0" cy="0" r="1" gradientUnits="userSpaceOnUse" gradientTransform="translate(239.994 171.432) rotate(98.2971) scale(41.5781)">
<stop stop-color="#B809A7" stop-opacity="0"/>
<stop offset="0.46875" stop-color="#E90B76"/>
<stop offset="1" stop-color="#FC8536"/>
</radialGradient>
<radialGradient id="paint42_angular_7821_10821" cx="0" cy="0" r="1" gradientUnits="userSpaceOnUse" gradientTransform="translate(239.994 171.432) rotate(98.2971) scale(41.5781)">
<stop stop-color="#B809A7" stop-opacity="0"/>
<stop offset="0.46875" stop-color="#E90B76"/>
<stop offset="1" stop-color="#FC8536"/>
</radialGradient>
<radialGradient id="paint43_angular_7821_10821" cx="0" cy="0" r="1" gradientUnits="userSpaceOnUse" gradientTransform="translate(239.994 171.432) rotate(98.2971) scale(41.5781)">
<stop stop-color="#B809A7" stop-opacity="0"/>
<stop offset="0.46875" stop-color="#E90B76"/>
<stop offset="1" stop-color="#FC8536"/>
</radialGradient>
<linearGradient id="paint44_linear_7821_10821" x1="224.563" y1="171.429" x2="255.42" y2="171.429" gradientUnits="userSpaceOnUse">
<stop stop-color="#B809A7"/>
<stop offset="0.46875" stop-color="#E90B76"/>
<stop offset="1" stop-color="#FC8536"/>
</linearGradient>
<clipPath id="clip0_7821_10821">
<rect width="480" height="344" fill="white"/>
</clipPath>
</defs>
</svg>
