<svg width="406" height="306" viewBox="0 0 406 306" fill="none" xmlns="http://www.w3.org/2000/svg">
<path d="M313.418 73.8125H100.543C96.6185 73.8125 93.4375 76.9935 93.4375 80.9175V212.116C93.4375 216.04 96.6185 219.221 100.543 219.221H313.418C317.342 219.221 320.523 216.04 320.523 212.116V80.9175C320.523 76.9935 317.342 73.8125 313.418 73.8125Z" fill="white"/>
<path d="M313.418 219.729H100.542C98.5241 219.726 96.5893 218.923 95.1623 217.496C93.7353 216.069 92.9324 214.134 92.9297 212.116V80.9273C92.9324 78.9083 93.7349 76.9725 95.1617 75.5439C96.5884 74.1152 98.5231 73.3101 100.542 73.3047H313.418C315.437 73.3101 317.372 74.1152 318.799 75.5439C320.225 76.9725 321.028 78.9083 321.031 80.9273V212.116C321.028 214.134 320.225 216.069 318.798 217.496C317.371 218.923 315.436 219.726 313.418 219.729ZM100.542 74.3197C98.7915 74.3224 97.1134 75.0197 95.8764 76.2586C94.6395 77.4975 93.9447 79.1766 93.9447 80.9273V212.116C93.9474 213.865 94.6433 215.542 95.88 216.778C97.1167 218.015 98.7932 218.711 100.542 218.714H313.418C315.167 218.711 316.844 218.015 318.08 216.778C319.317 215.542 320.013 213.865 320.016 212.116V80.9273C320.016 79.1766 319.321 77.4975 318.084 76.2586C316.847 75.0197 315.169 74.3224 313.418 74.3197H100.542Z" fill="#1E293B"/>
<path d="M320.523 196.742H93.4372C93.3034 196.739 93.1758 196.685 93.0812 196.59C92.9866 196.495 92.9323 196.368 92.9297 196.234C92.9297 196.099 92.9832 195.97 93.0783 195.875C93.1735 195.78 93.3026 195.727 93.4372 195.727H320.523C320.658 195.727 320.787 195.78 320.882 195.875C320.977 195.97 321.031 196.099 321.031 196.234C321.031 196.369 320.977 196.498 320.882 196.593C320.787 196.688 320.658 196.742 320.523 196.742Z" fill="#1E293B"/>
<path d="M236.001 247.342H177.953L188.661 219.227H225.303L236.001 247.342Z" fill="white"/>
<path d="M236.001 247.849H177.954C177.871 247.849 177.79 247.829 177.717 247.79C177.645 247.751 177.583 247.695 177.537 247.626C177.49 247.559 177.46 247.481 177.45 247.4C177.439 247.319 177.448 247.236 177.477 247.159L188.185 219.054C188.22 218.956 188.285 218.871 188.37 218.811C188.456 218.751 188.558 218.719 188.662 218.719H225.324C225.427 218.719 225.527 218.752 225.61 218.812C225.694 218.872 225.757 218.956 225.791 219.054L236.489 247.159C236.516 247.236 236.525 247.319 236.514 247.4C236.503 247.481 236.473 247.559 236.426 247.626C236.38 247.693 236.318 247.749 236.246 247.788C236.174 247.826 236.093 247.848 236.012 247.849H236.001ZM178.695 246.834H235.271L224.948 219.734H189.007L178.695 246.834Z" fill="#1E293B"/>
<path d="M242.812 245.688H171.142C169.265 245.688 167.742 247.21 167.742 249.088V249.869C167.742 251.747 169.265 253.27 171.142 253.27H242.812C244.689 253.27 246.212 251.747 246.212 249.869V249.088C246.212 247.21 244.689 245.688 242.812 245.688Z" fill="white"/>
<path d="M242.819 253.777H171.15C170.114 253.777 169.12 253.365 168.387 252.632C167.654 251.899 167.242 250.905 167.242 249.869V249.098C167.242 248.06 167.654 247.065 168.386 246.331C169.119 245.596 170.113 245.182 171.15 245.18H242.819C243.856 245.182 244.85 245.596 245.583 246.331C246.315 247.065 246.727 248.06 246.727 249.098V249.869C246.727 250.382 246.626 250.89 246.429 251.364C246.233 251.839 245.945 252.269 245.582 252.632C245.219 252.995 244.789 253.283 244.315 253.479C243.84 253.676 243.332 253.777 242.819 253.777ZM171.15 246.195C170.382 246.197 169.646 246.504 169.104 247.049C168.562 247.593 168.257 248.329 168.257 249.098V249.869C168.26 250.635 168.565 251.37 169.107 251.912C169.649 252.453 170.384 252.759 171.15 252.762H242.819C243.585 252.759 244.32 252.453 244.862 251.912C245.404 251.37 245.709 250.635 245.712 249.869V249.098C245.712 248.329 245.407 247.593 244.865 247.049C244.323 246.504 243.587 246.197 242.819 246.195H171.15Z" fill="#1E293B"/>
<path d="M312.413 80.6641H101.547V187.32H312.413V80.6641Z" fill="#2563EB"/>
<path d="M312.413 80.6641H101.547V187.32H312.413V80.6641Z" fill="#CBD5E1"/>
<path d="M183.367 232.066L226.586 223.672L224.891 219.227H188.249L183.367 232.066Z" fill="#1E293B"/>
<path d="M183.37 232.573C183.288 232.574 183.206 232.554 183.133 232.516C183.059 232.478 182.996 232.423 182.949 232.355C182.902 232.287 182.873 232.208 182.863 232.126C182.853 232.044 182.864 231.96 182.893 231.883L187.776 219.054C187.812 218.956 187.877 218.872 187.962 218.813C188.048 218.753 188.149 218.72 188.253 218.719H224.894C224.998 218.719 225.1 218.751 225.186 218.811C225.271 218.871 225.336 218.956 225.371 219.054L227.066 223.489C227.096 223.556 227.112 223.629 227.112 223.702C227.112 223.776 227.096 223.849 227.066 223.916C227.028 223.98 226.977 224.036 226.915 224.08C226.854 224.124 226.785 224.154 226.711 224.169L183.492 232.563L183.37 232.573ZM188.608 219.734L184.162 231.396L225.899 223.276L224.549 219.724L188.608 219.734Z" fill="#1E293B"/>
<path d="M283.853 55.6173V187.334H130.172V46.8984H275.134C277.447 46.8984 279.664 47.817 281.299 49.4521C282.934 51.0872 283.853 53.3049 283.853 55.6173Z" fill="white"/>
<path d="M283.853 187.841H130.172C130.038 187.838 129.91 187.784 129.816 187.69C129.721 187.595 129.667 187.467 129.664 187.334V46.8982C129.664 46.7636 129.718 46.6345 129.813 46.5393C129.908 46.4441 130.037 46.3907 130.172 46.3907H275.134C276.347 46.3867 277.548 46.6226 278.669 47.0848C279.791 47.547 280.809 48.2265 281.667 49.084C282.524 49.9416 283.204 50.9603 283.666 52.0815C284.128 53.2027 284.364 54.4043 284.36 55.617V187.334C284.36 187.468 284.307 187.597 284.212 187.692C284.116 187.788 283.987 187.841 283.853 187.841ZM130.679 186.826H283.345V55.617C283.344 54.5405 283.13 53.4748 282.717 52.4809C282.303 51.4869 281.698 50.5843 280.935 49.8245C280.173 49.0647 279.268 48.4626 278.272 48.0528C277.277 47.643 276.21 47.4335 275.134 47.4361H130.679V186.826Z" fill="#1E293B"/>
<path d="M204.743 92.6516H139.265C139.131 92.6516 139.002 92.5982 138.906 92.503C138.811 92.4078 138.758 92.2787 138.758 92.1441V69.195C138.758 69.0604 138.811 68.9313 138.906 68.8361C139.002 68.741 139.131 68.6875 139.265 68.6875C139.4 68.6875 139.529 68.741 139.624 68.8361C139.719 68.9313 139.773 69.0604 139.773 69.195V91.6367H204.733C204.867 91.6367 204.996 91.6901 205.092 91.7853C205.187 91.8805 205.24 92.0096 205.24 92.1441C205.24 92.277 205.188 92.4046 205.095 92.4995C205.002 92.5943 204.876 92.649 204.743 92.6516Z" fill="#CBD5E1"/>
<path d="M191.992 147.918H139.851C139.717 147.918 139.588 147.864 139.492 147.769C139.397 147.674 139.344 147.545 139.344 147.41V99.5934C139.344 99.4588 139.397 99.3298 139.492 99.2346C139.588 99.1394 139.717 99.0859 139.851 99.0859H191.992C192.126 99.0859 192.255 99.1394 192.351 99.2346C192.446 99.3298 192.499 99.4588 192.499 99.5934V147.451C192.489 147.578 192.431 147.697 192.337 147.784C192.243 147.87 192.12 147.918 191.992 147.918ZM140.359 146.903H191.484V100.101H140.359V146.903Z" fill="#CBD5E1"/>
<path d="M273.567 180.125H142.906C142.771 180.125 142.642 180.071 142.547 179.976C142.452 179.881 142.398 179.752 142.398 179.617V156.445C142.398 156.31 142.452 156.181 142.547 156.086C142.642 155.991 142.771 155.938 142.906 155.938H273.567C273.701 155.94 273.828 155.994 273.923 156.089C274.017 156.184 274.072 156.311 274.074 156.445V179.617C274.074 179.752 274.021 179.881 273.926 179.976C273.831 180.071 273.701 180.125 273.567 180.125ZM143.413 179.11H273.029V156.952H143.413V179.11Z" fill="#CBD5E1"/>
<path d="M273.567 165.179H142.906C142.771 165.179 142.642 165.126 142.547 165.03C142.452 164.935 142.398 164.806 142.398 164.672C142.398 164.537 142.452 164.408 142.547 164.313C142.642 164.218 142.771 164.164 142.906 164.164H273.567C273.701 164.167 273.828 164.221 273.923 164.316C274.017 164.41 274.072 164.538 274.074 164.672C274.074 164.806 274.021 164.935 273.926 165.03C273.831 165.126 273.701 165.179 273.567 165.179Z" fill="#CBD5E1"/>
<path d="M86.3906 249.961V257.421C86.3906 257.421 103.595 259.451 103.209 258.649C102.823 257.847 93.3738 251.108 93.3738 251.108L86.3906 249.961Z" fill="#1E293B"/>
<path d="M101.869 259.307C99.9101 259.307 95.6776 259.013 86.3396 257.927C86.2139 257.914 86.0975 257.855 86.0131 257.761C85.9286 257.667 85.8822 257.546 85.8828 257.419V249.959C85.8827 249.885 85.8991 249.812 85.9307 249.746C85.9623 249.679 86.0084 249.62 86.0655 249.573C86.1216 249.524 86.188 249.487 86.2599 249.466C86.3319 249.445 86.4076 249.44 86.4817 249.452L93.3735 250.609C93.4515 250.619 93.5252 250.651 93.5867 250.7C96.4693 252.73 103.229 257.622 103.635 258.424C103.68 258.512 103.703 258.61 103.703 258.708C103.703 258.807 103.68 258.904 103.635 258.993C103.524 259.124 103.402 259.307 101.869 259.307ZM86.8978 256.973C93.0995 257.683 99.8188 258.323 102.123 258.323C100.641 257.084 96.7129 254.181 93.0792 251.593L86.8572 250.578L86.8978 256.973Z" fill="#1E293B"/>
<path d="M86.4062 243.383V249.96L93.3285 251.107L94.4755 243.383H86.4062Z" fill="white"/>
<path d="M93.375 251.621H93.2938L86.27 250.434C86.1517 250.415 86.0439 250.354 85.9659 250.263C85.8879 250.172 85.8446 250.056 85.8438 249.936V243.359C85.8438 243.225 85.8972 243.095 85.9924 243C86.0876 242.905 86.2167 242.852 86.3512 242.852H94.4712C94.5443 242.85 94.6167 242.865 94.6833 242.895C94.75 242.925 94.8093 242.969 94.8569 243.024C94.9059 243.079 94.9422 243.143 94.9633 243.214C94.9843 243.284 94.9896 243.358 94.9788 243.43L93.8217 251.164C93.8117 251.231 93.7886 251.295 93.7538 251.352C93.7189 251.41 93.673 251.46 93.6186 251.499C93.5498 251.561 93.4657 251.603 93.375 251.621ZM86.9501 249.52L92.9488 250.535L93.9637 243.897H86.8994L86.9501 249.52Z" fill="#1E293B"/>
<path d="M110.289 245.344V252.388L118.145 252.956L118.602 245.344H110.289Z" fill="white"/>
<path d="M118.143 253.479L110.297 252.901C110.169 252.895 110.048 252.841 109.959 252.748C109.87 252.655 109.82 252.532 109.82 252.403V245.359C109.82 245.224 109.874 245.095 109.969 245C110.064 244.905 110.193 244.852 110.328 244.852H118.641C118.711 244.852 118.78 244.867 118.845 244.895C118.909 244.923 118.968 244.963 119.016 245.014C119.062 245.064 119.098 245.124 119.121 245.188C119.143 245.253 119.153 245.321 119.148 245.39L118.691 253.002C118.683 253.139 118.621 253.266 118.519 253.357C118.414 253.445 118.28 253.489 118.143 253.479ZM110.795 251.926L117.666 252.434L118.062 245.867H110.795V251.926Z" fill="#1E293B"/>
<path d="M121.887 174.039L119.37 246.804H109.139L103.779 192.624L95.2838 245.881L85.4688 245.343L90.8584 174.628L121.887 174.039Z" fill="#1E293B"/>
<path d="M119.371 247.312H109.14C109.014 247.312 108.892 247.266 108.798 247.181C108.704 247.097 108.645 246.98 108.632 246.855L103.669 196.582L95.7825 245.962C95.7649 246.086 95.7006 246.2 95.6026 246.279C95.5047 246.358 95.3803 246.397 95.2547 246.388L85.4397 245.85C85.3721 245.846 85.3059 245.829 85.2451 245.799C85.1843 245.769 85.1301 245.728 85.0856 245.677C85.0412 245.625 85.0074 245.566 84.9863 245.502C84.9651 245.437 84.9571 245.369 84.9626 245.302L90.332 174.587C90.3397 174.46 90.3956 174.341 90.488 174.255C90.5804 174.168 90.7025 174.12 90.8293 174.12L121.858 173.531C121.998 173.531 122.133 173.586 122.233 173.684C122.326 173.783 122.377 173.913 122.376 174.049L119.858 246.824C119.853 246.952 119.8 247.073 119.71 247.163C119.62 247.254 119.499 247.307 119.371 247.312ZM109.597 246.297H118.884L121.361 174.556L91.347 175.125L86.0385 244.865L94.8792 245.353L103.304 192.573C103.304 192.438 103.357 192.309 103.452 192.214C103.547 192.119 103.677 192.065 103.811 192.065C103.946 192.065 104.075 192.119 104.17 192.214C104.265 192.309 104.319 192.438 104.319 192.573L109.597 246.297Z" fill="#1E293B"/>
<path d="M143.112 153.45C145.08 152.659 147.165 152.196 149.283 152.08C152.775 151.897 154.176 149.725 154.044 148.182C153.912 146.639 150.643 145.371 148.42 145.746C146.198 146.122 141.031 149.613 141.031 149.613L143.112 153.45Z" fill="white"/>
<path d="M143.113 154.014C143.022 154.015 142.932 153.991 142.853 153.945C142.774 153.898 142.71 153.831 142.667 153.75L140.576 149.913C140.517 149.803 140.5 149.674 140.53 149.552C140.56 149.43 140.634 149.324 140.738 149.254C140.951 149.101 146.016 145.701 148.32 145.305C150.142 145.066 151.988 145.514 153.497 146.564C153.768 146.753 153.999 146.995 154.173 147.276C154.348 147.557 154.463 147.871 154.512 148.198C154.538 148.673 154.468 149.149 154.308 149.596C154.148 150.044 153.899 150.456 153.578 150.807C153.027 151.394 152.359 151.86 151.619 152.176C150.878 152.492 150.08 152.652 149.274 152.644C147.219 152.758 145.196 153.207 143.286 153.973C143.231 153.997 143.173 154.01 143.113 154.014ZM141.692 149.842L143.337 152.887C145.236 152.18 147.231 151.763 149.254 151.649C149.921 151.663 150.584 151.539 151.201 151.284C151.818 151.029 152.375 150.649 152.837 150.167C153.071 149.92 153.253 149.628 153.372 149.309C153.49 148.99 153.543 148.65 153.527 148.31C153.487 148.12 153.408 147.94 153.297 147.782C153.185 147.623 153.043 147.488 152.878 147.386C151.587 146.527 150.029 146.167 148.493 146.371C146.737 146.554 142.91 148.99 141.692 149.792V149.842Z" fill="#1E293B"/>
<path d="M120.364 129.711C120.364 129.711 128.341 149.554 129.915 149.95C131.488 150.346 143.455 146.986 143.455 146.986L143.729 154.355C143.729 154.355 130.93 162.232 125.997 159.491C121.064 156.751 106.844 142.469 106.844 142.469L120.364 129.711Z" fill="#2563EB"/>
<path d="M150.734 148.011L157.149 152.183L165.553 139.039L159.139 134.867L150.734 148.011Z" fill="#1E293B"/>
<path d="M157.147 152.688C157.049 152.693 156.953 152.664 156.873 152.607L150.458 148.435C150.403 148.4 150.355 148.355 150.317 148.301C150.279 148.247 150.252 148.186 150.238 148.122C150.224 148.058 150.223 147.992 150.234 147.927C150.246 147.862 150.27 147.8 150.306 147.745L158.71 134.55C158.746 134.493 158.794 134.443 158.85 134.405C158.905 134.367 158.969 134.34 159.035 134.327C159.099 134.31 159.166 134.308 159.231 134.32C159.296 134.333 159.357 134.359 159.411 134.398L165.825 138.57C165.881 138.605 165.929 138.651 165.967 138.704C166.005 138.758 166.031 138.819 166.045 138.883C166.06 138.947 166.061 139.014 166.049 139.078C166.038 139.143 166.013 139.205 165.978 139.26L157.573 152.455C157.539 152.514 157.493 152.565 157.436 152.603C157.38 152.642 157.316 152.668 157.249 152.678L157.147 152.688ZM151.433 147.918L156.995 151.531L164.851 139.229L159.289 135.616L151.433 147.918Z" fill="#1E293B"/>
<path d="M157.438 138.576L187.756 91.125L192.668 94.3223" fill="#1E293B"/>
<path d="M157.436 139.084C157.339 139.081 157.245 139.053 157.162 139.003C157.049 138.93 156.97 138.816 156.941 138.684C156.913 138.553 156.937 138.416 157.01 138.303L187.328 90.8515C187.399 90.7385 187.512 90.6583 187.643 90.6282C187.776 90.6003 187.914 90.6259 188.028 90.6992L192.941 93.8965C193.046 93.9724 193.119 94.0859 193.143 94.2136C193.167 94.3413 193.141 94.4734 193.071 94.5827C193.001 94.692 192.891 94.7702 192.765 94.8011C192.639 94.8321 192.506 94.8135 192.393 94.7491L187.907 91.8259L157.863 138.851C157.818 138.924 157.755 138.984 157.681 139.024C157.606 139.065 157.521 139.086 157.436 139.084Z" fill="#1E293B"/>
<path d="M196.849 129.972C205.015 116.739 202.977 100.668 192.296 94.0762C181.615 87.4846 166.336 92.8687 158.17 106.102C150.003 119.335 152.041 135.406 162.722 141.998C173.403 148.589 188.682 143.205 196.849 129.972Z" fill="#1E293B"/>
<path d="M172.911 145.326C169.07 145.36 165.303 144.273 162.07 142.199C151.332 135.216 149.525 118.702 158.01 105.375C162.689 98.057 169.693 92.9313 177.224 91.2971C179.881 90.6672 182.637 90.5725 185.332 91.0186C188.026 91.4647 190.604 92.4427 192.916 93.8955C203.655 100.879 205.472 117.393 196.976 130.71C192.297 138.038 185.294 143.164 177.752 144.798C176.161 145.141 174.538 145.318 172.911 145.326ZM158.883 105.923C150.672 118.773 152.357 134.668 162.629 141.347C164.822 142.74 167.274 143.676 169.838 144.098C172.402 144.52 175.025 144.42 177.549 143.803C184.827 142.23 191.597 137.256 196.124 130.161C204.335 117.312 202.66 101.427 192.388 94.7481C190.194 93.3532 187.74 92.4166 185.174 91.9945C182.608 91.5723 179.983 91.6735 177.458 92.2918C170.18 93.8651 163.42 98.8284 158.883 105.923Z" fill="#1E293B"/>
<path d="M192.627 127.61C200.869 114.392 198.901 98.2846 188.233 91.6325C177.564 84.9804 162.235 90.3028 153.993 103.52C145.751 116.738 147.719 132.846 158.387 139.498C169.056 146.15 184.385 140.828 192.627 127.61Z" fill="white"/>
<path d="M168.001 142.126C164.16 142.16 160.393 141.074 157.161 139C146.422 132.017 144.605 115.492 153.101 102.176C157.78 94.8574 164.783 89.7317 172.325 88.0975C174.982 87.4647 177.738 87.3686 180.433 87.8148C183.127 88.261 185.705 89.2405 188.017 90.6959C198.755 97.6791 200.562 114.193 192.077 127.51C187.408 134.828 180.404 139.964 172.863 141.598C171.265 141.943 169.635 142.12 168.001 142.126ZM177.268 88.5746C175.682 88.5666 174.1 88.7265 172.548 89.0516C165.27 90.6249 158.5 95.5882 153.973 102.683C145.762 115.533 147.437 131.428 157.709 138.107C159.903 139.501 162.357 140.438 164.923 140.86C167.489 141.282 170.114 141.181 172.639 140.563C179.917 138.99 186.687 134.016 191.214 126.921C199.425 114.071 197.74 98.1866 187.468 91.5079C184.43 89.5489 180.882 88.5286 177.268 88.5746Z" fill="#1E293B"/>
<path d="M187.898 124.291C194.36 113.82 192.746 101.103 184.293 95.886C175.84 90.6693 163.748 94.9288 157.286 105.4C150.824 115.871 152.439 128.588 160.892 133.805C169.345 139.022 181.436 134.762 187.898 124.291Z" fill="white"/>
<path d="M168.957 136.531C165.897 136.559 162.896 135.695 160.319 134.044C151.783 128.482 150.332 115.348 157.092 104.761C160.498 99.1797 165.97 95.1675 172.317 93.5961C174.43 93.0865 176.623 93.0036 178.769 93.3521C180.914 93.7007 182.968 94.4738 184.811 95.6261C193.358 101.178 194.809 114.312 188.049 124.899C184.641 130.479 179.171 134.49 172.824 136.064C171.556 136.358 170.259 136.514 168.957 136.531ZM176.296 94.1239C175.046 94.1296 173.801 94.2691 172.581 94.54C166.473 96.0469 161.21 99.9117 157.944 105.289C151.489 115.439 152.798 127.913 160.878 133.171C162.602 134.267 164.531 135.003 166.547 135.334C168.564 135.666 170.626 135.586 172.611 135.099C178.712 133.59 183.969 129.73 187.237 124.361C193.703 114.211 192.393 101.726 184.314 96.4685C181.927 94.9213 179.14 94.1063 176.296 94.1239Z" fill="#1E293B"/>
<path d="M157.511 105.041C150.894 115.414 152.264 128.213 160.556 133.623C161.096 133.975 161.659 134.29 162.241 134.567C155.309 128.639 154.507 116.825 160.698 107.162C166.89 97.4991 177.882 93.3275 186.073 97.2555C185.583 96.8385 185.068 96.4521 184.531 96.0984C176.258 90.658 164.139 94.6774 157.511 105.041Z" fill="#1E293B"/>
<path d="M162.278 135.075C162.201 135.074 162.125 135.056 162.055 135.024C161.454 134.725 160.875 134.386 160.319 134.009C151.783 128.457 150.332 115.323 157.092 104.726C160.498 99.1448 165.97 95.1327 172.317 93.5613C174.43 93.0545 176.623 92.973 178.768 93.3215C180.913 93.67 182.967 94.4416 184.811 95.5913C185.369 95.9543 185.901 96.3545 186.405 96.789C186.497 96.8693 186.557 96.9803 186.574 97.1015C186.591 97.2226 186.564 97.3458 186.497 97.4483C186.43 97.5508 186.329 97.6258 186.211 97.6595C186.094 97.6931 185.968 97.6831 185.857 97.6314C177.737 93.7643 167.13 97.9461 161.111 107.355C155.092 116.764 155.722 128.284 162.552 134.131C162.631 134.198 162.687 134.287 162.713 134.387C162.74 134.487 162.735 134.593 162.7 134.69C162.664 134.787 162.6 134.871 162.516 134.931C162.432 134.99 162.331 135.023 162.228 135.024L162.278 135.075ZM176.296 94.1297C175.046 94.136 173.801 94.2755 172.581 94.5458C166.475 96.051 161.215 99.9166 157.955 105.295C151.946 114.694 152.646 126.163 159.254 131.949C154.666 125.361 154.92 115.282 160.269 106.848C165.618 98.413 174.672 93.9977 182.528 95.5101C180.578 94.5958 178.449 94.1243 176.296 94.1297Z" fill="#1E293B"/>
<path d="M126.868 188.816L130.218 190.998C130.609 191.251 131.046 191.424 131.505 191.507C131.963 191.59 132.433 191.581 132.888 191.481C133.343 191.381 133.774 191.192 134.155 190.924C134.537 190.657 134.861 190.316 135.11 189.922L158.008 154.082C158.523 153.29 158.705 152.328 158.515 151.403C158.325 150.478 157.778 149.664 156.993 149.139L153.654 146.957C153.262 146.704 152.824 146.53 152.365 146.447C151.905 146.364 151.434 146.373 150.978 146.473C150.523 146.573 150.091 146.762 149.709 147.03C149.327 147.298 149.001 147.639 148.752 148.033L125.853 183.873C125.339 184.665 125.157 185.627 125.347 186.552C125.537 187.477 126.083 188.29 126.868 188.816Z" fill="white"/>
<path d="M132.098 192.072C131.324 192.069 130.567 191.843 129.916 191.423L126.566 189.241C126.114 188.951 125.724 188.575 125.419 188.134C125.113 187.693 124.898 187.196 124.785 186.671C124.673 186.146 124.666 185.604 124.764 185.077C124.863 184.549 125.065 184.046 125.359 183.597L148.257 147.758C148.838 146.853 149.754 146.215 150.804 145.985C151.855 145.755 152.954 145.95 153.86 146.529L157.199 148.712C157.651 149.001 158.041 149.377 158.347 149.818C158.653 150.259 158.868 150.757 158.98 151.281C159.093 151.806 159.1 152.348 159.001 152.876C158.903 153.403 158.701 153.906 158.407 154.355L135.509 190.195C135.143 190.768 134.639 191.241 134.043 191.569C133.447 191.897 132.778 192.07 132.098 192.072ZM127.115 188.388L130.464 190.57C131.138 191.002 131.955 191.152 132.738 190.986C133.13 190.901 133.501 190.738 133.831 190.508C134.16 190.278 134.44 189.985 134.656 189.647L157.554 153.807C157.777 153.47 157.93 153.092 158.004 152.696C158.079 152.299 158.075 151.891 157.991 151.497C157.907 151.102 157.745 150.728 157.515 150.396C157.285 150.064 156.991 149.781 156.651 149.564L153.302 147.382C152.969 147.165 152.597 147.016 152.207 146.945C151.816 146.873 151.416 146.881 151.028 146.966C150.636 147.052 150.264 147.214 149.935 147.444C149.606 147.674 149.325 147.967 149.11 148.306L126.221 184.145C125.999 184.482 125.845 184.859 125.769 185.255C125.694 185.651 125.698 186.059 125.781 186.453C125.864 186.848 126.025 187.222 126.254 187.555C126.482 187.887 126.775 188.17 127.115 188.388Z" fill="#1E293B"/>
<path d="M162.844 114.619C162.709 114.647 162.569 114.621 162.454 114.546C162.339 114.47 162.258 114.353 162.23 114.218C162.202 114.083 162.228 113.943 162.303 113.828C162.378 113.713 162.496 113.632 162.631 113.604L177.622 106.651C177.682 106.622 177.747 106.606 177.813 106.602C177.88 106.599 177.946 106.609 178.009 106.632C178.071 106.654 178.128 106.689 178.177 106.734C178.226 106.78 178.265 106.834 178.292 106.895C178.321 106.955 178.338 107.021 178.342 107.088C178.345 107.155 178.335 107.222 178.313 107.286C178.29 107.349 178.255 107.407 178.21 107.457C178.164 107.506 178.11 107.546 178.049 107.575L163.037 114.568C162.976 114.597 162.911 114.614 162.844 114.619Z" fill="#CBD5E1"/>
<path d="M175.053 116.129C174.919 116.159 174.778 116.134 174.662 116.059C174.545 115.985 174.464 115.868 174.434 115.733C174.404 115.599 174.429 115.458 174.504 115.342C174.578 115.225 174.695 115.144 174.83 115.114L187.771 108.963C187.89 108.924 188.019 108.93 188.135 108.979C188.25 109.028 188.343 109.117 188.398 109.23C188.452 109.343 188.464 109.471 188.431 109.592C188.398 109.713 188.322 109.818 188.218 109.887L175.276 116.078C175.208 116.116 175.131 116.133 175.053 116.129Z" fill="#CBD5E1"/>
<path d="M161.696 129.45C161.602 129.448 161.509 129.42 161.429 129.37C161.349 129.32 161.283 129.25 161.239 129.166C161.21 129.106 161.193 129.04 161.189 128.974C161.184 128.907 161.193 128.84 161.215 128.777C161.237 128.714 161.271 128.656 161.315 128.606C161.359 128.556 161.413 128.515 161.473 128.486L185.386 116.661C185.446 116.622 185.514 116.595 185.585 116.584C185.656 116.573 185.728 116.577 185.798 116.596C185.867 116.615 185.931 116.648 185.987 116.694C186.042 116.74 186.087 116.796 186.119 116.861C186.151 116.925 186.169 116.995 186.171 117.067C186.174 117.139 186.161 117.21 186.134 117.277C186.107 117.343 186.066 117.403 186.014 117.453C185.962 117.502 185.901 117.54 185.833 117.564L161.92 129.399C161.849 129.432 161.773 129.449 161.696 129.45Z" fill="#CBD5E1"/>
<path d="M112.664 122.245C111.842 122.154 111.02 121.961 110.055 121.819C109.091 121.677 108.025 121.271 108.025 120.368C108.025 119.464 109.04 119.008 108.858 118.246C108.797 118.04 108.697 117.847 108.563 117.678C107.407 115.873 106.966 113.701 107.325 111.588C107.716 109.472 108.899 107.584 110.634 106.31C110.38 106.371 110.126 106.107 110.116 105.833C110.133 105.564 110.249 105.311 110.441 105.122C111.155 104.428 112.053 103.952 113.029 103.752C116.124 103.005 119.373 103.214 122.347 104.351C124.631 105.183 127.32 107.223 126.854 110.045C126.788 110.552 126.551 111.021 126.181 111.373C125.812 111.726 125.333 111.942 124.824 111.984C124.133 115.029 122.438 116.957 120.327 119.028C118.92 120.456 117.174 121.503 115.252 122.073C114.409 122.3 113.53 122.358 112.664 122.245Z" fill="white"/>
<path d="M113.454 122.792C113.16 122.806 112.866 122.806 112.571 122.792C112.074 122.731 111.556 122.64 111.059 122.548L109.943 122.355C108.39 122.122 107.476 121.34 107.517 120.386C107.566 119.929 107.746 119.496 108.034 119.138C108.258 118.793 108.4 118.58 108.359 118.387C108.317 118.258 108.251 118.137 108.166 118.031C106.903 116.099 106.424 113.758 106.826 111.485C107.197 109.488 108.235 107.677 109.77 106.349C109.68 106.198 109.628 106.027 109.618 105.851C109.619 105.652 109.661 105.456 109.739 105.273C109.818 105.09 109.932 104.924 110.074 104.786C110.852 104.016 111.835 103.487 112.906 103.263C116.101 102.487 119.457 102.7 122.529 103.872C125.289 104.887 127.847 107.201 127.36 110.125C127.277 110.682 127.03 111.201 126.65 111.617C126.271 112.033 125.776 112.326 125.228 112.459C124.398 115.151 122.826 117.554 120.691 119.392C119.218 120.873 117.396 121.962 115.393 122.558C114.762 122.73 114.109 122.809 113.454 122.792ZM112.683 121.777C113.496 121.876 114.321 121.811 115.109 121.584C116.947 121.034 118.619 120.032 119.971 118.671C122.265 116.418 123.706 114.611 124.335 111.87C124.365 111.76 124.43 111.662 124.519 111.591C124.609 111.52 124.718 111.479 124.833 111.475C125.221 111.428 125.583 111.253 125.861 110.977C126.138 110.701 126.316 110.34 126.365 109.952C126.812 107.272 123.939 105.466 122.183 104.816C119.302 103.72 116.158 103.519 113.16 104.238C112.28 104.405 111.47 104.833 110.836 105.466C110.735 105.554 110.664 105.671 110.633 105.801C110.73 105.794 110.827 105.818 110.911 105.869C110.994 105.92 111.06 105.995 111.1 106.085C111.152 106.191 111.165 106.312 111.137 106.427C111.109 106.542 111.042 106.643 110.947 106.714C109.31 107.902 108.193 109.677 107.831 111.667C107.473 113.67 107.887 115.733 108.988 117.443C109.158 117.658 109.28 117.907 109.344 118.174C109.376 118.446 109.351 118.722 109.271 118.984C109.191 119.246 109.056 119.489 108.877 119.696C108.707 119.906 108.588 120.153 108.532 120.417C108.532 120.934 109.364 121.239 110.095 121.35C110.501 121.411 110.876 121.482 111.252 121.553C111.627 121.625 112.206 121.726 112.683 121.777Z" fill="#1E293B"/>
<path d="M125.377 116.453C125.377 116.453 127.326 120.148 126.788 120.828C126.25 121.508 124.758 120.828 124.758 120.828" fill="white"/>
<path d="M125.977 121.589C125.479 121.572 124.987 121.466 124.526 121.275C124.407 121.219 124.315 121.119 124.268 120.997C124.221 120.874 124.223 120.738 124.275 120.617C124.326 120.497 124.422 120.4 124.542 120.349C124.663 120.297 124.799 120.294 124.922 120.341C125.409 120.544 126.211 120.686 126.393 120.452C126.128 119.106 125.634 117.815 124.932 116.636C124.895 116.577 124.871 116.511 124.86 116.442C124.85 116.374 124.854 116.303 124.872 116.236C124.89 116.169 124.921 116.106 124.964 116.052C125.008 115.997 125.062 115.952 125.123 115.919C125.184 115.886 125.252 115.867 125.321 115.861C125.391 115.855 125.46 115.864 125.526 115.887C125.592 115.909 125.652 115.945 125.704 115.992C125.755 116.039 125.797 116.096 125.825 116.159C126.84 117.986 127.855 120.321 127.185 121.092C127.035 121.261 126.848 121.394 126.639 121.48C126.429 121.566 126.203 121.603 125.977 121.589Z" fill="#1E293B"/>
<path d="M125.327 111.763C126.666 113.103 126.007 115.579 125.834 117.214C125.601 119.518 125.306 121.822 124.971 124.105C124.748 125.557 120.993 125.212 120.373 124.704V130.541L112.781 126.684L113.553 121.943C114.435 121.958 115.305 121.727 116.064 121.277C116.824 120.828 117.444 120.176 117.856 119.396C119.602 116.564 120.008 110.078 120.008 110.078C120.008 110.078 124.027 110.454 125.327 111.763Z" fill="white"/>
<path d="M120.417 131.049C120.335 131.05 120.254 131.029 120.183 130.989L112.591 127.132C112.497 127.082 112.42 127.005 112.371 126.911C112.322 126.816 112.303 126.709 112.317 126.604L113.099 121.864C113.116 121.735 113.184 121.619 113.286 121.539C113.388 121.459 113.518 121.423 113.647 121.437C114.435 121.444 115.21 121.231 115.884 120.823C116.558 120.414 117.105 119.825 117.463 119.123C119.128 116.433 119.493 110.11 119.493 110.049C119.498 109.981 119.517 109.915 119.548 109.854C119.579 109.793 119.621 109.739 119.673 109.694C119.725 109.65 119.785 109.616 119.85 109.595C119.915 109.574 119.983 109.566 120.051 109.572C120.478 109.572 124.243 110.008 125.644 111.399C126.923 112.698 126.659 114.749 126.405 116.393C126.405 116.707 126.324 117.002 126.294 117.266C126.06 119.56 125.766 121.894 125.421 124.178C125.37 124.459 125.242 124.721 125.05 124.933C124.858 125.145 124.61 125.298 124.335 125.376C123.199 125.712 121.993 125.74 120.843 125.457V130.532C120.841 130.667 120.787 130.795 120.692 130.892C120.598 130.988 120.47 131.044 120.336 131.049H120.417ZM113.383 126.401L119.899 129.71V124.706C119.899 124.611 119.925 124.517 119.976 124.437C120.026 124.356 120.098 124.291 120.183 124.249C120.271 124.206 120.369 124.19 120.466 124.2C120.563 124.211 120.655 124.249 120.731 124.31C121.805 124.696 122.973 124.735 124.071 124.421C124.335 124.32 124.477 124.188 124.497 124.036C124.842 121.752 125.126 119.448 125.36 117.164C125.36 116.88 125.4 116.576 125.482 116.251C125.685 114.83 125.928 113.053 125.005 112.12C124.172 111.287 121.848 110.82 120.549 110.638C120.407 112.282 119.879 117.205 118.356 119.661C117.926 120.446 117.307 121.112 116.556 121.599C115.805 122.086 114.945 122.38 114.053 122.452L113.383 126.401Z" fill="#1E293B"/>
<path d="M125.077 122.382C124.84 122.511 124.579 122.586 124.311 122.604C124.043 122.621 123.774 122.58 123.523 122.484C123.272 122.387 123.045 122.238 122.857 122.045C122.67 121.852 122.527 121.621 122.438 121.367" fill="white"/>
<path d="M124.094 123.104C123.817 123.11 123.541 123.062 123.282 122.961C122.975 122.834 122.697 122.642 122.47 122.399C122.242 122.156 122.069 121.866 121.963 121.551C121.916 121.425 121.919 121.286 121.972 121.163C122.025 121.04 122.124 120.943 122.247 120.891C122.309 120.865 122.375 120.851 122.442 120.852C122.51 120.852 122.576 120.866 122.638 120.892C122.699 120.919 122.755 120.957 122.801 121.006C122.847 121.055 122.883 121.112 122.907 121.175C122.964 121.36 123.06 121.53 123.188 121.675C123.316 121.82 123.472 121.937 123.648 122.018C124.052 122.129 124.483 122.097 124.866 121.926C124.987 121.871 125.125 121.865 125.251 121.911C125.376 121.956 125.478 122.049 125.536 122.17C125.565 122.229 125.582 122.293 125.586 122.359C125.59 122.425 125.581 122.491 125.559 122.554C125.538 122.616 125.504 122.673 125.46 122.723C125.415 122.772 125.362 122.811 125.302 122.84C124.923 123.012 124.511 123.102 124.094 123.104Z" fill="#1E293B"/>
<path d="M120.855 117.468C120.848 116.885 120.68 116.316 120.368 115.824C120.183 115.41 119.937 115.026 119.637 114.687C119.487 114.52 119.301 114.389 119.094 114.303C118.887 114.217 118.663 114.178 118.439 114.189C118.235 114.212 118.038 114.279 117.863 114.386C117.687 114.493 117.538 114.637 117.424 114.809C117.211 115.146 117.075 115.528 117.028 115.925C116.914 116.789 117.024 117.667 117.347 118.476C117.671 119.285 118.197 119.997 118.876 120.543L118.764 120.391" fill="white"/>
<path d="M118.922 121.016C118.811 121.015 118.703 120.976 118.617 120.905C117.863 120.312 117.278 119.53 116.922 118.639C116.565 117.749 116.45 116.779 116.587 115.83C116.642 115.359 116.805 114.907 117.065 114.51C117.21 114.28 117.405 114.085 117.635 113.939C117.865 113.794 118.124 113.701 118.394 113.668C118.695 113.65 118.995 113.699 119.274 113.811C119.553 113.923 119.804 114.096 120.008 114.317C120.339 114.694 120.613 115.119 120.82 115.576C121.182 116.15 121.372 116.816 121.368 117.494C121.355 117.628 121.291 117.752 121.189 117.839C121.086 117.926 120.954 117.97 120.82 117.961C120.753 117.956 120.688 117.938 120.629 117.907C120.569 117.877 120.516 117.835 120.473 117.784C120.429 117.733 120.396 117.674 120.376 117.611C120.355 117.547 120.348 117.48 120.353 117.413C120.34 116.924 120.189 116.449 119.917 116.043C119.755 115.675 119.539 115.333 119.277 115.028C119.181 114.915 119.061 114.825 118.926 114.764C118.791 114.702 118.644 114.671 118.496 114.673C118.251 114.724 118.035 114.87 117.897 115.079C117.735 115.356 117.631 115.663 117.592 115.982C117.496 116.696 117.57 117.423 117.81 118.103C118.05 118.782 118.449 119.395 118.973 119.89C119.074 119.924 119.162 119.988 119.226 120.072L119.338 120.225C119.419 120.316 119.463 120.433 119.463 120.555C119.463 120.676 119.419 120.793 119.338 120.884C119.284 120.938 119.218 120.978 119.146 121.001C119.074 121.024 118.997 121.029 118.922 121.016Z" fill="#1E293B"/>
<path d="M125.214 114.562C125.232 114.102 125.102 113.724 124.922 113.717C124.743 113.71 124.583 114.076 124.565 114.536C124.546 114.995 124.677 115.373 124.856 115.38C125.035 115.387 125.195 115.021 125.214 114.562Z" fill="#1E293B"/>
<path d="M111.086 127.945L111.999 125.469L122.028 127.083L122.769 130.97C118.655 131.199 114.572 130.142 111.086 127.945Z" fill="#1E293B"/>
<path d="M121.647 131.532C117.819 131.491 114.077 130.399 110.827 128.375C110.729 128.315 110.654 128.222 110.615 128.113C110.577 128.005 110.576 127.886 110.614 127.777L111.528 125.3C111.57 125.19 111.648 125.097 111.749 125.036C111.85 124.975 111.969 124.95 112.086 124.965L122.114 126.589C122.219 126.604 122.316 126.651 122.392 126.724C122.469 126.797 122.52 126.891 122.54 126.995L123.271 130.882C123.285 130.951 123.283 131.022 123.268 131.09C123.252 131.158 123.222 131.222 123.18 131.278C123.14 131.335 123.089 131.383 123.03 131.418C122.97 131.453 122.904 131.474 122.835 131.481C122.44 131.521 122.044 131.537 121.647 131.532ZM111.72 127.726C114.877 129.603 118.493 130.566 122.165 130.507L121.607 127.533L112.34 126.041L111.72 127.726Z" fill="#1E293B"/>
<path d="M142.922 160.102C144.4 160.83 145.914 161.48 147.459 162.05C148.16 162.152 149.489 160.416 150.271 160.914C151.052 161.411 153.773 164.537 153.773 165.034C153.773 165.532 152.534 169.338 151.458 169.094C150.311 168.744 149.203 168.278 148.15 167.704L141.156 166.689" fill="white"/>
<path d="M151.535 169.67H151.362C150.186 169.311 149.053 168.824 147.982 168.219L141.08 167.204C141.015 167.195 140.952 167.174 140.895 167.14C140.837 167.107 140.788 167.062 140.748 167.009C140.708 166.956 140.679 166.896 140.663 166.832C140.647 166.768 140.644 166.701 140.654 166.636C140.674 166.502 140.746 166.381 140.854 166.299C140.963 166.218 141.098 166.182 141.233 166.199L148.216 167.214H148.388C149.389 167.776 150.447 168.229 151.545 168.564C152.083 168.473 153.22 165.651 153.26 164.951C152.332 163.592 151.237 162.354 150.002 161.266C149.84 161.165 149.211 161.611 148.906 161.824C148.498 162.225 147.955 162.456 147.384 162.474C145.778 161.899 144.212 161.221 142.694 160.444C142.635 160.416 142.581 160.376 142.537 160.327C142.493 160.278 142.459 160.22 142.437 160.158C142.415 160.096 142.406 160.03 142.41 159.964C142.414 159.898 142.432 159.833 142.461 159.774C142.518 159.654 142.62 159.561 142.746 159.515C142.871 159.469 143.01 159.475 143.131 159.531C144.558 160.254 146.029 160.888 147.536 161.429C147.819 161.31 148.082 161.149 148.317 160.952C148.987 160.485 149.809 159.937 150.54 160.373C151.271 160.809 154.275 164.078 154.275 164.92C154.275 165.418 153.372 168.341 152.306 169.224C152.116 169.466 151.84 169.626 151.535 169.67Z" fill="#1E293B"/>
<path d="M125.858 132.516C125.858 132.516 128.599 153.262 130.091 153.262C131.583 153.262 145.803 160.103 145.803 160.103L143.377 169.238C143.377 169.238 125.168 166.599 121.22 164.681C119.129 163.666 115.516 141.336 115.516 141.336L125.858 132.516Z" fill="#2563EB"/>
<path d="M125.299 131.419C119.828 128.465 112.307 123.441 102.786 130.81C93.2652 138.179 88.7891 179.621 88.7891 179.621L124.446 176.881C124.446 176.881 130.414 134.17 125.299 131.419Z" fill="#2563EB"/>
<path d="M119.22 163.783C119.102 163.785 118.988 163.746 118.897 163.671C118.806 163.597 118.744 163.493 118.722 163.377C118.722 163.245 116.225 150.335 114.764 141.169C114.743 141.037 114.775 140.903 114.853 140.795C114.931 140.686 115.049 140.613 115.18 140.591C115.314 140.573 115.45 140.607 115.559 140.686C115.669 140.766 115.744 140.884 115.769 141.017C117.22 150.152 119.687 163.053 119.717 163.184C119.741 163.316 119.711 163.452 119.635 163.562C119.559 163.673 119.443 163.749 119.311 163.773L119.22 163.783Z" fill="#1E293B"/>
<path d="M141.674 158.955C141.617 158.965 141.559 158.965 141.501 158.955L128.022 154.296C127.928 154.262 127.846 154.202 127.785 154.123C127.724 154.044 127.687 153.949 127.677 153.85C127.677 153.677 126.49 136.99 125.19 133.133C125.148 133.005 125.157 132.866 125.216 132.745C125.275 132.623 125.378 132.53 125.505 132.484C125.634 132.444 125.774 132.456 125.895 132.517C126.015 132.577 126.109 132.682 126.155 132.809C127.403 136.523 128.489 150.977 128.672 153.444L141.867 158.001C142.001 158.022 142.122 158.097 142.202 158.207C142.282 158.317 142.315 158.455 142.293 158.59C142.272 158.724 142.197 158.845 142.087 158.925C141.977 159.005 141.839 159.037 141.704 159.016L141.674 158.955Z" fill="#1E293B"/>
<path d="M146.156 146.902C146.156 146.902 149.648 143.979 150.785 144.04C151.921 144.101 156.205 144.608 154.987 145.532C153.769 146.456 150.673 146.019 150.673 146.019C150.673 146.019 151.028 146.395 149.577 147.42" fill="white"/>
<path d="M149.533 147.92C149.425 147.92 149.319 147.887 149.231 147.823C149.144 147.759 149.079 147.669 149.046 147.566C149.013 147.463 149.014 147.352 149.049 147.249C149.083 147.147 149.15 147.058 149.239 146.996C149.598 146.784 149.906 146.497 150.142 146.153C150.097 146.032 150.097 145.899 150.142 145.778C150.191 145.686 150.267 145.612 150.359 145.565C150.452 145.517 150.557 145.5 150.66 145.514C151.928 145.725 153.228 145.62 154.446 145.21C153.223 144.816 151.953 144.591 150.67 144.54C150.061 144.479 148 145.94 146.397 147.29C146.29 147.373 146.156 147.411 146.022 147.398C145.888 147.385 145.765 147.321 145.676 147.219C145.633 147.169 145.6 147.11 145.579 147.047C145.558 146.984 145.551 146.917 145.557 146.851C145.562 146.785 145.581 146.72 145.612 146.662C145.643 146.603 145.686 146.551 145.737 146.509C146.6 145.788 149.513 143.464 150.721 143.525C150.903 143.525 155.217 143.768 155.593 144.986C155.642 145.161 155.632 145.348 155.564 145.517C155.497 145.686 155.374 145.828 155.217 145.92C154.141 146.732 152.03 146.661 151.035 146.57C150.723 147.08 150.295 147.511 149.787 147.828C149.712 147.88 149.624 147.912 149.533 147.92Z" fill="#1E293B"/>
<path d="M110.289 252.383V258.838C110.289 258.838 126.681 259.65 126.448 258.381C126.214 257.113 118.145 252.951 118.145 252.951L110.289 252.383Z" fill="#1E293B"/>
<path d="M119.546 259.573C116.206 259.573 112.512 259.421 110.268 259.309C110.137 259.304 110.013 259.248 109.923 259.153C109.832 259.059 109.781 258.933 109.781 258.801V252.346C109.781 252.276 109.796 252.206 109.824 252.141C109.852 252.077 109.892 252.019 109.944 251.97C109.995 251.922 110.055 251.885 110.122 251.862C110.189 251.839 110.259 251.831 110.329 251.838L118.175 252.417C118.239 252.402 118.305 252.402 118.368 252.417C120.865 253.696 126.701 256.832 126.955 258.203C126.972 258.302 126.966 258.404 126.938 258.5C126.909 258.597 126.86 258.686 126.793 258.761C126.275 259.441 123.118 259.573 119.546 259.573ZM110.796 258.324C117.302 258.629 124.265 258.659 125.808 258.223C125.016 257.33 121.342 255.178 118.003 253.422L110.796 252.884V258.324Z" fill="#1E293B"/>
<path d="M275.13 46.8984C272.817 46.8984 270.6 47.817 268.965 49.4521C267.329 51.0872 266.411 53.3049 266.411 55.6173V64.326H117.805V55.6173C117.805 53.3049 118.723 51.0872 120.358 49.4521C121.993 47.817 124.211 46.8984 126.524 46.8984H275.13Z" fill="white"/>
<path d="M266.411 64.834H117.804C117.671 64.8314 117.543 64.7771 117.448 64.6825C117.354 64.5878 117.299 64.4603 117.297 64.3265V55.6178C117.308 53.1769 118.284 50.8395 120.013 49.1164C121.742 47.3933 124.082 46.4245 126.523 46.4219H275.129C275.264 46.4219 275.393 46.4753 275.488 46.5705C275.583 46.6657 275.637 46.7948 275.637 46.9294C275.637 47.064 275.583 47.1931 275.488 47.2882C275.393 47.3834 275.264 47.4369 275.129 47.4369C272.961 47.4449 270.884 48.309 269.35 49.8412C267.816 51.3734 266.949 53.4496 266.938 55.6178V64.3265C266.938 64.3949 266.925 64.4626 266.898 64.5255C266.871 64.5884 266.832 64.6453 266.783 64.6927C266.733 64.7401 266.675 64.7771 266.611 64.8013C266.547 64.8256 266.479 64.8367 266.411 64.834ZM118.312 63.819H265.923V55.6178C265.93 53.927 266.4 52.2703 267.282 50.8279C268.164 49.3855 269.425 48.2127 270.927 47.4369H126.523C124.346 47.4396 122.259 48.3055 120.72 49.8449C119.181 51.3842 118.315 53.4713 118.312 55.6482V63.819Z" fill="#1E293B"/>
<path d="M217.907 101H206.641V147.457H217.907V101Z" fill="#94A3B8"/>
<path d="M217.907 147.923H206.64C206.506 147.923 206.377 147.87 206.281 147.774C206.186 147.679 206.133 147.55 206.133 147.416V101C206.135 100.866 206.19 100.738 206.284 100.644C206.379 100.549 206.507 100.495 206.64 100.492H217.907C218.041 100.492 218.17 100.546 218.266 100.641C218.361 100.736 218.414 100.865 218.414 101V147.456C218.404 147.584 218.346 147.703 218.252 147.789C218.158 147.876 218.035 147.924 217.907 147.923ZM207.148 146.908H217.399V101.507H207.148V146.908Z" fill="#94A3B8"/>
<path d="M217.907 101H206.641V118.042H217.907V101Z" fill="white"/>
<path d="M217.907 118.549H206.64C206.506 118.549 206.377 118.496 206.281 118.4C206.186 118.305 206.133 118.176 206.133 118.042V101C206.135 100.866 206.19 100.738 206.284 100.644C206.379 100.549 206.507 100.495 206.64 100.492H217.907C218.041 100.492 218.17 100.546 218.266 100.641C218.361 100.736 218.414 100.865 218.414 101V118.042C218.414 118.176 218.361 118.305 218.266 118.4C218.17 118.496 218.041 118.549 217.907 118.549ZM207.148 117.534H217.399V101.507H207.148V117.534Z" fill="#94A3B8"/>
<path d="M234.774 101H223.508V147.457H234.774V101Z" fill="#94A3B8"/>
<path d="M234.764 147.923H223.507C223.373 147.923 223.244 147.87 223.149 147.774C223.053 147.679 223 147.55 223 147.416V101C223 100.865 223.053 100.736 223.149 100.641C223.244 100.546 223.373 100.492 223.507 100.492H234.764C234.898 100.492 235.028 100.546 235.123 100.641C235.218 100.736 235.271 100.865 235.271 101V147.456C235.261 147.584 235.203 147.703 235.109 147.789C235.015 147.876 234.892 147.924 234.764 147.923ZM224.015 146.908H234.256V101.507H224.015V146.908Z" fill="#94A3B8"/>
<path d="M234.774 101H223.508V124.223H234.774V101Z" fill="white"/>
<path d="M234.764 124.741H223.507C223.373 124.741 223.244 124.687 223.149 124.592C223.053 124.497 223 124.368 223 124.233V101C223 100.865 223.053 100.736 223.149 100.641C223.244 100.546 223.373 100.492 223.507 100.492H234.764C234.898 100.492 235.028 100.546 235.123 100.641C235.218 100.736 235.271 100.865 235.271 101V124.233C235.271 124.368 235.218 124.497 235.123 124.592C235.028 124.687 234.898 124.741 234.764 124.741ZM224.015 123.726H234.256V101.507H224.015V123.726Z" fill="#94A3B8"/>
<path d="M251.634 101H240.367V147.457H251.634V101Z" fill="#94A3B8"/>
<path d="M251.633 147.923H240.367C240.232 147.923 240.103 147.87 240.008 147.774C239.913 147.679 239.859 147.55 239.859 147.416V101C239.859 100.865 239.913 100.736 240.008 100.641C240.103 100.546 240.232 100.492 240.367 100.492H251.633C251.767 100.495 251.895 100.549 251.989 100.644C252.084 100.738 252.138 100.866 252.141 101V147.456C252.131 147.584 252.073 147.703 251.979 147.789C251.885 147.876 251.761 147.924 251.633 147.923ZM240.874 146.908H251.126V101.507H240.874V146.908Z" fill="#94A3B8"/>
<path d="M251.634 101H240.367V109.526H251.634V101Z" fill="white"/>
<path d="M251.633 110.033H240.367C240.232 110.033 240.103 109.98 240.008 109.885C239.913 109.789 239.859 109.66 239.859 109.526V101C239.859 100.865 239.913 100.736 240.008 100.641C240.103 100.546 240.232 100.492 240.367 100.492H251.633C251.767 100.495 251.895 100.549 251.989 100.644C252.084 100.738 252.138 100.866 252.141 101V109.526C252.138 109.659 252.084 109.787 251.989 109.882C251.895 109.976 251.767 110.031 251.633 110.033ZM240.874 109.018H251.126V101.507H240.874V109.018Z" fill="#94A3B8"/>
<path d="M268.493 101H257.227V147.457H268.493V101Z" fill="#94A3B8"/>
<path d="M268.493 147.923H257.226C257.092 147.923 256.963 147.87 256.867 147.774C256.772 147.679 256.719 147.55 256.719 147.416V101C256.719 100.865 256.772 100.736 256.867 100.641C256.963 100.546 257.092 100.492 257.226 100.492H268.493C268.627 100.495 268.754 100.549 268.849 100.644C268.943 100.738 268.998 100.866 269 101V147.456C268.99 147.584 268.932 147.703 268.838 147.789C268.744 147.876 268.621 147.924 268.493 147.923ZM257.734 146.908H267.955V101.507H257.703L257.734 146.908Z" fill="#94A3B8"/>
<path d="M268.493 101H257.227V118.742H268.493V101Z" fill="white"/>
<path d="M268.493 119.249H257.226C257.092 119.249 256.963 119.196 256.867 119.101C256.772 119.006 256.719 118.876 256.719 118.742V101C256.719 100.865 256.772 100.736 256.867 100.641C256.963 100.546 257.092 100.492 257.226 100.492H268.493C268.627 100.495 268.754 100.549 268.849 100.644C268.943 100.738 268.998 100.866 269 101V118.742C269 118.876 268.947 119.006 268.852 119.101C268.756 119.196 268.627 119.249 268.493 119.249ZM257.734 118.234H267.955V101.507H257.703L257.734 118.234Z" fill="#94A3B8"/>
<path d="M180.507 180.125C180.373 180.125 180.244 180.071 180.149 179.976C180.053 179.881 180 179.752 180 179.617V156.445C180 156.31 180.053 156.181 180.149 156.086C180.244 155.991 180.373 155.938 180.507 155.938C180.641 155.94 180.769 155.994 180.863 156.089C180.958 156.184 181.012 156.311 181.015 156.445V179.617C181.015 179.752 180.962 179.881 180.866 179.976C180.771 180.071 180.642 180.125 180.507 180.125Z" fill="#CBD5E1"/>
<path d="M241.57 180.125C241.435 180.125 241.306 180.071 241.211 179.976C241.116 179.881 241.062 179.752 241.062 179.617V156.445C241.065 156.311 241.119 156.184 241.214 156.089C241.309 155.994 241.436 155.94 241.57 155.938C241.705 155.938 241.834 155.991 241.929 156.086C242.024 156.181 242.077 156.31 242.077 156.445V179.617C242.077 179.752 242.024 179.881 241.929 179.976C241.834 180.071 241.705 180.125 241.57 180.125Z" fill="#CBD5E1"/>
<path d="M276.141 147.921H196.789C196.654 147.921 196.525 147.868 196.43 147.773C196.335 147.677 196.281 147.548 196.281 147.414C196.281 147.279 196.335 147.15 196.43 147.055C196.525 146.96 196.654 146.906 196.789 146.906H276.141C276.276 146.906 276.405 146.96 276.5 147.055C276.595 147.15 276.649 147.279 276.649 147.414C276.649 147.548 276.595 147.677 276.5 147.773C276.405 147.868 276.276 147.921 276.141 147.921Z" fill="#94A3B8"/>
<path d="M143.525 88.7939C143.437 88.7943 143.35 88.7734 143.272 88.733C143.161 88.6583 143.083 88.5446 143.053 88.4147C143.023 88.2848 143.043 88.1483 143.109 88.0326C145.156 84.4593 147.92 81.3489 151.229 78.8976C153.807 77.0097 156.05 76.2992 158.08 76.7357C159.724 77.2649 161.208 78.2006 162.394 79.4559C162.77 79.7807 163.145 80.1156 163.521 80.4709C164.646 81.3708 165.893 82.1056 167.226 82.6531C167.775 82.9113 168.375 83.0431 168.982 83.0388C169.691 82.9249 170.352 82.6036 170.88 82.1152C171.737 81.3931 172.547 80.6167 173.305 79.7908C174.552 78.2942 176.079 77.0562 177.802 76.147C179.089 75.5873 180.5 75.3753 181.895 75.532C183.29 75.6888 184.619 76.2088 185.749 77.0402C186.294 77.4756 186.81 77.947 187.292 78.451C187.691 78.8645 188.112 79.2575 188.551 79.6284C191.18 81.7498 195.321 82.0847 199.127 80.5013C202.71 79.0093 205.664 76.1267 208.161 73.5486C208.208 73.501 208.264 73.4632 208.326 73.4375C208.388 73.4117 208.454 73.3984 208.521 73.3984C208.588 73.3984 208.654 73.4117 208.716 73.4375C208.778 73.4632 208.834 73.501 208.881 73.5486C208.975 73.6451 209.027 73.7744 209.027 73.9089C209.027 74.0434 208.975 74.1726 208.881 74.2692C206.313 76.9184 203.268 79.872 199.503 81.4453C195.372 83.1809 190.814 82.7749 187.901 80.4303C187.424 80.0344 186.988 79.598 186.561 79.1717C186.111 78.7031 185.63 78.2657 185.12 77.8623C184.138 77.1375 182.982 76.6837 181.769 76.5465C180.555 76.4093 179.327 76.5936 178.208 77.0808C176.607 77.9377 175.187 79.0957 174.026 80.4912C173.247 81.3337 172.413 82.1238 171.529 82.8561C170.847 83.4693 170 83.8682 169.093 84.0031C168.322 84.0263 167.557 83.8663 166.86 83.5362C165.438 82.9575 164.108 82.1745 162.912 81.2118C162.516 80.8972 162.13 80.5622 161.745 80.1968C160.661 79.0696 159.315 78.229 157.827 77.7507C156.091 77.3751 154.122 78.0349 151.737 79.7807C148.539 82.1294 145.867 85.1198 143.891 88.5604C143.851 88.6239 143.797 88.6778 143.734 88.7181C143.671 88.7585 143.6 88.7844 143.525 88.7939Z" fill="#CBD5E1"/>
<path d="M266.711 77.5306H224.984C224.85 77.528 224.723 77.4737 224.628 77.3791C224.533 77.2845 224.479 77.1569 224.477 77.0231C224.477 76.8885 224.53 76.7594 224.625 76.6643C224.72 76.5691 224.849 76.5156 224.984 76.5156H266.711C266.845 76.5156 266.974 76.5691 267.07 76.6643C267.165 76.7594 267.218 76.8885 267.218 77.0231C267.218 77.1577 267.165 77.2868 267.07 77.382C266.974 77.4772 266.845 77.5306 266.711 77.5306Z" fill="#CBD5E1"/>
<path d="M266.709 83.1634H249.687C249.553 83.1634 249.424 83.11 249.328 83.0148C249.233 82.9196 249.18 82.7905 249.18 82.6559C249.18 82.5213 249.233 82.3923 249.328 82.2971C249.424 82.2019 249.553 82.1484 249.687 82.1484H266.688C266.823 82.1484 266.952 82.2019 267.047 82.2971C267.142 82.3923 267.196 82.5213 267.196 82.6559C267.196 82.7871 267.145 82.9132 267.055 83.0078C266.964 83.1024 266.84 83.1582 266.709 83.1634Z" fill="#CBD5E1"/>
<path d="M242.584 83.1634H224.984C224.849 83.1634 224.72 83.11 224.625 83.0148C224.53 82.9196 224.477 82.7905 224.477 82.6559C224.479 82.5222 224.533 82.3946 224.628 82.3C224.723 82.2053 224.85 82.151 224.984 82.1484H242.584C242.718 82.151 242.846 82.2053 242.94 82.3C243.035 82.3946 243.089 82.5222 243.092 82.6559C243.092 82.7905 243.038 82.9196 242.943 83.0148C242.848 83.11 242.719 83.1634 242.584 83.1634Z" fill="#CBD5E1"/>
<path d="M266.712 88.8041H230.273C230.139 88.8041 230.009 88.7506 229.914 88.6554C229.819 88.5602 229.766 88.4312 229.766 88.2966C229.766 88.162 229.819 88.0329 229.914 87.9377C230.009 87.8425 230.139 87.7891 230.273 87.7891H266.712C266.846 87.7891 266.975 87.8425 267.07 87.9377C267.166 88.0329 267.219 88.162 267.219 88.2966C267.219 88.4312 267.166 88.5602 267.07 88.6554C266.975 88.7506 266.846 88.8041 266.712 88.8041Z" fill="#CBD5E1"/>
</svg>
