<svg width="256" height="256" viewBox="0 0 256 256" fill="none" xmlns="http://www.w3.org/2000/svg">
<rect x="8" y="8" width="240" height="240" rx="12" fill="#FCF0E1"/>
<path d="M150.661 69.5009H130.451C129.068 69.5009 127.953 68.3856 127.953 67.0025V52.057C127.953 50.6739 129.068 49.5586 130.451 49.5586C130.451 49.5586 130.451 49.5586 130.496 49.5586L153.695 49.8709C155.034 49.9155 156.149 51.0308 156.104 52.3693L155.792 72.7577C155.792 73.3823 155.257 73.9177 154.632 73.9177C154.275 73.9177 153.918 73.7392 153.74 73.4715L150.661 69.5009Z" fill="#000005"/>
<path d="M154.634 74.1858C154.188 74.1858 153.787 73.9627 153.519 73.6504L150.53 69.7244H130.409C128.937 69.7244 127.688 68.5198 127.688 67.003V52.0574C127.688 51.3436 127.955 50.6297 128.491 50.139C129.026 49.6482 129.695 49.3359 130.409 49.3359L153.608 49.6482C154.322 49.6482 154.991 49.9605 155.526 50.4513C156.017 50.942 156.285 51.6559 156.285 52.3697L155.973 72.7581C155.973 73.3381 155.571 73.8735 155.036 74.0519C154.946 74.1412 154.813 74.1858 154.634 74.1858ZM130.454 49.8267C129.204 49.8267 128.223 50.8528 128.223 52.102V67.0476C128.223 68.2968 129.249 69.3229 130.498 69.3229H150.842L153.965 73.4273C154.277 73.8289 154.857 73.9181 155.259 73.6058C155.482 73.4273 155.616 73.1596 155.616 72.892L155.928 52.5035C155.928 51.2543 154.946 50.2282 153.697 50.2282L130.543 49.9159H130.454V49.8267Z" fill="#000005"/>
<path d="M136.074 56.3406C139.42 58.5713 142.722 60.802 146.023 63.1219C146.469 63.3896 146.96 63.5234 147.495 63.5234C147.674 63.5234 148.343 63.5234 147.942 63.2111C144.685 60.8912 141.339 58.6605 137.993 56.4298C137.547 56.1622 137.056 56.0283 136.52 56.0283C136.387 56.0283 135.673 56.0729 136.074 56.3406Z" fill="white"/>
<path d="M145.576 53.9313C142.363 57.1435 139.33 60.5342 136.564 64.1479C136.296 64.5048 138.303 65.1294 138.66 64.6832C141.471 61.1141 144.46 57.6789 147.672 54.4667C147.94 54.199 147.137 53.976 147.003 53.9313C146.646 53.8421 145.843 53.619 145.576 53.9313Z" fill="white"/>
<path d="M228.071 56.876C228.071 56.876 229.276 62.185 229.276 63.7019C229.276 65.2187 222.539 111.795 219.461 112.955L228.071 56.876Z" fill="white"/>
<path d="M227.045 57.2772C227.224 58.1248 227.402 59.0171 227.581 59.8648C227.893 61.1586 228.116 62.4078 228.205 63.7462C228.205 64.46 228.116 65.1292 227.982 65.843C227.492 69.4567 226.956 73.0704 226.421 76.7288C225.618 81.8593 224.77 86.9899 223.878 92.1205C223.03 96.8495 222.138 101.534 221.023 106.218C220.666 107.824 220.22 109.386 219.684 110.947C219.684 110.992 219.64 111.081 219.595 111.126C219.55 111.171 219.64 111.081 219.55 111.215C219.461 111.349 219.461 111.483 219.372 111.617C219.283 111.84 219.193 112.063 219.06 112.286L218.926 112.509C218.881 112.598 218.703 112.777 218.881 112.598C218.837 112.643 218.792 112.732 218.747 112.732C218.837 112.687 218.926 112.598 218.97 112.554C219.372 112.33 219.06 112.509 218.792 112.598L218.257 112.821L217.81 113C217.498 113.089 216.829 113.49 216.963 113.892C217.097 114.293 217.944 114.07 218.212 113.981L219.55 113.49C219.863 113.401 220.353 113.089 220.398 112.732L221.246 107.155L223.298 93.7712L225.796 77.5764L227.938 63.5677L228.652 58.9725C228.741 58.2587 228.919 57.5003 229.008 56.7864C229.008 56.7418 229.008 56.7418 229.008 56.6972C229.142 55.9388 227.001 56.4741 226.912 57.2326L226.064 62.8093L224.012 76.1934L221.513 92.4328L219.372 106.441L218.658 111.037C218.569 111.75 218.346 112.509 218.301 113.223C218.301 113.267 218.301 113.267 218.301 113.312L219.149 112.554L217.81 113.044L218.212 114.026C219.015 113.713 219.907 113.535 220.532 112.866C220.8 112.554 221.023 112.152 221.201 111.75C221.781 110.412 222.227 109.029 222.539 107.646C223.744 103.185 224.592 98.6341 225.439 94.0835C226.421 88.8191 227.269 83.5546 228.116 78.2902C228.741 74.3196 229.365 70.3044 229.901 66.2891C230.035 65.3969 230.168 64.5046 230.213 63.6123C230.213 62.8539 230.124 62.0508 229.99 61.2924C229.767 59.954 229.499 58.571 229.187 57.2326C229.142 56.9649 229.098 56.6972 229.008 56.4741C228.964 55.7603 226.867 56.4741 227.045 57.2772Z" fill="#D54407"/>
<path d="M216.917 118.264C216.515 119.959 215.534 121.431 214.151 122.458C207.28 127.499 186.49 142.757 185.241 143.114C183.769 143.515 128.358 119.379 128.76 114.338L217.14 117.282L216.917 118.264Z" fill="white"/>
<path d="M216.026 117.64C215.625 119.291 214.643 120.718 213.305 121.7C212.68 122.191 212.011 122.637 211.342 123.127L206.167 126.92C202.107 129.909 198.003 132.853 193.898 135.798C190.998 137.85 188.143 139.991 185.154 141.865L185.02 141.954C184.931 141.999 185.109 141.91 185.02 141.954L184.797 142.088C184.708 142.133 184.618 142.177 184.529 142.222C184.44 142.311 184.752 142.222 184.574 142.222C184.395 142.222 184.797 142.267 184.529 142.222C183.905 142.044 183.325 141.821 182.7 141.597C181.674 141.196 180.648 140.794 179.622 140.393C178.997 140.125 178.328 139.858 177.703 139.59L177.614 139.545L177.346 139.456L176.766 139.233L175.651 138.742C172.171 137.27 168.691 135.753 165.211 134.192C161.285 132.407 157.359 130.578 153.478 128.749C149.686 126.92 145.938 125.046 142.235 123.083C140.629 122.235 139.023 121.343 137.462 120.451C136.748 120.049 136.034 119.603 135.32 119.201L135.097 119.068L135.142 119.112L135.008 119.023L134.517 118.711L133.625 118.131C133.09 117.774 132.554 117.417 132.063 117.06C131.84 116.881 131.617 116.748 131.35 116.569L131.037 116.346L130.904 116.212C130.725 116.078 131.127 116.391 130.948 116.212C130.636 115.945 130.324 115.632 130.011 115.365C130.324 115.677 129.967 115.275 129.833 115.142C129.654 114.918 129.967 115.365 129.833 115.142C129.788 115.097 129.744 115.008 129.744 114.963C129.654 114.829 129.877 115.231 129.744 115.008C129.744 114.963 129.699 114.918 129.699 114.874C129.788 115.052 129.744 115.052 129.744 114.918C129.744 114.74 129.744 115.008 129.744 114.918L129.387 115.142L131.751 115.231L138.22 115.454L147.723 115.766L159.322 116.168L172.082 116.569L184.886 117.015L196.843 117.417L206.97 117.774L214.242 117.997C215.402 118.041 216.562 118.131 217.677 118.131H217.766L216.339 116.658L216.026 117.64C215.848 118.309 217.633 119.603 217.811 118.889L218.034 117.952C218.168 117.328 217.186 116.48 216.606 116.48L214.242 116.391L207.773 116.168L198.27 115.855L186.671 115.454L173.956 115.052L161.152 114.651L149.195 114.249L139.068 113.892L131.796 113.669C130.636 113.625 129.521 113.58 128.361 113.58H128.227C128.093 113.58 127.87 113.625 127.87 113.803C127.825 114.606 128.361 115.32 128.851 115.855C129.61 116.658 130.413 117.372 131.35 118.041C133.893 119.826 136.525 121.477 139.291 122.904C142.86 124.867 146.518 126.741 150.177 128.526C154.147 130.489 158.162 132.407 162.222 134.236C165.925 135.932 169.628 137.582 173.376 139.188C176.231 140.393 179.042 141.597 181.942 142.757C182.789 143.07 183.637 143.427 184.485 143.694C184.886 143.828 185.466 144.096 185.912 143.962C186.18 143.828 186.448 143.694 186.671 143.516C187.161 143.204 187.608 142.891 188.054 142.624C189.571 141.597 190.998 140.571 192.515 139.545C196.619 136.645 200.724 133.656 204.784 130.667L210.628 126.384C212.19 125.269 213.796 124.198 215.268 122.949C216.517 121.878 217.409 120.451 217.766 118.889C217.989 118.22 216.25 116.881 216.026 117.64Z" fill="#D54407"/>
<path d="M218.434 113.222C218.434 113.222 228.919 57.5 228.071 56.8754C227.223 56.2508 168.869 45.5435 166.995 46.6143C165.121 47.685 162.801 91.9418 163.649 93.8155C164.496 95.6893 218.211 114.472 218.434 113.222Z" fill="white"/>
<path d="M219.511 113.491C219.823 111.751 220.18 110.011 220.492 108.271C221.295 104.077 222.054 99.8388 222.812 95.6005C223.749 90.3807 224.686 85.2055 225.623 79.9857C226.47 75.3012 227.273 70.5722 228.032 65.8431C228.478 63.1663 229.013 60.4003 229.147 57.6788C229.192 57.4112 229.192 57.1435 229.147 56.9204C229.013 56.385 228.478 56.162 227.987 56.0281C227.229 55.8051 226.426 55.6712 225.667 55.4928C222.143 54.7343 218.618 54.1097 215.094 53.4405C210.053 52.5036 204.967 51.5668 199.925 50.6745C194.705 49.7376 189.441 48.8453 184.177 47.9977C180.027 47.3285 175.878 46.6593 171.685 46.1239C170.48 45.9901 169.276 45.8116 168.071 45.767C167.357 45.7224 166.331 45.5885 165.84 46.2577C165.305 46.9716 165.216 48.1761 165.082 49.0238C164.77 50.7637 164.591 52.5483 164.413 54.3328C163.877 59.4188 163.52 64.5047 163.208 69.5907C162.896 74.7659 162.628 79.9411 162.45 85.1609C162.405 86.99 162.36 88.8638 162.36 90.7376C162.316 91.7191 162.36 92.7006 162.494 93.6375C162.673 94.4405 163.476 94.7974 164.19 95.1543C165.305 95.7343 166.42 96.1804 167.536 96.6712C171.417 98.2773 175.388 99.7495 179.314 101.222C184.266 103.051 189.263 104.835 194.259 106.575C198.944 108.226 203.673 109.832 208.402 111.349C211.302 112.286 214.202 113.267 217.146 113.937C217.726 114.071 219.288 114.472 219.511 113.535C219.734 112.554 217.548 112.018 217.325 113C217.369 112.777 218.038 112.375 218.128 112.554C218.128 112.554 217.86 112.509 217.815 112.509C218.083 112.464 218.083 112.554 217.86 112.509L217.592 112.464L216.968 112.331C215.674 112.018 214.425 111.661 213.175 111.26C209.16 110.055 205.145 108.717 201.13 107.334L200.237 107.022L199.836 106.888C200.014 106.932 199.568 106.799 199.524 106.754L197.695 106.04C196.49 105.639 195.241 105.192 194.036 104.746C191.538 103.854 189.039 102.962 186.496 102.069C181.991 100.463 177.485 98.8573 173.023 97.1173C170.257 96.1358 167.536 94.9759 164.903 93.6821L164.814 93.6375C164.636 93.5482 165.037 93.7713 164.903 93.6821C164.859 93.6375 164.77 93.5929 164.68 93.5482C164.547 93.459 164.279 93.1913 164.591 93.5036C164.502 93.3698 164.68 93.6375 164.68 93.7267C164.68 93.5928 164.636 93.5036 164.636 93.3698C164.547 92.2544 164.502 91.1391 164.547 90.0684C164.547 85.7408 164.77 81.4133 164.993 77.0858C165.26 71.7321 165.573 66.4231 166.019 61.0695C166.331 57.0989 166.643 53.0836 167.357 49.1576C167.446 48.6223 167.58 48.0869 167.714 47.5961C167.759 47.4177 167.803 47.2838 167.893 47.1054C167.803 47.3731 167.848 47.1946 167.893 47.1054C168.026 46.9716 167.937 47.0608 167.848 47.15C167.937 47.0608 167.402 47.3731 167.625 47.2392C167.67 47.1946 167.714 47.2392 167.759 47.2392C167.982 47.1946 167.446 47.2392 167.714 47.2392C168.116 47.2392 168.517 47.2392 168.874 47.2838C170.212 47.3731 171.506 47.5515 172.8 47.73C173.692 47.8192 174.54 47.9531 175.388 48.0869L176.057 48.1761L176.414 48.2207L176.637 48.2654L178.154 48.4884C183.017 49.2469 187.835 50.0499 192.698 50.8529C197.918 51.7452 203.137 52.6821 208.357 53.619C212.685 54.422 217.012 55.2251 221.295 56.0727C223.437 56.5189 225.578 57.0096 227.72 57.4558C227.898 57.5004 227.363 57.3219 227.541 57.4112C227.72 57.5004 227.318 57.2773 227.273 57.2327C227.229 57.1881 226.961 56.8758 227.006 56.8312V56.9204C227.006 56.9204 227.006 57.0096 227.006 57.0542C227.006 57.1881 227.006 57.2327 227.006 57.0542C227.006 57.2327 227.006 57.3665 226.961 57.545C226.872 58.705 226.693 59.8203 226.515 60.9802C225.935 64.9955 225.221 69.0107 224.552 72.9813C223.66 78.0673 222.767 83.1532 221.831 88.2392C220.983 93.0129 220.091 97.7419 219.198 102.516C218.618 105.549 218.083 108.583 217.503 111.617C217.414 112.063 217.325 112.464 217.28 112.866C217.191 113.981 219.332 114.472 219.511 113.491Z" fill="#D54407"/>
<path d="M216.114 108.315C216.114 108.315 223.253 62.9877 223.03 62.1401C222.807 61.2924 171.813 51.2097 170.787 52.0574C169.761 52.905 166.147 89.8452 166.995 91.5405C167.842 93.2358 213.795 108.092 216.114 108.315Z" fill="white"/>
<path d="M217.054 107.958C217.277 106.441 217.545 104.924 217.768 103.363C218.348 99.7046 218.883 96.0909 219.463 92.4326C220.177 87.9712 220.846 83.5545 221.516 79.0931C222.096 75.2563 222.676 71.4196 223.256 67.5828C223.434 66.2444 223.612 64.9506 223.791 63.6122C223.925 62.9876 223.969 62.363 224.014 61.6938C223.969 61.2476 223.523 61.203 223.166 61.0692C222.319 60.8015 221.426 60.623 220.579 60.4C217.367 59.6415 214.11 58.9277 210.898 58.2585C206.659 57.3662 202.376 56.5186 198.093 55.6709C193.81 54.8233 189.483 54.0202 185.111 53.2172C181.809 52.6372 178.508 52.0126 175.162 51.5219C174.225 51.388 173.288 51.2542 172.307 51.1649C171.325 51.0757 170.433 51.2096 169.853 52.1464C169.541 52.8156 169.362 53.5295 169.273 54.2879C169.005 55.7602 168.827 57.2324 168.604 58.66C168.068 62.8983 167.622 67.1366 167.176 71.3749C166.775 75.7471 166.373 80.0746 166.061 84.4468C165.972 86.0082 165.838 87.6143 165.838 89.1758C165.748 90.0235 165.793 90.8711 165.882 91.7188C165.972 92.2541 166.507 92.4326 166.953 92.7003C167.89 93.1464 168.827 93.5479 169.808 93.9495C173.154 95.2879 176.5 96.4478 179.891 97.6078C184.219 99.1247 188.546 100.597 192.874 102.025C196.978 103.408 201.127 104.746 205.276 106.04C208.042 106.932 210.853 107.824 213.664 108.583C214.244 108.761 214.824 108.94 215.448 109.029C215.983 108.984 216.474 108.761 216.787 108.315C217.01 108.047 217.233 107.557 216.697 107.512C216.608 107.512 216.563 107.512 216.474 107.467L216.34 107.423C216.207 107.378 216.474 107.467 216.385 107.423L216.296 107.378L215.18 107.066C214.02 106.754 212.816 106.397 211.656 106.04C208.087 104.969 204.473 103.809 200.904 102.649C196.577 101.266 192.294 99.8385 187.966 98.3662C183.995 97.0278 180.025 95.6448 176.099 94.2172C173.6 93.3695 171.147 92.388 168.738 91.3173C168.47 91.1834 168.247 91.0496 167.979 90.9157C167.89 90.8711 167.89 90.8711 167.979 90.9157C167.935 90.9157 167.935 90.8711 167.89 90.8265C167.845 90.7819 167.845 90.7819 167.845 90.7819C167.845 90.8711 167.935 90.9157 167.845 90.7819C167.756 89.9789 167.756 89.1312 167.801 88.3281C167.89 84.7591 168.202 81.1453 168.47 77.5762C168.827 73.0703 169.273 68.6089 169.764 64.1029C170.165 60.6677 170.522 57.2324 171.102 53.8418C171.191 53.3956 171.281 52.9049 171.37 52.4587C171.414 52.3249 171.459 52.1464 171.504 52.0126C171.504 51.968 171.548 51.9234 171.548 51.8342C171.593 51.6557 171.459 52.0126 171.504 51.8788C171.191 52.2357 170.79 52.5034 170.388 52.6818C170.567 52.6372 170.165 52.6818 170.433 52.6818C170.701 52.6818 171.013 52.7264 171.325 52.7264C173.868 52.9941 176.456 53.4402 178.954 53.8864C182.925 54.5556 186.851 55.314 190.821 56.0278C195.194 56.8755 199.566 57.7232 203.893 58.6154C207.685 59.3739 211.478 60.1769 215.225 60.98C217.411 61.4707 219.419 61.8276 221.56 62.4968C221.739 62.586 221.872 62.6307 222.051 62.6753C222.006 62.6753 221.962 62.5414 221.962 62.5414C221.962 62.586 221.962 62.6753 221.962 62.7199C221.917 63.4337 221.783 64.1475 221.694 64.8613C221.649 65.3521 221.56 65.9321 221.471 66.5567C221.382 67.3151 221.248 68.0289 221.159 68.7873C220.891 70.5719 220.623 72.3564 220.356 74.1856C219.686 78.4239 219.062 82.6622 218.393 86.9451C217.768 91.0942 217.099 95.1987 216.474 99.3477C216.073 101.98 215.627 104.657 215.225 107.334L215.047 108.449C215.002 109.564 216.965 108.627 217.054 107.958Z" fill="#D54407"/>
<path d="M217.145 117.327C217.145 117.327 186.719 141.24 184.22 141.24C181.722 141.24 128.186 116.033 128.81 114.383C129.435 112.732 161.646 97.3848 163.475 97.3848C165.304 97.3848 217.145 117.327 217.145 117.327Z" fill="white"/>
<path d="M216.43 116.569C215.002 117.684 213.53 118.844 212.057 119.96C208.756 122.547 205.41 125.09 202.109 127.589C198.495 130.31 194.881 133.031 191.223 135.664C189.795 136.69 188.368 137.671 186.895 138.653C186.36 139.01 185.825 139.367 185.245 139.679C185.022 139.813 184.799 139.947 184.575 140.036L184.442 140.125C184.263 140.214 184.62 140.036 184.486 140.08C184.352 140.125 184.308 140.17 184.219 140.214C184.129 140.259 183.862 140.303 183.817 140.348C183.862 140.303 184.174 140.303 183.951 140.303C183.906 140.303 184.352 140.303 184.129 140.303C183.817 140.303 184.397 140.393 184.129 140.303L183.772 140.214C182.925 139.947 182.122 139.59 181.319 139.277C178.374 138.073 175.474 136.779 172.619 135.485C168.648 133.701 164.722 131.871 160.796 130.042C158.7 129.061 156.603 128.035 154.506 127.053L151.338 125.536C150.268 125.001 149.331 124.555 148.394 124.109C144.735 122.324 141.122 120.54 137.508 118.666C135.188 117.461 132.779 116.257 130.593 114.784C130.325 114.606 130.058 114.383 129.745 114.204C129.567 114.115 129.968 114.427 129.79 114.249C129.745 114.204 129.701 114.16 129.656 114.16C129.433 113.981 129.745 114.338 129.656 114.204C129.745 114.338 129.745 114.472 129.745 114.606C129.745 114.561 129.656 115.007 129.567 114.963C129.478 114.918 130.058 114.606 129.611 114.874C129.968 114.695 130.281 114.383 130.593 114.16C131.797 113.401 133.091 112.688 134.34 112.018C135.188 111.572 136.036 111.126 136.883 110.68C137.776 110.189 138.802 109.698 139.56 109.297C143.754 107.2 147.948 105.148 152.186 103.185C155.398 101.668 158.655 100.151 161.956 98.8573C162.358 98.6789 162.804 98.545 163.206 98.4112L163.429 98.3666C163.652 98.322 163.116 98.4112 163.339 98.3666C163.652 98.322 162.982 98.3666 163.25 98.3666C163.562 98.3666 162.982 98.2774 163.206 98.3666L163.562 98.4558C163.919 98.545 164.276 98.6789 164.633 98.8127C167.31 99.705 169.987 100.686 172.664 101.668C176.634 103.14 180.56 104.568 184.531 106.085C188.858 107.691 193.141 109.342 197.469 110.992C201.216 112.42 205.009 113.848 208.756 115.275L215.627 117.907L216.563 118.264C217.099 118.487 217.723 118.264 217.991 117.774C218.17 117.283 217.902 116.747 217.411 116.569H217.367C216.073 116.078 214.779 115.587 213.485 115.097C210.273 113.848 207.016 112.598 203.759 111.394C199.521 109.788 195.283 108.182 191.089 106.575C186.851 104.969 182.568 103.363 178.285 101.757C174.939 100.508 171.548 99.2588 168.202 98.0989C167.132 97.742 166.105 97.3405 165.035 97.0282C164.41 96.7605 163.741 96.6266 163.072 96.582C162.224 96.7159 161.421 96.9836 160.707 97.3405C159.235 97.9204 157.807 98.545 156.38 99.2142C152.231 101.043 148.171 103.006 144.111 104.969C140.185 106.888 136.214 108.851 132.377 110.948C131.173 111.572 129.968 112.241 128.853 113C128.228 113.446 127.158 114.071 127.648 115.007C127.916 115.587 128.63 115.989 129.121 116.346C130.013 116.926 130.95 117.461 131.887 117.997C134.92 119.692 138.043 121.298 141.166 122.859C145.271 124.912 149.375 126.919 153.48 128.882C157.673 130.89 161.912 132.898 166.105 134.816C169.63 136.467 173.199 138.073 176.768 139.634C178.82 140.571 180.873 141.419 183.014 142.177C183.683 142.445 184.397 142.445 185.022 142.177C186.048 141.686 187.029 141.151 187.966 140.482C191.268 138.34 194.435 135.976 197.603 133.656C201.35 130.89 205.053 128.079 208.756 125.224C211.388 123.216 213.976 121.209 216.563 119.157L217.723 118.264C218.973 117.194 217.411 115.811 216.43 116.569Z" fill="#D54407"/>
<path d="M194.93 52.4145C194.93 52.4145 196.045 52.8606 195.777 53.9313C195.51 55.0021 194.037 54.3775 193.948 53.619C193.859 52.8606 194.35 51.9237 194.93 52.4145Z" fill="#D54407"/>
<path d="M202.559 119.781L198.276 117.952L188.059 113.579L175.656 108.27L164.949 103.72C163.209 102.961 161.514 102.158 159.729 101.489L159.64 101.445C159.239 101.266 158.614 101.311 158.525 101.801C158.436 102.292 159.016 102.783 159.417 102.961L163.7 104.791L173.917 109.163L186.319 114.472L197.026 119.067C198.766 119.825 200.462 120.628 202.246 121.298L202.335 121.342C202.737 121.521 203.362 121.476 203.451 120.985C203.54 120.495 202.96 119.959 202.559 119.781Z" fill="#D54407"/>
<path d="M197.382 124.019L192.921 122.145L182.213 117.684L169.32 112.286L158.122 107.601C156.337 106.843 154.508 106.04 152.679 105.326L152.59 105.281C152.233 105.103 151.742 105.148 151.742 105.638C151.742 106.129 152.322 106.62 152.724 106.798L157.185 108.672L167.892 113.133L180.786 118.532L191.984 123.216C193.813 123.975 195.597 124.778 197.427 125.491L197.516 125.536C197.873 125.715 198.363 125.67 198.363 125.179C198.363 124.688 197.784 124.198 197.382 124.019Z" fill="#D54407"/>
<path d="M192.114 128.392L187.653 126.518L176.901 122.057L163.963 116.658L152.676 111.974C150.847 111.216 149.062 110.368 147.233 109.699L147.144 109.654C146.608 109.476 146.028 109.565 145.582 109.966C145.359 110.145 145.314 110.502 145.493 110.725C145.582 110.814 145.671 110.903 145.805 110.903L150.267 112.777L161.018 117.238L173.956 122.637L185.244 127.321C187.028 128.08 188.857 128.927 190.687 129.596L190.776 129.641C191.311 129.819 191.891 129.686 192.337 129.329C192.56 129.15 192.605 128.793 192.427 128.57C192.337 128.481 192.248 128.436 192.114 128.392Z" fill="#D54407"/>
<path d="M197.691 114.249L190.731 118.666L179.667 125.715L177.124 127.321C176.678 127.633 176.856 128.258 177.213 128.57C177.659 128.927 178.284 128.971 178.775 128.659L185.734 124.242L196.754 117.193L199.297 115.587C199.743 115.275 199.565 114.65 199.208 114.338C198.762 113.981 198.182 113.937 197.691 114.249Z" fill="#D54407"/>
<path d="M186.763 109.564L180.428 113.267L170.389 119.156L168.07 120.539C167.266 120.985 168.471 122.904 169.274 122.413L175.609 118.71L185.647 112.821L187.967 111.438C188.77 110.992 187.61 109.118 186.763 109.564Z" fill="#D54407"/>
<path d="M174.849 104.478L168.202 108.27L157.673 114.338L155.219 115.721C154.238 116.301 155.219 118.264 156.201 117.729L162.848 113.892L173.377 107.824L175.831 106.441C176.812 105.906 175.831 103.943 174.849 104.478Z" fill="#D54407"/>
<path d="M180.558 85.3406C183.698 82.3381 191.146 78.9107 195.814 89.2214" stroke="#D54407" stroke-width="2" stroke-linecap="round"/>
<path d="M184.126 78.915C185.152 77.5319 186.267 76.2828 187.517 75.1228C187.874 74.6767 187.829 74.0075 187.427 73.6505C187.026 73.249 186.357 73.2044 185.955 73.6059C184.706 74.7659 183.591 76.0597 182.565 77.3981C182.386 77.6212 182.297 77.8442 182.297 78.1119C182.341 78.6919 182.832 79.1826 183.412 79.2273C183.635 79.2273 183.903 79.0934 184.126 78.915Z" fill="white"/>
<path d="M202.463 80.8776C201.838 79.3161 201.08 77.8439 200.098 76.5055C199.741 76.0593 199.161 75.8363 198.626 76.0147C198.135 76.2378 198.18 76.7732 198.447 77.1747C198.581 77.3531 198.671 77.487 198.804 77.6654C198.849 77.7547 198.938 77.8439 198.983 77.9331C198.849 77.7101 199.027 77.9777 199.027 78.0223C199.206 78.3346 199.429 78.6469 199.607 79.0038C199.964 79.673 200.277 80.3869 200.589 81.1007C200.723 81.3684 200.901 81.5468 201.169 81.6807C201.392 81.8145 201.704 81.8591 201.972 81.8591C202.195 81.8591 202.418 81.7253 202.507 81.5468C202.552 81.3238 202.552 81.1007 202.463 80.8776Z" fill="white"/>
<path d="M155.437 191.788C155.437 191.788 178.725 196.338 169.267 176.619C159.809 156.9 100.829 111.26 81.824 110.858C62.8186 110.457 34.3551 141.597 28.1984 167.875C22.0417 194.152 37.6119 203.476 37.6119 203.476L54.8327 193.304L155.437 191.788Z" fill="#000005"/>
<path d="M154.859 191.877C156.554 192.189 158.25 192.367 159.945 192.412C162.756 192.501 165.789 192.367 168.422 191.207C175.872 187.906 171.768 178.448 168.555 173.451C166.548 170.373 164.272 167.518 161.774 164.796C158.74 161.406 155.528 158.193 152.182 155.026C144.464 147.798 136.344 141.017 127.823 134.727C119.748 128.704 111.361 122.993 102.527 118.13C99.0472 116.167 95.4335 114.427 91.7306 112.955C88.8307 111.75 85.7524 110.947 82.6294 110.635C78.3911 110.278 74.1974 111.304 70.316 113C65.3639 115.186 60.8579 118.353 56.7089 121.833C47.2061 130.087 39.3095 140.036 33.4651 151.189C27.8884 161.807 23.9178 174.388 26.2823 186.478C27.4869 192.68 30.6098 198.97 35.7404 202.852C36.0081 203.03 36.2758 203.253 36.5435 203.387C36.9896 203.655 38.2388 203.878 38.6849 203.61L53.7644 194.732L55.9058 193.483L55.3704 193.527L58.0473 193.483L65.3639 193.394L76.205 193.215L89.4107 192.992L103.821 192.769L118.454 192.546L132.061 192.323L143.572 192.144L151.87 192.011C153.164 192.011 154.502 191.966 155.796 191.966H155.974C156.197 191.966 156.688 192.011 156.376 191.743C156.064 191.475 155.216 191.52 154.859 191.52L151.022 191.564L140.85 191.743L126.172 191.966L109.175 192.234L91.5521 192.501L75.4912 192.769L62.6871 192.947L55.2812 193.037C54.9243 193.037 54.5674 193.037 54.2105 193.037C53.7644 193.081 53.3628 193.215 53.0059 193.483L50.6414 194.866L37.3911 202.673L36.4096 203.253L38.5511 203.476C37.4804 202.807 36.4989 201.959 35.6512 201.067C33.4205 198.792 31.636 196.115 30.3868 193.17C25.8808 182.865 27.6207 170.73 31.4575 160.469C35.785 148.958 42.834 138.385 51.2214 129.418C55.1474 125.135 59.5641 121.298 64.2932 117.907C68.2638 115.141 72.6806 112.732 77.4096 111.572C78.3911 111.304 79.4172 111.171 80.4433 111.037C81.1572 110.947 81.871 110.947 82.5848 110.992C82.2279 110.992 82.7186 110.992 82.8079 111.037C83.1202 111.081 82.674 110.992 82.9863 111.037L83.4771 111.081C83.7447 111.126 83.254 111.037 83.5217 111.081L83.7894 111.126C84.5032 111.26 84.9493 111.349 85.6631 111.572C88.9646 112.554 92.1767 113.803 95.2105 115.364C103.598 119.424 111.539 124.555 119.123 129.908C127.734 135.931 135.987 142.445 143.839 149.404C150.531 155.293 157.134 161.539 162.711 168.499C164.719 170.908 166.459 173.496 167.886 176.262C169.492 179.563 171.321 184.203 169.448 187.817C168.198 190.226 165.477 191.297 162.934 191.698C162.265 191.787 161.64 191.877 160.971 191.877C160.614 191.877 160.57 191.877 160.168 191.921H159.365C159.097 191.921 158.785 191.921 158.517 191.877H158.16C157.893 191.877 158.428 191.877 158.16 191.877H157.893C157.67 191.877 157.402 191.832 157.179 191.832L156.867 191.787C157.268 191.832 156.822 191.787 156.733 191.787L155.885 191.654C156.197 191.698 155.974 191.654 155.84 191.654C155.439 191.564 154.725 191.386 154.324 191.564C153.922 191.743 154.681 191.832 154.859 191.877Z" fill="#000005"/>
<path d="M108.062 93.5483C108.062 93.5483 110.694 70.483 90.8859 66.557C71.0774 62.631 50.7782 82.038 54.9272 106.04C59.0763 130.042 88.6552 126.384 88.6552 126.384L108.062 93.5483Z" fill="white"/>
<path d="M108.597 94.4847C108.91 91.0494 108.687 87.5696 107.928 84.2235C106.5 77.6207 102.976 71.1963 96.9085 67.8503C89.458 63.7459 79.9999 64.4151 72.5495 68.118C64.5636 72.044 58.4515 79.3607 55.6409 87.7926C54.124 92.4325 53.544 97.34 53.9902 102.203C54.3025 106.575 55.5963 110.858 57.7377 114.695C59.4776 117.684 61.8422 120.271 64.6974 122.234C67.2404 123.93 70.0957 125.224 73.0402 126.027C77.5908 127.276 82.3199 127.811 87.0489 127.543C87.5843 127.499 88.1196 127.499 88.655 127.454C88.8781 127.454 88.9673 127.454 89.1011 127.32C89.3242 127.008 89.5473 126.651 89.7257 126.25L91.0641 123.974L100.433 108.181L108.107 95.2431L108.597 94.4847C108.776 94.217 108.285 93.414 108.151 93.1909C108.107 93.0571 107.705 92.3432 107.571 92.6109L102.128 101.757L92.4025 118.175L89.0119 123.93C88.7442 124.376 88.4765 124.822 88.2089 125.268C88.1196 125.402 88.075 125.402 88.1642 125.357C88.1196 125.357 88.0304 125.357 87.9858 125.357C87.5843 125.357 87.1381 125.447 86.692 125.447C85.9336 125.491 85.1305 125.536 84.3721 125.536C82.0968 125.536 79.8215 125.402 77.5908 125.09C71.8356 124.287 65.9912 122.324 61.6191 118.353C60.4591 117.327 59.433 116.122 58.5408 114.829C57.6485 113.535 56.9347 112.107 56.4439 110.59C54.9717 106.307 54.6594 101.489 55.1055 96.9831C56.0424 87.9711 60.5038 79.7176 67.4635 73.9624C73.9771 68.6534 82.5875 65.8873 90.9303 67.4488C94.6778 68.118 98.2469 69.6349 101.102 72.2225C102.262 73.2486 103.288 74.4531 104.136 75.7469L104.404 76.1931C104.537 76.4161 104.537 76.3715 104.627 76.55C104.716 76.7284 104.805 76.8623 104.894 77.0407C104.939 77.13 104.984 77.2192 105.028 77.3084C105.162 77.5315 104.984 77.1746 105.073 77.3977C105.385 78.0222 105.653 78.6468 105.876 79.2714L105.965 79.4945C105.876 79.316 106.01 79.5837 106.01 79.6283L106.188 80.0745C106.277 80.3868 106.456 80.8775 106.5 81.056C106.679 81.7252 106.857 82.3944 106.991 83.019C107.259 84.2235 107.437 85.4727 107.527 86.6773C107.705 88.3726 107.705 90.0679 107.616 91.7633C107.616 92.0309 107.571 92.254 107.571 92.4771C107.571 92.9678 107.75 93.414 108.017 93.7709C108.017 93.9939 108.553 94.7524 108.597 94.4847Z" fill="#000005"/>
<path d="M111.94 112.999C116.714 103.229 103.82 75.2562 103.82 75.2562C97.3066 68.8318 73.4383 79.3161 73.4383 79.3161C78.6581 86.0527 80.398 98.723 80.398 98.723C75.892 92.6109 68.6646 97.3846 70.6276 103.898C72.5906 110.412 80.7995 110.59 80.7995 110.59C80.7995 110.59 81.8703 125.134 83.0748 127.633C84.2794 130.131 97.5296 131.068 102.303 122.056C102.303 122.056 107.746 121.521 111.94 112.999Z" fill="white"/>
<path d="M112.523 113.936C113.549 111.839 113.683 109.386 113.594 107.066C113.415 104.077 112.969 101.087 112.211 98.1876C110.783 92.3878 108.909 86.7219 106.589 81.1898C105.965 79.6283 105.296 78.0222 104.582 76.4607C104.448 76.1484 104.314 75.8807 104.18 75.5684C103.556 74.3639 102.485 73.427 101.191 72.9362C98.9158 71.9993 96.239 72.044 93.8299 72.267C90.8408 72.5793 87.8516 73.1593 84.9518 74.007C82.3195 74.7208 79.732 75.613 77.189 76.5499C75.7613 76.9961 74.3783 77.576 72.9953 78.2006L72.7722 78.2899C72.5491 78.3791 73.4414 79.6729 73.5306 79.8067C75.449 82.3051 76.609 85.4281 77.5459 88.4172C78.3489 90.9602 78.9735 93.5924 79.4643 96.2246C79.5535 96.7153 79.6427 97.2061 79.732 97.7414L80.1781 98.0537C78.6612 96.0461 76.4305 94.3508 73.7983 94.9754C71.5676 95.5108 70.0508 97.4738 69.6939 99.6598C69.2477 102.426 70.6308 105.281 72.3707 107.378C73.7983 108.984 75.6275 110.189 77.6797 110.769C78.8397 111.126 80.0442 111.349 81.2934 111.393L80.1335 109.564C80.3565 112.553 80.6242 115.498 80.9811 118.487C81.2042 120.494 81.4719 122.502 81.8288 124.51C82.1411 126.071 82.5872 127.722 83.7918 128.793C84.7733 129.64 86.2009 129.908 87.4501 130.042C89.4131 130.265 91.3761 130.131 93.2945 129.685C95.4806 129.194 97.5328 128.257 99.3174 126.963C100.254 126.25 101.102 125.402 101.816 124.42C101.994 124.197 102.173 123.93 102.306 123.707C102.44 123.528 102.619 122.993 102.797 122.859C102.842 122.859 102.931 122.859 102.976 122.859C104.046 122.547 105.117 122.145 106.054 121.565C108.151 120.182 109.891 118.308 111.185 116.122C111.72 115.498 112.166 114.739 112.523 113.936C112.657 113.713 112.211 113.133 112.077 112.91C112.032 112.865 111.363 111.973 111.318 112.062C109.489 115.721 106.634 119.691 102.485 120.941C102.217 120.985 101.95 121.03 101.682 121.119C101.459 121.253 101.28 121.788 101.147 122.011C100.834 122.502 100.477 122.993 100.076 123.439C98.6035 125.09 96.7298 126.383 94.6775 127.142C92.8038 127.856 90.7961 128.302 88.7439 128.346C87.1378 128.436 85.5763 128.257 84.0595 127.766C83.7918 127.677 83.5687 127.543 83.301 127.41C83.2118 127.365 83.078 127.276 82.9888 127.231L82.9441 127.186C82.8103 127.097 82.9441 127.231 82.8995 127.142C83.078 127.41 83.301 127.722 83.4349 127.99C83.4795 128.079 83.4795 128.168 83.4795 128.034C83.4795 127.9 83.4795 127.99 83.4349 127.99L83.3903 127.811C83.301 127.499 83.2118 127.231 83.1672 126.919C82.8103 125.134 82.498 123.305 82.3195 121.476C81.918 118.219 81.695 114.918 81.3827 111.661V111.482C81.2934 111.081 81.115 110.679 80.8473 110.367C80.7135 110.189 80.4458 109.653 80.1781 109.653C77.5905 109.609 75.0475 108.716 72.9507 107.155C72.5938 106.843 72.2369 106.53 71.9246 106.173C71.7461 105.995 71.5676 105.772 71.4784 105.549C70.9877 104.433 70.7646 103.229 70.8984 102.024C71.0323 99.9721 72.2815 98.143 74.1552 97.2953C76.5198 96.2246 79.0627 97.3399 80.535 99.3029C80.5796 99.3475 81.0258 99.7937 80.9811 99.6152C80.2673 94.3954 78.8397 89.2648 76.6536 84.4466C75.7167 82.4389 74.6014 80.5206 73.263 78.736L74.066 80.2529C76.7875 79.0483 79.5981 78.0668 82.4088 77.1299C87.3609 75.5238 92.6253 74.0516 97.8897 74.1408C100.12 74.1854 102.619 74.5423 104.314 76.1484L103.466 74.8992C103.288 74.4977 103.422 74.81 103.466 74.8992C103.556 75.0777 103.645 75.3008 103.734 75.4792C104.046 76.193 104.314 76.9068 104.626 77.5761C105.608 79.9406 106.545 82.3051 107.437 84.6696C109.668 90.7371 111.72 97.1168 112.345 103.586C112.612 106.352 112.701 109.519 111.452 112.107C111.318 112.375 111.765 112.955 111.898 113.133C111.809 113.178 112.478 114.025 112.523 113.936Z" fill="#000005"/>
<path d="M101.28 101.713C101.28 101.713 117.386 99.6158 117.921 90.8269C118.456 82.038 106.232 81.2795 99.4062 90.4253" fill="white"/>
<path d="M100.875 102.292C102.704 102.025 104.533 101.623 106.318 101.132C109.575 100.195 112.832 98.9016 115.464 96.7155C118.096 94.5295 119.657 91.3619 118.765 87.9713C117.873 84.5806 114.438 83.153 111.136 83.2422C106.05 83.4207 101.41 86.499 98.4214 90.4696C98.1091 90.8711 98.7337 91.005 99.0013 90.9604C99.5367 90.9158 100.027 90.6927 100.384 90.2912C101.678 88.5512 103.284 87.079 105.113 86.0083C106.496 85.1606 108.013 84.6252 109.619 84.4914C112.43 84.2237 115.419 85.3391 116.445 88.1943C117.471 91.0496 116.401 94.128 114.17 96.1356C111.939 98.1432 109.441 99.0801 106.675 99.9277L106.095 100.106L105.872 100.151C105.604 100.24 106.05 100.106 105.783 100.195L104.757 100.463C104.177 100.597 103.597 100.731 103.017 100.865L101.812 101.088H101.723H101.678C101.232 101.132 100.518 101.311 100.295 101.757C100.072 102.203 100.518 102.337 100.875 102.292Z" fill="#000005"/>
<path d="M107.167 105.46C107.212 105.37 107.256 105.236 107.301 105.147L107.212 105.326C107.301 105.147 107.39 105.013 107.479 104.88L107.345 105.058C107.435 104.969 107.524 104.835 107.658 104.746L107.479 104.88C107.568 104.79 107.658 104.746 107.792 104.656L107.613 104.746C107.702 104.701 107.836 104.612 107.97 104.567L107.792 104.612C107.881 104.567 107.97 104.567 108.059 104.523C108.282 104.478 108.461 104.344 108.639 104.21C108.773 104.076 108.862 103.898 108.907 103.72C108.951 103.541 108.862 103.407 108.728 103.318C108.595 103.229 108.371 103.229 108.238 103.273C107.167 103.497 106.319 104.255 105.873 105.236C105.873 105.281 105.829 105.326 105.829 105.415C105.695 105.638 105.784 105.906 106.007 106.039C106.096 106.084 106.185 106.084 106.275 106.084C106.498 106.084 106.676 105.995 106.855 105.906C106.944 105.816 107.078 105.638 107.167 105.46Z" fill="#000005"/>
<path d="M97.5732 85.6954C97.5732 85.6954 96.2348 86.4984 97.127 87.703C98.0193 88.9075 99.4916 87.7922 99.0454 86.543C98.9116 85.9184 98.3316 85.5169 97.707 85.6507C97.6624 85.6954 97.6178 85.6954 97.5732 85.6954Z" fill="#000005"/>
<path d="M88.1169 88.7295C88.1169 88.7295 86.8231 89.5326 87.6708 90.7372C88.5184 91.9417 90.0353 90.8264 89.5891 89.5772C89.4553 88.9526 88.8753 88.5511 88.2507 88.6849C88.2061 88.6849 88.1615 88.7295 88.1169 88.7295Z" fill="#000005"/>
<path d="M59.9676 133.433C59.9676 133.433 49.0818 117.372 57.7815 114.026C57.7815 114.026 58.6738 106.575 60.3245 103.363C61.9752 100.151 64.4735 101.043 64.9643 102.515C64.9643 102.515 68.8457 98.991 70.0502 103.408C70.0502 103.408 73.084 100.865 74.7347 105.148C76.0285 108.494 74.6008 113.714 76.1177 117.283C77.2777 120.004 80.6237 125.848 78.7499 135.217C76.8761 144.586 75.4039 215.567 44.2189 207.001C13.034 198.435 59.9676 133.433 59.9676 133.433Z" fill="white"/>
<path d="M61.0355 133.209L60.9909 133.165L60.7678 132.852C60.5002 132.451 60.2771 132.049 60.054 131.692C59.2956 130.399 58.5818 129.105 57.9572 127.766C57.1541 126.16 56.5295 124.465 56.0388 122.725C55.548 121.164 55.4142 119.468 55.6373 117.862C55.905 116.212 57.0203 114.828 58.5818 114.204C58.671 114.159 58.8495 114.115 58.8941 113.981C59.0725 112.375 59.3848 110.724 59.6971 109.118C59.9202 107.824 60.2771 106.575 60.634 105.281C61.0355 104.077 61.5263 102.694 62.5078 101.846C62.6416 101.757 62.7755 101.623 62.9093 101.578C63.0431 101.489 63.2216 101.534 62.9539 101.534C62.2847 101.534 62.597 101.534 62.9093 101.712C63.3554 101.935 63.6677 102.292 63.8462 102.783C63.9354 103.05 64.6492 102.961 64.8277 102.961C65.2292 102.961 65.6753 102.827 66.0323 102.604C66.4784 102.203 67.0138 101.891 67.5491 101.667C67.5937 101.667 67.683 101.623 67.5937 101.667C67.6383 101.623 67.683 101.623 67.7722 101.623C67.6384 101.623 67.4599 101.623 67.3261 101.667C67.4153 101.667 67.3261 101.667 67.4599 101.712C67.5491 101.757 67.6384 101.801 67.7722 101.846C68.4414 102.247 68.7537 103.006 68.9321 103.72C69.0214 103.987 69.7352 103.898 69.9137 103.898C70.3152 103.898 70.7613 103.764 71.1182 103.541L71.3859 103.363L71.5644 103.274L71.6536 103.229C71.7428 103.184 71.832 103.184 71.8766 103.14C71.832 103.184 71.7428 103.14 71.832 103.14C71.7428 103.14 71.6536 103.184 71.5644 103.184C71.4751 103.184 71.4751 103.229 71.5197 103.184C71.5644 103.14 71.5197 103.184 71.5644 103.184C71.7874 103.229 72.0105 103.363 72.1889 103.497C72.7243 103.943 73.1258 104.478 73.3935 105.147C74.0181 106.575 74.1073 108.181 74.1073 109.743C74.1519 111.438 74.0627 113.133 74.1966 114.784C74.3304 116.033 74.6873 117.238 75.2227 118.398C75.6242 119.245 75.9811 120.093 76.338 120.941C77.3195 123.439 77.9441 126.116 78.078 128.793C78.1672 130.577 78.078 132.362 77.8103 134.146C77.721 134.86 77.5426 135.529 77.4534 136.243C77.3195 137.091 77.2303 137.894 77.1411 138.741C76.8734 141.284 76.6057 143.872 76.3826 146.415C76.0257 149.85 75.6688 153.285 75.2227 156.721C74.7319 160.647 74.1073 164.617 73.3935 168.499C72.6351 172.514 71.7874 176.529 70.7167 180.5C69.6906 184.292 68.3968 187.995 66.8353 191.609C65.4969 194.821 63.7123 197.855 61.6155 200.621C59.7863 202.941 57.4664 205.082 54.8342 206.331C54.5665 206.465 54.2096 206.599 53.8973 206.733L53.4066 206.911L53.2281 206.956L53.0051 207L52.5143 207.134L52.2466 207.179C51.9789 207.223 52.2912 207.179 52.1574 207.179L51.622 207.268L51.3544 207.313H51.4436C51.399 207.313 51.3097 207.313 51.2651 207.357L50.7298 207.402H50.6851H50.3729C50.1944 207.402 50.0159 207.402 49.8375 207.402H49.4806C48.7221 207.402 47.9637 207.313 47.2053 207.179C44.1715 206.688 41.1824 205.528 38.9071 203.387C36.9441 201.468 35.6057 199.015 35.0704 196.338C34.4012 193.259 34.535 190.092 34.9811 186.969C35.5611 183.311 36.4534 179.741 37.7026 176.262C39.041 172.469 40.5578 168.722 42.2978 165.064C43.9931 161.405 45.8669 157.836 47.8299 154.312C49.6144 151.144 51.4436 147.976 53.362 144.898C54.8342 142.489 56.3957 140.124 57.9572 137.76C58.8495 136.422 59.7417 135.128 60.6786 133.789L61.0355 133.299C61.2586 133.031 60.3217 133.031 60.2325 133.031C59.8756 133.031 59.1171 133.075 58.8941 133.388C58.3587 134.102 57.868 134.86 57.3772 135.574C56.0388 137.537 54.7004 139.5 53.4512 141.507C51.622 144.363 49.8375 147.263 48.1422 150.163C46.1346 153.598 44.1715 157.122 42.387 160.691C40.5132 164.394 38.7287 168.186 37.2118 172.068C35.7396 175.726 34.4904 179.474 33.5981 183.311C32.7504 186.612 32.3935 190.047 32.5274 193.482C32.7058 196.338 33.375 199.193 34.9811 201.602C36.6764 204.056 39.1302 205.885 41.9855 206.822C45.3761 208.026 49.0344 208.339 52.6035 207.67C55.6819 207.045 58.5818 205.617 60.9463 203.521C63.4 201.29 65.4523 198.613 67.0138 195.668C68.8429 192.322 70.3598 188.753 71.5197 185.14C72.8135 181.214 73.8843 177.198 74.7319 173.139C75.6242 169.079 76.338 164.974 76.918 160.87C77.4534 157.122 77.9441 153.419 78.3456 149.672C78.6579 146.683 78.9702 143.649 79.2825 140.66C79.461 138.831 79.5948 136.957 79.9517 135.128C80.6209 131.871 80.6655 128.525 80.1302 125.223C79.684 122.904 78.9256 120.628 77.9441 118.442C77.4534 117.505 77.0965 116.524 76.8734 115.498C76.6057 113.847 76.4719 112.107 76.5611 110.412C76.5611 108.806 76.6057 107.155 76.2042 105.593C75.8919 104.344 75.2227 102.961 73.9735 102.47C72.5012 101.846 70.3598 102.337 69.1552 103.363L71.3413 103.184C71.0736 102.337 70.6721 101.444 69.8244 101.043C68.9768 100.641 67.7722 100.775 66.8353 100.998C65.8092 101.266 64.8277 101.757 64.0693 102.515L66.2553 102.337C65.8538 101.177 64.6492 100.775 63.4893 100.82C61.794 100.82 60.2325 101.801 59.474 103.363C58.8495 104.657 58.4033 105.995 58.091 107.378C57.7341 108.806 57.4664 110.233 57.2434 111.706C57.1095 112.509 56.9757 113.312 56.8864 114.115L57.1987 113.892C55.6819 114.427 54.4327 115.632 53.8973 117.148C53.362 118.71 53.4958 120.45 53.8527 122.011C54.5665 125.357 56.128 128.57 57.868 131.514C58.2695 132.228 58.7156 132.942 59.1617 133.611C59.2064 134.057 61.2586 133.566 61.0355 133.209Z" fill="#000005"/>
<path d="M70.3174 120.539C69.782 118.576 69.3805 116.613 69.0682 114.561C68.7113 111.884 69.2912 109.296 70.1389 106.753C70.362 106.129 70.585 105.504 70.8527 104.879C70.9866 104.522 71.165 104.166 71.4327 103.853C71.8342 103.452 69.8712 102.604 69.4251 103.05C68.8005 103.675 68.4882 104.701 68.2205 105.504C67.7298 106.842 67.3729 108.225 67.0606 109.653C66.5252 112.33 66.9713 114.962 67.5513 117.594C67.7298 118.442 67.9528 119.334 68.1759 120.182C68.3544 120.717 70.4512 121.074 70.3174 120.539Z" fill="#000005"/>
<path d="M58.8947 117.639C58.8947 116.39 58.8947 115.141 58.8501 113.891C58.8501 113.356 58.2255 113.133 57.7794 113.222C57.3333 113.311 56.6641 113.668 56.6641 114.204C56.6641 115.453 56.7087 116.702 56.7087 117.951C56.7087 118.487 57.3333 118.71 57.7794 118.621C58.2255 118.531 58.8947 118.174 58.8947 117.639Z" fill="#000005"/>
<path d="M64.0703 102.56C63.4457 103.675 62.8657 104.88 62.4642 106.084C61.4827 108.672 61.0365 111.393 61.0812 114.159C61.1704 115.989 61.5719 117.818 62.2857 119.513C62.598 120.272 64.5164 119.201 64.2041 118.353C62.2411 113.624 63.1334 108.137 65.3195 103.631C65.4979 103.274 65.6764 102.872 65.8994 102.515C66.1225 102.158 65.8548 101.757 65.4087 101.757C64.8287 101.757 64.338 102.069 64.0703 102.56Z" fill="#000005"/>
<path d="M113.146 197.498C109.845 199.283 111.808 204.458 107.391 207.848C103.554 210.793 101.904 207.224 101.904 207.224C98.3346 212.354 94.7209 207.179 94.7209 207.179C87.7165 211.641 90.1703 192.992 90.1703 192.992C88.1181 195.134 82.3183 206.51 78.5707 204.815C74.8232 203.119 82.6306 176.797 103.153 173.585C123.675 170.373 155.797 172.158 169.315 176.619C169.315 176.619 182.164 192.011 165.211 201.246C148.257 210.481 113.146 197.498 113.146 197.498Z" fill="white"/>
<path d="M112.565 196.561C110.2 197.855 110.156 200.889 109.397 203.164C108.951 204.592 108.104 205.841 106.944 206.822C106.319 207.358 105.605 207.759 104.802 207.938C104.356 208.027 103.91 207.982 103.508 207.804C103.464 207.804 103.33 207.714 103.419 207.759C103.508 207.804 103.33 207.67 103.33 207.67C103.241 207.625 103.062 207.447 103.241 207.581C103.151 207.536 103.107 207.447 103.018 207.358C102.884 207.224 102.884 207.179 102.973 207.313L102.705 206.956C102.527 206.733 102.794 207.179 102.75 207.045C102.527 206.599 101.679 205.751 101.233 206.421C100.207 207.848 98.7346 208.964 97.0393 208.116C96.8162 207.982 96.5932 207.848 96.3701 207.67C96.3255 207.625 96.2363 207.581 96.1917 207.536C96.2809 207.625 96.2363 207.581 96.147 207.491L95.8794 207.224C95.7455 207.045 95.6117 206.867 95.4332 206.733C95.5671 206.911 95.6117 206.911 95.4332 206.733C95.1655 206.376 94.6302 205.93 94.184 206.242C93.7379 206.599 93.1579 206.822 92.5779 206.867C92.801 206.867 92.4441 206.867 92.3549 206.867C92.2656 206.867 92.2656 206.867 92.1764 206.822C92.0872 206.778 92.3103 206.911 92.1764 206.822C92.1318 206.778 92.0872 206.778 92.0426 206.778C91.9087 206.733 92.221 206.911 92.0872 206.822C92.0426 206.778 91.998 206.778 91.9533 206.733C91.7749 206.644 91.998 206.733 91.998 206.733C91.9534 206.644 91.8195 206.555 91.7749 206.51C91.7303 206.465 91.9087 206.733 91.8195 206.555C91.7749 206.51 91.7303 206.421 91.6857 206.376C91.6411 206.331 91.6411 206.287 91.5964 206.198C91.6857 206.331 91.6857 206.376 91.5964 206.242C91.5072 206.108 91.4626 205.975 91.418 205.841C91.3734 205.707 91.3288 205.573 91.2395 205.395C91.3288 205.662 91.1949 205.216 91.1503 205.127C91.0611 204.815 91.0165 204.458 90.9272 204.145C90.838 203.833 90.838 203.432 90.7934 203.075C90.7488 202.807 90.7934 202.985 90.7488 202.718C90.7488 202.539 90.7042 202.316 90.7042 202.138C90.6596 201.335 90.6596 200.576 90.6596 199.773C90.6596 198.39 90.7488 197.007 90.838 195.58C90.8826 194.866 90.9718 194.152 91.0611 193.438C91.1503 192.724 90.0796 191.609 89.4104 192.278C88.3843 193.394 87.5812 194.777 86.7336 196.026C85.6182 197.81 84.369 199.506 83.0306 201.112C82.4506 201.825 81.826 202.45 81.1122 203.03C80.6215 203.476 79.9969 203.833 79.3277 203.967L79.1046 204.012C79.06 204.012 79.1938 204.012 79.06 204.012H78.8369H78.7477C78.5246 203.967 78.8369 204.056 78.7477 204.012C78.5692 203.922 78.48 203.878 78.7031 204.012C78.48 203.878 78.7477 204.056 78.7477 204.056C78.5246 203.878 78.8369 204.101 78.7923 204.145C78.7477 204.19 78.7031 203.967 78.7031 203.967C78.7923 204.101 78.7923 204.235 78.7477 204.012C78.7031 203.788 78.7031 203.833 78.7477 204.012C78.7031 203.833 78.6585 203.655 78.6585 203.476C78.6585 203.298 78.6139 203.119 78.6585 203.387C78.6585 203.253 78.6585 203.164 78.6139 203.03C78.6139 202.539 78.6139 202.004 78.6585 201.513C78.6585 201.379 78.7031 201.246 78.7031 201.112C78.7031 200.978 78.7031 201.112 78.7031 201.067C78.7031 201.022 78.7477 200.889 78.7477 200.844C78.7923 200.532 78.8369 200.219 78.9262 199.907C79.06 199.238 79.2384 198.524 79.4615 197.855C80.4876 194.553 81.9599 191.386 83.8337 188.531C85.9751 185.14 88.7412 182.106 91.9533 179.652C95.4778 176.976 99.6269 175.191 103.999 174.522C109.263 173.763 114.572 173.273 119.882 173.094C125.637 172.871 131.392 172.916 137.147 173.139C142.679 173.362 148.211 173.763 153.654 174.433C158.115 174.923 162.577 175.726 166.904 176.842C167.663 177.065 168.51 177.288 169.313 177.556L168.867 177.243C168.644 176.931 169.046 177.466 168.867 177.243C169.001 177.422 169.135 177.6 169.269 177.779C169.715 178.403 170.161 179.073 170.563 179.742C170.697 179.965 170.786 180.143 170.92 180.366C170.964 180.411 171.009 180.545 170.875 180.322L170.964 180.5L171.187 180.902C171.455 181.392 171.678 181.928 171.901 182.463C171.99 182.731 172.124 182.999 172.213 183.311C172.258 183.445 172.303 183.578 172.347 183.712C172.392 183.802 172.392 183.846 172.436 183.935C172.526 184.248 172.392 183.712 172.481 184.025C172.66 184.649 172.793 185.274 172.927 185.898C173.195 187.192 173.239 188.531 173.061 189.824C172.883 191.207 172.436 192.546 171.767 193.795C169.983 197.052 166.726 199.416 163.38 200.978C157.357 203.744 150.219 203.878 143.705 203.387C136.924 202.807 130.232 201.602 123.674 199.818C120.238 198.926 116.803 197.81 113.368 196.65L113.234 196.606C112.922 196.472 112.565 196.606 112.386 196.918C112.342 197.007 112.342 197.096 112.342 197.186C112.342 197.766 112.699 198.256 113.189 198.524C117.071 199.907 120.997 201.112 125.012 202.093C132.864 204.101 141.028 205.618 149.193 205.662C157.357 205.707 166.592 204.056 171.99 197.32C174.266 194.464 175.247 190.806 174.756 187.192C174.355 184.248 173.329 181.437 171.767 178.939C171.321 178.18 170.875 177.466 170.34 176.753C170.161 176.53 169.983 176.306 169.804 176.083C169.403 175.682 168.823 175.548 168.287 175.414C164.584 174.343 160.792 173.54 156.955 173.05C147.007 171.622 136.924 170.953 126.841 171.042C121.666 171.042 116.491 171.221 111.316 171.667C108.996 171.89 106.631 172.113 104.311 172.425C102.17 172.693 100.073 173.184 98.0654 173.853C90.8826 176.44 85.1721 181.972 81.3353 188.531C79.7292 191.207 78.48 194.063 77.5877 197.052C77.0078 199.059 76.4724 201.379 76.8739 203.476C77.0078 204.368 77.4539 205.172 78.1231 205.707C79.2384 206.465 80.6215 206.153 81.6922 205.484C83.1645 204.547 84.3244 203.119 85.3505 201.781C86.5105 200.264 87.5812 198.703 88.6073 197.096C89.2765 195.981 90.035 194.91 90.8826 193.929L89.2319 192.769C88.9642 194.866 88.8304 197.007 88.8304 199.104C88.7858 200.799 88.9196 202.495 89.1873 204.145C89.455 205.528 89.9011 207.09 90.9719 208.116C92.2656 209.365 93.8717 209.142 95.2994 208.25L94.0502 207.759C94.8086 208.83 95.7901 209.678 96.9947 210.257C97.8424 210.659 98.8239 210.748 99.7161 210.525C100.965 210.168 101.902 209.187 102.661 208.161L101.144 207.536C102.036 209.41 104.133 210.704 106.23 209.945C107.97 209.231 109.442 207.982 110.334 206.287C111.003 204.904 111.494 203.476 111.806 201.959C112.163 200.621 112.52 199.283 113.859 198.569C114.662 197.899 113.457 196.026 112.565 196.561Z" fill="#000005"/>
<path d="M97.1313 187.638C96.4174 189.021 95.8375 190.449 95.3467 191.921C94.2314 194.955 93.5622 198.167 93.4729 201.424C93.4283 203.387 93.7406 205.305 94.3652 207.134C94.7221 208.116 96.9528 207.893 96.5513 206.822C95.3913 203.699 95.5698 200.264 96.239 197.051C96.7744 194.508 97.5774 192.01 98.6035 189.601C98.8266 189.11 99.0497 188.664 99.2727 188.173C99.7635 187.147 97.5774 186.701 97.1313 187.638Z" fill="#000005"/>
<path d="M104.804 187.325C104.046 188.708 103.377 190.136 102.841 191.608C101.592 194.597 100.834 197.72 100.521 200.977C100.343 202.851 100.566 204.725 101.101 206.509C101.324 206.911 101.592 207.268 101.994 207.535C102.083 207.58 102.797 208.071 102.752 207.892C101.726 204.68 102.083 201.2 102.886 197.988C103.555 195.356 104.537 192.768 105.741 190.315C105.964 189.824 106.232 189.333 106.5 188.842C106.634 188.441 104.894 187.192 104.804 187.325Z" fill="#000005"/>
<path d="M183.463 69.459C183.245 69.531 182.946 69.777 182.662 70.1801C182.537 70.3573 182.566 70.5471 182.598 70.701C182.63 70.8549 182.695 70.9846 182.809 71.0546C182.923 71.1245 183.084 71.1307 183.214 71.0858C183.467 70.999 183.6 70.7365 183.691 70.5087C183.722 70.3897 183.722 70.2641 183.692 70.1388C183.661 70.0136 183.601 69.8925 183.538 69.4742" stroke="#D54407" stroke-width="2" stroke-linecap="round"/>
<path d="M198.147 72.1354C198.123 72.1594 198.111 72.3015 198.153 72.5461C198.173 72.6666 198.279 72.7569 198.441 72.755C198.854 72.7499 199.241 72.3588 199.491 72.009C199.601 71.8546 199.615 71.7068 199.484 71.6298C199.109 71.4103 198.618 71.5937 198.379 71.7409C198.268 71.8092 198.217 71.9187 198.186 72.0306C198.154 72.1424 198.154 72.2673 198.202 72.3676C198.25 72.4679 198.346 72.5399 198.664 72.7595" stroke="#D54407" stroke-width="2" stroke-linecap="round"/>
</svg>
