<svg width="80" height="80" viewBox="0 0 80 80" fill="none" xmlns="http://www.w3.org/2000/svg">
<path d="M8.22949 58.2326V21.8774L39.0967 3.375V40.5142L8.22949 58.2326Z" fill="#E5E7EB"/>
<path d="M8.22955 58.3911C8.13995 58.3911 8.07275 58.3239 8.07275 58.2343V21.8791C8.07275 21.8343 8.09515 21.7671 8.13995 21.7447L39.0072 3.21992C39.052 3.19753 39.1192 3.19753 39.164 3.21992C39.2088 3.24232 39.2312 3.30952 39.2536 3.35432V40.5159C39.2536 40.5831 39.2312 40.6279 39.164 40.6503L8.29675 58.3687C8.27435 58.3911 8.25195 58.3911 8.22955 58.3911ZM8.38635 21.9911V57.9655L38.94 40.4487V3.64552L8.38635 21.9911Z" fill="#1E1B4B"/>
<path d="M39.0967 40.5142L70.7703 58.2326V21.5414L39.0967 3.375V40.5142Z" fill="white"/>
<path d="M70.7703 58.3922C70.7479 58.3922 70.7255 58.3922 70.7031 58.3698L39.0295 40.6738C38.9847 40.6514 38.9399 40.5842 38.9399 40.5394V3.37776C38.9399 3.31056 38.9623 3.26576 39.0295 3.24336C39.0743 3.22096 39.1415 3.22096 39.1863 3.24336L70.8599 21.4098C70.9047 21.4322 70.9271 21.4994 70.9495 21.5442V58.2354C70.9495 58.2802 70.9271 58.3474 70.8823 58.3698C70.8375 58.3698 70.7927 58.3922 70.7703 58.3922ZM39.2535 40.4274L70.6135 57.9442V21.6338L39.2535 3.64656V40.4274Z" fill="#1E1B4B"/>
<path d="M8.22949 58.234L39.0967 76.6244L70.7703 58.234L39.0967 40.5156L8.22949 58.234Z" fill="white"/>
<path d="M39.0968 76.7811C39.0744 76.7811 39.0296 76.7811 39.0072 76.7587L8.13995 58.3683C8.09515 58.3459 8.07275 58.2787 8.07275 58.2339C8.07275 58.1891 8.09515 58.1219 8.13995 58.0995L39.0072 40.4035C39.052 40.3811 39.1192 40.3811 39.164 40.4035L70.8376 58.0995C70.9048 58.1443 70.9496 58.2339 70.9048 58.3235C70.8824 58.3459 70.86 58.3683 70.8376 58.3907L39.164 76.7811C39.1416 76.7811 39.1192 76.7811 39.0968 76.7811ZM8.54316 58.2339L39.0968 76.4451L70.4568 58.2339L39.0968 40.7171L8.54316 58.2339Z" fill="#1E1B4B"/>
<path d="M39.4999 58.2347L18.2871 64.2155L8.22949 58.2347L23.6631 49.3867L39.4999 58.2347Z" fill="#1E1B4B"/>
<path d="M18.2872 64.3712C18.2648 64.3712 18.22 64.3712 18.1976 64.3488L8.13995 58.368C8.09515 58.3456 8.07275 58.2784 8.07275 58.2336C8.07275 58.1888 8.09515 58.1216 8.13995 58.0992L23.5736 49.2512C23.6184 49.2288 23.6856 49.2288 23.7304 49.2512L39.5672 58.0992C39.6344 58.144 39.6792 58.2336 39.6344 58.3232C39.612 58.368 39.5896 58.3904 39.5448 58.3904L18.332 64.3936L18.2872 64.3712ZM8.54316 58.2336L18.3096 64.0576L39.0968 58.1888L23.6632 49.5648L8.54316 58.2336Z" fill="#1E1B4B"/>
<path d="M66.5591 38.2748C66.5367 38.2748 66.4919 38.2748 66.4695 38.2524L59.6599 34.4892C59.6151 34.4668 59.5703 34.3996 59.5703 34.3324V22.7964C59.5703 22.7068 59.6599 22.6172 59.7495 22.6172C59.7719 22.6172 59.8167 22.6172 59.8391 22.6396L66.6711 26.582C66.7159 26.6044 66.7607 26.6716 66.7607 26.7388V38.0956C66.7383 38.1852 66.6711 38.2748 66.5591 38.2748C66.5815 38.2748 66.5815 38.2748 66.5591 38.2748ZM59.9063 34.2204L66.3799 37.8044V26.8284L59.9063 23.0876V34.2204Z" fill="#E5E7EB"/>
<path d="M39.5 58.233V39.7754L54.9336 30.793V49.385L39.5 58.233Z" fill="#A5B4FC"/>
<path d="M39.5 58.3897C39.4776 58.3897 39.4552 58.3897 39.4104 58.3673C39.3656 58.3449 39.3432 58.2777 39.3208 58.2329V39.7753C39.3208 39.7305 39.3432 39.6633 39.4104 39.6409L54.844 30.6809C54.8888 30.6585 54.956 30.6585 55.0008 30.6809C55.0456 30.7033 55.0904 30.7705 55.0904 30.8153V49.3849C55.0904 49.4297 55.068 49.4969 55.0008 49.5193L39.5896 58.3673C39.5448 58.3897 39.5224 58.3897 39.5 58.3897ZM39.6568 39.8649V57.9641L54.7768 49.2953V31.0841L39.6568 39.8649Z" fill="#1E1B4B"/>
<path d="M39.4999 58.233L23.6631 49.385V30.793L39.4999 39.7754V58.233Z" fill="#A5B4FC"/>
<path d="M39.4999 58.3897C39.4775 58.3897 39.4551 58.3897 39.4327 58.3673L23.5959 49.5193C23.5511 49.4969 23.5063 49.4297 23.5063 49.3849V30.8153C23.5063 30.7481 23.5287 30.7033 23.5959 30.6809C23.6407 30.6585 23.7079 30.6585 23.7527 30.6809L39.5895 39.6409C39.6343 39.6633 39.6791 39.7305 39.6791 39.7753V58.2329C39.6791 58.2777 39.6567 58.3449 39.5895 58.3673C39.5671 58.3673 39.5223 58.3897 39.4999 58.3897ZM23.8199 49.2729L39.3431 57.9417V39.8425L23.8199 31.0617V49.2729Z" fill="#1E1B4B"/>
<path d="M23.6631 30.7928L39.0967 21.7656L54.9335 30.7928L39.4999 39.7752L23.6631 30.7928Z" fill="#A5B4FC"/>
<path d="M39.4999 39.9309C39.4775 39.9309 39.4551 39.9309 39.4103 39.9085L23.5735 30.9485C23.5287 30.9261 23.5063 30.8589 23.4839 30.8141C23.4839 30.7469 23.5063 30.7021 23.5735 30.6797L39.0071 21.6301C39.0519 21.6077 39.1191 21.6077 39.1639 21.6301L55.0007 30.6573C55.0455 30.6797 55.0903 30.7469 55.0903 30.7917C55.0903 30.8589 55.0679 30.9037 55.0007 30.9261L39.5671 39.8861C39.5447 39.9085 39.5223 39.9085 39.4999 39.9309ZM23.9767 30.7917L39.4999 39.5725L54.6199 30.7917L39.0967 21.9437L23.9767 30.7917Z" fill="#1E1B4B"/>
</svg>
