<svg width="126" height="112" viewBox="0 0 126 112" fill="none" xmlns="http://www.w3.org/2000/svg">
<rect x="1.34253" y="1.18066" width="124.157" height="109.336" rx="4.5" stroke="#E4EBF0"/>
<rect x="15.3425" y="41.1807" width="97" height="34" rx="1.5" stroke="#C8D0D7"/>
<rect x="14.8425" y="34.6807" width="26" height="2" fill="#E4EBF0"/>
<rect x="14.8425" y="49.6807" width="98" height="1" fill="#C8D0D7"/>
<rect x="18.8425" y="45.6807" width="18" height="1" fill="#E4EBF0"/>
<rect x="18.8425" y="53.6807" width="18" height="1" fill="#E4EBF0"/>
<rect x="18.8425" y="61.6807" width="18" height="1" fill="#E4EBF0"/>
<rect x="18.8425" y="69.6807" width="18" height="1" fill="#E4EBF0"/>
<rect x="68.8425" y="61.6807" width="18" height="1" fill="#E4EBF0"/>
<rect width="98" height="1" transform="matrix(1 0 0 -1 14.8425 58.6807)" fill="#C8D0D7"/>
<rect width="98" height="1" transform="matrix(1 0 0 -1 14.8425 66.6807)" fill="#C8D0D7"/>
<rect width="7" height="1" transform="matrix(0 -1 -1 0 64.8425 65.6807)" fill="#C8D0D7"/>
</svg>
