<svg width="126" height="112" viewBox="0 0 126 112" fill="none" xmlns="http://www.w3.org/2000/svg">
<rect x="1.34253" y="1.18066" width="124.157" height="109.336" rx="4.5" stroke="#E4EBF0"/>
<rect x="36.8425" y="38.6807" width="68" height="4" fill="#E4EBF0"/>
<rect x="36.8425" y="53.6807" width="68" height="5" fill="#E4EBF0"/>
<rect x="36.8425" y="68.6807" width="68" height="4" fill="#E4EBF0"/>
<g clip-path="url(#clip0_5423_20083)">
<path d="M25.8425 36.6807C26.9034 36.6807 27.9208 37.1021 28.671 37.8522C29.4211 38.6024 29.8425 39.6198 29.8425 40.6807C29.8425 41.7415 29.4211 42.7589 28.671 43.5091C27.9208 44.2592 26.9034 44.6807 25.8425 44.6807C24.7817 44.6807 23.7642 44.2592 23.0141 43.5091C22.264 42.7589 21.8425 41.7415 21.8425 40.6807C21.8425 39.6198 22.264 38.6024 23.0141 37.8522C23.7642 37.1021 24.7817 36.6807 25.8425 36.6807V36.6807ZM24.0925 40.4307C24.0262 40.4307 23.9626 40.457 23.9158 40.5039C23.8689 40.5508 23.8425 40.6144 23.8425 40.6807C23.8425 40.747 23.8689 40.8106 23.9158 40.8574C23.9626 40.9043 24.0262 40.9307 24.0925 40.9307H26.989L25.9155 42.0037C25.8923 42.0269 25.8738 42.0545 25.8613 42.0849C25.8487 42.1152 25.8422 42.1478 25.8422 42.1807C25.8422 42.2135 25.8487 42.2461 25.8613 42.2765C25.8738 42.3068 25.8923 42.3344 25.9155 42.3577C25.9388 42.3809 25.9664 42.3993 25.9967 42.4119C26.0271 42.4245 26.0597 42.431 26.0925 42.431C26.1254 42.431 26.158 42.4245 26.1883 42.4119C26.2187 42.3993 26.2463 42.3809 26.2695 42.3577L27.7695 40.8577C27.7928 40.8344 27.8113 40.8069 27.8239 40.7765C27.8365 40.7461 27.843 40.7135 27.843 40.6807C27.843 40.6478 27.8365 40.6152 27.8239 40.5848C27.8113 40.5545 27.7928 40.5269 27.7695 40.5037L26.2695 39.0037C26.2463 38.9804 26.2187 38.962 26.1883 38.9494C26.158 38.9368 26.1254 38.9303 26.0925 38.9303C26.0597 38.9303 26.0271 38.9368 25.9967 38.9494C25.9664 38.962 25.9388 38.9804 25.9155 39.0037C25.8923 39.0269 25.8738 39.0545 25.8613 39.0849C25.8487 39.1152 25.8422 39.1478 25.8422 39.1807C25.8422 39.2135 25.8487 39.2461 25.8613 39.2765C25.8738 39.3068 25.8923 39.3344 25.9155 39.3577L26.989 40.4307H24.0925Z" fill="#C8D0D7"/>
</g>
<g clip-path="url(#clip1_5423_20083)">
<path d="M25.8425 51.6807C26.9034 51.6807 27.9208 52.1021 28.671 52.8522C29.4211 53.6024 29.8425 54.6198 29.8425 55.6807C29.8425 56.7415 29.4211 57.7589 28.671 58.5091C27.9208 59.2592 26.9034 59.6807 25.8425 59.6807C24.7817 59.6807 23.7642 59.2592 23.0141 58.5091C22.264 57.7589 21.8425 56.7415 21.8425 55.6807C21.8425 54.6198 22.264 53.6024 23.0141 52.8522C23.7642 52.1021 24.7817 51.6807 25.8425 51.6807V51.6807ZM24.0925 55.4307C24.0262 55.4307 23.9626 55.457 23.9158 55.5039C23.8689 55.5508 23.8425 55.6144 23.8425 55.6807C23.8425 55.747 23.8689 55.8106 23.9158 55.8574C23.9626 55.9043 24.0262 55.9307 24.0925 55.9307H26.989L25.9155 57.0037C25.8923 57.0269 25.8738 57.0545 25.8613 57.0849C25.8487 57.1152 25.8422 57.1478 25.8422 57.1807C25.8422 57.2135 25.8487 57.2461 25.8613 57.2765C25.8738 57.3068 25.8923 57.3344 25.9155 57.3577C25.9388 57.3809 25.9664 57.3993 25.9967 57.4119C26.0271 57.4245 26.0597 57.431 26.0925 57.431C26.1254 57.431 26.158 57.4245 26.1883 57.4119C26.2187 57.3993 26.2463 57.3809 26.2695 57.3577L27.7695 55.8577C27.7928 55.8344 27.8113 55.8069 27.8239 55.7765C27.8365 55.7461 27.843 55.7135 27.843 55.6807C27.843 55.6478 27.8365 55.6152 27.8239 55.5848C27.8113 55.5545 27.7928 55.5269 27.7695 55.5037L26.2695 54.0037C26.2463 53.9804 26.2187 53.962 26.1883 53.9494C26.158 53.9368 26.1254 53.9303 26.0925 53.9303C26.0597 53.9303 26.0271 53.9368 25.9967 53.9494C25.9664 53.962 25.9388 53.9804 25.9155 54.0037C25.8923 54.0269 25.8738 54.0545 25.8613 54.0849C25.8487 54.1152 25.8422 54.1478 25.8422 54.1807C25.8422 54.2135 25.8487 54.2461 25.8613 54.2765C25.8738 54.3068 25.8923 54.3344 25.9155 54.3577L26.989 55.4307H24.0925Z" fill="#C8D0D7"/>
</g>
<g clip-path="url(#clip2_5423_20083)">
<path d="M25.8425 66.6807C26.9034 66.6807 27.9208 67.1021 28.671 67.8522C29.4211 68.6024 29.8425 69.6198 29.8425 70.6807C29.8425 71.7415 29.4211 72.7589 28.671 73.5091C27.9208 74.2592 26.9034 74.6807 25.8425 74.6807C24.7817 74.6807 23.7642 74.2592 23.0141 73.5091C22.264 72.7589 21.8425 71.7415 21.8425 70.6807C21.8425 69.6198 22.264 68.6024 23.0141 67.8522C23.7642 67.1021 24.7817 66.6807 25.8425 66.6807V66.6807ZM24.0925 70.4307C24.0262 70.4307 23.9626 70.457 23.9158 70.5039C23.8689 70.5508 23.8425 70.6144 23.8425 70.6807C23.8425 70.747 23.8689 70.8106 23.9158 70.8574C23.9626 70.9043 24.0262 70.9307 24.0925 70.9307H26.989L25.9155 72.0037C25.8923 72.0269 25.8738 72.0545 25.8613 72.0849C25.8487 72.1152 25.8422 72.1478 25.8422 72.1807C25.8422 72.2135 25.8487 72.2461 25.8613 72.2765C25.8738 72.3068 25.8923 72.3344 25.9155 72.3577C25.9388 72.3809 25.9664 72.3993 25.9967 72.4119C26.0271 72.4245 26.0597 72.431 26.0925 72.431C26.1254 72.431 26.158 72.4245 26.1883 72.4119C26.2187 72.3993 26.2463 72.3809 26.2695 72.3577L27.7695 70.8577C27.7928 70.8344 27.8113 70.8069 27.8239 70.7765C27.8365 70.7461 27.843 70.7135 27.843 70.6807C27.843 70.6478 27.8365 70.6152 27.8239 70.5848C27.8113 70.5545 27.7928 70.5269 27.7695 70.5037L26.2695 69.0037C26.2463 68.9804 26.2187 68.962 26.1883 68.9494C26.158 68.9368 26.1254 68.9303 26.0925 68.9303C26.0597 68.9303 26.0271 68.9368 25.9967 68.9494C25.9664 68.962 25.9388 68.9804 25.9155 69.0037C25.8923 69.0269 25.8738 69.0545 25.8613 69.0849C25.8487 69.1152 25.8422 69.1478 25.8422 69.1807C25.8422 69.2135 25.8487 69.2461 25.8613 69.2765C25.8738 69.3068 25.8923 69.3344 25.9155 69.3577L26.989 70.4307H24.0925Z" fill="#C8D0D7"/>
</g>
<defs>
<clipPath id="clip0_5423_20083">
<rect width="8" height="8" fill="white" transform="translate(21.8425 36.6807)"/>
</clipPath>
<clipPath id="clip1_5423_20083">
<rect width="8" height="8" fill="white" transform="translate(21.8425 51.6807)"/>
</clipPath>
<clipPath id="clip2_5423_20083">
<rect width="8" height="8" fill="white" transform="translate(21.8425 66.6807)"/>
</clipPath>
</defs>
</svg>
