<svg width="126" height="111" viewBox="0 0 126 111" fill="none" xmlns="http://www.w3.org/2000/svg">
<rect x="1.34253" y="0.516602" width="124.157" height="109.336" rx="4.5" stroke="#E4EBF0"/>
<rect x="14.8425" y="45.0166" width="26" height="2" fill="#E4EBF0"/>
<rect x="15.3425" y="51.5166" width="97" height="12" rx="0.5" stroke="#C8D0D7"/>
<path d="M20.2952 58.7374L20.3293 57.7999L19.5367 58.3027L19.3321 57.9448L20.1674 57.5101L19.3321 57.0755L19.5367 56.7175L20.3293 57.2203L20.2952 56.2828H20.7043L20.6702 57.2203L21.4628 56.7175L21.6674 57.0755L20.8321 57.5101L21.6674 57.9448L21.4628 58.3027L20.6702 57.7999L20.7043 58.7374H20.2952Z" fill="#D9D9D9"/>
<path d="M24.2952 58.7374L24.3293 57.7999L23.5367 58.3027L23.3321 57.9448L24.1674 57.5101L23.3321 57.0755L23.5367 56.7175L24.3293 57.2203L24.2952 56.2828H24.7043L24.6702 57.2203L25.4628 56.7175L25.6674 57.0755L24.8321 57.5101L25.6674 57.9448L25.4628 58.3027L24.6702 57.7999L24.7043 58.7374H24.2952Z" fill="#D9D9D9"/>
<path d="M28.2952 58.7374L28.3293 57.7999L27.5367 58.3027L27.3321 57.9448L28.1674 57.5101L27.3321 57.0755L27.5367 56.7175L28.3293 57.2203L28.2952 56.2828H28.7043L28.6702 57.2203L29.4628 56.7175L29.6674 57.0755L28.8321 57.5101L29.6674 57.9448L29.4628 58.3027L28.6702 57.7999L28.7043 58.7374H28.2952Z" fill="#D9D9D9"/>
<path d="M32.2952 58.7374L32.3293 57.7999L31.5367 58.3027L31.3321 57.9448L32.1674 57.5101L31.3321 57.0755L31.5367 56.7175L32.3293 57.2203L32.2952 56.2828H32.7043L32.6702 57.2203L33.4628 56.7175L33.6674 57.0755L32.8321 57.5101L33.6674 57.9448L33.4628 58.3027L32.6702 57.7999L32.7043 58.7374H32.2952Z" fill="#D9D9D9"/>
<path d="M36.2952 58.7374L36.3293 57.7999L35.5367 58.3027L35.3321 57.9448L36.1674 57.5101L35.3321 57.0755L35.5367 56.7175L36.3293 57.2203L36.2952 56.2828H36.7043L36.6702 57.2203L37.4628 56.7175L37.6674 57.0755L36.8321 57.5101L37.6674 57.9448L37.4628 58.3027L36.6702 57.7999L36.7043 58.7374H36.2952Z" fill="#D9D9D9"/>
<path d="M40.2952 58.7374L40.3293 57.7999L39.5367 58.3027L39.3321 57.9448L40.1674 57.5101L39.3321 57.0755L39.5367 56.7175L40.3293 57.2203L40.2952 56.2828H40.7043L40.6702 57.2203L41.4628 56.7175L41.6674 57.0755L40.8321 57.5101L41.6674 57.9448L41.4628 58.3027L40.6702 57.7999L40.7043 58.7374H40.2952Z" fill="#D9D9D9"/>
<path d="M44.2952 58.7374L44.3293 57.7999L43.5367 58.3027L43.3321 57.9448L44.1674 57.5101L43.3321 57.0755L43.5367 56.7175L44.3293 57.2203L44.2952 56.2828H44.7043L44.6702 57.2203L45.4628 56.7175L45.6674 57.0755L44.8321 57.5101L45.6674 57.9448L45.4628 58.3027L44.6702 57.7999L44.7043 58.7374H44.2952Z" fill="#D9D9D9"/>
<path d="M108.5 56.5V55.25C108.5 54.4216 107.828 53.75 107 53.75C106.172 53.75 105.5 54.4216 105.5 55.25V56.5M105.25 60.25H108.75C109.164 60.25 109.5 59.9142 109.5 59.5V57.25C109.5 56.8358 109.164 56.5 108.75 56.5H105.25C104.836 56.5 104.5 56.8358 104.5 57.25V59.5C104.5 59.9142 104.836 60.25 105.25 60.25Z" stroke="#C8D0D7" stroke-width="0.4" stroke-linecap="round" stroke-linejoin="round"/>
</svg>
