<svg width="126" height="111" viewBox="0 0 126 111" fill="none" xmlns="http://www.w3.org/2000/svg">
<rect x="1.34253" y="0.835938" width="124.157" height="109.336" rx="4.5" stroke="#E4EBF0"/>
<path d="M26.358 53.7843L29.3334 53.3519L30.6634 50.6554C30.6998 50.5815 30.7595 50.5218 30.8334 50.4855C31.0185 50.394 31.2435 50.4702 31.3361 50.6554L32.6662 53.3519L35.6416 53.7843C35.7236 53.796 35.7986 53.8347 35.856 53.8933C35.9254 53.9646 35.9637 54.0606 35.9624 54.1602C35.9611 54.2597 35.9203 54.3546 35.849 54.4241L33.6962 56.523L34.2048 59.4866C34.2168 59.5556 34.2091 59.6265 34.1828 59.6913C34.1565 59.7561 34.1125 59.8123 34.0559 59.8534C33.9993 59.8945 33.9323 59.9189 33.8625 59.9239C33.7928 59.9289 33.723 59.9142 33.6611 59.8815L30.9998 58.4823L28.3384 59.8815C28.2658 59.9202 28.1814 59.9331 28.1005 59.919C27.8966 59.8839 27.7595 59.6905 27.7947 59.4866L28.3033 56.523L26.1505 54.4241C26.092 54.3667 26.0533 54.2917 26.0416 54.2097C26.0099 54.0046 26.1529 53.8148 26.358 53.7843Z" fill="#C8D0D7"/>
<path d="M42.358 53.7843L45.3334 53.3519L46.6634 50.6554C46.6998 50.5815 46.7595 50.5218 46.8334 50.4855C47.0185 50.394 47.2435 50.4702 47.3361 50.6554L48.6662 53.3519L51.6416 53.7843C51.7236 53.796 51.7986 53.8347 51.856 53.8933C51.9254 53.9646 51.9637 54.0606 51.9624 54.1602C51.9611 54.2597 51.9203 54.3546 51.849 54.4241L49.6962 56.523L50.2048 59.4866C50.2168 59.5556 50.2091 59.6265 50.1828 59.6913C50.1565 59.7561 50.1125 59.8123 50.0559 59.8534C49.9993 59.8945 49.9323 59.9189 49.8625 59.9239C49.7928 59.9289 49.723 59.9142 49.6611 59.8815L46.9998 58.4823L44.3384 59.8815C44.2658 59.9202 44.1814 59.9331 44.1005 59.919C43.8966 59.8839 43.7595 59.6905 43.7947 59.4866L44.3033 56.523L42.1505 54.4241C42.092 54.3667 42.0533 54.2917 42.0416 54.2097C42.0099 54.0046 42.1529 53.8148 42.358 53.7843Z" fill="#C8D0D7"/>
<path d="M58.358 53.7843L61.3334 53.3519L62.6634 50.6554C62.6998 50.5815 62.7595 50.5218 62.8334 50.4855C63.0185 50.394 63.2435 50.4702 63.3361 50.6554L64.6662 53.3519L67.6416 53.7843C67.7236 53.796 67.7986 53.8347 67.856 53.8933C67.9254 53.9646 67.9637 54.0606 67.9624 54.1602C67.9611 54.2597 67.9203 54.3546 67.849 54.4241L65.6962 56.523L66.2048 59.4866C66.2168 59.5556 66.2091 59.6265 66.1828 59.6913C66.1565 59.7561 66.1125 59.8123 66.0559 59.8534C65.9993 59.8945 65.9323 59.9189 65.8625 59.9239C65.7928 59.9289 65.723 59.9142 65.6611 59.8815L62.9998 58.4823L60.3384 59.8815C60.2658 59.9202 60.1814 59.9331 60.1005 59.919C59.8966 59.8839 59.7595 59.6905 59.7947 59.4866L60.3033 56.523L58.1505 54.4241C58.092 54.3667 58.0533 54.2917 58.0416 54.2097C58.0099 54.0046 58.1529 53.8148 58.358 53.7843Z" fill="#C8D0D7"/>
<path d="M74.358 53.7843L77.3334 53.3519L78.6634 50.6554C78.6998 50.5815 78.7595 50.5218 78.8334 50.4855C79.0185 50.394 79.2435 50.4702 79.3361 50.6554L80.6662 53.3519L83.6416 53.7843C83.7236 53.796 83.7986 53.8347 83.856 53.8933C83.9254 53.9646 83.9637 54.0606 83.9624 54.1602C83.9611 54.2597 83.9203 54.3546 83.849 54.4241L81.6962 56.523L82.2048 59.4866C82.2168 59.5556 82.2091 59.6265 82.1828 59.6913C82.1565 59.7561 82.1125 59.8123 82.0559 59.8534C81.9993 59.8945 81.9323 59.9189 81.8625 59.9239C81.7928 59.9289 81.723 59.9142 81.6611 59.8815L78.9998 58.4823L76.3384 59.8815C76.2658 59.9202 76.1814 59.9331 76.1005 59.919C75.8966 59.8839 75.7595 59.6905 75.7947 59.4866L76.3033 56.523L74.1505 54.4241C74.092 54.3667 74.0533 54.2917 74.0416 54.2097C74.0099 54.0046 74.1529 53.8148 74.358 53.7843Z" fill="#C8D0D7"/>
<path d="M94.8334 50.4855C94.7595 50.5218 94.6998 50.5815 94.6634 50.6554L94.8334 50.4855ZM94.8334 50.4855C95.0185 50.394 95.2435 50.4702 95.3361 50.6554L94.8334 50.4855ZM92.3384 59.8815C92.2658 59.9202 92.1814 59.9331 92.1005 59.919C91.8966 59.8839 91.7595 59.6905 91.7947 59.4866L92.3384 59.8815ZM93.5127 53.4403L93.4662 53.5347L93.3621 53.5498L90.3874 53.9821C90.3873 53.9821 90.3872 53.9821 90.3871 53.9822C90.2895 53.9968 90.2249 54.0861 90.2392 54.1792L90.2396 54.1814C90.2449 54.219 90.2627 54.2539 90.2904 54.2812C90.2905 54.2812 90.2905 54.2812 90.2905 54.2813L92.4429 56.3798L92.5182 56.4532L92.5004 56.5568L91.9918 59.5205L91.9918 59.5206C91.9755 59.6152 92.039 59.7055 92.1345 59.722L92.1348 59.722C92.1728 59.7286 92.2119 59.7223 92.2445 59.705L92.2454 59.7045L94.9067 58.3053L94.9998 58.2564L95.0928 58.3053L97.7542 59.7045L97.7545 59.7047C97.7833 59.7199 97.8158 59.7267 97.8483 59.7244C97.8808 59.7221 97.912 59.7107 97.9384 59.6916C97.9648 59.6724 97.9853 59.6463 97.9975 59.6161C98.0098 59.5859 98.0133 59.5528 98.0078 59.5207L98.0077 59.5205L97.4991 56.5568L97.4813 56.4532L97.5566 56.3798L99.7094 54.2809L99.7094 54.2809C99.7427 54.2484 99.7618 54.204 99.7624 54.1575C99.763 54.1111 99.7452 54.0663 99.7129 54.033C99.6857 54.0053 99.6508 53.9876 99.6133 53.9823L99.6128 53.9822L96.6374 53.5498L96.5333 53.5347L96.4868 53.4403L95.1572 50.7448C95.1571 50.7447 95.1571 50.7446 95.157 50.7444C95.1132 50.6574 95.0076 50.6225 94.9219 50.6648L94.9217 50.6649C94.8874 50.6817 94.8597 50.7095 94.8429 50.7437L94.8428 50.7439L93.5127 53.4403Z" stroke="#C8D0D7" stroke-width="0.4"/>
</svg>
