<svg width="126" height="111" viewBox="0 0 126 111" fill="none" xmlns="http://www.w3.org/2000/svg">
<rect x="1.34253" y="1.17188" width="124.157" height="109.336" rx="4.5" stroke="#E4EBF0"/>
<rect x="17.8425" y="36.6719" width="91" height="38" rx="3" fill="#C8D0D7"/>
<rect x="40.8425" y="65.6719" width="45" height="2" fill="#E4EBF0"/>
<rect x="31.8425" y="57.6719" width="59" height="3" fill="#E4EBF0"/>
<path fill-rule="evenodd" clip-rule="evenodd" d="M63.7242 44.8384C63.8365 44.8384 63.9353 44.8383 64.0247 44.8402V46.5314L64.0247 46.5427C64.0247 46.7415 64.0247 46.9074 64.0357 47.0429C64.0473 47.1843 64.0723 47.317 64.1362 47.4425C64.2343 47.635 64.3908 47.7915 64.5834 47.8896C64.7089 47.9536 64.8416 47.9786 64.9829 47.9901C65.1185 48.0012 65.2844 48.0012 65.4831 48.0012H65.4831H65.4944H67.1822C67.1875 48.1107 67.1875 48.2346 67.1875 48.3859V48.3859L67.1875 48.417V50.1779V50.1902C67.1875 50.5966 67.1875 50.9186 67.1663 51.1782C67.1446 51.4436 67.0993 51.6683 66.9948 51.8733C66.8254 52.2059 66.555 52.4763 66.2224 52.6457C66.0173 52.7502 65.7927 52.7955 65.5273 52.8172C65.2677 52.8384 64.9457 52.8384 64.5393 52.8384H64.527H63.3363H63.324C62.9176 52.8384 62.5956 52.8384 62.336 52.8172C62.0706 52.7955 61.846 52.7502 61.6409 52.6457C61.3083 52.4763 61.0379 52.2059 60.8685 51.8733C60.764 51.6683 60.7187 51.4436 60.697 51.1782C60.6758 50.9186 60.6758 50.5966 60.6758 50.1902V50.1902V50.1779V47.4988V47.4866V47.4866C60.6758 47.0802 60.6758 46.7581 60.697 46.4986C60.7187 46.2331 60.764 46.0085 60.8685 45.8034C61.0379 45.4709 61.3083 45.2005 61.6409 45.031C61.846 44.9265 62.0706 44.8813 62.336 44.8596C62.5956 44.8384 62.9176 44.8384 63.324 44.8384L63.3363 44.8384H63.6894L63.7242 44.8384ZM66.9744 47.2454C67.0091 47.3094 67.0397 47.3754 67.0661 47.443H65.4944C65.2814 47.443 65.1385 47.4428 65.0284 47.4338C64.9216 47.4251 64.8705 47.4095 64.8368 47.3923C64.7493 47.3477 64.6781 47.2766 64.6335 47.1891C64.6163 47.1554 64.6008 47.1043 64.592 46.9975C64.583 46.8874 64.5828 46.7444 64.5828 46.5314V44.9177C64.723 44.9612 64.8574 45.022 64.9828 45.0988C65.1615 45.2084 65.3122 45.3591 65.5461 45.593L65.5707 45.6176L65.9894 46.0364C65.9945 46.0415 65.9994 46.0467 66.004 46.0521L66.547 46.6856L66.5672 46.7092L66.5672 46.7092L66.5672 46.7092C66.7601 46.9342 66.8845 47.0793 66.9744 47.2454ZM63.9317 48.5593C64.0858 48.5593 64.2107 48.6842 64.2107 48.8384V49.6756H65.0479C65.2021 49.6756 65.327 49.8005 65.327 49.9547C65.327 50.1088 65.2021 50.2337 65.0479 50.2337H64.2107V51.0709C64.2107 51.2251 64.0858 51.35 63.9317 51.35C63.7775 51.35 63.6526 51.2251 63.6526 51.0709V50.2337H62.8154C62.6612 50.2337 62.5363 50.1088 62.5363 49.9547C62.5363 49.8005 62.6612 49.6756 62.8154 49.6756H63.6526V48.8384C63.6526 48.6842 63.7775 48.5593 63.9317 48.5593Z" fill="#E4EBF0"/>
</svg>
